# Blender v2.80 (sub 74) OBJ File: 'tdr_h_shack_inside.blend'
# www.blender.org
mtllib tdr_h_shack_inside.mtl
o Cube.005_Cube.046
v 512.000000 1536.000000 1023.999878
v 512.000000 1536.000000 1120.000000
v 448.000000 1536.000000 1023.999878
v 448.000000 1536.000000 1120.000000
v 512.000000 2559.999756 1023.999878
v 512.000000 2559.999756 1120.000000
v 448.000000 2559.999756 1023.999878
v 448.000000 2559.999756 1120.000000
v 512.000000 -512.000000 1023.999878
v 512.000000 -512.000000 1120.000000
v 448.000000 -512.000000 1023.999878
v 448.000000 -512.000000 1120.000000
v 512.000000 512.000000 1023.999878
v 512.000000 512.000000 1120.000000
v 448.000000 512.000000 1023.999878
v 448.000000 512.000000 1120.000000
v 512.000000 -1536.000000 1023.999878
v 512.000000 -1536.000000 1120.000000
v 448.000000 -1536.000000 1023.999878
v 448.000000 -1536.000000 1120.000000
v 512.000000 -512.000000 1023.999878
v 512.000000 -512.000000 1120.000000
v 448.000000 -512.000000 1023.999878
v 448.000000 -512.000000 1120.000000
v 512.000000 -2559.999756 1023.999878
v 512.000000 -2559.999756 1120.000000
v 448.000000 -2559.999756 1023.999878
v 448.000000 -2559.999756 1120.000000
v 512.000000 -1536.000000 1023.999878
v 512.000000 -1536.000000 1120.000000
v 448.000000 -1536.000000 1023.999878
v 448.000000 -1536.000000 1120.000000
v 512.000000 512.000000 1023.999878
v 512.000000 512.000000 1120.000000
v 448.000000 512.000000 1023.999878
v 448.000000 512.000000 1120.000000
v 512.000000 1536.000000 1023.999878
v 512.000000 1536.000000 1120.000000
v 448.000000 1536.000000 1023.999878
v 448.000000 1536.000000 1120.000000
v 384.000061 2559.999756 1183.999878
v 384.000061 2559.999756 1279.999878
v 384.000061 2496.000000 1183.999878
v 384.000061 2496.000000 1279.999878
v -511.999939 2559.999756 1183.999878
v -511.999939 2559.999756 1279.999878
v -511.999939 2496.000000 1183.999878
v -511.999939 2496.000000 1279.999878
v -511.999939 -2559.999756 1183.999878
v -511.999939 -2559.999756 1279.999878
v -511.999939 -2496.000000 1183.999878
v -511.999939 -2496.000000 1279.999878
v 384.000061 -2559.999756 1183.999878
v 384.000061 -2559.999756 1279.999878
v 384.000061 -2496.000000 1183.999878
v 384.000061 -2496.000000 1279.999878
v -2559.999756 -512.000000 1023.999878
v -2559.999756 -512.000000 1120.000000
v -2496.000000 -512.000000 1023.999878
v -2496.000000 -512.000000 1120.000000
v -2559.999756 512.000000 1023.999878
v -2559.999756 512.000000 1120.000000
v -2496.000000 512.000000 1023.999878
v -2496.000000 512.000000 1120.000000
v -2559.999756 -1536.000000 1023.999878
v -2559.999756 -1536.000000 1120.000000
v -2496.000000 -1536.000000 1023.999878
v -2496.000000 -1536.000000 1120.000000
v -2559.999756 -512.000000 1023.999878
v -2559.999756 -512.000000 1120.000000
v -2496.000000 -512.000000 1023.999878
v -2496.000000 -512.000000 1120.000000
v -2559.999756 -2496.000000 1023.999878
v -2559.999756 -2496.000000 1120.000000
v -2496.000000 -2496.000000 1023.999878
v -2496.000000 -2496.000000 1120.000000
v -2559.999756 -1536.000000 1023.999878
v -2559.999756 -1536.000000 1120.000000
v -2496.000000 -1536.000000 1023.999878
v -2496.000000 -1536.000000 1120.000000
v -2559.999756 512.000000 1023.999878
v -2559.999756 512.000000 1120.000000
v -2496.000000 512.000000 1023.999878
v -2496.000000 512.000000 1120.000000
v -2559.999756 1536.000000 1023.999878
v -2559.999756 1536.000000 1120.000000
v -2496.000000 1536.000000 1023.999878
v -2496.000000 1536.000000 1120.000000
v -2559.999756 1536.000000 1023.999878
v -2559.999756 1536.000000 1120.000000
v -2496.000000 1536.000000 1023.999878
v -2496.000000 1536.000000 1120.000000
v -2559.999756 2496.000000 1023.999878
v -2559.999756 2496.000000 1120.000000
v -2496.000000 2496.000000 1023.999878
v -2496.000000 2496.000000 1120.000000
v -2496.000000 2560.000000 1183.999878
v -2496.000000 2560.000000 1279.999878
v -2496.000000 2496.000000 1183.999878
v -2496.000000 2496.000000 1279.999878
v -1536.000000 2560.000000 1183.999878
v -1536.000000 2560.000000 1279.999878
v -1536.000000 2496.000000 1183.999878
v -1536.000000 2496.000000 1279.999878
v -1536.000000 -2560.000000 1183.999878
v -1536.000000 -2560.000000 1279.999878
v -1536.000000 -2496.000000 1183.999878
v -1536.000000 -2496.000000 1279.999878
v -2496.000000 -2560.000000 1183.999878
v -2496.000000 -2560.000000 1279.999878
v -2496.000000 -2496.000000 1183.999878
v -2496.000000 -2496.000000 1279.999878
v -1536.000000 2560.000000 1183.999878
v -1536.000000 2560.000000 1279.999878
v -1536.000000 2496.000000 1183.999878
v -1536.000000 2496.000000 1279.999878
v -512.000000 2559.999756 1183.999878
v -512.000000 2559.999756 1279.999878
v -512.000000 2496.000000 1183.999878
v -512.000000 2496.000000 1279.999878
v -1536.000000 -2495.999756 1183.999878
v -1536.000000 -2495.999756 1279.999878
v -1536.000000 -2559.999756 1183.999878
v -1536.000000 -2559.999756 1279.999878
v -512.000000 -2496.000000 1183.999878
v -512.000000 -2496.000000 1279.999878
v -512.000000 -2560.000000 1183.999878
v -512.000000 -2560.000000 1279.999878
v 1536.000000 2559.999756 1183.999878
v 1536.000000 2559.999756 1279.999878
v 1536.000000 2496.000000 1183.999878
v 1536.000000 2496.000000 1279.999878
v 448.000061 2559.999756 1183.999878
v 448.000061 2559.999756 1279.999878
v 448.000061 2496.000000 1183.999878
v 448.000061 2496.000000 1279.999878
v 448.000061 -2559.999756 1183.999878
v 448.000061 -2559.999756 1279.999878
v 448.000061 -2496.000000 1183.999878
v 448.000061 -2496.000000 1279.999878
v 1536.000000 -2559.999756 1183.999878
v 1536.000000 -2559.999756 1279.999878
v 1536.000000 -2496.000000 1183.999878
v 1536.000000 -2496.000000 1279.999878
vt 0.468750 0.015625
vt 0.468750 0.109375
vt 0.531250 0.109375
vt 0.531250 0.015625
vt 0.000000 0.015625
vt 0.000000 0.109375
vt 1.000000 0.109375
vt 1.000000 0.015625
vt 0.531250 0.015625
vt 0.531250 0.109375
vt 0.468750 0.109375
vt 0.468750 0.015625
vt 1.000000 0.015625
vt 1.000000 0.109375
vt 0.000000 0.109375
vt 0.000000 0.015625
vt 0.000000 0.093750
vt 1.000000 0.093750
vt 1.000000 0.031250
vt 0.000000 0.031250
vt 1.000000 0.093750
vt 0.000000 0.093750
vt 0.000000 0.031250
vt 1.000000 0.031250
vt 0.468750 0.015625
vt 0.468750 0.109375
vt 0.531250 0.109375
vt 0.531250 0.015625
vt 0.000000 0.015625
vt 0.000000 0.109375
vt 1.000000 0.109375
vt 1.000000 0.015625
vt 0.531250 0.015625
vt 0.531250 0.109375
vt 0.468750 0.109375
vt 0.468750 0.015625
vt 1.000000 0.015625
vt 1.000000 0.109375
vt 0.000000 0.109375
vt 0.000000 0.015625
vt 0.000000 0.093750
vt 1.000000 0.093750
vt 1.000000 0.031250
vt 0.000000 0.031250
vt 1.000000 0.093750
vt 0.000000 0.093750
vt 0.000000 0.031250
vt 1.000000 0.031250
vt 0.468750 0.015625
vt 0.468750 0.109375
vt 0.531250 0.109375
vt 0.531250 0.015625
vt 0.000000 0.015625
vt 0.000000 0.109375
vt 1.000000 0.109375
vt 1.000000 0.015625
vt 0.531250 0.015625
vt 0.531250 0.109375
vt 0.468750 0.109375
vt 0.468750 0.015625
vt 1.000000 0.015625
vt 1.000000 0.109375
vt 0.000000 0.109375
vt 0.000000 0.015625
vt 0.000000 0.093750
vt 1.000000 0.093750
vt 1.000000 0.031250
vt 0.000000 0.031250
vt 1.000000 0.093750
vt 0.000000 0.093750
vt 0.000000 0.031250
vt 1.000000 0.031250
vt 0.468750 0.015625
vt 0.468750 0.109375
vt 0.531250 0.109375
vt 0.531250 0.015625
vt 0.000000 0.015625
vt 0.000000 0.109375
vt 1.000000 0.109375
vt 1.000000 0.015625
vt 0.531250 0.015625
vt 0.531250 0.109375
vt 0.468750 0.109375
vt 0.468750 0.015625
vt 1.000000 0.015625
vt 1.000000 0.109375
vt 0.000000 0.109375
vt 0.000000 0.015625
vt 0.000000 0.093750
vt 1.000000 0.093750
vt 1.000000 0.031250
vt 0.000000 0.031250
vt 1.000000 0.093750
vt 0.000000 0.093750
vt 0.000000 0.031250
vt 1.000000 0.031250
vt 0.468750 0.015625
vt 0.468750 0.109375
vt 0.531250 0.109375
vt 0.531250 0.015625
vt 0.000000 0.015625
vt 0.000000 0.109375
vt 1.000000 0.109375
vt 1.000000 0.015625
vt 0.531250 0.015625
vt 0.531250 0.109375
vt 0.468750 0.109375
vt 0.468750 0.015625
vt 1.000000 0.015625
vt 1.000000 0.109375
vt 0.000000 0.109375
vt 0.000000 0.015625
vt 0.000000 0.093750
vt 1.000000 0.093750
vt 1.000000 0.031250
vt 0.000000 0.031250
vt 1.000000 0.093750
vt 0.000000 0.093750
vt 0.000000 0.031250
vt 1.000000 0.031250
vt 0.468750 0.015625
vt 0.468750 0.109375
vt 0.531250 0.109375
vt 0.531250 0.015625
vt 0.000000 0.015625
vt 0.000000 0.109375
vt 1.000000 0.109375
vt 1.000000 0.015625
vt 0.531250 0.015625
vt 0.531250 0.109375
vt 0.468750 0.109375
vt 0.468750 0.015625
vt 1.000000 0.015625
vt 1.000000 0.109375
vt 0.000000 0.109375
vt 0.000000 0.015625
vt 0.000000 0.093750
vt 1.000000 0.093750
vt 1.000000 0.031250
vt 0.000000 0.031250
vt 1.000000 0.093750
vt 0.000000 0.093750
vt 0.000000 0.031250
vt 1.000000 0.031250
vt 0.468750 0.015625
vt 0.468750 0.109375
vt 0.531250 0.109375
vt 0.531250 0.015625
vt 0.000000 0.015625
vt 0.000000 0.109375
vt 1.000000 0.109375
vt 1.000000 0.015625
vt 0.531250 0.015625
vt 0.531250 0.109375
vt 0.468750 0.109375
vt 0.468750 0.015625
vt 1.000000 0.015625
vt 1.000000 0.109375
vt 0.000000 0.109375
vt 0.000000 0.015625
vt 0.000000 0.093750
vt 1.000000 0.093750
vt 1.000000 0.031250
vt 0.000000 0.031250
vt 1.000000 0.093750
vt 0.000000 0.093750
vt 0.000000 0.031250
vt 1.000000 0.031250
vt 0.468750 0.015625
vt 0.531250 0.015625
vt 0.531250 0.109375
vt 0.468750 0.109375
vt 0.000000 0.015625
vt 1.000000 0.015625
vt 1.000000 0.109375
vt 0.000000 0.109375
vt 0.531250 0.015625
vt 0.468750 0.015625
vt 0.468750 0.109375
vt 0.531250 0.109375
vt 1.000000 0.015625
vt 0.000000 0.015625
vt 0.000000 0.109375
vt 1.000000 0.109375
vt 0.000000 0.093750
vt 0.000000 0.031250
vt 1.000000 0.031250
vt 1.000000 0.093750
vt 1.000000 0.093750
vt 1.000000 0.031250
vt 0.000000 0.031250
vt 0.000000 0.093750
vt 0.468750 0.015625
vt 0.531250 0.015625
vt 0.531250 0.109375
vt 0.468750 0.109375
vt 0.000000 0.015625
vt 1.000000 0.015625
vt 1.000000 0.109375
vt 0.000000 0.109375
vt 0.531250 0.015625
vt 0.468750 0.015625
vt 0.468750 0.109375
vt 0.531250 0.109375
vt 1.000000 0.015625
vt 0.000000 0.015625
vt 0.000000 0.109375
vt 1.000000 0.109375
vt 0.000000 0.093750
vt 0.000000 0.031250
vt 1.000000 0.031250
vt 1.000000 0.093750
vt 1.000000 0.093750
vt 1.000000 0.031250
vt 0.000000 0.031250
vt 0.000000 0.093750
vt 0.468750 0.015625
vt 0.531250 0.015625
vt 0.531250 0.109375
vt 0.468750 0.109375
vt 0.000000 0.015625
vt 1.000000 0.015625
vt 1.000000 0.109375
vt 0.000000 0.109375
vt 0.531250 0.015625
vt 0.468750 0.015625
vt 0.468750 0.109375
vt 0.531250 0.109375
vt 1.000000 0.015625
vt 0.000000 0.015625
vt 0.000000 0.109375
vt 1.000000 0.109375
vt 0.000000 0.093750
vt 0.000000 0.031250
vt 1.000000 0.031250
vt 1.000000 0.093750
vt 1.000000 0.093750
vt 1.000000 0.031250
vt 0.000000 0.031250
vt 0.000000 0.093750
vt 0.468750 0.015625
vt 0.531250 0.015625
vt 0.531250 0.109375
vt 0.468750 0.109375
vt 0.000000 0.015625
vt 1.000000 0.015625
vt 1.000000 0.109375
vt 0.000000 0.109375
vt 0.531250 0.015625
vt 0.468750 0.015625
vt 0.468750 0.109375
vt 0.531250 0.109375
vt 1.000000 0.015625
vt 0.000000 0.015625
vt 0.000000 0.109375
vt 1.000000 0.109375
vt 0.000000 0.093750
vt 0.000000 0.031250
vt 1.000000 0.031250
vt 1.000000 0.093750
vt 1.000000 0.093750
vt 1.000000 0.031250
vt 0.000000 0.031250
vt 0.000000 0.093750
vt 0.468750 0.015625
vt 0.531250 0.015625
vt 0.531250 0.109375
vt 0.468750 0.109375
vt 0.000000 0.015625
vt 1.000000 0.015625
vt 1.000000 0.109375
vt 0.000000 0.109375
vt 0.531250 0.015625
vt 0.468750 0.015625
vt 0.468750 0.109375
vt 0.531250 0.109375
vt 1.000000 0.015625
vt 0.000000 0.015625
vt 0.000000 0.109375
vt 1.000000 0.109375
vt 0.000000 0.093750
vt 0.000000 0.031250
vt 1.000000 0.031250
vt 1.000000 0.093750
vt 1.000000 0.093750
vt 1.000000 0.031250
vt 0.000000 0.031250
vt 0.000000 0.093750
vt 0.468750 0.015625
vt 0.531250 0.015625
vt 0.531250 0.109375
vt 0.468750 0.109375
vt 0.000000 0.015625
vt 1.000000 0.015625
vt 1.000000 0.109375
vt 0.000000 0.109375
vt 0.531250 0.015625
vt 0.468750 0.015625
vt 0.468750 0.109375
vt 0.531250 0.109375
vt 1.000000 0.015625
vt 0.000000 0.015625
vt 0.000000 0.109375
vt 1.000000 0.109375
vt 0.000000 0.093750
vt 0.000000 0.031250
vt 1.000000 0.031250
vt 1.000000 0.093750
vt 1.000000 0.093750
vt 1.000000 0.031250
vt 0.000000 0.031250
vt 0.000000 0.093750
vt 0.468750 0.015625
vt 0.531250 0.015625
vt 0.531250 0.109375
vt 0.468750 0.109375
vt 0.000000 0.015625
vt 1.000000 0.015625
vt 1.000000 0.109375
vt 0.000000 0.109375
vt 0.531250 0.015625
vt 0.468750 0.015625
vt 0.468750 0.109375
vt 0.531250 0.109375
vt 1.000000 0.015625
vt 0.000000 0.015625
vt 0.000000 0.109375
vt 1.000000 0.109375
vt 0.000000 0.093750
vt 0.000000 0.031250
vt 1.000000 0.031250
vt 1.000000 0.093750
vt 1.000000 0.093750
vt 1.000000 0.031250
vt 0.000000 0.031250
vt 0.000000 0.093750
vt 0.468750 0.015625
vt 0.531250 0.015625
vt 0.531250 0.109375
vt 0.468750 0.109375
vt 0.000000 0.015625
vt 1.000000 0.015625
vt 1.000000 0.109375
vt 0.000000 0.109375
vt 0.531250 0.015625
vt 0.468750 0.015625
vt 0.468750 0.109375
vt 0.531250 0.109375
vt 1.000000 0.015625
vt 0.000000 0.015625
vt 0.000000 0.109375
vt 1.000000 0.109375
vt 0.000000 0.093750
vt 0.000000 0.031250
vt 1.000000 0.031250
vt 1.000000 0.093750
vt 1.000000 0.093750
vt 1.000000 0.031250
vt 0.000000 0.031250
vt 0.000000 0.093750
vt 0.468750 0.015625
vt 0.531250 0.015625
vt 0.531250 0.109375
vt 0.468750 0.109375
vt 0.000000 0.015625
vt 1.000000 0.015625
vt 1.000000 0.109375
vt 0.000000 0.109375
vt 0.531250 0.015625
vt 0.468750 0.015625
vt 0.468750 0.109375
vt 0.531250 0.109375
vt 1.000000 0.015625
vt 0.000000 0.015625
vt 0.000000 0.109375
vt 1.000000 0.109375
vt 0.000000 0.093750
vt 0.000000 0.031250
vt 1.000000 0.031250
vt 1.000000 0.093750
vt 1.000000 0.093750
vt 1.000000 0.031250
vt 0.000000 0.031250
vt 0.000000 0.093750
vt 0.468750 0.015625
vt 0.468750 0.109375
vt 0.531250 0.109375
vt 0.531250 0.015625
vt 0.000000 0.015625
vt 0.000000 0.109375
vt 1.000000 0.109375
vt 1.000000 0.015625
vt 0.531250 0.015625
vt 0.531250 0.109375
vt 0.468750 0.109375
vt 0.468750 0.015625
vt 1.000000 0.015625
vt 1.000000 0.109375
vt 0.000000 0.109375
vt 0.000000 0.015625
vt 0.000000 0.093750
vt 1.000000 0.093750
vt 1.000000 0.031250
vt 0.000000 0.031250
vt 1.000000 0.093750
vt 0.000000 0.093750
vt 0.000000 0.031250
vt 1.000000 0.031250
vt 0.468750 0.015625
vt 0.468750 0.109375
vt 0.531250 0.109375
vt 0.531250 0.015625
vt 0.000000 0.015625
vt 0.000000 0.109375
vt 1.000000 0.109375
vt 1.000000 0.015625
vt 0.531250 0.015625
vt 0.531250 0.109375
vt 0.468750 0.109375
vt 0.468750 0.015625
vt 1.000000 0.015625
vt 1.000000 0.109375
vt 0.000000 0.109375
vt 0.000000 0.015625
vt 0.000000 0.093750
vt 1.000000 0.093750
vt 1.000000 0.031250
vt 0.000000 0.031250
vt 1.000000 0.093750
vt 0.000000 0.093750
vt 0.000000 0.031250
vt 1.000000 0.031250
vn 0.0000 -1.0000 0.0000
vn -1.0000 0.0000 0.0000
vn 0.0000 1.0000 0.0000
vn 1.0000 0.0000 0.0000
vn 0.0000 0.0000 -1.0000
vn 0.0000 0.0000 1.0000
usemtl material_0
s off
f 1/1/1 2/2/1 4/3/1 3/4/1
f 3/5/2 4/6/2 8/7/2 7/8/2
f 7/9/3 8/10/3 6/11/3 5/12/3
f 5/13/4 6/14/4 2/15/4 1/16/4
f 3/17/5 7/18/5 5/19/5 1/20/5
f 8/21/6 4/22/6 2/23/6 6/24/6
f 9/25/1 10/26/1 12/27/1 11/28/1
f 11/29/2 12/30/2 16/31/2 15/32/2
f 15/33/3 16/34/3 14/35/3 13/36/3
f 13/37/4 14/38/4 10/39/4 9/40/4
f 11/41/5 15/42/5 13/43/5 9/44/5
f 16/45/6 12/46/6 10/47/6 14/48/6
f 17/49/1 18/50/1 20/51/1 19/52/1
f 19/53/2 20/54/2 24/55/2 23/56/2
f 23/57/3 24/58/3 22/59/3 21/60/3
f 21/61/4 22/62/4 18/63/4 17/64/4
f 19/65/5 23/66/5 21/67/5 17/68/5
f 24/69/6 20/70/6 18/71/6 22/72/6
f 25/73/1 26/74/1 28/75/1 27/76/1
f 27/77/2 28/78/2 32/79/2 31/80/2
f 31/81/3 32/82/3 30/83/3 29/84/3
f 29/85/4 30/86/4 26/87/4 25/88/4
f 27/89/5 31/90/5 29/91/5 25/92/5
f 32/93/6 28/94/6 26/95/6 30/96/6
f 33/97/1 34/98/1 36/99/1 35/100/1
f 35/101/2 36/102/2 40/103/2 39/104/2
f 39/105/3 40/106/3 38/107/3 37/108/3
f 37/109/4 38/110/4 34/111/4 33/112/4
f 35/113/5 39/114/5 37/115/5 33/116/5
f 40/117/6 36/118/6 34/119/6 38/120/6
f 41/121/4 42/122/4 44/123/4 43/124/4
f 43/125/1 44/126/1 48/127/1 47/128/1
f 47/129/2 48/130/2 46/131/2 45/132/2
f 45/133/3 46/134/3 42/135/3 41/136/3
f 43/137/5 47/138/5 45/139/5 41/140/5
f 48/141/6 44/142/6 42/143/6 46/144/6
f 49/145/2 50/146/2 52/147/2 51/148/2
f 51/149/3 52/150/3 56/151/3 55/152/3
f 55/153/4 56/154/4 54/155/4 53/156/4
f 53/157/1 54/158/1 50/159/1 49/160/1
f 51/161/5 55/162/5 53/163/5 49/164/5
f 56/165/6 52/166/6 50/167/6 54/168/6
f 57/169/1 59/170/1 60/171/1 58/172/1
f 59/173/4 63/174/4 64/175/4 60/176/4
f 63/177/3 61/178/3 62/179/3 64/180/3
f 61/181/2 57/182/2 58/183/2 62/184/2
f 59/185/5 57/186/5 61/187/5 63/188/5
f 64/189/6 62/190/6 58/191/6 60/192/6
f 65/193/1 67/194/1 68/195/1 66/196/1
f 67/197/4 71/198/4 72/199/4 68/200/4
f 71/201/3 69/202/3 70/203/3 72/204/3
f 69/205/2 65/206/2 66/207/2 70/208/2
f 67/209/5 65/210/5 69/211/5 71/212/5
f 72/213/6 70/214/6 66/215/6 68/216/6
f 73/217/1 75/218/1 76/219/1 74/220/1
f 75/221/4 79/222/4 80/223/4 76/224/4
f 79/225/3 77/226/3 78/227/3 80/228/3
f 77/229/2 73/230/2 74/231/2 78/232/2
f 75/233/5 73/234/5 77/235/5 79/236/5
f 80/237/6 78/238/6 74/239/6 76/240/6
f 81/241/1 83/242/1 84/243/1 82/244/1
f 83/245/4 87/246/4 88/247/4 84/248/4
f 87/249/3 85/250/3 86/251/3 88/252/3
f 85/253/2 81/254/2 82/255/2 86/256/2
f 83/257/5 81/258/5 85/259/5 87/260/5
f 88/261/6 86/262/6 82/263/6 84/264/6
f 89/265/1 91/266/1 92/267/1 90/268/1
f 91/269/4 95/270/4 96/271/4 92/272/4
f 95/273/3 93/274/3 94/275/3 96/276/3
f 93/277/2 89/278/2 90/279/2 94/280/2
f 91/281/5 89/282/5 93/283/5 95/284/5
f 96/285/6 94/286/6 90/287/6 92/288/6
f 97/289/2 99/290/2 100/291/2 98/292/2
f 99/293/1 103/294/1 104/295/1 100/296/1
f 103/297/4 101/298/4 102/299/4 104/300/4
f 101/301/3 97/302/3 98/303/3 102/304/3
f 99/305/5 97/306/5 101/307/5 103/308/5
f 104/309/6 102/310/6 98/311/6 100/312/6
f 105/313/4 107/314/4 108/315/4 106/316/4
f 107/317/3 111/318/3 112/319/3 108/320/3
f 111/321/2 109/322/2 110/323/2 112/324/2
f 109/325/1 105/326/1 106/327/1 110/328/1
f 107/329/5 105/330/5 109/331/5 111/332/5
f 112/333/6 110/334/6 106/335/6 108/336/6
f 113/337/2 115/338/2 116/339/2 114/340/2
f 115/341/1 119/342/1 120/343/1 116/344/1
f 119/345/4 117/346/4 118/347/4 120/348/4
f 117/349/3 113/350/3 114/351/3 118/352/3
f 115/353/5 113/354/5 117/355/5 119/356/5
f 120/357/6 118/358/6 114/359/6 116/360/6
f 121/361/2 123/362/2 124/363/2 122/364/2
f 123/365/1 127/366/1 128/367/1 124/368/1
f 127/369/4 125/370/4 126/371/4 128/372/4
f 125/373/3 121/374/3 122/375/3 126/376/3
f 123/377/5 121/378/5 125/379/5 127/380/5
f 128/381/6 126/382/6 122/383/6 124/384/6
f 129/385/4 130/386/4 132/387/4 131/388/4
f 131/389/1 132/390/1 136/391/1 135/392/1
f 135/393/2 136/394/2 134/395/2 133/396/2
f 133/397/3 134/398/3 130/399/3 129/400/3
f 131/401/5 135/402/5 133/403/5 129/404/5
f 136/405/6 132/406/6 130/407/6 134/408/6
f 137/409/2 138/410/2 140/411/2 139/412/2
f 139/413/3 140/414/3 144/415/3 143/416/3
f 143/417/4 144/418/4 142/419/4 141/420/4
f 141/421/1 142/422/1 138/423/1 137/424/1
f 139/425/5 143/426/5 141/427/5 137/428/5
f 144/429/6 140/430/6 138/431/6 142/432/6
o Cube_Cube.058
v 448.000000 2496.000000 0.000000
v 448.000000 2496.000000 1536.000000
v 384.000000 2496.000000 0.000000
v 384.000000 2496.000000 1536.000000
v 448.000000 2559.999756 0.000000
v 448.000000 2559.999756 1536.000000
v 384.000000 2559.999756 0.000000
v 384.000000 2559.999756 1536.000000
vt 1.000000 0.041667
vt 0.000000 0.041667
vt 0.000000 0.083333
vt 1.000000 0.083333
vt 1.000000 0.041667
vt 0.000000 0.041667
vt 0.000000 0.083333
vt 1.000000 0.083333
vt 0.000000 0.041667
vt 1.000000 0.041667
vt 1.000000 0.083333
vt 0.000000 0.083333
vt 0.479167 0.041667
vt 0.479167 0.083333
vt 0.520833 0.083333
vt 0.520833 0.041667
vt 0.479167 0.083333
vt 0.479167 0.041667
vt 0.520833 0.041667
vt 0.520833 0.083333
vn 0.0000 -1.0000 0.0000
vn -1.0000 0.0000 0.0000
vn 0.0000 1.0000 0.0000
vn 1.0000 0.0000 0.0000
vn 0.0000 0.0000 -1.0000
vn 0.0000 0.0000 1.0000
usemtl material_0
s off
f 145/433/7 146/434/7 148/435/7 147/436/7
f 147/437/8 148/438/8 152/439/8 151/440/8
f 151/440/9 152/439/9 150/441/9 149/442/9
f 149/443/10 150/444/10 146/434/10 145/433/10
f 147/445/11 151/446/11 149/447/11 145/448/11
f 152/449/12 148/450/12 146/451/12 150/452/12
o Cube.002_Cube.059
v 448.000000 -2496.000000 0.000000
v 448.000000 -2496.000000 1536.000000
v 384.000000 -2496.000000 0.000000
v 384.000000 -2496.000000 1536.000000
v 448.000000 -2559.999756 0.000000
v 448.000000 -2559.999756 1536.000000
v 384.000000 -2559.999756 0.000000
v 384.000000 -2559.999756 1536.000000
vt 1.000000 0.041667
vt 1.000000 0.083333
vt 0.000000 0.083333
vt 0.000000 0.041667
vt 1.000000 0.041667
vt 1.000000 0.083333
vt 0.000000 0.083333
vt 0.000000 0.041667
vt 1.000000 0.041667
vt 0.000000 0.041667
vt 1.000000 0.083333
vt 0.000000 0.083333
vt 0.479167 0.041667
vt 0.520833 0.041667
vt 0.520833 0.083333
vt 0.479167 0.083333
vt 0.479167 0.083333
vt 0.520833 0.083333
vt 0.520833 0.041667
vt 0.479167 0.041667
vn 0.0000 1.0000 0.0000
vn -1.0000 0.0000 0.0000
vn 0.0000 -1.0000 0.0000
vn 1.0000 0.0000 0.0000
vn 0.0000 0.0000 -1.0000
vn 0.0000 0.0000 1.0000
usemtl material_0
s off
f 153/453/13 155/454/13 156/455/13 154/456/13
f 155/457/14 159/458/14 160/459/14 156/460/14
f 159/458/15 157/461/15 158/462/15 160/459/15
f 157/463/16 153/453/16 154/456/16 158/464/16
f 155/465/17 153/466/17 157/467/17 159/468/17
f 160/469/18 158/470/18 154/471/18 156/472/18
o Cube.003_Cube.060
v -2560.000000 2496.000000 0.000000
v -2560.000000 2496.000000 1280.000122
v -2496.000000 2496.000000 0.000000
v -2496.000000 2496.000000 1280.000122
v -2560.000000 2559.999756 0.000000
v -2560.000000 2559.999756 1280.000122
v -2496.000000 2559.999756 0.000000
v -2496.000000 2559.999756 1280.000122
vt 1.000000 0.041667
vt 1.000000 0.083333
vt 0.000000 0.083333
vt 0.000000 0.041667
vt 1.000000 0.041667
vt 1.000000 0.083333
vt 0.000000 0.083333
vt 0.000000 0.041667
vt 1.000000 0.041667
vt 0.000000 0.041667
vt 1.000000 0.083333
vt 0.000000 0.083333
vt 0.479167 0.041667
vt 0.520833 0.041667
vt 0.520833 0.083333
vt 0.479167 0.083333
vt 0.479167 0.083333
vt 0.520833 0.083333
vt 0.520833 0.041667
vt 0.479167 0.041667
vn 0.0000 -1.0000 0.0000
vn 1.0000 0.0000 0.0000
vn 0.0000 1.0000 0.0000
vn -1.0000 0.0000 0.0000
vn 0.0000 0.0000 -1.0000
vn 0.0000 0.0000 1.0000
usemtl material_0
s off
f 161/473/19 163/474/19 164/475/19 162/476/19
f 163/477/20 167/478/20 168/479/20 164/480/20
f 167/478/21 165/481/21 166/482/21 168/479/21
f 165/483/22 161/473/22 162/476/22 166/484/22
f 163/485/23 161/486/23 165/487/23 167/488/23
f 168/489/24 166/490/24 162/491/24 164/492/24
o Cube.004_Cube.061
v -2560.000000 -2496.000000 0.000000
v -2560.000000 -2496.000000 1280.000122
v -2496.000000 -2496.000000 0.000000
v -2496.000000 -2496.000000 1280.000122
v -2560.000000 -2559.999756 0.000000
v -2560.000000 -2559.999756 1280.000122
v -2496.000000 -2559.999756 0.000000
v -2496.000000 -2559.999756 1280.000122
vt 1.000000 0.041667
vt 0.000000 0.041667
vt 0.000000 0.083333
vt 1.000000 0.083333
vt 1.000000 0.041667
vt 0.000000 0.041667
vt 0.000000 0.083333
vt 1.000000 0.083333
vt 0.000000 0.041667
vt 1.000000 0.041667
vt 1.000000 0.083333
vt 0.000000 0.083333
vt 0.479167 0.041667
vt 0.479167 0.083333
vt 0.520833 0.083333
vt 0.520833 0.041667
vt 0.479167 0.083333
vt 0.479167 0.041667
vt 0.520833 0.041667
vt 0.520833 0.083333
vn 0.0000 1.0000 0.0000
vn 1.0000 0.0000 0.0000
vn 0.0000 -1.0000 0.0000
vn -1.0000 0.0000 0.0000
vn 0.0000 0.0000 -1.0000
vn 0.0000 0.0000 1.0000
usemtl material_0
s off
f 169/493/25 170/494/25 172/495/25 171/496/25
f 171/497/26 172/498/26 176/499/26 175/500/26
f 175/500/27 176/499/27 174/501/27 173/502/27
f 173/503/28 174/504/28 170/494/28 169/493/28
f 171/505/29 175/506/29 173/507/29 169/508/29
f 176/509/30 172/510/30 170/511/30 174/512/30
