# 3ds Max Wavefront OBJ Exporter v0.97b - (c)2007 guruware
# File Created: 13.04.2019 21:54:18

mtllib chapel_door1_back.mtl

#
# object Object001
#

v  550.4000 0.0000 -511.9998
v  550.4000 921.6001 -511.9998
v  582.4000 921.6001 -567.4254
v  582.4000 0.0000 -567.4254
v  646.4000 921.6001 -567.4254
v  646.4000 0.0000 -567.4254
v  678.4000 921.6001 -511.9998
v  678.4000 0.0000 -511.9998
v  550.4008 1228.4830 -511.9998
v  582.4004 1228.6416 -567.4254
v  646.3995 1228.9587 -567.4254
v  678.3992 1229.1173 -511.9998
v  469.6447 1516.8419 -511.9998
v  497.7349 1532.1698 -567.4254
v  553.9153 1562.8251 -567.4254
v  582.0055 1578.1530 -511.9998
v  281.5464 1762.8539 -511.9998
v  304.2733 1785.3812 -567.4254
v  349.7273 1830.4362 -567.4254
v  372.4543 1852.9637 -511.9999
v  81.9089 1930.9022 -511.9999
v  100.0922 1957.2340 -567.4255
v  136.4586 2009.8978 -567.4255
v  154.6412 2047.9999 -511.9996
v  0.0000 1983.9999 -511.9999
v  0.0000 2015.9999 -567.4255
v  0.0000 2080.0000 -567.4255
v  0.0000 2112.0000 -511.9999
v  -81.9088 1930.9022 -511.9999
v  -100.0921 1957.2340 -567.4255
v  -136.4587 2009.8978 -567.4255
v  -154.6428 2047.9996 -511.9996
v  -281.5463 1762.8541 -511.9998
v  -304.2733 1785.3815 -567.4254
v  -349.7274 1830.4362 -567.4254
v  -372.4545 1852.9635 -511.9999
v  -469.6447 1516.8417 -511.9998
v  -497.7349 1532.1696 -567.4254
v  -553.9153 1562.8251 -567.4254
v  -582.0055 1578.1527 -511.9998
v  -550.4008 1228.4829 -511.9998
v  -582.4004 1228.6415 -567.4254
v  -646.3997 1228.9586 -567.4254
v  -678.3993 1229.1172 -511.9998
v  -550.4000 921.6000 -511.9998
v  -582.4000 921.6000 -567.4254
v  -646.4000 921.6000 -567.4254
v  -678.4000 921.6000 -511.9998
v  -550.4000 0.0000 -511.9998
v  -582.4000 0.0000 -567.4254
v  -646.4000 0.0000 -567.4254
v  -678.4000 0.0000 -511.9998
v  486.3999 0.0001 -401.1486
v  486.4000 921.6001 -401.1484
v  454.4000 921.6001 -456.5740
v  454.3999 0.0001 -456.5742
v  486.4000 921.6001 -511.9997
v  486.3999 0.0001 -511.9998
v  550.4000 921.6001 -511.9997
v  550.3999 0.0001 -511.9998
v  486.4015 1228.2188 -401.1486
v  454.4018 1228.0779 -456.5742
v  486.4015 1228.2188 -511.9998
v  550.4009 1228.5007 -511.9998
v  411.3590 1490.2743 -401.1486
v  382.5670 1476.3094 -456.5742
v  411.3590 1490.2743 -511.9999
v  468.9429 1518.2045 -511.9999
v  233.5265 1720.5443 -401.1487
v  209.5166 1699.3898 -456.5743
v  233.5265 1720.5443 -511.9999
v  281.5464 1762.8539 -511.9999
v  41.1971 1881.4225 -401.1486
v  21.5656 1856.1520 -456.5742
v  41.1971 1881.4225 -511.9999
v  80.4604 1931.9635 -511.9999
v  0.0000 1910.9908 -401.1486
v  0.0000 1874.0909 -456.5742
v  0.0000 1910.9908 -511.9999
v  -42.6454 1880.3612 -401.1487
v  -23.0137 1855.0907 -456.5743
v  -42.6454 1880.3612 -511.9999
v  -81.9087 1930.9022 -511.9999
v  -233.5262 1720.5448 -401.1487
v  -209.5162 1699.3900 -456.5743
v  -233.5262 1720.5448 -511.9999
v  -281.5463 1762.8539 -511.9999
v  -412.0607 1488.9115 -401.1486
v  -383.2687 1474.9464 -456.5742
v  -412.0607 1488.9115 -511.9998
v  -486.4015 1228.2009 -401.1484
v  -454.4017 1228.0601 -456.5741
v  -486.4015 1228.2009 -511.9997
v  -550.4008 1228.4829 -511.9997
v  -486.4000 921.6000 -401.1486
v  -454.4000 921.6000 -456.5742
v  -486.4000 921.6000 -511.9998
v  -486.4000 0.0001 -401.1486
v  -454.4000 0.0001 -456.5742
v  -486.4000 0.0001 -511.9998
v  -550.4000 0.0001 -511.9998
# 101 vertices

vn -0.8660 0.0000 -0.5000
vn -0.5000 0.0000 -0.8660
vn 0.5000 0.0000 -0.8660
vn 0.5000 -0.0000 -0.8660
vn 0.8660 0.0000 -0.5000
vn -0.8593 -0.1234 -0.4964
vn -0.4636 -0.0609 -0.8839
vn 0.5274 0.0749 -0.8463
vn 0.8604 0.1121 -0.4971
vn -0.7760 -0.3849 -0.4997
vn -0.4042 -0.2024 -0.8920
vn 0.4869 0.2403 -0.8398
vn 0.7751 0.3866 -0.4997
vn -0.6270 -0.5974 -0.4999
vn -0.3421 -0.3267 -0.8810
vn 0.3805 0.3622 -0.8509
vn 0.6355 0.5885 -0.4998
vn -0.5159 -0.6957 -0.4998
vn -0.2766 -0.3915 -0.8776
vn 0.2635 0.3905 -0.8821
vn 0.4197 0.6778 -0.6036
vn 0.0000 -0.8660 -0.5000
vn 0.0000 -0.3533 -0.9355
vn 0.0000 0.5962 -0.8028
vn 0.0000 0.8660 -0.5000
vn 0.5159 -0.6957 -0.4998
vn 0.2766 -0.3915 -0.8776
vn -0.2635 0.3905 -0.8821
vn -0.4197 0.6778 -0.6037
vn 0.6270 -0.5974 -0.4999
vn 0.3421 -0.3267 -0.8810
vn -0.3805 0.3622 -0.8509
vn -0.6355 0.5885 -0.4998
vn 0.7760 -0.3849 -0.4997
vn 0.4042 -0.2024 -0.8920
vn -0.4869 0.2403 -0.8398
vn -0.7751 0.3866 -0.4997
vn 0.8593 -0.1234 -0.4964
vn 0.4636 -0.0609 -0.8839
vn -0.5274 0.0749 -0.8463
vn -0.8604 0.1121 -0.4971
vn 0.4999 0.0000 -0.8661
vn -0.4999 0.0000 -0.8661
vn -0.8660 -0.0000 0.5000
vn -0.8660 0.0000 0.5000
vn -1.0000 0.0000 0.0001
vn -1.0000 0.0000 -0.0001
vn -0.5001 0.0000 -0.8660
vn 0.0000 -0.0000 -1.0000
vn 0.0000 0.0000 -1.0000
vn -0.8601 -0.1158 0.4969
vn -0.9892 -0.1468 -0.0000
vn -0.4626 -0.0623 -0.8844
vn -0.7732 -0.3902 0.5000
vn -0.8907 -0.4547 0.0000
vn -0.4037 -0.2037 -0.8919
vn -0.6252 -0.5996 0.4997
vn -0.7184 -0.6957 -0.0000
vn -0.3417 -0.3277 -0.8808
vn -0.0000 0.0000 -1.0000
vn -0.5307 -0.6844 0.5000
vn -0.6400 -0.7684 0.0000
vn -0.3009 -0.3881 -0.8711
vn 0.0001 -0.8324 0.5542
vn -0.0025 -1.0000 0.0000
vn 0.0000 -0.3036 -0.9528
vn 0.5309 -0.6842 0.5000
vn 0.6388 -0.7694 -0.0000
vn 0.3011 -0.3879 -0.8711
vn 0.6256 -0.5991 0.4997
vn 0.7189 -0.6951 0.0000
vn 0.3419 -0.3274 -0.8809
vn 0.7736 -0.3894 0.5000
vn 0.8912 -0.4536 -0.0000
vn 0.4039 -0.2033 -0.8919
vn -0.0000 -0.0000 -1.0000
vn 0.8601 -0.1154 0.4969
vn 0.9893 -0.1462 -0.0000
vn 0.4628 -0.0621 -0.8843
vn 0.8660 0.0000 0.5000
vn 1.0000 0.0000 0.0000
# 81 vertex normals

vt 0.2344 0.0000 0.0000
vt 0.2344 0.4453 0.0000
vt 0.2188 0.4453 0.0000
vt 0.2188 0.0000 0.0000
vt 0.1875 0.4453 0.0000
vt 0.1875 0.0000 0.0000
vt 0.1719 0.4453 0.0000
vt 0.1719 0.0000 0.0000
vt 0.2344 0.5977 0.0000
vt 0.2188 0.5977 0.0000
vt 0.1875 0.5977 0.0000
vt 0.1719 0.5977 0.0000
vt 0.2695 0.7383 0.0000
vt 0.2578 0.7461 0.0000
vt 0.2344 0.7617 0.0000
vt 0.2188 0.7695 0.0000
vt 0.3594 0.8555 0.0000
vt 0.3516 0.8711 0.0000
vt 0.3281 0.8906 0.0000
vt 0.3164 0.9063 0.0000
vt 0.4609 0.9102 0.0000
vt 0.4531 0.9180 0.0000
vt 0.4297 0.9492 0.0000
vt 0.4219 0.9688 0.0000
vt 0.5000 0.9336 0.0000
vt 0.5000 0.9492 0.0000
vt 0.5000 0.9844 0.0000
vt 0.5000 1.0000 0.0000
vt 0.5391 0.9102 0.0000
vt 0.5469 0.9180 0.0000
vt 0.5625 0.9492 0.0000
vt 0.5781 0.9688 0.0000
vt 0.6328 0.8555 0.0000
vt 0.6484 0.8711 0.0000
vt 0.6719 0.8906 0.0000
vt 0.6797 0.9063 0.0000
vt 0.7266 0.7383 0.0000
vt 0.7422 0.7461 0.0000
vt 0.7656 0.7617 0.0000
vt 0.7813 0.7695 0.0000
vt 0.7656 0.5977 0.0000
vt 0.7813 0.5977 0.0000
vt 0.8086 0.5977 0.0000
vt 0.8242 0.5977 0.0000
vt 0.7656 0.4453 0.0000
vt 0.7813 0.4453 0.0000
vt 0.8086 0.4453 0.0000
vt 0.8242 0.4453 0.0000
vt 0.7656 0.0000 0.0000
vt 0.7813 0.0000 0.0000
vt 0.8086 0.0000 0.0000
vt 0.8242 0.0000 0.0000
vt 0.7344 0.0000 0.0000
vt 0.7344 0.4375 0.0000
vt 0.7188 0.4375 0.0000
vt 0.7188 0.0000 0.0000
vt 0.2773 0.0000 0.0000
vt 0.2773 0.4453 0.0000
vt 0.2617 0.4453 0.0000
vt 0.2617 0.0000 0.0000
vt 0.7344 0.5898 0.0000
vt 0.7188 0.5898 0.0000
vt 0.2773 0.5977 0.0000
vt 0.2617 0.5977 0.0000
vt 0.6953 0.7227 0.0000
vt 0.6797 0.7148 0.0000
vt 0.3086 0.7148 0.0000
vt 0.2930 0.7227 0.0000
vt 0.6094 0.8320 0.0000
vt 0.5938 0.8242 0.0000
vt 0.3984 0.8242 0.0000
vt 0.3828 0.8398 0.0000
vt 0.5156 0.8828 0.0000
vt 0.5078 0.8672 0.0000
vt 0.4922 0.8750 0.0000
vt 0.4766 0.8906 0.0000
vt 0.4922 0.8984 0.0000
vt 0.4922 0.8828 0.0000
vt 0.5000 0.8828 0.0000
vt 0.5000 0.8984 0.0000
vt 0.4766 0.8828 0.0000
vt 0.4844 0.8672 0.0000
vt 0.5078 0.8750 0.0000
vt 0.5234 0.8906 0.0000
vt 0.3828 0.8320 0.0000
vt 0.3906 0.8242 0.0000
vt 0.6016 0.8242 0.0000
vt 0.6094 0.8398 0.0000
vt 0.3008 0.7148 0.0000
vt 0.6875 0.7148 0.0000
vt 0.7031 0.7227 0.0000
vt 0.2578 0.5898 0.0000
vt 0.2695 0.5898 0.0000
vt 0.7188 0.5977 0.0000
vt 0.7344 0.5977 0.0000
vt 0.2578 0.4375 0.0000
vt 0.2695 0.4375 0.0000
vt 0.7188 0.4453 0.0000
vt 0.7344 0.4453 0.0000
vt 0.2578 0.0000 0.0000
vt 0.2695 0.0000 0.0000
# 101 texture coords

o Object001
g Object001
usemtl default
s off
f 1/1/1 2/2/1 3/3/2 4/4/2 
f 4/4/2 3/3/2 5/5/3 6/6/4 
f 6/6/4 5/5/3 7/7/5 8/8/5 
f 2/2/1 9/9/6 10/10/7 3/3/2 
f 3/3/2 10/10/7 11/11/8 5/5/3 
f 5/5/3 11/11/8 12/12/9 7/7/5 
f 9/9/6 13/13/10 14/14/11 10/10/7 
f 10/10/7 14/14/11 15/15/12 11/11/8 
f 11/11/8 15/15/12 16/16/13 12/12/9 
f 13/13/10 17/17/14 18/18/15 14/14/11 
f 14/14/11 18/18/15 19/19/16 15/15/12 
f 15/15/12 19/19/16 20/20/17 16/16/13 
f 17/17/14 21/21/18 22/22/19 18/18/15 
f 18/18/15 22/22/19 23/23/20 19/19/16 
f 19/19/16 23/23/20 24/24/21 20/20/17 
f 21/21/18 25/25/22 26/26/23 22/22/19 
f 22/22/19 26/26/23 27/27/24 23/23/20 
f 23/23/20 27/27/24 28/28/25 24/24/21 
f 25/25/22 29/29/26 30/30/27 26/26/23 
f 26/26/23 30/30/27 31/31/28 27/27/24 
f 27/27/24 31/31/28 32/32/29 28/28/25 
f 29/29/26 33/33/30 34/34/31 30/30/27 
f 30/30/27 34/34/31 35/35/32 31/31/28 
f 31/31/28 35/35/32 36/36/33 32/32/29 
f 33/33/30 37/37/34 38/38/35 34/34/31 
f 34/34/31 38/38/35 39/39/36 35/35/32 
f 35/35/32 39/39/36 40/40/37 36/36/33 
f 37/37/34 41/41/38 42/42/39 38/38/35 
f 38/38/35 42/42/39 43/43/40 39/39/36 
f 39/39/36 43/43/40 44/44/41 40/40/37 
f 41/41/38 45/45/5 46/46/3 42/42/39 
f 42/42/39 46/46/3 47/47/2 43/43/40 
f 43/43/40 47/47/2 48/48/1 44/44/41 
f 45/45/5 49/49/5 50/50/42 46/46/3 
f 46/46/3 50/50/42 51/51/43 47/47/2 
f 47/47/2 51/51/43 52/52/1 48/48/1 
f 53/53/44 54/54/45 55/55/46 56/56/47 
f 56/57/47 55/58/46 57/59/48 58/60/43 
f 58/60/43 57/59/48 59/2/49 60/1/50 
f 54/54/45 61/61/51 62/62/52 55/55/46 
f 55/58/46 62/63/52 63/64/53 57/59/48 
f 57/59/48 63/64/53 64/9/49 59/2/49 
f 61/61/51 65/65/54 66/66/55 62/62/52 
f 62/63/52 66/67/55 67/68/56 63/64/53 
f 63/64/53 67/68/56 68/13/49 64/9/49 
f 65/65/54 69/69/57 70/70/58 66/66/55 
f 66/67/55 70/71/58 71/72/59 67/68/56 
f 67/68/56 71/72/59 72/17/60 68/13/49 
f 69/69/57 73/73/61 74/74/62 70/70/58 
f 70/71/58 74/75/62 75/76/63 71/72/59 
f 71/72/59 75/76/63 76/21/60 72/17/60 
f 73/73/61 77/77/64 78/78/65 74/74/62 
f 74/75/62 78/79/65 79/80/66 75/76/63 
f 75/76/63 79/80/66 25/25/50 76/21/60 
f 77/77/64 80/81/67 81/82/68 78/78/65 
f 78/79/65 81/83/68 82/84/69 79/80/66 
f 79/80/66 82/84/69 83/29/49 25/25/50 
f 80/81/67 84/85/70 85/86/71 81/82/68 
f 81/83/68 85/87/71 86/88/72 82/84/69 
f 82/84/69 86/88/72 87/33/49 83/29/49 
f 84/85/70 88/68/73 89/89/74 85/86/71 
f 85/87/71 89/90/74 90/91/75 86/88/72 
f 86/88/72 90/91/75 37/37/76 87/33/49 
f 88/68/73 91/92/77 92/93/78 89/89/74 
f 89/90/74 92/94/78 93/95/79 90/91/75 
f 90/91/75 93/95/79 94/41/50 37/37/76 
f 91/92/77 95/96/80 96/97/81 92/93/78 
f 92/94/78 96/98/81 97/99/3 93/95/79 
f 93/95/79 97/99/3 45/45/50 94/41/50 
f 95/96/80 98/100/80 99/101/81 96/97/81 
f 96/98/81 99/56/81 100/53/42 97/99/3 
f 97/99/3 100/53/42 101/49/50 45/45/50 
# 72 polygons

