# 3ds Max Wavefront OBJ Exporter v0.97b - (c)2007 guruware
# File Created: 14.04.2019 22:33:20

mtllib door_type1_2.mtl

#
# object Object002
#

v  244.8838 1699.3900 -0.0001
v  663.9166 1699.3898 -0.0002
v  453.6760 1874.0909 -0.0001
v  908.8018 1228.0779 -0.0001
v  -0.0017 1228.0601 0.0001
v  0.0000 921.6000 -0.0000
v  908.8000 921.6001 0.0001
v  836.9670 1476.3094 -0.0001
v  71.1313 1474.9464 -0.0001
v  0.0000 0.0001 -0.0000
v  908.7999 0.0001 -0.0001
v  908.8000 921.6001 -108.9683
v  908.7999 0.0001 -108.9684
v  0.0000 0.0001 -108.9684
v  0.0000 921.6000 -108.9684
v  -0.0017 1228.0601 -108.9683
v  71.1313 1474.9464 -108.9684
v  244.8838 1699.3900 -108.9685
v  453.6760 1874.0909 -108.9684
v  663.9166 1699.3898 -108.9686
v  836.9670 1476.3094 -108.9684
v  908.8018 1228.0779 -108.9684
v  244.8838 1699.3900 -108.9686
v  453.6760 1874.0912 -108.9685
v  663.9166 1699.3900 -108.9686
v  908.8018 1228.0780 -108.9685
v  908.8000 921.6002 -108.9683
v  0.0000 921.6001 -108.9684
v  -0.0017 1228.0602 -108.9684
v  836.9670 1476.3094 -108.9685
v  71.1313 1474.9467 -108.9685
v  908.7999 0.0002 -108.9685
v  0.0000 0.0002 -108.9684
# 33 vertices

vn -0.5257 0.5061 0.6837
vn 0.5248 0.5074 0.6835
vn -0.0014 0.8093 0.5875
vn 0.7288 0.1033 0.6768
vn -0.7288 0.1029 0.6770
vn -0.7071 -0.0000 0.7071
vn 0.7071 -0.0000 0.7071
vn 0.6639 0.3378 0.6672
vn -0.6643 0.3371 0.6671
vn -0.5774 -0.5774 0.5774
vn 0.5774 -0.5774 0.5774
vn 1.0000 -0.0000 -0.0000
vn 0.7071 -0.7071 -0.0000
vn -0.7071 -0.7071 -0.0000
vn -1.0000 -0.0000 -0.0000
vn -0.9902 0.1398 -0.0000
vn -0.8917 0.4526 -0.0000
vn -0.7204 0.6936 -0.0000
vn -0.0017 1.0000 -0.0000
vn 0.7189 0.6951 -0.0000
vn 0.8912 0.4535 0.0000
vn 0.9901 0.1404 0.0000
vn -0.0000 0.0000 -1.0000
vn -0.0000 -0.0000 -1.0000
vn 0.0000 -0.0000 -1.0000
vn 0.0000 0.0000 -1.0000
# 26 vertex normals

vt 0.7578 0.9063 0.0000
vt 0.2422 0.9063 0.0000
vt 0.4922 1.0000 0.0000
vt 0.0000 0.6563 0.0000
vt 1.0000 0.6563 0.0000
vt 1.0000 0.4922 0.0000
vt 0.0000 0.4922 0.0000
vt 0.0625 0.7891 0.0000
vt 0.9375 0.7891 0.0000
vt 1.0000 0.0000 0.0000
vt 0.0000 0.0000 0.0000
vt 0.8906 0.4922 0.0000
vt 0.8906 0.0000 0.0000
vt 1.0000 0.0664 0.0000
vt -0.0000 0.0664 0.0000
vt 0.8906 0.6563 0.0000
vt 1.0000 0.5625 0.0000
vt 0.8906 0.5625 0.0000
vt 1.0000 0.4805 0.0000
vt 0.8906 0.4805 0.0000
vt 1.0000 0.3164 0.0000
vt 0.8906 0.3164 0.0000
vt 0.5078 1.0000 0.0000
vt 0.0000 -0.0000 0.0000
vt 1.0000 -0.0000 0.0000
# 25 texture coords

o Object002
g Object002
usemtl 02___Default
s off
f 1/1/1 2/2/2 3/3/3 
f 4/4/4 5/5/5 6/6/6 7/7/7 
f 8/8/8 9/9/9 5/5/5 4/4/4 
f 2/2/2 1/1/1 9/9/9 8/8/8 
f 7/7/7 6/6/6 10/10/10 11/11/11 
f 12/6/12 7/12/7 11/13/11 13/10/13 
f 13/10/13 11/14/11 10/15/10 14/11/14 
f 14/13/14 10/10/10 6/6/6 15/12/15 
f 15/12/15 6/6/6 5/5/5 16/16/16 
f 16/16/16 5/5/5 9/17/9 17/18/17 
f 17/18/17 9/17/9 1/19/1 18/20/18 
f 18/20/18 1/19/1 3/21/3 19/22/19 
f 19/21/19 3/22/3 2/20/2 20/19/20 
f 20/19/20 2/20/2 8/18/8 21/17/21 
f 21/17/21 8/18/8 4/16/4 22/5/22 
f 22/5/22 4/16/4 7/12/7 12/6/12 
f 23/1/23 24/23/23 25/2/24 
f 26/4/24 27/7/25 28/6/26 29/5/24 
f 30/8/25 26/4/24 29/5/24 31/9/25 
f 25/2/24 30/8/25 31/9/25 23/1/23 
f 27/7/25 32/24/23 33/25/23 28/6/26 
# 19 polygons - 2 triangles

