# Blender v2.80 (sub 45) OBJ File: 'tdr_d_woodenbarrier.blend'
# www.blender.org
mtllib tdr_d_woodenbarrier.mtl
o Cube.002
v 512.000000 -318.001556 695.239136
v 512.000000 -321.199158 759.159302
v 479.999969 -318.001556 695.239136
v 479.999969 -321.199158 759.159302
v 512.000000 321.199127 727.215149
v 512.000000 318.001526 791.135254
v 479.999969 321.199127 727.215149
v 479.999969 318.001526 791.135254
v 512.000000 -318.949768 590.447266
v 512.000000 -316.057037 654.381775
v 479.999969 -318.949768 590.447266
v 479.999969 -316.057037 654.381775
v 512.000000 320.396118 561.520020
v 512.000000 323.288849 625.454590
v 479.999969 320.396118 561.520020
v 479.999969 323.288849 625.454590
v 512.000000 -351.046478 501.076508
v 512.000000 -348.153748 565.011047
v 479.999969 -351.046478 501.076508
v 479.999969 -348.153748 565.011047
v 512.000000 288.299408 472.149323
v 512.000000 291.192139 536.083862
v 479.999969 288.299408 472.149323
v 479.999969 291.192139 536.083862
v 512.000000 -343.675598 288.000000
v 512.000000 -343.675598 351.999969
v 479.999969 -343.675598 288.000000
v 479.999969 -343.675598 351.999969
v 512.000000 296.324341 288.000000
v 512.000000 296.324341 351.999969
v 479.999969 296.324341 288.000000
v 479.999969 296.324341 351.999969
v 512.000000 -311.768585 172.733261
v 512.000000 -315.633636 236.616425
v 479.999969 -311.768585 172.733261
v 479.999969 -315.633636 236.616425
v 512.000000 327.063232 211.383560
v 512.000000 323.198181 275.266754
v 479.999969 327.063232 211.383560
v 479.999969 323.198181 275.266754
v 512.000000 -299.786469 371.941467
v 512.000000 -302.202759 435.895813
v 479.999969 -299.786469 371.941467
v 479.999969 -302.202759 435.895813
v 512.000000 339.757202 396.104156
v 512.000000 337.340942 460.058502
v 479.999969 339.757202 396.104156
v 479.999969 337.340942 460.058502
vt 0.196875 0.737500
vt 0.146875 0.737500
vt 0.146875 0.762500
vt 0.196875 0.762500
vt 0.196875 0.500000
vt 0.146875 0.500000
vt 0.146875 1.000000
vt 0.196875 1.000000
vt 0.196875 0.762500
vt 0.146875 0.762500
vt 0.146875 0.737500
vt 0.196875 0.737500
vt 0.196875 1.000000
vt 0.146875 1.000000
vt 0.146875 0.500000
vt 0.196875 0.500000
vt 0.159375 0.500000
vt 0.159375 1.000000
vt 0.184375 1.000000
vt 0.184375 0.500000
vt 0.159375 1.000000
vt 0.159375 0.500000
vt 0.184375 0.500000
vt 0.184375 1.000000
vt 0.071875 0.737500
vt 0.021875 0.737500
vt 0.021875 0.762500
vt 0.071875 0.762500
vt 0.071875 0.500000
vt 0.021875 0.500000
vt 0.021875 1.000000
vt 0.071875 1.000000
vt 0.071875 0.762500
vt 0.021875 0.762500
vt 0.021875 0.737500
vt 0.071875 0.737500
vt 0.071875 1.000000
vt 0.021875 1.000000
vt 0.021875 0.500000
vt 0.071875 0.500000
vt 0.034375 0.500000
vt 0.034375 1.000000
vt 0.059375 1.000000
vt 0.059375 0.500000
vt 0.034375 1.000000
vt 0.034375 0.500000
vt 0.059375 0.500000
vt 0.059375 1.000000
vt 0.134375 0.737500
vt 0.084375 0.737500
vt 0.084375 0.762500
vt 0.134375 0.762500
vt 0.134375 0.500000
vt 0.084375 0.500000
vt 0.084375 1.000000
vt 0.134375 1.000000
vt 0.134375 0.762500
vt 0.084375 0.762500
vt 0.084375 0.737500
vt 0.134375 0.737500
vt 0.134375 1.000000
vt 0.084375 1.000000
vt 0.084375 0.500000
vt 0.134375 0.500000
vt 0.096875 0.500000
vt 0.096875 1.000000
vt 0.121875 1.000000
vt 0.121875 0.500000
vt 0.096875 1.000000
vt 0.096875 0.500000
vt 0.121875 0.500000
vt 0.121875 1.000000
vt 0.228125 0.737500
vt 0.178125 0.737500
vt 0.178125 0.762500
vt 0.228125 0.762500
vt 0.228125 0.500000
vt 0.178125 0.500000
vt 0.178125 1.000000
vt 0.228125 1.000000
vt 0.228125 0.762500
vt 0.178125 0.762500
vt 0.178125 0.737500
vt 0.228125 0.737500
vt 0.228125 1.000000
vt 0.178125 1.000000
vt 0.178125 0.500000
vt 0.228125 0.500000
vt 0.190625 0.500000
vt 0.190625 1.000000
vt 0.215625 1.000000
vt 0.215625 0.500000
vt 0.190625 1.000000
vt 0.190625 0.500000
vt 0.215625 0.500000
vt 0.215625 1.000000
vt 0.415625 0.737500
vt 0.365625 0.737500
vt 0.365625 0.762500
vt 0.415625 0.762500
vt 0.415625 0.500000
vt 0.365625 0.500000
vt 0.365625 1.000000
vt 0.415625 1.000000
vt 0.415625 0.762500
vt 0.365625 0.762500
vt 0.365625 0.737500
vt 0.415625 0.737500
vt 0.415625 1.000000
vt 0.365625 1.000000
vt 0.365625 0.500000
vt 0.415625 0.500000
vt 0.378125 0.500000
vt 0.378125 1.000000
vt 0.403125 1.000000
vt 0.403125 0.500000
vt 0.378125 1.000000
vt 0.378125 0.500000
vt 0.403125 0.500000
vt 0.403125 1.000000
vt 0.353125 0.737500
vt 0.303125 0.737500
vt 0.303125 0.762500
vt 0.353125 0.762500
vt 0.353125 0.500000
vt 0.303125 0.500000
vt 0.303125 1.000000
vt 0.353125 1.000000
vt 0.353125 0.762500
vt 0.303125 0.762500
vt 0.303125 0.737500
vt 0.353125 0.737500
vt 0.353125 1.000000
vt 0.303125 1.000000
vt 0.303125 0.500000
vt 0.353125 0.500000
vt 0.315625 0.500000
vt 0.315625 1.000000
vt 0.340625 1.000000
vt 0.340625 0.500000
vt 0.315625 1.000000
vt 0.315625 0.500000
vt 0.340625 0.500000
vt 0.340625 1.000000
vn 0.0000 -0.9988 -0.0500
vn -1.0000 0.0000 0.0000
vn 0.0000 0.9988 0.0500
vn 1.0000 0.0000 0.0000
vn 0.0000 0.0500 -0.9988
vn 0.0000 -0.0500 0.9988
vn 0.0000 -0.9990 0.0452
vn 0.0000 0.9990 -0.0452
vn 0.0000 -0.0452 -0.9990
vn 0.0000 0.0452 0.9990
vn 0.0000 -1.0000 0.0000
vn 0.0000 1.0000 0.0000
vn 0.0000 0.0000 -1.0000
vn 0.0000 0.0000 1.0000
vn 0.0000 -0.9982 -0.0604
vn 0.0000 0.9982 0.0604
vn 0.0000 0.0604 -0.9982
vn 0.0000 -0.0604 0.9982
vn 0.0000 -0.9993 -0.0378
vn 0.0000 0.9993 0.0378
vn 0.0000 0.0378 -0.9993
vn 0.0000 -0.0378 0.9993
usemtl Material.001
s off
f 1/1/1 2/2/1 4/3/1 3/4/1
f 3/5/2 4/6/2 8/7/2 7/8/2
f 7/9/3 8/10/3 6/11/3 5/12/3
f 5/13/4 6/14/4 2/15/4 1/16/4
f 3/17/5 7/18/5 5/19/5 1/20/5
f 8/21/6 4/22/6 2/23/6 6/24/6
f 9/25/7 10/26/7 12/27/7 11/28/7
f 11/29/2 12/30/2 16/31/2 15/32/2
f 15/33/8 16/34/8 14/35/8 13/36/8
f 13/37/4 14/38/4 10/39/4 9/40/4
f 11/41/9 15/42/9 13/43/9 9/44/9
f 16/45/10 12/46/10 10/47/10 14/48/10
f 17/49/7 18/50/7 20/51/7 19/52/7
f 19/53/2 20/54/2 24/55/2 23/56/2
f 23/57/8 24/58/8 22/59/8 21/60/8
f 21/61/4 22/62/4 18/63/4 17/64/4
f 19/65/9 23/66/9 21/67/9 17/68/9
f 24/69/10 20/70/10 18/71/10 22/72/10
f 25/73/11 26/74/11 28/75/11 27/76/11
f 27/77/2 28/78/2 32/79/2 31/80/2
f 31/81/12 32/82/12 30/83/12 29/84/12
f 29/85/4 30/86/4 26/87/4 25/88/4
f 27/89/13 31/90/13 29/91/13 25/92/13
f 32/93/14 28/94/14 26/95/14 30/96/14
f 33/97/15 34/98/15 36/99/15 35/100/15
f 35/101/2 36/102/2 40/103/2 39/104/2
f 39/105/16 40/106/16 38/107/16 37/108/16
f 37/109/4 38/110/4 34/111/4 33/112/4
f 35/113/17 39/114/17 37/115/17 33/116/17
f 40/117/18 36/118/18 34/119/18 38/120/18
f 41/121/19 42/122/19 44/123/19 43/124/19
f 43/125/2 44/126/2 48/127/2 47/128/2
f 47/129/20 48/130/20 46/131/20 45/132/20
f 45/133/4 46/134/4 42/135/4 41/136/4
f 43/137/21 47/138/21 45/139/21 41/140/21
f 48/141/22 44/142/22 42/143/22 46/144/22
