# OBJ File Exported By Crafty (c) 2006 Ryan Gregg
# http://nemesis.thewavelength.net/

mtllib tdr_d_flag.mtl

v 4.782202 -57.056499 234.224197
v 4.782197 79.320702 234.224197
v 4.782197 79.320702 230.843597
v 4.782202 -57.056499 230.843597
v 8.522596 79.320702 230.843597
v 8.522603 -57.056499 234.224197
v 8.522596 79.320702 234.224197
v 8.522603 -57.056499 230.843597
v 4.782197 79.320702 230.843597
v 8.522596 79.320702 230.843597
v 8.522603 -57.056499 230.843597
v 4.782202 -57.056499 230.843597
v 4.782202 -57.056499 234.224197
v 8.522596 79.320702 234.224197
v 8.522603 -57.056499 234.224197
v 4.782197 79.320702 234.224197
v 4.782202 -57.056499 230.843597
v 4.782202 -57.056499 234.224197
v 8.522603 -57.056499 234.224197
v 8.522603 -57.056499 230.843597
v 8.522603 -57.056499 230.843597
v 4.782202 -57.056499 230.843597
v 4.782202 -57.056499 234.224197
v 3.551803 -58.206200 229.731506
v 8.522603 -57.056499 234.224197
v 9.753003 -58.206200 235.336304
v 3.551803 -58.206200 235.336304
v 9.753003 -58.206200 229.731506
v 9.753003 -58.206200 229.731506
v 3.551803 -58.206200 229.731506
v 3.551803 -58.206200 235.336304
v 5.328203 -69.151100 231.337006
v 9.753003 -58.206200 235.336304
v 7.976603 -69.151100 233.730804
v 5.328203 -69.151100 233.730804
v 7.976603 -69.151100 231.337006
v 7.976603 -69.151100 231.337006
v 5.328203 -69.151100 233.730804
v 5.328203 -69.151100 231.337006
v 4.726003 -69.523102 230.792801
v 4.726003 -69.523102 234.274994
v 7.976603 -69.151100 233.730804
v 8.578803 -69.523102 234.274994
v 8.578803 -69.523102 230.792801
v 8.578803 -69.523102 230.792801
v 4.726003 -69.523102 230.792801
v 6.652404 -81.931999 232.533905
v 4.726003 -69.523102 234.274994
v 6.652404 -81.931999 232.533905
v 8.578803 -69.523102 234.274994
v 0.334297 79.277901 221.504501
v 12.958097 83.018303 221.504501
v 0.334296 83.018303 221.504501
v 12.958097 79.277901 221.504501
v 12.958097 83.018303 255.635498
v 0.334296 83.018303 255.635498
v 0.334297 79.277901 255.635498
v 12.958097 79.277901 255.635498
v 12.958097 83.018303 221.504501
v 12.958097 79.277901 255.635498
v 12.958097 83.018303 255.635498
v 12.958097 79.277901 221.504501
v 0.334297 79.277901 221.504501
v 0.334296 83.018303 255.635498
v 0.334297 79.277901 255.635498
v 0.334296 83.018303 221.504501
v 12.958097 79.277901 221.504501
v 12.958097 79.277901 255.635498
v 0.334297 79.277901 255.635498
v 0.334297 79.277901 221.504501
v 5.439497 53.417198 233.402206
v 5.439497 79.517899 253.698700
v 5.439497 81.401100 251.454300
v 5.439497 55.300400 231.157898
v 8.010996 81.401100 251.454300
v 8.010998 53.417198 233.402206
v 8.010996 79.517899 253.698700
v 8.010997 55.300400 231.157898
v 5.439497 81.401100 251.454300
v 8.010996 81.401100 251.454300
v 8.010997 55.300400 231.157898
v 5.439497 55.300400 231.157898
v 5.439497 53.417198 233.402206
v 8.010998 53.417198 233.402206
v 8.010996 79.517899 253.698700
v 5.439497 79.517899 253.698700
v 18.329002 -42.438400 -0.885500
v 18.329002 -26.569300 -0.885500
v 18.329000 -10.700299 -0.885500
v 18.328999 36.907001 -0.885500
v 18.329000 5.168801 -0.885500
v 18.329000 21.037901 -0.885500
v 8.441102 -42.438400 46.512199
v 8.441101 -26.569300 46.512199
v 8.441100 -10.700300 46.512199
v 8.441100 5.168800 46.512199
v 8.441098 36.907001 46.512199
v 8.441099 21.037901 46.512199
v 5.038802 -42.438400 86.779800
v 5.038801 -26.569300 86.779800
v 5.038800 -10.700300 86.779800
v 5.038798 36.907001 86.779800
v 5.038800 5.168800 86.779800
v 5.038799 21.037901 86.779800
v 9.971702 -42.438400 130.216293
v 9.971701 -26.569300 130.216293
v 9.971700 -10.700300 130.216293
v 9.971698 36.907001 130.216293
v 9.971700 5.168800 130.216293
v 9.971699 21.037901 130.216293
v 6.668502 -42.438400 230.959106
v 3.986102 -42.438400 182.248001
v 3.986101 -26.569300 182.248001
v 6.668501 -26.569300 230.959106
v 3.986100 -10.700300 182.248001
v 6.668500 -10.700300 230.959106
v 3.986100 5.168800 182.248001
v 3.986098 36.907001 182.248001
v 6.668500 5.168800 230.959106
v 6.668499 21.037901 230.959106
v 6.668499 36.907001 230.959106
v 3.986099 21.037901 182.248001
vn -1.000000 -0.000000 0.000000
vn -1.000000 -0.000000 0.000000
vn -1.000000 -0.000000 0.000000
vn -1.000000 -0.000000 0.000000
vn 1.000000 0.000000 0.000000
vn 1.000000 0.000000 0.000000
vn 1.000000 0.000000 0.000000
vn 1.000000 0.000000 0.000000
vn 0.000000 0.000000 -1.000000
vn 0.000000 0.000000 -1.000000
vn 0.000000 0.000000 -1.000000
vn 0.000000 0.000000 -1.000000
vn 0.000000 0.000000 1.000000
vn 0.000000 0.000000 1.000000
vn 0.000000 0.000000 1.000000
vn 0.000000 0.000000 1.000000
vn -0.000000 0.695260 -0.718759
vn -0.000000 0.695260 0.718759
vn -0.000000 0.695260 0.718759
vn -0.000000 0.695260 -0.718759
vn -0.000000 0.695260 -0.718759
vn -0.000000 0.695260 -0.718759
vn -0.000000 0.695260 0.718759
vn 0.000000 -0.145102 -0.989417
vn -0.000000 0.695260 0.718759
vn 0.000000 -0.145102 0.989417
vn 0.000000 -0.145102 0.989417
vn 0.000000 -0.145102 -0.989417
vn 0.000000 -0.145102 -0.989417
vn 0.000000 -0.145102 -0.989417
vn 0.000000 -0.145102 0.989417
vn -0.000000 0.825579 -0.564286
vn 0.000000 -0.145102 0.989417
vn -0.000000 0.825579 0.564286
vn -0.000000 0.825579 0.564286
vn -0.000000 0.825579 -0.564286
vn -0.000000 0.825579 -0.564286
vn -0.000000 0.825579 0.564286
vn -0.000000 0.825579 -0.564286
vn 0.000000 -0.138999 -0.990293
vn 0.000000 -0.138999 0.990293
vn -0.000000 0.825579 0.564286
vn 0.000000 -0.138999 0.990293
vn 0.000000 -0.138999 -0.990293
vn 0.000000 -0.138999 -0.990293
vn 0.000000 -0.138999 -0.990293
vn 0.000000 -0.138999 0.990293
vn 0.000000 -0.138999 0.990293
vn 0.000000 -0.138999 0.990293
vn 0.000000 -0.138999 0.990293
vn 0.000000 0.000000 -1.000000
vn 0.000000 0.000000 -1.000000
vn 0.000000 0.000000 -1.000000
vn 0.000000 0.000000 -1.000000
vn 0.000000 0.000000 1.000000
vn 0.000000 0.000000 1.000000
vn 0.000000 0.000000 1.000000
vn 0.000000 0.000000 1.000000
vn 1.000000 0.000000 0.000000
vn 1.000000 0.000000 0.000000
vn 1.000000 0.000000 0.000000
vn 1.000000 0.000000 0.000000
vn -1.000000 -0.000000 0.000000
vn -1.000000 -0.000000 0.000000
vn -1.000000 -0.000000 0.000000
vn -1.000000 -0.000000 0.000000
vn 0.000000 -1.000000 0.000000
vn 0.000000 -1.000000 0.000000
vn 0.000000 -1.000000 0.000000
vn 0.000000 -1.000000 0.000000
vn -1.000000 -0.000000 0.000000
vn -1.000000 -0.000000 0.000000
vn -1.000000 -0.000000 0.000000
vn -1.000000 -0.000000 0.000000
vn 1.000000 0.000000 0.000000
vn 1.000000 0.000000 0.000000
vn 1.000000 0.000000 0.000000
vn 1.000000 0.000000 0.000000
vn -0.000000 0.613892 -0.789390
vn -0.000000 0.613892 -0.789390
vn -0.000000 0.613892 -0.789390
vn -0.000000 0.613892 -0.789390
vn 0.000000 -0.613892 0.789390
vn 0.000000 -0.613892 0.789390
vn 0.000000 -0.613892 0.789390
vn 0.000000 -0.613892 0.789390
vn 0.978928 0.000000 0.204206
vn 0.978928 0.000000 0.204206
vn 0.978928 0.000000 0.204206
vn 0.978928 0.000000 0.204206
vn 0.978928 0.000000 0.204206
vn 0.978928 0.000000 0.204206
vn 0.991593 0.000000 0.129399
vn 0.988701 0.000000 0.149900
vn 0.988701 0.000000 0.149900
vn 0.988701 0.000000 0.149900
vn 0.985599 0.000000 0.169100
vn 0.988701 0.000000 0.149900
vn 0.998709 0.000000 -0.050800
vn 0.999833 0.000000 -0.018301
vn 0.999833 0.000000 -0.018301
vn 0.999886 0.000000 0.015100
vn 0.999833 0.000000 -0.018301
vn 0.999833 0.000000 -0.018301
vn 0.998862 0.000000 0.047698
vn 0.999940 0.000000 0.011000
vn 0.999940 0.000000 0.011000
vn 0.999611 0.000000 -0.027900
vn 0.999940 0.000000 0.011000
vn 0.999940 0.000000 0.011000
vn 0.998486 0.000000 -0.054999
vn 0.999991 0.000000 0.004200
vn 0.999462 0.000000 0.032799
vn 0.998486 0.000000 -0.054999
vn 0.999462 0.000000 0.032799
vn 0.998486 0.000000 -0.054999
vn 0.999462 0.000000 0.032799
vn 0.998156 0.000000 0.060697
vn 0.998486 0.000000 -0.054999
vn 0.998486 0.000000 -0.054999
vn 0.998486 0.000000 -0.054999
vn 0.999462 0.000000 0.032799
vt 0.467000 -0.162100
vt 0.467000 -0.964900
vt 0.447100 -0.964900
vt 0.447100 -0.162100
vt 0.447100 -0.964900
vt 0.467000 -0.162100
vt 0.467000 -0.964900
vt 0.447100 -0.162100
vt 0.631700 -0.963000
vt 0.653900 -0.963000
vt 0.653900 -0.152900
vt 0.631700 -0.152900
vt 0.631700 -0.152900
vt 0.653900 -0.963000
vt 0.653900 -0.152900
vt 0.631700 -0.963000
vt 0.447100 -0.162100
vt 0.467000 -0.162100
vt 0.467000 -0.162100
vt 0.447100 -0.162100
vt 0.653900 -0.152900
vt 0.631700 -0.152900
vt 0.631700 -0.152900
vt 0.440600 -0.155400
vt 0.653900 -0.152900
vt 0.473600 -0.155400
vt 0.473600 -0.155400
vt 0.661200 -0.146100
vt 0.440600 -0.155400
vt 0.624300 -0.146100
vt 0.624300 -0.146100
vt 0.450000 -0.090900
vt 0.661200 -0.146100
vt 0.464100 -0.090900
vt 0.464100 -0.090900
vt 0.450000 -0.090900
vt 0.650600 -0.081100
vt 0.634900 -0.081100
vt 0.634900 -0.081100
vt 0.446800 -0.088700
vt 0.467300 -0.088700
vt 0.650600 -0.081100
vt 0.467300 -0.088700
vt 0.446800 -0.088700
vt 0.654200 -0.078900
vt 0.631300 -0.078900
vt 0.457100 -0.015700
vt 0.631300 -0.078900
vt 0.642800 -0.005200
vt 0.654200 -0.078900
vt 0.605200 -0.962800
vt 0.680200 -0.985000
vt 0.605200 -0.985000
vt 0.680200 -0.962800
vt 0.680200 -0.985000
vt 0.605200 -0.985000
vt 0.605200 -0.962800
vt 0.680200 -0.962800
vt 0.392200 -0.986600
vt 0.593100 -0.964600
vt 0.593100 -0.986600
vt 0.392200 -0.964600
vt 0.392200 -0.964600
vt 0.593100 -0.986600
vt 0.593100 -0.964600
vt 0.392200 -0.986600
vt 0.623800 -0.795200
vt 0.623800 -0.392400
vt 0.474800 -0.392400
vt 0.474800 -0.795200
vt 0.462200 -0.812400
vt 0.581700 -0.966000
vt 0.568500 -0.977100
vt 0.449000 -0.823500
vt 0.568500 -0.977100
vt 0.462200 -0.812400
vt 0.581700 -0.966000
vt 0.449000 -0.823500
vt 0.635600 -0.975400
vt 0.650800 -0.975400
vt 0.650800 -0.820300
vt 0.635600 -0.820300
vt 0.635600 -0.809100
vt 0.650800 -0.809100
vt 0.650800 -0.964200
vt 0.635600 -0.964200
vt 0.012300 -0.982100
vt 0.086000 -0.982100
vt 0.159700 -0.982100
vt 0.380800 -0.982100
vt 0.233400 -0.982100
vt 0.307100 -0.982100
vt 0.012300 -0.787500
vt 0.086000 -0.787500
vt 0.159700 -0.787500
vt 0.233400 -0.787500
vt 0.380800 -0.787500
vt 0.307100 -0.787500
vt 0.012300 -0.593000
vt 0.086000 -0.593000
vt 0.159700 -0.593000
vt 0.380800 -0.593000
vt 0.233400 -0.593000
vt 0.307100 -0.593000
vt 0.012300 -0.398400
vt 0.086000 -0.398400
vt 0.159700 -0.398400
vt 0.380800 -0.398400
vt 0.233400 -0.398400
vt 0.307100 -0.398400
vt 0.012300 -0.009200
vt 0.012300 -0.203800
vt 0.086000 -0.203800
vt 0.086000 -0.009200
vt 0.159700 -0.203800
vt 0.159700 -0.009200
vt 0.233400 -0.203800
vt 0.380800 -0.203800
vt 0.233400 -0.009200
vt 0.307100 -0.009200
vt 0.380800 -0.009200
vt 0.307100 -0.203800
g Body.flag05.smd.mesh_0
usemtl material_0
f 9/9/9 10/10/10 12/12/12
f 11/11/11 12/12/12 10/10/10
f 90/90/90 97/97/97 92/92/92
f 97/97/97 102/102/102 98/98/98
f 98/98/98 92/92/92 97/97/97
f 92/92/92 98/98/98 91/91/91
f 102/102/102 108/108/108 104/104/104
f 104/104/104 98/98/98 102/102/102
f 98/98/98 104/104/104 96/96/96
f 96/96/96 91/91/91 98/98/98
f 91/91/91 96/96/96 89/89/89
f 108/108/108 118/118/118 110/110/110
f 110/110/110 104/104/104 108/108/108
f 104/104/104 110/110/110 103/103/103
f 103/103/103 96/96/96 104/104/104
f 96/96/96 103/103/103 95/95/95
f 95/95/95 89/89/89 96/96/96
f 89/89/89 95/95/95 88/88/88
f 105/105/105 99/99/99 106/106/106
f 100/100/100 106/106/106 99/99/99
f 99/99/99 93/93/93 100/100/100
f 94/94/94 100/100/100 93/93/93
f 93/93/93 87/87/87 94/94/94
f 88/88/88 94/94/94 87/87/87
f 94/94/94 88/88/88 95/95/95
f 95/95/95 101/101/101 94/94/94
f 101/101/101 95/95/95 103/103/103
f 103/103/103 109/109/109 101/101/101
f 109/109/109 103/103/103 110/110/110
f 110/110/110 122/122/122 109/109/109
f 122/122/122 110/110/110 118/118/118
f 118/118/118 121/121/121 122/122/122
f 120/120/120 122/122/122 121/121/121
f 122/122/122 120/120/120 117/117/117
f 119/119/119 117/117/117 120/120/120
f 117/117/117 119/119/119 115/115/115
f 100/100/100 94/94/94 101/101/101
f 101/101/101 107/107/107 100/100/100
f 106/106/106 100/100/100 107/107/107
f 107/107/107 101/101/101 109/109/109
f 112/112/112 105/105/105 113/113/113
f 106/106/106 113/113/113 105/105/105
f 113/113/113 106/106/106 115/115/115
f 107/107/107 115/115/115 106/106/106
f 115/115/115 107/107/107 117/117/117
f 109/109/109 117/117/117 107/107/107
f 117/117/117 109/109/109 122/122/122
f 116/116/116 115/115/115 119/119/119
f 115/115/115 116/116/116 113/113/113
f 114/114/114 113/113/113 116/116/116
f 113/113/113 114/114/114 112/112/112
f 111/111/111 112/112/112 114/114/114
f 43/43/43 47/47/47 44/44/44
f 44/44/44 36/36/36 43/43/43
f 34/34/34 43/43/43 36/36/36
f 36/36/36 29/29/29 34/34/34
f 26/26/26 34/34/34 29/29/29
f 29/29/29 20/20/20 26/26/26
f 19/19/19 26/26/26 20/20/20
f 40/40/40 47/47/47 41/41/41
f 41/41/41 35/35/35 40/40/40
f 32/32/32 40/40/40 35/35/35
f 35/35/35 27/27/27 32/32/32
f 24/24/24 32/32/32 27/27/27
f 27/27/27 18/18/18 24/24/24
f 17/17/17 24/24/24 18/18/18
f 45/45/45 49/49/49 46/46/46
f 46/46/46 39/39/39 45/45/45
f 37/37/37 45/45/45 39/39/39
f 39/39/39 30/30/30 37/37/37
f 28/28/28 37/37/37 30/30/30
f 30/30/30 22/22/22 28/28/28
f 21/21/21 28/28/28 22/22/22
f 48/48/48 49/49/49 50/50/50
f 50/50/50 42/42/42 48/48/48
f 38/38/38 48/48/48 42/42/42
f 42/42/42 33/33/33 38/38/38
f 31/31/31 38/38/38 33/33/33
f 33/33/33 25/25/25 31/31/31
f 23/23/23 31/31/31 25/25/25
f 14/14/14 16/16/16 15/15/15
f 13/13/13 15/15/15 16/16/16
f 52/52/52 54/54/54 53/53/53
f 51/51/51 53/53/53 54/54/54
f 57/57/57 58/58/58 56/56/56
f 55/55/55 56/56/56 58/58/58
f 60/60/60 62/62/62 61/61/61
f 59/59/59 61/61/61 62/62/62
f 64/64/64 66/66/66 65/65/65
f 63/63/63 65/65/65 66/66/66
f 69/69/69 70/70/70 68/68/68
f 67/67/67 68/68/68 70/70/70
f 73/73/73 74/74/74 72/72/72
f 71/71/71 72/72/72 74/74/74
f 76/76/76 78/78/78 77/77/77
f 75/75/75 77/77/77 78/78/78
f 81/81/81 82/82/82 80/80/80
f 79/79/79 80/80/80 82/82/82
f 85/85/85 86/86/86 84/84/84
f 83/83/83 84/84/84 86/86/86
f 3/3/3 4/4/4 2/2/2
f 1/1/1 2/2/2 4/4/4
f 6/6/6 8/8/8 7/7/7
f 5/5/5 7/7/7 8/8/8
