# Blender v2.80 (sub 45) OBJ File: ''
# www.blender.org
mtllib monty_cube_smooth.mtl
o Cube
v 512.000000 -512.000000 0.000000
v 512.000000 -512.000000 1024.000000
v -512.000000 -512.000000 0.000000
v -512.000000 -512.000000 1024.000000
v 512.000000 512.000000 0.000000
v 512.000000 512.000000 1024.000000
v -512.000000 512.000000 0.000000
v -512.000000 512.000000 1024.000000
vt 0.375000 0.000000
vt 0.625000 0.000000
vt 0.625000 0.250000
vt 0.375000 0.250000
vt 0.625000 0.500000
vt 0.375000 0.500000
vt 0.625000 0.750000
vt 0.375000 0.750000
vt 0.625000 1.000000
vt 0.375000 1.000000
vt 0.125000 0.500000
vt 0.125000 0.750000
vt 0.875000 0.500000
vt 0.875000 0.750000
vn 0.5773 -0.5773 -0.5773
vn 0.5773 -0.5773 0.5773
vn -0.5773 -0.5773 0.5773
vn -0.5773 -0.5773 -0.5773
vn -0.5773 0.5773 0.5773
vn -0.5773 0.5773 -0.5773
vn 0.5773 0.5773 0.5773
vn 0.5773 0.5773 -0.5773
usemtl Material.001
s 1
f 1/1/1 2/2/2 4/3/3 3/4/4
f 3/4/4 4/3/3 8/5/5 7/6/6
f 7/6/6 8/5/5 6/7/7 5/8/8
f 5/8/8 6/7/7 2/9/2 1/10/1
f 3/11/4 7/6/6 5/8/8 1/12/1
f 8/5/5 4/13/3 2/14/2 6/7/7
