# Blender v2.80 (sub 45) OBJ File: ''
# www.blender.org
mtllib monty_ico_20faces_smooth.mtl
o Icosphere.001
v 0.000000 0.000000 0.000000
v 269.168610 370.483185 283.025909
v 435.527710 -141.509109 283.025909
v 0.000000 -457.945587 283.025909
v -435.527710 -141.509109 283.025909
v -269.168610 370.483185 283.025909
v 435.527710 141.509109 740.974060
v 269.168610 -370.483185 740.974060
v -269.168610 -370.483185 740.974060
v -435.527710 141.509109 740.974060
v 0.000000 457.945587 740.974060
v 0.000000 0.000000 1024.000000
vt 0.818181 0.000000
vt 0.727272 0.157461
vt 0.909090 0.157461
vt 0.636363 0.000000
vt 0.545454 0.157461
vt 0.090909 0.000000
vt 0.000000 0.157461
vt 0.181818 0.157461
vt 0.272727 0.000000
vt 0.363636 0.157461
vt 0.454545 0.000000
vt 0.636363 0.314921
vt 0.818181 0.314921
vt 0.090909 0.314921
vt 0.272727 0.314921
vt 0.454545 0.314921
vt 1.000000 0.314921
vt 0.727272 0.472382
vt 0.909090 0.472382
vt 0.181818 0.472382
vt 0.363636 0.472382
vt 0.545454 0.472382
vn 0.0000 0.0000 -1.0000
vn 0.5257 0.7236 -0.4472
vn 0.8506 -0.2764 -0.4472
vn -0.5257 0.7236 -0.4472
vn 0.0000 -0.8944 -0.4472
vn -0.8506 -0.2764 -0.4472
vn 0.0000 0.8944 0.4472
vn 0.8506 0.2764 0.4472
vn 0.5257 -0.7236 0.4472
vn -0.5257 -0.7236 0.4472
vn -0.8506 0.2764 0.4472
vn 0.0000 0.0000 1.0000
usemtl Material.001
s 1
f 1/1/1 2/2/2 3/3/3
f 2/2/2 1/4/1 6/5/4
f 1/6/1 3/7/3 4/8/5
f 1/9/1 4/8/5 5/10/6
f 1/11/1 5/10/6 6/5/4
f 2/2/2 6/5/4 11/12/7
f 3/3/3 2/2/2 7/13/8
f 4/8/5 3/7/3 8/14/9
f 5/10/6 4/8/5 9/15/10
f 6/5/4 5/10/6 10/16/11
f 2/2/2 11/12/7 7/13/8
f 3/3/3 7/13/8 8/17/9
f 4/8/5 8/14/9 9/15/10
f 5/10/6 9/15/10 10/16/11
f 6/5/4 10/16/11 11/12/7
f 7/13/8 11/12/7 12/18/12
f 8/17/9 7/13/8 12/19/12
f 9/15/10 8/14/9 12/20/12
f 10/16/11 9/15/10 12/21/12
f 11/12/7 10/16/11 12/22/12
