# Blender v2.80 (sub 45) OBJ File: 'tdr_d_room_b.blend'
# www.blender.org
mtllib tdr_d_room_b_effects.mtl
o Plane.001
v 1792.000000 -512.000000 1715.199829
v 1792.000000 512.000000 1715.199829
v 768.000000 -512.000000 1024.000000
v 768.000000 512.000000 1024.000000
v 1792.000000 -512.000000 1715.199829
v 1792.000000 512.000000 1715.199829
v 768.000000 -512.000000 1024.000000
v 768.000000 512.000000 1024.000000
vt 1.000000 1.000000
vt 1.000000 0.000000
vt 0.000000 0.000000
vt 0.000000 1.000000
vt 1.000000 1.000000
vt 0.000000 1.000000
vt 0.000000 0.000000
vt 1.000000 0.000000
vn 0.5595 0.0000 -0.8288
vn -0.5595 0.0000 0.8288
usemtl tdr_d_light_a
s off
f 1/1/1 3/2/1 4/3/1 2/4/1
f 5/5/2 6/6/2 8/7/2 7/8/2
o Plane.000_Plane.002
v -3840.000244 -512.000000 1715.199829
v -3840.000244 512.000000 1715.199829
v -2816.000000 -512.000000 1024.000000
v -2816.000000 512.000000 1024.000000
v -3840.000244 -512.000000 1715.199829
v -3840.000244 512.000000 1715.199829
v -2816.000000 -512.000000 1024.000000
v -2816.000000 512.000000 1024.000000
v -1536.000244 1664.000000 179.199966
v -512.000244 1664.000000 179.199966
v -1536.000000 639.999695 0.000095
v -512.000183 639.999878 0.000095
v -1536.000244 1664.000000 179.199966
v -512.000244 1664.000000 179.199966
v -1536.000000 639.999695 0.000095
v -512.000183 639.999878 0.000095
v -512.000000 -1664.000000 179.199966
v -1536.000000 -1664.000366 179.199966
v -512.000366 -639.999695 0.000095
v -1536.000244 -640.000244 0.000095
v -512.000000 -1664.000000 179.199966
v -1536.000000 -1664.000366 179.199966
v -512.000366 -639.999695 0.000095
v -1536.000244 -640.000244 0.000095
vt 1.000000 1.000000
vt 0.000000 1.000000
vt 0.000000 0.000000
vt 1.000000 0.000000
vt 1.000000 1.000000
vt 1.000000 0.000000
vt 0.000000 0.000000
vt 0.000000 1.000000
vt 1.000000 1.000000
vt 0.000000 1.000000
vt 0.000000 0.000000
vt 1.000000 0.000000
vt 1.000000 1.000000
vt 1.000000 0.000000
vt 0.000000 0.000000
vt 0.000000 1.000000
vt 1.000000 1.000000
vt 0.000000 1.000000
vt 0.000000 0.000000
vt 1.000000 0.000000
vt 1.000000 1.000000
vt 1.000000 0.000000
vt 0.000000 0.000000
vt 0.000000 1.000000
vn -0.5595 0.0000 -0.8288
vn 0.5595 0.0000 0.8288
vn -0.0000 0.1724 -0.9850
vn 0.0000 -0.1724 0.9850
vn 0.0000 -0.1724 -0.9850
vn -0.0000 0.1724 0.9850
usemtl tdr_d_light_a
s off
f 9/9/3 10/10/3 12/11/3 11/12/3
f 13/13/4 15/14/4 16/15/4 14/16/4
f 17/17/5 18/18/5 20/19/5 19/20/5
f 21/21/6 23/22/6 24/23/6 22/24/6
f 25/25/7 26/26/7 28/27/7 27/28/7
f 29/29/8 31/30/8 32/31/8 30/32/8
