# Blender v2.80 (sub 45) OBJ File: 'tdr_d_cavern_a.blend'
# www.blender.org
mtllib tdr_d_cavern_a.mtl
o Plane
v -1459.749878 431.271790 2304.000000
v -1967.182861 499.504517 2304.000000
v -1561.575195 175.326721 2304.000000
v -2002.796143 234.656143 2304.000000
v -1561.575195 175.326721 2329.600098
v -1459.749878 431.271790 2329.600098
v -1967.182861 499.504517 2329.600098
v -2002.796143 234.656143 2329.600098
vt 0.140561 0.215054
vt 0.000000 0.000000
vt 0.130484 0.000000
vt 0.000000 0.250000
vt 0.110624 0.055429
vt 0.256937 0.069571
vt 0.256937 0.055429
vt 0.219242 0.055429
vt 0.077848 0.069571
vt 0.077848 0.055429
vt 0.063271 0.055429
vt 0.307018 0.069571
vt 0.307018 0.055429
vt 0.287344 0.055429
vt 0.007018 0.069571
vt 0.007018 0.055429
vt 0.110624 0.069571
vt 0.219242 0.069571
vt 0.063271 0.069571
vt 0.287344 0.069571
vn 0.0000 0.0000 1.0000
vn -0.9911 0.1333 0.0000
vn 0.9292 -0.3697 0.0000
vn -0.1333 -0.9911 0.0000
vn 0.1333 0.9911 0.0000
usemtl tdr_d_wall
s off
f 5/1/1 7/2/1 8/3/1
f 5/1/1 6/4/1 7/2/1
usemtl tdr_d_wall_flat
f 4/5/2 7/6/2 2/7/2
f 1/8/3 5/9/3 3/10/3
f 3/11/4 8/12/4 4/13/4
f 2/14/5 6/15/5 1/16/5
f 4/5/2 8/17/2 7/6/2
f 1/8/3 6/18/3 5/9/3
f 3/11/4 5/19/4 8/12/4
f 2/14/5 7/20/5 6/15/5
o Plane.001
v -2230.591553 -711.795105 2304.000000
v -2407.556152 -526.809509 2304.000000
v -1552.969482 -325.376373 2304.000000
v -1860.715820 -3.680873 2304.000000
v -2407.556152 -526.809509 2329.600098
v -2230.591553 -711.795105 2329.600098
v -1860.715820 -3.680873 2329.600098
v -1552.969482 -325.376373 2329.600098
vt 0.500000 0.125000
vt 0.130484 0.000000
vt 0.500000 0.000000
vt 0.140561 0.215054
vt 0.247886 0.058096
vt 0.107664 0.066904
vt 0.107664 0.058096
vt -0.003170 0.058096
vt 0.235188 0.066904
vt 0.235188 0.058096
vt 0.296830 0.058096
vt 0.032276 0.066904
vt 0.032276 0.058096
vt 0.062471 0.058096
vt 0.143103 0.066904
vt 0.143103 0.058096
vt 0.247886 0.066904
vt -0.003170 0.066904
vt 0.296830 0.066904
vt 0.062471 0.066904
vn 0.0000 0.0000 1.0000
vn 0.7226 0.6913 0.0000
vn -0.6913 0.7226 0.0000
vn 0.4954 -0.8687 0.0000
vn -0.7226 -0.6913 0.0000
usemtl tdr_d_wall
s off
f 14/21/6 15/22/6 13/23/6
f 14/21/6 16/24/6 15/22/6
usemtl tdr_d_wall_flat
f 12/25/7 16/26/7 11/27/7
f 10/28/8 15/29/8 12/30/8
f 11/31/9 14/32/9 9/33/9
f 9/34/10 13/35/10 10/36/10
f 12/25/7 15/37/7 16/26/7
f 10/28/8 13/38/8 15/29/8
f 11/31/9 16/39/9 14/32/9
f 9/34/10 14/40/10 13/35/10
o Plane.004
v -2560.000000 -1535.999756 3328.000000
v -1536.000000 -440.157745 2304.000000
v -2560.000000 -1535.999878 2304.000000
v 547.089844 549.549561 -32.834858
v 475.890778 500.460632 1042.258423
v 547.089722 -549.549744 -32.834774
v -549.242065 -549.242188 -35.064274
v -693.834167 -693.834290 1065.771729
v -549.242188 549.242310 -35.064167
v -693.834167 693.834412 1065.771729
v -566.101807 538.501038 1792.000244
v -566.102051 -538.501038 1792.000000
v -512.000061 446.738434 2634.023193
v -1536.000000 512.000000 2775.766113
v 475.890686 -500.460632 1042.258423
v -511.999939 -446.738434 2636.809570
v 374.458344 380.578766 512.000061
v -525.974731 -525.052368 484.891937
v -565.002014 538.501099 1427.875854
v -532.975647 -0.000015 1800.281738
v -1536.000000 0.000004 2304.000000
v -1509.624634 -0.000015 2711.269287
v -1024.000000 545.126282 2840.844727
v -47.156940 -459.790802 1913.932007
v -0.922352 552.736206 -37.968868
v 0.000039 511.999939 1024.000000
v -525.974792 423.877777 484.891846
v -0.922436 -552.736267 -37.968975
v -457.325378 0.000039 54.674530
v 457.325378 -0.000030 54.674530
v 581.494263 -544.588196 456.315674
v 466.974823 -0.000002 1065.555542
v 176.801453 -510.074524 944.193054
v -511.999878 -0.000026 1032.281494
v -565.002136 -538.501038 1427.875732
v -1024.000000 -545.126282 2023.155273
v -1024.000000 545.126343 2023.155273
v -1536.000000 465.355743 2559.999756
v -1536.000000 -512.000000 2559.999756
v -1024.000000 -545.126343 2857.407715
v -511.442749 0.000005 2716.002197
v -47.156872 459.790802 1913.932007
v 44.168510 511.999939 1363.831665
v -538.500916 512.000000 2363.627686
v 44.168243 -512.000000 1363.831665
v -538.501038 -512.000000 2363.627686
v -1062.530518 608.326782 2518.695068
v -1062.530518 -608.326904 2542.776367
v 90.759087 -0.000001 1967.261108
v -982.282837 0.000046 2789.024658
v -1024.000000 -0.000004 2075.720703
v -512.000000 0.000050 1408.000000
v -527.688599 0.000031 508.077820
v 0.415949 -578.692078 493.257751
v 532.918152 -0.000002 502.848236
v -0.000000 -0.000002 -20.918274
v 0.415846 578.692078 493.257843
v -1535.999878 -511.999939 3328.000000
v -1536.000000 512.000061 3328.000000
v -2559.999756 512.000061 3328.000000
v -1536.000000 511.999939 2304.000000
v -2559.999756 512.000061 2304.000000
v -1535.999878 0.000033 3328.000000
v -1535.999878 -511.999939 2943.999756
v -1536.000000 512.000000 3072.000000
v -1536.000000 0.000011 3024.378662
v -1493.799438 235.035355 2711.054932
v -1279.999878 528.563232 2828.422363
v -1074.924683 -297.073425 2811.352295
v -1074.924683 297.073425 2830.124268
v -1313.510742 -0.000027 2746.125488
v -1279.999878 -528.563171 2708.703857
v -1278.569702 258.260712 2811.820801
v -1493.799438 -235.035400 2697.206787
v -1278.569702 -258.260651 2702.421631
v -1536.000000 512.000000 2944.000000
v -1536.000000 -511.999939 2751.999756
v -1536.000000 -256.000000 2951.978027
v -1536.000000 255.999939 3020.345703
v -1536.000000 -0.000003 2848.000000
v -1536.000000 -256.000000 2800.000000
v -1536.000000 255.999939 2896.000000
v -1792.000000 512.000000 2816.000000
v -1792.000000 512.000000 2560.000000
v -1535.999878 -512.000000 2816.000000
v -1792.000000 -768.000000 2304.000000
v -1535.999878 -512.000000 3072.000000
v -1792.000000 -768.000000 2560.000000
vt 0.125000 0.275446
vt 0.000000 0.212889
vt 0.135237 0.179121
vt 0.375000 0.225446
vt 0.250000 0.179232
vt 0.364763 0.171908
vt 0.250000 0.500446
vt 0.250000 0.342310
vt 0.375000 0.304601
vt 0.000000 0.500446
vt 0.000000 0.367113
vt 0.125000 0.340210
vt 0.500000 0.200446
vt 0.500000 0.100446
vt 0.500000 0.300446
vt 0.250000 0.250446
vt 0.000000 0.300446
vt 1.000000 0.250000
vt 0.875000 0.125000
vt 1.000000 0.125000
vt 0.500000 0.125000
vt 0.625000 0.000000
vt 0.625000 0.125000
vt 0.500000 0.375000
vt 0.500000 0.250000
vt 0.500000 0.000000
vt 0.875000 0.250000
vt 0.500000 0.500446
vt 0.500000 0.000000
vt 1.000000 0.000000
vt 1.000000 0.500000
vt 0.500000 0.500000
vt 1.000000 0.000000
vt 1.000000 0.500000
vt 0.500000 0.500000
vt 1.000000 0.375000
vt 0.556719 0.514524
vt 0.692964 0.374877
vt 0.556611 0.377044
vt 0.048502 0.509632
vt 0.191680 0.390930
vt 0.191680 0.509393
vt 0.191680 0.525289
vt 0.290262 0.381899
vt 0.191680 0.379529
vt 0.510921 0.493852
vt 0.406092 0.367475
vt 0.556611 0.377044
vt 0.191680 0.516670
vt 0.055674 0.374877
vt 0.191680 0.380883
vt 0.191680 0.715608
vt 0.052190 0.619142
vt 0.191680 0.613993
vt 0.191680 0.847886
vt 0.052190 0.729275
vt 0.191680 0.720694
vt 0.075959 0.642018
vt 0.121077 0.774214
vt 0.191680 0.773785
vt 0.072578 0.745047
vt 0.191680 0.758861
vt 0.545277 0.602552
vt 0.736445 0.525345
vt 0.703073 0.619142
vt 0.433447 0.519254
vt 0.568934 0.745047
vt 0.545277 0.602552
vt 0.736445 0.525345
vt 0.689344 0.932296
vt 0.568934 0.745047
vt 0.696208 0.861533
vt 0.831950 0.907939
vt 0.831950 0.901701
vt 0.954594 0.846087
vt 0.821969 0.773339
vt 0.696208 0.861533
vt 0.703358 0.713462
vt 0.689344 0.931575
vt 0.888282 0.981931
vt 0.954594 0.978713
vt 0.821969 0.773339
vt 0.703358 0.713462
vt 0.954594 0.846087
vt 0.888282 0.950919
vt 0.954594 0.912400
vt 0.433447 0.519254
vt 0.049328 0.367678
vt 0.703073 0.619142
vt 0.321316 0.519254
vt 0.075959 0.932296
vt 0.191680 0.952810
vt 0.307400 0.931575
vt 0.310781 0.745047
vt 0.125367 0.840527
vt 0.191680 0.847158
vt 0.324305 0.907269
vt 0.257992 0.840527
vt 0.257992 0.913900
vt 0.307400 0.642018
vt 0.262283 0.774214
vt 0.332886 0.774643
vt 0.331170 0.729275
vt 0.332886 0.847886
vt 0.324305 0.980511
vt 0.059055 0.980511
vt 0.191680 0.980511
vt 0.011953 0.525345
vt 0.331170 0.619142
vt 0.371406 0.525345
vt 0.191680 0.263436
vt 0.049408 0.240191
vt 0.301478 0.374877
vt 0.333952 0.240191
vt 0.415004 0.240769
vt 0.556957 0.239439
vt 0.692964 0.374877
vt 0.698991 0.240191
vt 0.191680 0.263436
vt 0.334032 0.240769
vt 0.050613 0.367475
vt 0.049328 0.240769
vt 0.062044 0.519254
vt 0.334857 0.509632
vt 0.334032 0.367678
vt 0.191680 0.627856
vt 0.333952 0.651665
vt 0.556957 0.239439
vt 0.698991 0.240191
vt 0.459721 0.381899
vt 0.415004 0.240769
vt 0.052190 0.713462
vt 0.050474 0.847886
vt 0.191680 0.641874
vt 0.821969 0.989439
vt 0.954594 0.912400
vt 0.821969 0.985149
vt 0.328595 0.840956
vt 0.331170 0.713462
vt 0.049408 0.651665
vt 0.054764 0.840956
vt 0.059055 0.907269
vt 0.050474 0.774643
vt 0.191680 0.920531
vt 0.125367 0.913900
vn -0.9725 -0.0990 -0.2107
vn -0.9216 -0.0389 -0.3863
vn -1.0000 0.0000 0.0000
vn -0.9886 0.1506 -0.0000
vn -0.9798 0.0658 -0.1890
vn -0.1753 -0.9623 0.2080
vn -0.7071 0.7071 0.0000
vn -0.0000 -1.0000 0.0000
vn -0.9813 0.0355 -0.1893
vn -0.9277 0.0688 -0.3668
vn -0.9730 0.0425 -0.2268
vn -0.7767 0.6065 0.1702
vn -0.1764 -0.9684 -0.1764
vn -0.0904 -0.9953 0.0340
vn 0.8153 -0.5728 0.0842
vn -0.0978 -0.9945 -0.0363
vn 0.0168 0.6601 0.7509
vn -0.7305 -0.0784 0.6784
vn -0.0002 0.0000 1.0000
vn -0.9625 -0.0397 -0.2682
vn -0.7488 -0.6615 -0.0407
vn -0.9734 -0.2289 0.0126
vn -0.0688 0.9968 -0.0406
vn -0.7769 0.6276 -0.0505
vn 0.0363 0.9971 -0.0666
vn 1.0000 0.0044 0.0043
vn 0.7404 0.6643 0.1018
vn 0.9982 -0.0001 0.0591
vn 0.8570 0.0000 0.5154
vn 0.7410 0.6370 -0.2125
vn 0.9996 0.0000 0.0260
vn 0.4572 -0.0011 0.8893
vn 0.4461 0.8517 0.2747
vn -0.5024 0.5647 -0.6547
vn 0.1418 -0.1150 -0.9832
vn -0.0757 0.0498 -0.9959
vn -0.6141 0.7070 -0.3507
vn -0.8777 -0.0002 -0.4792
vn -0.1238 0.9874 -0.0988
vn 0.7286 0.6839 -0.0370
vn -0.7561 -0.6510 -0.0673
vn -0.6140 -0.7068 -0.3512
vn -0.0779 -0.9956 -0.0510
vn 0.6855 -0.7278 -0.0176
vn -0.1968 0.9737 -0.1143
vn 0.0195 0.9990 -0.0393
vn -0.0106 -0.9992 -0.0371
vn 0.2648 -0.9101 0.3186
vn 0.3175 -0.6608 0.6800
vn -0.1966 -0.9734 -0.1170
vn 0.4461 -0.8517 0.2747
vn -0.5024 -0.5686 -0.6514
vn 0.1441 -0.5957 -0.7902
vn -0.2198 -0.9397 -0.2620
vn 0.3381 0.6683 0.6626
vn 0.0514 0.7663 0.6404
vn 0.4299 0.5860 -0.6868
vn -0.4928 0.8607 -0.1280
vn -0.7158 0.6417 -0.2751
vn -0.6023 0.4872 0.6323
vn 0.7187 -0.6771 -0.1577
vn -0.4833 -0.0026 -0.8754
vn 0.2794 0.0949 -0.9554
vn 0.1687 0.1476 -0.9745
vn 0.2104 0.1560 -0.9651
vn -0.4186 0.1338 -0.8983
vn -0.1113 0.0850 -0.9901
vn -0.1749 -0.5933 -0.7857
vn 0.4072 0.0000 0.9133
vn 0.7146 0.0042 0.6995
vn 0.6293 0.5039 0.5917
vn 0.6182 -0.5661 0.5453
vn -0.6790 -0.5665 0.4669
vn -0.0217 -0.7140 0.6997
vn -0.0167 0.5195 -0.8543
vn 0.0558 -0.9982 0.0207
vn -0.5808 0.0485 -0.8126
vn -0.5619 0.1974 -0.8033
usemtl tdr_d_wall
s off
f 98/41/11 30/42/11 83/43/11
f 97/44/12 38/45/12 90/46/12
f 79/47/13 82/48/13 94/49/13
f 75/50/13 81/51/13 95/52/13
f 93/53/14 90/46/14 55/54/14
f 80/55/13 97/44/13 93/53/13
f 94/49/13 96/56/13 97/44/13
f 96/56/15 83/43/15 38/45/15
f 82/48/13 98/41/13 96/56/13
f 95/52/13 92/57/13 98/41/13
f 30/58/16 100/59/16 54/60/16
f 55/61/17 102/62/17 104/63/17
f 103/64/17 101/65/17 104/63/17
f 78/66/18 100/59/18 99/67/18
f 98/41/13 92/57/13 30/42/13
f 97/44/19 96/56/19 38/45/19
f 80/55/13 74/68/13 94/49/13
f 74/68/13 79/47/13 94/49/13
f 82/48/13 79/47/13 95/52/13
f 79/47/13 75/50/13 95/52/13
f 93/53/20 97/44/20 90/46/20
f 80/55/13 94/49/13 97/44/13
f 94/49/13 82/48/13 96/56/13
f 96/56/21 98/41/21 83/43/21
f 82/48/13 95/52/13 98/41/13
f 95/52/13 81/51/13 92/57/13
f 30/58/18 99/67/18 100/59/18
f 55/61/22 18/69/22 102/62/22
f 102/62/17 19/70/17 104/63/17
f 19/70/17 17/71/17 104/63/17
f 17/71/17 74/72/17 103/64/17
f 101/65/17 55/61/17 104/63/17
f 17/71/17 103/64/17 104/63/17
f 78/66/18 77/73/18 100/59/18
f 77/73/23 54/60/23 100/59/23
f 75/74/18 76/75/18 99/67/18
f 76/75/18 78/66/18 99/67/18
f 75/74/18 99/67/18 81/76/18
f 99/67/18 30/58/18 81/76/18
usemtl tdr_d_cavern
s 1
f 42/77/24 43/78/25 73/79/26
f 44/80/27 46/81/28 72/82/29
f 48/83/30 33/84/31 71/85/32
f 49/86/33 47/87/34 70/88/35
f 50/89/36 34/90/37 69/91/38
f 36/92/39 51/93/40 68/94/41
f 67/95/42 28/96/43 36/97/39
f 32/98/44 85/99/45 66/100/46
f 48/83/30 40/101/47 65/102/48
f 61/103/49 24/104/50 51/105/40
f 21/106/51 58/107/52 59/108/53
f 42/77/24 26/109/54 43/78/25
f 32/110/44 40/111/47 62/112/55
f 64/113/56 32/110/44 62/112/55
f 63/114/57 77/115/58 53/116/59
f 60/117/60 53/116/59 27/118/61
f 29/119/62 63/114/57 60/117/60
f 63/114/57 84/120/63 30/121/64
f 52/122/65 62/112/55 28/123/43
f 18/124/66 64/113/56 52/122/65
f 88/125/67 64/113/56 55/126/68
f 62/112/55 61/103/49 28/123/43
f 62/112/55 40/111/47 61/103/49
f 40/111/47 31/127/69 61/103/49
f 49/86/33 61/103/49 31/127/69
f 44/80/27 22/128/70 46/81/28
f 51/105/40 28/123/43 61/103/49
f 59/108/53 60/117/60 27/118/61
f 59/108/53 58/107/52 60/117/60
f 58/107/52 29/119/62 60/117/60
f 35/129/71 59/108/53 27/118/61
f 48/83/30 21/130/51 33/84/31
f 42/77/24 21/106/51 59/108/53
f 65/102/48 32/131/44 57/132/72
f 29/133/62 65/102/48 57/132/72
f 58/134/52 48/83/30 65/102/48
f 66/100/46 91/135/73 87/136/74
f 30/137/64 89/138/75 83/139/76
f 29/140/62 86/141/77 39/142/78
f 67/95/42 27/143/61 53/144/59
f 77/145/58 67/95/42 53/144/59
f 18/146/66 67/95/42 37/147/79
f 50/89/36 51/93/40 24/148/50
f 35/149/71 50/89/36 26/150/54
f 35/149/71 36/92/39 68/94/41
f 45/151/80 34/90/37 23/152/81
f 43/153/25 45/151/80 25/154/82
f 43/153/25 50/89/36 69/91/38
f 70/88/35 22/155/70 44/156/27
f 34/157/37 44/156/27 23/158/81
f 34/157/37 49/86/33 70/88/35
f 46/159/28 33/84/31 20/160/83
f 47/161/34 46/159/28 22/162/70
f 31/163/69 71/85/32 47/161/34
f 41/164/84 46/81/28 20/165/83
f 45/166/80 41/164/84 25/167/82
f 45/166/80 44/80/27 72/82/29
f 41/168/84 43/78/25 25/169/82
f 33/170/31 41/168/84 20/171/83
f 33/170/31 42/77/24 73/79/26
f 42/77/24 35/129/71 26/109/54
f 49/86/33 31/127/69 47/87/34
f 50/89/36 24/148/50 34/90/37
f 36/92/39 28/172/43 51/93/40
f 67/95/42 52/173/65 28/96/43
f 66/100/46 57/174/72 32/98/44
f 48/83/30 31/163/69 40/101/47
f 61/103/49 49/86/33 24/104/50
f 64/113/56 56/175/85 32/110/44
f 63/114/57 54/176/86 77/115/58
f 60/117/60 63/114/57 53/116/59
f 29/119/62 39/177/78 63/114/57
f 30/121/64 54/176/86 63/114/57
f 52/122/65 64/113/56 62/112/55
f 18/124/66 55/126/68 64/113/56
f 65/102/48 40/101/47 32/131/44
f 29/133/62 58/134/52 65/102/48
f 58/134/52 21/130/51 48/83/30
f 66/100/46 85/99/45 91/135/73
f 30/137/64 84/178/63 89/138/75
f 29/140/62 57/174/72 66/100/46
f 67/95/42 36/97/39 27/143/61
f 77/145/58 37/147/79 67/95/42
f 18/146/66 52/173/65 67/95/42
f 50/89/36 68/94/41 51/93/40
f 35/149/71 68/94/41 50/89/36
f 35/149/71 27/179/61 36/92/39
f 45/151/80 69/91/38 34/90/37
f 43/153/25 69/91/38 45/151/80
f 43/153/25 26/150/54 50/89/36
f 70/88/35 47/87/34 22/155/70
f 34/157/37 70/88/35 44/156/27
f 34/157/37 24/104/50 49/86/33
f 46/159/28 71/85/32 33/84/31
f 47/161/34 71/85/32 46/159/28
f 31/163/69 48/83/30 71/85/32
f 41/164/84 72/82/29 46/81/28
f 45/166/80 72/82/29 41/164/84
f 45/166/80 23/180/81 44/80/27
f 41/168/84 73/79/26 43/78/25
f 33/170/31 73/79/26 41/168/84
f 33/170/31 21/106/51 42/77/24
f 42/77/24 59/108/53 35/129/71
f 89/138/75 86/141/77 66/100/46
f 89/138/75 84/178/63 86/141/77
f 84/178/63 39/142/78 86/141/77
f 91/135/73 88/181/67 55/182/68
f 91/135/73 85/99/45 88/181/67
f 85/99/45 56/183/85 88/181/67
f 83/139/76 87/136/74 38/184/87
f 83/139/76 89/138/75 87/136/74
f 89/138/75 66/100/46 87/136/74
f 87/136/74 90/185/88 38/184/87
f 87/136/74 91/135/73 90/185/88
f 91/135/73 55/182/68 90/185/88
f 32/98/44 56/183/85 85/99/45
f 63/114/57 39/177/78 84/120/63
f 88/125/67 56/175/85 64/113/56
f 29/140/62 66/100/46 86/141/77
