# Blender v2.80 (sub 45) OBJ File: ''
# www.blender.org
mtllib tdr_tlv_wallplant_b.mtl
o tdr_tlv_wallplant_b
v 162.910645 34.762909 54.892014
v 305.139313 -3.902245 361.688171
v 201.268936 439.445312 752.996155
v 609.866760 -324.697296 530.906860
v 785.878296 -621.049744 400.829712
v 824.236511 -216.367249 1098.933838
v 628.629211 -126.744781 872.387695
v 323.901855 194.050323 703.169128
v 507.869629 24.282837 627.035522
v 439.498718 110.152794 -489.029846
v 394.595062 -87.869705 -414.200592
v 332.206879 -111.612144 -38.366936
v 397.966156 -358.399689 -546.522949
v 446.389343 -442.907104 -759.540527
v 339.097168 -664.669678 -308.875031
v 345.483795 -466.877228 -326.077332
v 342.113037 -196.347092 -193.757462
v 409.744873 -279.009644 -321.295868
v 300.337402 1304.982788 962.050232
v 406.939178 1193.412842 1142.373413
v 557.190552 1441.205200 1444.514404
v 487.758911 876.522705 1188.820679
v 465.561523 657.150208 1057.003540
v 722.414612 793.372803 1539.468018
v 613.399658 943.155090 1424.818237
v 532.579407 1260.045288 1378.373291
v 567.949280 1105.920166 1287.370361
v 726.733826 1448.542603 807.637207
v 632.815491 1330.642700 962.902344
v 771.682617 1381.317749 1314.835571
v 427.910461 1110.190186 951.842712
v 307.836304 997.865417 785.025391
v 352.785004 930.640198 1292.223877
v 449.897766 1077.307739 1199.940063
v 654.802917 1297.760254 1210.999512
v 592.932373 1181.327881 1109.562256
v 245.634933 -57.137203 535.346069
v 337.098022 -109.627243 725.350098
v 220.444397 95.677826 1027.305908
v 562.619995 -298.522247 795.573425
v 706.678040 -443.297333 678.903870
v 681.487366 -290.484863 1170.863525
v 550.298035 -223.772339 1036.217041
v 324.776062 -34.879757 965.993713
v 459.604401 -108.852242 900.760437
v 402.119629 -248.789642 -450.756775
v 420.390259 -413.539551 -311.643066
v 447.066437 -316.017212 56.438683
v 456.558380 -709.509583 -354.077209
v 476.056946 -853.857056 -537.508179
v 521.005798 -921.082092 -30.309820
v 478.545807 -742.392273 -105.980064
v 442.377716 -446.422180 -63.545895
v 498.032715 -557.042236 -174.629135
v 807.722961 945.767578 352.643433
v 645.103271 787.040283 434.038940
v 695.901672 662.972778 838.164612
v 399.151001 618.515198 279.232910
v 304.906616 601.245239 36.169861
v 193.085770 318.450409 521.688660
v 344.451813 480.185272 516.727722
v 590.407043 648.710205 671.531555
v 538.267517 586.807678 504.556000
v 447.141541 1220.975342 733.995239
v 472.781799 1084.927734 848.806763
v 484.500305 1165.100342 1155.544556
v 524.301697 842.727844 812.138550
v 552.466064 725.837769 659.033203
v 589.824829 669.962769 1080.582275
v 542.574890 815.397827 1018.342041
v 491.054932 1057.595215 1055.010254
v 546.078491 970.730225 962.580688
v 121.418907 -14.267111 -185.817368
v 263.141907 -118.234596 -26.342249
v 378.272675 121.955284 296.644501
v 414.364014 -411.892212 -23.936129
v 430.566223 -614.604614 -180.897217
v 687.419678 -478.382355 301.564514
v 540.004395 -345.259705 212.063843
v 388.784790 -51.602196 209.658386
v 449.879639 -182.712204 98.460625
v 599.830750 266.947876 -465.353760
v 500.829498 99.722839 -272.091583
v 558.045166 250.747818 183.591599
v 353.971619 -251.849701 -290.322632
v 299.604675 -451.787140 -502.628845
v 257.816223 -467.987152 146.318680
v 333.531403 -259.774719 27.112961
v 480.389404 91.797806 45.344116
v 480.236908 -82.037178 -73.703529
v 406.760345 677.612732 109.312775
v 352.619202 493.565216 305.044922
v 364.972382 661.412781 758.257751
v 301.659973 115.750359 292.332825
v 302.583008 -94.769684 83.322762
v 260.794586 -110.969711 732.270264
v 281.219757 107.825348 609.768433
v 332.179108 485.640289 622.480652
v 377.933411 315.807831 506.488617
v 125.085258 264.802887 911.527893
v 235.911560 60.457874 1056.705811
v 434.522522 188.217712 1478.558105
v 295.650085 -307.194702 974.449524
v 247.208221 -486.804718 743.369629
v 556.645508 -563.389832 1310.400024
v 447.013184 -344.657227 1251.814819
v 387.274658 22.995281 1334.070801
v 411.851227 -108.852242 1171.582642
v 621.422668 1276.760254 -103.522301
v 549.900452 989.012695 63.614464
v 617.248413 1012.247742 659.763855
v 446.011688 552.490234 -88.227272
v 409.036926 384.357849 -413.941254
v 404.860291 119.845284 349.344543
v 443.968903 423.102814 285.137695
v 547.857788 859.625244 436.979584
v 577.605652 700.335205 231.544357
v 227.286057 693.557800 398.274841
v 296.205139 510.842743 677.045166
v 503.119141 822.750122 1146.482300
v 301.057129 43.767857 755.905884
v 237.206848 -261.304657 559.489319
v 513.037109 -132.112305 1307.698608
v 435.983459 106.962753 1121.895630
v 431.131500 574.037781 1043.034912
v 456.212341 344.485291 919.998718
vt 0.497700 -0.884000
vt 0.612800 -0.633300
vt 0.497700 -0.101200
vt 0.861000 -0.633900
vt 0.998600 -0.884000
vt 0.998600 -0.101200
vt 0.861100 -0.242500
vt 0.612700 -0.241800
vt 0.720000 -0.374900
vt 0.000100 -0.910000
vt 0.114000 -0.638800
vt 0.000100 -0.063100
vt 0.359700 -0.639400
vt 0.496000 -0.910000
vt 0.496000 -0.063000
vt 0.359800 -0.215900
vt 0.114000 -0.215200
vt 0.220200 -0.359100
vt 0.497700 -0.884000
vt 0.612800 -0.633300
vt 0.497700 -0.101200
vt 0.861000 -0.633900
vt 0.998600 -0.884000
vt 0.998600 -0.101200
vt 0.861100 -0.242500
vt 0.612700 -0.241800
vt 0.720000 -0.374900
vt 0.000100 -0.910000
vt 0.114000 -0.638800
vt 0.000100 -0.063100
vt 0.359700 -0.639400
vt 0.496000 -0.910000
vt 0.496000 -0.063000
vt 0.359800 -0.215900
vt 0.114000 -0.215200
vt 0.220200 -0.359100
vt 0.000100 -0.910000
vt 0.114000 -0.638800
vt 0.000100 -0.063100
vt 0.359700 -0.639400
vt 0.496000 -0.910000
vt 0.496000 -0.063000
vt 0.359800 -0.215900
vt 0.114000 -0.215200
vt 0.220200 -0.359100
vt 0.000100 -0.910000
vt 0.114000 -0.638800
vt 0.000100 -0.063100
vt 0.359700 -0.639400
vt 0.496000 -0.910000
vt 0.496000 -0.063000
vt 0.359800 -0.215900
vt 0.114000 -0.215200
vt 0.220200 -0.359100
vt 0.000100 -0.910000
vt 0.114000 -0.638800
vt 0.000100 -0.063100
vt 0.359700 -0.639400
vt 0.496000 -0.910000
vt 0.496000 -0.063000
vt 0.359800 -0.215900
vt 0.114000 -0.215200
vt 0.220200 -0.359100
vt 0.000100 -0.910000
vt 0.114000 -0.638800
vt 0.000100 -0.063100
vt 0.359700 -0.639400
vt 0.496000 -0.910000
vt 0.496000 -0.063000
vt 0.359800 -0.215900
vt 0.114000 -0.215200
vt 0.220200 -0.359100
vt 0.000100 -0.910000
vt 0.114000 -0.638800
vt 0.000100 -0.063100
vt 0.359700 -0.639400
vt 0.496000 -0.910000
vt 0.496000 -0.063000
vt 0.359800 -0.215900
vt 0.114000 -0.215200
vt 0.220200 -0.359100
vt 0.497700 -0.884000
vt 0.612800 -0.633300
vt 0.497700 -0.101200
vt 0.861000 -0.633900
vt 0.998600 -0.884000
vt 0.998600 -0.101200
vt 0.861100 -0.242500
vt 0.612700 -0.241800
vt 0.720000 -0.374900
vt 0.000100 -0.910000
vt 0.114000 -0.638800
vt 0.000100 -0.063100
vt 0.359700 -0.639400
vt 0.496000 -0.910000
vt 0.496000 -0.063000
vt 0.359800 -0.215900
vt 0.114000 -0.215200
vt 0.220200 -0.359100
vt 0.497700 -0.884000
vt 0.612800 -0.633300
vt 0.497700 -0.101200
vt 0.861000 -0.633900
vt 0.998600 -0.884000
vt 0.998600 -0.101200
vt 0.861100 -0.242500
vt 0.612700 -0.241800
vt 0.720000 -0.374900
vt 0.000100 -0.910000
vt 0.114000 -0.638800
vt 0.000100 -0.063100
vt 0.359700 -0.639400
vt 0.496000 -0.910000
vt 0.496000 -0.063000
vt 0.359800 -0.215900
vt 0.114000 -0.215200
vt 0.220200 -0.359100
vt 0.497700 -0.884000
vt 0.612800 -0.633300
vt 0.497700 -0.101200
vt 0.861000 -0.633900
vt 0.998600 -0.884000
vt 0.998600 -0.101200
vt 0.861100 -0.242500
vt 0.612700 -0.241800
vt 0.720000 -0.374900
vn -0.7850 -0.5445 0.2953
vn -0.7560 -0.5220 0.3950
vn -0.7910 -0.4739 0.3870
vn -0.7673 -0.5320 0.3581
vn -0.7415 -0.5848 0.3290
vn -0.7266 -0.5521 0.4090
vn -0.7914 -0.5153 0.3288
vn -0.7193 -0.6239 0.3055
vn -0.7642 -0.5389 0.3544
vn -0.9648 0.1331 -0.2268
vn -0.9860 0.0555 -0.1574
vn -0.9879 0.1006 -0.1178
vn -0.9793 0.0840 -0.1844
vn -0.9667 0.0679 -0.2467
vn -0.9839 0.0163 -0.1779
vn -0.9750 0.1253 -0.1837
vn -0.9542 0.0552 -0.2942
vn -0.9779 0.0820 -0.1924
vn -0.8865 -0.1289 0.4443
vn -0.8328 -0.1426 0.5349
vn -0.8381 -0.0830 0.5391
vn -0.8540 -0.1387 0.5014
vn -0.8654 -0.1909 0.4634
vn -0.8216 -0.1853 0.5391
vn -0.8706 -0.1071 0.4802
vn -0.8716 -0.2307 0.4326
vn -0.8557 -0.1454 0.4966
vn -0.7101 0.6970 0.0997
vn -0.7287 0.6562 0.1960
vn -0.6865 0.6952 0.2132
vn -0.7234 0.6718 0.1597
vn -0.7552 0.6465 0.1082
vn -0.7580 0.6231 0.1926
vn -0.6989 0.7008 0.1431
vn -0.7775 0.6251 0.0681
vn -0.7277 0.6686 0.1531
vn -0.6835 -0.7182 0.1306
vn -0.6598 -0.7140 0.2341
vn -0.7025 -0.6718 0.2351
vn -0.6689 -0.7173 0.1952
vn -0.6341 -0.7572 0.1568
vn -0.6259 -0.7412 0.2426
vn -0.6952 -0.6986 0.1693
vn -0.6053 -0.7859 0.1265
vn -0.6645 -0.7226 0.1904
vn -0.9954 -0.0933 0.0203
vn -0.9831 -0.1447 0.1124
vn -0.9867 -0.0895 0.1358
vn -0.9890 -0.1263 0.0774
vn -0.9867 -0.1609 0.0217
vn -0.9766 -0.1878 0.1045
vn -0.9941 -0.0873 0.0648
vn -0.9821 -0.1871 -0.0215
vn -0.9889 -0.1309 0.0702
vn -0.6181 0.7515 0.2306
vn -0.6666 0.6838 0.2966
vn -0.6259 0.7038 0.3360
vn -0.6499 0.7099 0.2715
vn -0.6698 0.7125 0.2091
vn -0.6979 0.6615 0.2746
vn -0.6184 0.7369 0.2731
vn -0.6832 0.7125 0.1601
vn -0.6526 0.7104 0.2635
vn -0.9839 -0.1787 0.0080
vn -0.9681 -0.2296 0.0999
vn -0.9767 -0.1752 0.1237
vn -0.9752 -0.2117 0.0650
vn -0.9694 -0.2454 0.0090
vn -0.9579 -0.2720 0.0917
vn -0.9835 -0.1730 0.0525
vn -0.9621 -0.2707 -0.0343
vn -0.9747 -0.2161 0.0577
vn -0.8008 -0.3740 0.4679
vn -0.7386 -0.3852 0.5532
vn -0.7565 -0.3291 0.5651
vn -0.7627 -0.3824 0.5216
vn -0.7652 -0.4313 0.4780
vn -0.7181 -0.4244 0.5516
vn -0.7873 -0.3532 0.5054
vn -0.7649 -0.4678 0.4428
vn -0.7632 -0.3888 0.5161
vn -0.9035 0.4161 -0.1027
vn -0.9258 0.3780 -0.0062
vn -0.9026 0.4303 0.0123
vn -0.9190 0.3920 -0.0429
vn -0.9304 0.3539 -0.0950
vn -0.9415 0.3368 -0.0098
vn -0.9026 0.4265 -0.0591
vn -0.9366 0.3234 -0.1351
vn -0.9207 0.3872 -0.0496
vn -0.9794 0.1670 -0.1139
vn -0.9919 0.1260 -0.0167
vn -0.9832 0.1827 0.0009
vn -0.9886 0.1406 -0.0537
vn -0.9894 0.1001 -0.1051
vn -0.9964 0.0820 -0.0197
vn -0.9815 0.1779 -0.0704
vn -0.9871 0.0684 -0.1447
vn -0.9890 0.1354 -0.0603
vn -0.8948 -0.2025 0.3980
vn -0.8425 -0.2520 0.4762
vn -0.8424 -0.1975 0.5013
vn -0.8633 -0.2346 0.4469
vn -0.8793 -0.2688 0.3932
vn -0.8352 -0.2942 0.4646
vn -0.8769 -0.1963 0.4387
vn -0.8891 -0.2944 0.3505
vn -0.8655 -0.2391 0.4401
vn -0.9667 0.2548 0.0249
vn -0.9767 0.1866 0.1058
vn -0.9621 0.2345 0.1390
vn -0.9744 0.2118 0.0749
vn -0.9818 0.1892 0.0138
vn -0.9852 0.1461 0.0901
vn -0.9652 0.2519 0.0697
vn -0.9847 0.1712 -0.0335
vn -0.9756 0.2089 0.0670
vn -0.9570 0.0688 0.2817
vn -0.9238 0.0462 0.3800
vn -0.9172 0.1057 0.3841
vn -0.9377 0.0537 0.3434
vn -0.9529 0.0042 0.3032
vn -0.9227 0.0022 0.3854
vn -0.9433 0.0876 0.3201
vn -0.9619 -0.0341 0.2713
vn -0.9398 0.0474 0.3384
usemtl material_0.003
s 1
f 1/1/1 2/2/2 3/3/3
f 2/2/2 1/1/1 4/4/4
f 5/5/5 4/4/4 1/1/1
f 5/5/5 6/6/6 4/4/4
f 7/7/7 4/4/4 6/6/6
f 6/6/6 3/3/3 7/7/7
f 8/8/8 7/7/7 3/3/3
f 8/8/8 3/3/3 2/2/2
f 9/9/9 8/8/8 2/2/2
f 9/9/9 2/2/2 4/4/4
f 9/9/9 4/4/4 7/7/7
f 7/7/7 8/8/8 9/9/9
f 10/10/10 11/11/11 12/12/12
f 11/11/11 10/10/10 13/13/13
f 14/14/14 13/13/13 10/10/10
f 14/14/14 15/15/15 13/13/13
f 16/16/16 13/13/13 15/15/15
f 15/15/15 12/12/12 16/16/16
f 17/17/17 16/16/16 12/12/12
f 17/17/17 12/12/12 11/11/11
f 18/18/18 17/17/17 11/11/11
f 18/18/18 11/11/11 13/13/13
f 18/18/18 13/13/13 16/16/16
f 16/16/16 17/17/17 18/18/18
f 19/19/19 20/20/20 21/21/21
f 20/20/20 19/19/19 22/22/22
f 23/23/23 22/22/22 19/19/19
f 23/23/23 24/24/24 22/22/22
f 25/25/25 22/22/22 24/24/24
f 24/24/24 21/21/21 25/25/25
f 26/26/26 25/25/25 21/21/21
f 26/26/26 21/21/21 20/20/20
f 27/27/27 26/26/26 20/20/20
f 27/27/27 20/20/20 22/22/22
f 27/27/27 22/22/22 25/25/25
f 25/25/25 26/26/26 27/27/27
f 28/28/28 29/29/29 30/30/30
f 29/29/29 28/28/28 31/31/31
f 32/32/32 31/31/31 28/28/28
f 32/32/32 33/33/33 31/31/31
f 34/34/34 31/31/31 33/33/33
f 33/33/33 30/30/30 34/34/34
f 35/35/35 34/34/34 30/30/30
f 35/35/35 30/30/30 29/29/29
f 36/36/36 35/35/35 29/29/29
f 36/36/36 29/29/29 31/31/31
f 36/36/36 31/31/31 34/34/34
f 34/34/34 35/35/35 36/36/36
f 37/37/37 38/38/38 39/39/39
f 38/38/38 37/37/37 40/40/40
f 41/41/41 40/40/40 37/37/37
f 41/41/41 42/42/42 40/40/40
f 43/43/43 40/40/40 42/42/42
f 42/42/42 39/39/39 43/43/43
f 44/44/44 43/43/43 39/39/39
f 44/44/44 39/39/39 38/38/38
f 45/45/45 44/44/44 38/38/38
f 45/45/45 38/38/38 40/40/40
f 45/45/45 40/40/40 43/43/43
f 43/43/43 44/44/44 45/45/45
f 46/46/46 47/47/47 48/48/48
f 47/47/47 46/46/46 49/49/49
f 50/50/50 49/49/49 46/46/46
f 50/50/50 51/51/51 49/49/49
f 52/52/52 49/49/49 51/51/51
f 51/51/51 48/48/48 52/52/52
f 53/53/53 52/52/52 48/48/48
f 53/53/53 48/48/48 47/47/47
f 54/54/54 53/53/53 47/47/47
f 54/54/54 47/47/47 49/49/49
f 54/54/54 49/49/49 52/52/52
f 52/52/52 53/53/53 54/54/54
f 55/55/55 56/56/56 57/57/57
f 56/56/56 55/55/55 58/58/58
f 59/59/59 58/58/58 55/55/55
f 59/59/59 60/60/60 58/58/58
f 61/61/61 58/58/58 60/60/60
f 60/60/60 57/57/57 61/61/61
f 62/62/62 61/61/61 57/57/57
f 62/62/62 57/57/57 56/56/56
f 63/63/63 62/62/62 56/56/56
f 63/63/63 56/56/56 58/58/58
f 63/63/63 58/58/58 61/61/61
f 61/61/61 62/62/62 63/63/63
f 64/64/64 65/65/65 66/66/66
f 65/65/65 64/64/64 67/67/67
f 68/68/68 67/67/67 64/64/64
f 68/68/68 69/69/69 67/67/67
f 70/70/70 67/67/67 69/69/69
f 69/69/69 66/66/66 70/70/70
f 71/71/71 70/70/70 66/66/66
f 71/71/71 66/66/66 65/65/65
f 72/72/72 71/71/71 65/65/65
f 72/72/72 65/65/65 67/67/67
f 72/72/72 67/67/67 70/70/70
f 70/70/70 71/71/71 72/72/72
f 73/73/73 74/74/74 75/75/75
f 74/74/74 73/73/73 76/76/76
f 77/77/77 76/76/76 73/73/73
f 77/77/77 78/78/78 76/76/76
f 79/79/79 76/76/76 78/78/78
f 78/78/78 75/75/75 79/79/79
f 80/80/80 79/79/79 75/75/75
f 80/80/80 75/75/75 74/74/74
f 81/81/81 80/80/80 74/74/74
f 81/81/81 74/74/74 76/76/76
f 81/81/81 76/76/76 79/79/79
f 79/79/79 80/80/80 81/81/81
f 82/82/82 83/83/83 84/84/84
f 83/83/83 82/82/82 85/85/85
f 86/86/86 85/85/85 82/82/82
f 86/86/86 87/87/87 85/85/85
f 88/88/88 85/85/85 87/87/87
f 87/87/87 84/84/84 88/88/88
f 89/89/89 88/88/88 84/84/84
f 89/89/89 84/84/84 83/83/83
f 90/90/90 89/89/89 83/83/83
f 90/90/90 83/83/83 85/85/85
f 90/90/90 85/85/85 88/88/88
f 88/88/88 89/89/89 90/90/90
f 91/91/91 92/92/92 93/93/93
f 92/92/92 91/91/91 94/94/94
f 95/95/95 94/94/94 91/91/91
f 95/95/95 96/96/96 94/94/94
f 97/97/97 94/94/94 96/96/96
f 96/96/96 93/93/93 97/97/97
f 98/98/98 97/97/97 93/93/93
f 98/98/98 93/93/93 92/92/92
f 99/99/99 98/98/98 92/92/92
f 99/99/99 92/92/92 94/94/94
f 99/99/99 94/94/94 97/97/97
f 97/97/97 98/98/98 99/99/99
f 100/100/100 101/101/101 102/102/102
f 101/101/101 100/100/100 103/103/103
f 104/104/104 103/103/103 100/100/100
f 104/104/104 105/105/105 103/103/103
f 106/106/106 103/103/103 105/105/105
f 105/105/105 102/102/102 106/106/106
f 107/107/107 106/106/106 102/102/102
f 107/107/107 102/102/102 101/101/101
f 108/108/108 107/107/107 101/101/101
f 108/108/108 101/101/101 103/103/103
f 108/108/108 103/103/103 106/106/106
f 106/106/106 107/107/107 108/108/108
f 109/109/109 110/110/110 111/111/111
f 110/110/110 109/109/109 112/112/112
f 113/113/113 112/112/112 109/109/109
f 113/113/113 114/114/114 112/112/112
f 115/115/115 112/112/112 114/114/114
f 114/114/114 111/111/111 115/115/115
f 116/116/116 115/115/115 111/111/111
f 116/116/116 111/111/111 110/110/110
f 117/117/117 116/116/116 110/110/110
f 117/117/117 110/110/110 112/112/112
f 117/117/117 112/112/112 115/115/115
f 115/115/115 116/116/116 117/117/117
f 118/118/118 119/119/119 120/120/120
f 119/119/119 118/118/118 121/121/121
f 122/122/122 121/121/121 118/118/118
f 122/122/122 123/123/123 121/121/121
f 124/124/124 121/121/121 123/123/123
f 123/123/123 120/120/120 124/124/124
f 125/125/125 124/124/124 120/120/120
f 125/125/125 120/120/120 119/119/119
f 126/126/126 125/125/125 119/119/119
f 126/126/126 119/119/119 121/121/121
f 126/126/126 121/121/121 124/124/124
f 124/124/124 125/125/125 126/126/126
