# OBJ File Exported By Crafty (c) 2006 Ryan Gregg
# http://nemesis.thewavelength.net/

mtllib tdr_v_watergrass_d.mtl

v 16.423700 15.560601 -0.221200
v 16.423700 -15.560599 -0.221200
v -16.423700 15.560599 -0.221200
v -16.423700 -15.560601 -0.221200
v 0.000000 0.000000 1.243000
v 16.423700 15.560601 -0.170900
v 16.423700 -15.560599 -0.170900
v -16.423700 15.560599 -0.170900
v -16.423700 -15.560601 -0.170900
v 0.000000 0.000000 1.293300
vn -0.044500 -0.047000 -0.997903
vn -0.044500 0.047000 -0.997903
vn 0.044500 -0.047000 -0.997903
vn 0.044500 0.047000 -0.997903
vn 0.000000 0.000000 -1.000000
vn 0.044500 0.047000 0.997903
vn 0.044500 -0.047000 0.997903
vn -0.044500 0.047000 0.997903
vn -0.044500 -0.047000 0.997903
vn 0.000000 0.000000 1.000000
vt 0.000000 -1.000500
vt 0.000000 -0.004900
vt 1.000000 -1.000500
vt 1.000000 -0.004900
vt 0.500000 -0.502700
vt 0.000000 -1.000500
vt 0.000000 -0.004900
vt 1.000000 -1.000500
vt 1.000000 -0.004900
vt 0.500000 -0.502700
g Body.water_plants01.smd.mesh_0
usemtl material_0
f 5/5/5 1/1/1 2/2/2
f 3/3/3 1/1/1 5/5/5
f 3/3/3 5/5/5 4/4/4
f 4/4/4 5/5/5 2/2/2
f 6/6/6 10/10/10 7/7/7
f 6/6/6 8/8/8 10/10/10
f 10/10/10 8/8/8 9/9/9
f 10/10/10 9/9/9 7/7/7
