# Blender v2.80 (sub 45) OBJ File: ''
# www.blender.org
mtllib tdr_v_watergrass_c.mtl
o tdr_v_watergrass_a
v 22.978888 -130.320404 485.715637
v 22.978888 -130.320404 -22.200499
v -22.978888 130.320404 485.715637
v -22.978888 130.320404 -22.200499
v -118.791756 -58.659637 -22.200499
v 121.073410 53.190887 -22.200499
v -118.791756 -58.659988 485.715637
v 121.073410 53.190887 485.715637
v 119.932411 54.897141 485.715637
v 119.932411 54.897141 -22.200499
v -119.932411 -56.953388 485.715637
v -119.932411 -56.953388 -22.200499
v -24.597286 130.151352 -22.200499
v 21.360832 -130.489441 -22.200499
v -24.597286 130.151352 485.715637
v 21.360832 -130.489441 485.715637
vt 0.118100 -0.000000
vt 0.118100 -0.969100
vt 0.898400 -0.000000
vt 0.898400 -0.969100
vt 0.898400 -0.969100
vt 0.118100 -0.969100
vt 0.898400 -0.000000
vt 0.118100 -0.000000
vt 0.118100 -0.000000
vt 0.118100 -0.969100
vt 0.898400 -0.000000
vt 0.898400 -0.969100
vt 0.898400 -0.969100
vt 0.118100 -0.969100
vt 0.898400 -0.000000
vt 0.118100 -0.000000
vn 0.9848 0.1736 0.0000
vn 0.4226 -0.9063 -0.0000
vn -0.4226 0.9063 0.0000
vn -0.9848 -0.1736 0.0000
usemtl material_0.009
s 1
f 1/1/1 2/2/1 3/3/1
f 4/4/1 3/3/1 2/2/1
f 5/5/2 6/6/2 7/7/2
f 8/8/2 7/7/2 6/6/2
f 9/9/3 10/10/3 11/11/3
f 12/12/3 11/11/3 10/10/3
f 13/13/4 14/14/4 15/15/4
f 16/16/4 15/15/4 14/14/4
