# Blender v2.80 (sub 45) OBJ File: ''
# www.blender.org
mtllib tdr_tlv_wallplant_a.mtl
o tdr_tlv_wallplant_a
v 629.955750 405.751709 -71.611641
v 561.297974 114.714119 245.502823
v 495.129486 405.751617 954.052734
v 561.297913 -491.908447 245.502823
v 629.955505 -834.393433 -71.611694
v 495.129120 -834.393433 954.052429
v 495.346558 -491.908447 747.210266
v 495.346649 114.714119 747.210388
v 615.644531 -149.225922 579.484558
v 305.278900 -611.010925 -203.581360
v 392.072205 -649.675842 123.251633
v 221.830078 -206.328293 490.577789
v 662.786499 -970.470825 342.812408
v 858.711731 -1266.823242 245.275620
v 775.261963 -862.140930 939.437317
v 621.968872 -772.518433 682.364441
v 351.252075 -451.723419 462.802795
v 545.646423 -621.490845 419.769196
v 488.879120 -893.053467 255.579346
v 478.534119 -879.335815 472.923645
v 185.198029 -673.378357 612.347534
v 669.079712 -970.033569 690.960815
v 878.417480 -1078.473511 701.323425
v 574.736511 -858.798401 1058.091675
v 520.533325 -862.578369 865.476990
v 329.988464 -771.878418 647.437500
v 491.218933 -808.340942 675.105164
v 377.887238 329.534332 -236.968903
v 412.429443 211.426834 -107.105545
v 593.305664 317.481598 128.749084
v 363.269684 -31.770874 -86.163757
v 277.388763 -167.640778 -194.157028
v 492.806335 -179.693375 171.563263
v 468.641754 -37.665867 92.729279
v 517.801636 205.529205 71.787453
v 492.058990 93.331680 -3.470707
v 571.127014 699.206726 -365.692322
v 522.367554 497.514160 -242.691284
v 678.007202 481.726562 153.006561
v 378.366119 208.394333 -334.243958
v 276.739410 108.144249 -552.856323
v 383.621094 -109.338310 -34.154034
v 430.647369 102.011765 -80.518768
v 574.648865 391.134216 11.033964
v 540.839661 285.386688 -137.494370
v 202.940186 -184.318344 812.658386
v 265.284546 -322.138458 1000.558289
v 437.300110 -115.718529 1330.482910
v 270.681335 -655.218384 1042.240479
v 213.971802 -865.248474 897.875671
v 448.332550 -796.648438 1415.697876
v 385.319702 -621.663452 1295.537231
v 379.923828 -288.583435 1253.852783
v 390.222656 -447.528503 1158.901367
v 672.241760 281.979156 -151.967575
v 593.715454 61.951721 -4.584360
v 703.235718 76.909027 469.962585
v 442.271790 -275.810852 -108.407402
v 362.639191 -408.518311 -364.217957
v 393.633240 -613.588318 257.711884
v 457.431793 -376.120911 195.811752
v 608.875671 -38.360809 299.634949
v 594.197632 -171.528381 134.886749
v 160.726196 -837.473267 554.722534
v 240.477676 -878.833496 709.437012
v 217.119415 -661.423462 936.988647
v 388.137207 -1068.325928 774.923828
v 462.591644 -1224.863403 688.600464
v 518.985046 -1048.813477 1070.866455
v 415.722748 -982.210999 961.910156
v 268.063263 -792.718323 896.423462
v 354.142548 -886.185913 843.800659
v 626.010986 571.479004 689.898865
v 505.111603 287.094055 832.575684
v 667.224670 194.546478 1403.209839
v 263.646545 -78.838326 653.157166
v 132.372665 -176.610748 323.109497
v 173.586182 -553.543396 1036.420776
v 283.807098 -263.215912 1002.077209
v 525.271973 102.716568 1181.496094
v 478.289215 -22.963501 956.865234
v 353.087769 -134.985947 297.060120
v 334.082001 -310.848389 603.385925
v 418.049561 33.391510 1116.978027
v 297.116394 -791.145813 704.947876
v 277.517334 -1116.880859 504.687408
v 342.479095 -948.503418 1324.605225
v 328.892822 -708.783508 1106.013184
v 365.858429 -228.485916 1004.451294
v 416.941162 -474.140839 899.633789
vt 0.497600 -0.894100
vt 0.612400 -0.640200
vt 0.497600 -0.101200
vt 0.859900 -0.640800
vt 0.997100 -0.894100
vt 0.997100 -0.101200
vt 0.860000 -0.244300
vt 0.612300 -0.243600
vt 0.719300 -0.378400
vt 0.000100 -0.910000
vt 0.114000 -0.638800
vt 0.000100 -0.063100
vt 0.359700 -0.639400
vt 0.496000 -0.910000
vt 0.496000 -0.063000
vt 0.359800 -0.215900
vt 0.114000 -0.215200
vt 0.220200 -0.359100
vt 0.497100 -0.886900
vt 0.611700 -0.635500
vt 0.497100 -0.102000
vt 0.858800 -0.636100
vt 0.995800 -0.886900
vt 0.995800 -0.101900
vt 0.858900 -0.243600
vt 0.611600 -0.242900
vt 0.718500 -0.376400
vt 0.497600 -0.894100
vt 0.612400 -0.640200
vt 0.497600 -0.101200
vt 0.859900 -0.640800
vt 0.997100 -0.894100
vt 0.997100 -0.101200
vt 0.860000 -0.244300
vt 0.612300 -0.243600
vt 0.719300 -0.378400
vt 0.000100 -0.910000
vt 0.114000 -0.638800
vt 0.000100 -0.063100
vt 0.359700 -0.639400
vt 0.496000 -0.910000
vt 0.496000 -0.063000
vt 0.359800 -0.215900
vt 0.114000 -0.215200
vt 0.220200 -0.359100
vt 0.497600 -0.894100
vt 0.612400 -0.640200
vt 0.497600 -0.101200
vt 0.859900 -0.640800
vt 0.997100 -0.894100
vt 0.997100 -0.101200
vt 0.860000 -0.244300
vt 0.612300 -0.243600
vt 0.719300 -0.378400
vt 0.000100 -0.910000
vt 0.114000 -0.638800
vt 0.000100 -0.063100
vt 0.359700 -0.639400
vt 0.496000 -0.910000
vt 0.496000 -0.063000
vt 0.359800 -0.215900
vt 0.114000 -0.215200
vt 0.220200 -0.359100
vt 0.000100 -0.910000
vt 0.114000 -0.638800
vt 0.000100 -0.063100
vt 0.359700 -0.639400
vt 0.496000 -0.910000
vt 0.496000 -0.063000
vt 0.359800 -0.215900
vt 0.114000 -0.215200
vt 0.220200 -0.359100
vt 0.000100 -0.910000
vt 0.114000 -0.638800
vt 0.000100 -0.063100
vt 0.359700 -0.639400
vt 0.496000 -0.910000
vt 0.496000 -0.063000
vt 0.359800 -0.215900
vt 0.114000 -0.215200
vt 0.220200 -0.359100
vt 0.000100 -0.910000
vt 0.114000 -0.638800
vt 0.000100 -0.063100
vt 0.359700 -0.639400
vt 0.496000 -0.910000
vt 0.496000 -0.063000
vt 0.359800 -0.215900
vt 0.114000 -0.215200
vt 0.220200 -0.359100
vn -0.9824 0.0307 -0.1845
vn -0.9962 -0.0083 -0.0867
vn -0.9962 0.0497 -0.0709
vn -0.9923 0.0054 -0.1239
vn -0.9841 -0.0366 -0.1736
vn -0.9947 -0.0526 -0.0881
vn -0.9890 0.0427 -0.1417
vn -0.9749 -0.0689 -0.2115
vn -0.9915 -0.0000 -0.1304
vn -0.8244 -0.5445 0.1545
vn -0.8131 -0.5220 0.2577
vn -0.8462 -0.4739 0.2438
vn -0.8178 -0.5320 0.2194
vn -0.7874 -0.5848 0.1952
vn -0.7865 -0.5521 0.2766
vn -0.8365 -0.5153 0.1863
vn -0.7614 -0.6239 0.1760
vn -0.8141 -0.5389 0.2163
vn -0.4972 -0.8671 0.0311
vn -0.5312 -0.8376 0.1273
vn -0.5757 -0.8120 0.0963
vn -0.5184 -0.8502 0.0917
vn -0.4616 -0.8828 0.0871
vn -0.5018 -0.8505 0.1579
vn -0.5307 -0.8460 0.0523
vn -0.4164 -0.9054 0.0832
vn -0.5111 -0.8547 0.0912
vn -0.8589 0.2439 0.4503
vn -0.8174 0.2031 0.5391
vn -0.7963 0.2589 0.5467
vn -0.8345 0.2178 0.5062
vn -0.8669 0.1779 0.4656
vn -0.8258 0.1597 0.5408
vn -0.8355 0.2546 0.4870
vn -0.8895 0.1465 0.4328
vn -0.8388 0.2127 0.5011
vn -0.8791 0.3844 0.2817
vn -0.8783 0.3135 0.3609
vn -0.8488 0.3568 0.3902
vn -0.8803 0.3399 0.3310
vn -0.9063 0.3223 0.2735
vn -0.8964 0.2756 0.3471
vn -0.8668 0.3786 0.3245
vn -0.9237 0.3078 0.2281
vn -0.8838 0.3377 0.3237
vn -0.9334 0.0601 0.3538
vn -0.8932 0.0333 0.4484
vn -0.8859 0.0926 0.4545
vn -0.9096 0.0424 0.4132
vn -0.9281 -0.0053 0.3723
vn -0.8920 -0.0109 0.4520
vn -0.9168 0.0773 0.3918
vn -0.9397 -0.0422 0.3395
vn -0.9122 0.0363 0.4081
vn -0.9066 0.4044 0.1207
vn -0.9182 0.3395 0.2041
vn -0.8928 0.3849 0.2341
vn -0.9155 0.3636 0.1724
vn -0.9329 0.3419 0.1130
vn -0.9345 0.3007 0.1904
vn -0.9007 0.4018 0.1651
vn -0.9437 0.3241 0.0668
vn -0.9179 0.3609 0.1648
vn -0.8181 -0.4973 0.2888
vn -0.7826 -0.4865 0.3883
vn -0.8133 -0.4350 0.3864
vn -0.7965 -0.4921 0.3513
vn -0.7770 -0.5441 0.3165
vn -0.7555 -0.5203 0.3981
vn -0.8203 -0.4707 0.3249
vn -0.7596 -0.5828 0.2887
vn -0.7942 -0.4989 0.3469
vn -0.8442 0.4793 0.2399
vn -0.8600 0.4034 0.3126
vn -0.8279 0.4401 0.3478
vn -0.8557 0.4319 0.2850
vn -0.8783 0.4223 0.2242
vn -0.8815 0.3694 0.2941
vn -0.8368 0.4688 0.2829
vn -0.8932 0.4136 0.1766
vn -0.8588 0.4308 0.2773
vn -0.9941 0.1081 0.0004
vn -0.9904 0.0899 0.1050
vn -0.9828 0.1494 0.1082
vn -0.9932 0.0959 0.0656
vn -0.9987 0.0447 0.0250
vn -0.9926 0.0463 0.1125
vn -0.9909 0.1286 0.0402
vn -1.0000 0.0049 -0.0064
vn -0.9942 0.0893 0.0604
usemtl material_0.003
s 1
f 1/1/1 2/2/2 3/3/3
f 2/2/2 1/1/1 4/4/4
f 5/5/5 4/4/4 1/1/1
f 5/5/5 6/6/6 4/4/4
f 7/7/7 4/4/4 6/6/6
f 6/6/6 3/3/3 7/7/7
f 8/8/8 7/7/7 3/3/3
f 8/8/8 3/3/3 2/2/2
f 9/9/9 8/8/8 2/2/2
f 9/9/9 2/2/2 4/4/4
f 9/9/9 4/4/4 7/7/7
f 7/7/7 8/8/8 9/9/9
f 10/10/10 11/11/11 12/12/12
f 11/11/11 10/10/10 13/13/13
f 14/14/14 13/13/13 10/10/10
f 14/14/14 15/15/15 13/13/13
f 16/16/16 13/13/13 15/15/15
f 15/15/15 12/12/12 16/16/16
f 17/17/17 16/16/16 12/12/12
f 17/17/17 12/12/12 11/11/11
f 18/18/18 17/17/17 11/11/11
f 18/18/18 11/11/11 13/13/13
f 18/18/18 13/13/13 16/16/16
f 16/16/16 17/17/17 18/18/18
f 19/19/19 20/20/20 21/21/21
f 20/20/20 19/19/19 22/22/22
f 23/23/23 22/22/22 19/19/19
f 23/23/23 24/24/24 22/22/22
f 25/25/25 22/22/22 24/24/24
f 24/24/24 21/21/21 25/25/25
f 26/26/26 25/25/25 21/21/21
f 26/26/26 21/21/21 20/20/20
f 27/27/27 26/26/26 20/20/20
f 27/27/27 20/20/20 22/22/22
f 27/27/27 22/22/22 25/25/25
f 25/25/25 26/26/26 27/27/27
f 28/28/28 29/29/29 30/30/30
f 29/29/29 28/28/28 31/31/31
f 32/32/32 31/31/31 28/28/28
f 32/32/32 33/33/33 31/31/31
f 34/34/34 31/31/31 33/33/33
f 33/33/33 30/30/30 34/34/34
f 35/35/35 34/34/34 30/30/30
f 35/35/35 30/30/30 29/29/29
f 36/36/36 35/35/35 29/29/29
f 36/36/36 29/29/29 31/31/31
f 36/36/36 31/31/31 34/34/34
f 34/34/34 35/35/35 36/36/36
f 37/37/37 38/38/38 39/39/39
f 38/38/38 37/37/37 40/40/40
f 41/41/41 40/40/40 37/37/37
f 41/41/41 42/42/42 40/40/40
f 43/43/43 40/40/40 42/42/42
f 42/42/42 39/39/39 43/43/43
f 44/44/44 43/43/43 39/39/39
f 44/44/44 39/39/39 38/38/38
f 45/45/45 44/44/44 38/38/38
f 45/45/45 38/38/38 40/40/40
f 45/45/45 40/40/40 43/43/43
f 43/43/43 44/44/44 45/45/45
f 46/46/46 47/47/47 48/48/48
f 47/47/47 46/46/46 49/49/49
f 50/50/50 49/49/49 46/46/46
f 50/50/50 51/51/51 49/49/49
f 52/52/52 49/49/49 51/51/51
f 51/51/51 48/48/48 52/52/52
f 53/53/53 52/52/52 48/48/48
f 53/53/53 48/48/48 47/47/47
f 54/54/54 53/53/53 47/47/47
f 54/54/54 47/47/47 49/49/49
f 54/54/54 49/49/49 52/52/52
f 52/52/52 53/53/53 54/54/54
f 55/55/55 56/56/56 57/57/57
f 56/56/56 55/55/55 58/58/58
f 59/59/59 58/58/58 55/55/55
f 59/59/59 60/60/60 58/58/58
f 61/61/61 58/58/58 60/60/60
f 60/60/60 57/57/57 61/61/61
f 62/62/62 61/61/61 57/57/57
f 62/62/62 57/57/57 56/56/56
f 63/63/63 62/62/62 56/56/56
f 63/63/63 56/56/56 58/58/58
f 63/63/63 58/58/58 61/61/61
f 61/61/61 62/62/62 63/63/63
f 64/64/64 65/65/65 66/66/66
f 65/65/65 64/64/64 67/67/67
f 68/68/68 67/67/67 64/64/64
f 68/68/68 69/69/69 67/67/67
f 70/70/70 67/67/67 69/69/69
f 69/69/69 66/66/66 70/70/70
f 71/71/71 70/70/70 66/66/66
f 71/71/71 66/66/66 65/65/65
f 72/72/72 71/71/71 65/65/65
f 72/72/72 65/65/65 67/67/67
f 72/72/72 67/67/67 70/70/70
f 70/70/70 71/71/71 72/72/72
f 73/73/73 74/74/74 75/75/75
f 74/74/74 73/73/73 76/76/76
f 77/77/77 76/76/76 73/73/73
f 77/77/77 78/78/78 76/76/76
f 79/79/79 76/76/76 78/78/78
f 78/78/78 75/75/75 79/79/79
f 80/80/80 79/79/79 75/75/75
f 80/80/80 75/75/75 74/74/74
f 81/81/81 80/80/80 74/74/74
f 81/81/81 74/74/74 76/76/76
f 81/81/81 76/76/76 79/79/79
f 79/79/79 80/80/80 81/81/81
f 82/82/82 83/83/83 84/84/84
f 83/83/83 82/82/82 85/85/85
f 86/86/86 85/85/85 82/82/82
f 86/86/86 87/87/87 85/85/85
f 88/88/88 85/85/85 87/87/87
f 87/87/87 84/84/84 88/88/88
f 89/89/89 88/88/88 84/84/84
f 89/89/89 84/84/84 83/83/83
f 90/90/90 89/89/89 83/83/83
f 90/90/90 83/83/83 85/85/85
f 90/90/90 85/85/85 88/88/88
f 88/88/88 89/89/89 90/90/90
