# Blender v2.80 (sub 45) OBJ File: ''
# www.blender.org
mtllib tdr_d_tomb_cover.mtl
o tdr_d_tomb_cover
v -205.809723 330.529816 -0.204811
v -217.990814 340.912628 -0.204811
v -251.184097 332.968109 31.084782
v -267.385132 340.656097 31.039883
v -316.379089 327.749847 40.694424
v -606.895203 340.722687 25.450132
v -699.377686 -333.909515 -0.199623
v -606.588013 -333.417877 -0.202026
v 268.101807 -330.024231 -0.205116
v 492.036774 -340.901306 -0.204849
v 335.768982 -340.901337 -0.204849
v 498.517944 -333.909668 -0.199699
v 498.506500 77.234413 196.139969
v -692.723999 -234.695465 46.457363
v -699.305725 -202.712463 39.873653
v -699.324768 -231.330978 29.243467
v -699.305542 200.377228 39.873653
v -699.368774 219.656784 4.687347
v -699.359619 255.237228 9.766692
v -699.305542 334.536560 39.873653
v 355.107605 340.655609 24.617880
v 333.284851 332.446533 45.096889
v 447.914154 340.631226 25.924032
v -699.320984 36.251442 31.270977
v -694.005920 132.955261 45.174862
v -699.319397 144.073380 32.194744
v 280.949463 -54.418728 220.677475
v 278.489990 -69.706482 220.142273
v 188.779541 -340.901306 -0.204849
v 386.908539 -340.491058 39.680477
v 465.511841 -340.480042 39.666325
v -693.295654 -340.901184 -0.204811
v -576.723999 -340.896484 4.272727
v -672.491272 340.638855 39.869953
v -693.289612 340.915527 -0.204811
v -693.283630 340.641785 39.873653
v 492.031006 79.608604 213.539261
v -350.969727 -328.630920 47.761532
v -318.162598 -340.589264 39.806553
v -428.360626 -332.819031 44.978443
v -517.364624 -340.617126 39.842220
v -693.283752 -340.641632 39.873653
v -629.887939 -264.994232 90.184166
v -509.181152 -57.850170 228.042130
v 247.424606 -57.850227 228.042130
v 492.030518 -57.850246 228.042130
v 422.692810 -327.431366 48.448368
v 455.850128 340.481323 39.668079
v 385.093781 329.606598 46.988140
v -315.002625 330.437836 46.540028
v -614.418152 300.636169 66.400520
v -561.230347 340.623291 39.849964
v -624.189880 332.933594 44.930187
v -509.181152 57.850288 228.042130
v 492.030518 57.850132 228.042130
v -317.888489 340.589386 39.806400
v 491.784576 340.908264 -0.204849
v 492.036896 340.476227 39.661594
v 392.324890 340.723083 17.493780
v -189.034348 340.912445 -0.204811
v 325.587463 340.499451 39.691387
v -245.356720 340.579224 39.793468
v -342.729431 316.969849 55.530888
v -346.741272 -340.699188 25.461195
v -410.377228 -340.655182 31.374546
v -471.915527 -340.713043 25.070684
v 484.329468 114.983665 189.946884
v 498.504700 50.828526 225.170197
v 460.561218 -333.727203 44.199978
v 457.859894 -340.613586 28.591803
v 412.102112 -340.660156 23.611067
v 498.518066 334.211578 -0.199699
v 498.515930 334.252472 39.871326
v -477.822876 94.878929 203.369812
v -606.440308 290.750061 67.163116
v 445.000854 290.750000 67.163116
v 447.110260 300.636139 66.400520
v 444.992401 91.237946 199.012741
v -471.893951 91.238045 199.012741
v 447.101746 94.878845 203.369812
v -471.893951 -91.237930 199.012741
v 444.992401 -91.238060 199.012741
v 310.626282 -57.850224 228.042130
v 492.033691 -48.564075 229.979614
v 313.804779 -48.564045 229.979614
v 284.722595 -30.965462 229.979614
v 248.013794 -48.564049 229.979614
v -667.828674 -286.253082 71.359970
v -610.163696 -212.964554 124.829544
v -699.305725 -333.813995 39.873653
v 498.504700 -50.821766 225.170197
v 498.515808 -333.870667 39.574200
v -668.911682 -222.117889 70.276596
v -662.374756 218.544739 71.296799
v -668.911560 222.995895 70.276596
v -662.374878 -217.666763 71.296799
v -531.983948 -21.314352 196.831955
v -614.418274 -300.636047 66.400520
v -606.440430 -290.749908 67.163116
v 445.000732 -290.750092 67.163116
v 447.101685 -94.878960 203.369812
v 447.110138 -300.636230 66.400520
v -477.822937 -94.878815 203.369812
v -699.377563 334.619904 -0.199623
v 492.032654 151.968292 165.308975
v 498.507782 128.420380 174.441589
v -428.324158 85.610237 209.545578
v -448.463287 94.878929 203.369812
v -380.831726 94.878929 203.369812
v -689.930542 250.525742 -0.201378
v -699.377563 204.777039 -0.199623
v -699.377563 293.541504 -0.199623
v -557.424133 -340.901215 -0.204811
v -654.727478 -340.878387 7.024192
v -653.987366 -327.953522 -0.201874
v -657.582031 -285.801666 76.363976
v 276.595459 -340.797760 8.992614
v -422.452515 91.238045 199.012741
v 492.033691 48.570766 229.979614
v -505.761780 48.577541 229.979614
v -505.761780 -48.563950 229.979614
v -535.859802 21.828115 203.367371
v -531.983948 21.400333 196.831955
v -650.062683 -243.084381 89.131081
v -535.859802 -21.758280 203.367371
v -626.563965 -223.903534 112.636711
v -512.013672 -50.821800 227.220596
v -512.013672 50.835369 227.220596
v -694.374146 46.533627 44.806515
v -699.305664 -25.029373 39.873653
v -699.305725 -295.074188 39.873653
v 492.036774 -340.476318 39.661594
vt 0.800195 -0.002839
vt 0.799071 -0.003526
vt 0.795573 -0.003322
vt 0.635633 -0.350437
vt 0.629569 -0.350437
vt 0.613012 -0.342287
vt 0.604949 -0.342308
vt 0.580557 -0.338487
vt 0.579806 -0.340032
vt 0.567444 -0.333142
vt 0.435988 -0.343785
vt 0.403337 -0.340046
vt 0.427374 -0.337803
vt 0.458706 -0.340041
vt 0.350756 -0.417882
vt 0.283007 -0.298125
vt 0.305774 -0.300476
vt 0.350756 -0.299640
vt 0.327180 -0.298125
vt 0.347623 -0.298125
vt 0.017891 -0.309419
vt 0.011448 -0.299639
vt 0.014927 -0.298125
vt 0.015172 -0.321214
vt 0.011448 -0.333447
vt 0.350756 -0.420912
vt 0.350756 -0.425086
vt 0.011448 -0.519122
vt 0.016861 -0.538859
vt 0.350756 -0.594455
vt 0.011448 -0.594581
vt 0.014927 -0.596193
vt 0.347420 -0.596193
vt 0.011448 -0.555697
vt 0.655948 -0.137708
vt 0.988441 -0.137708
vt 0.655967 -0.127811
vt 0.988461 -0.127737
vt 0.886031 -0.094253
vt 0.860558 -0.088854
vt 0.796828 -0.081630
vt 0.847418 -0.081630
vt 0.709239 -0.070128
vt 0.677518 -0.067483
vt 0.707566 -0.065257
vt 0.723481 -0.067483
vt 0.926269 -0.077455
vt 0.658191 -0.077455
vt 0.658239 -0.067483
vt 0.811903 -0.067483
vt 0.842400 -0.069624
vt 0.896057 -0.069394
vt 0.924075 -0.067483
vt 0.933674 -0.076239
vt 0.951380 -0.074975
vt 0.990839 -0.067483
vt 0.970443 -0.077455
vt 0.990885 -0.077455
vt 0.914769 -0.343947
vt 0.900034 -0.340005
vt 0.903865 -0.337655
vt 0.933309 -0.345805
vt 0.929648 -0.336826
vt 0.960954 -0.343599
vt 0.964860 -0.340000
vt 0.847517 -0.065815
vt 0.890524 -0.065691
vt 0.877820 -0.382527
vt 0.894171 -0.380381
vt 0.879698 -0.375952
vt 0.861429 -0.380381
vt 0.861136 -0.383091
vt 0.876596 -0.386814
vt 0.892589 -0.383090
vt 0.503154 -0.470260
vt 0.565447 -0.470153
vt 0.533779 -0.468619
vt 0.831951 -0.476827
vt 0.579670 -0.466422
vt 0.875653 -0.474419
vt 0.930551 -0.466393
vt 0.905101 -0.476827
vt 0.943089 -0.470593
vt 0.965860 -0.469288
vt 0.982868 -0.476827
vt 0.969668 -0.466390
vt 0.982868 -0.466389
vt 0.412177 -0.474953
vt 0.392989 -0.466437
vt 0.392984 -0.476827
vt 0.480536 -0.466430
vt 0.450996 -0.475667
vt 0.460600 -0.476827
vt 0.392984 -0.350437
vt 0.392989 -0.340047
vt 0.982865 -0.256700
vt 0.986087 -0.254649
vt 0.982866 -0.263113
vt 0.563343 -0.462931
vt 0.432237 -0.454763
vt 0.524829 -0.464157
vt 0.410756 -0.450274
vt 0.424538 -0.444173
vt 0.500214 -0.394718
vt 0.434354 -0.428807
vt 0.484609 -0.383091
vt 0.960506 -0.394718
vt 0.982865 -0.383090
vt 0.960510 -0.454763
vt 0.967205 -0.464419
vt 0.948359 -0.462580
vt 0.979033 -0.273572
vt 0.960510 -0.328372
vt 0.960506 -0.268327
vt 0.982866 -0.284439
vt 0.982868 -0.339999
vt 0.615902 -0.340029
vt 0.581242 -0.337079
vt 0.432237 -0.328372
vt 0.484609 -0.256700
vt 0.500214 -0.268327
vt 0.514825 -0.268327
vt 0.524847 -0.265417
vt 0.548482 -0.268327
vt 0.982868 -0.350437
vt 0.643983 -0.350437
vt 0.982867 -0.253990
vt 0.881001 -0.089384
vt 0.864006 -0.083758
vt 0.986089 -0.278015
vt 0.986094 -0.350437
vt 0.986093 -0.339999
vt 0.439646 -0.325487
vt 0.502891 -0.269856
vt 0.957492 -0.325487
vt 0.957488 -0.269856
vt 0.527404 -0.269856
vt 0.957492 -0.451878
vt 0.502891 -0.396247
vt 0.439646 -0.451878
vt 0.957488 -0.396247
vt 0.982867 -0.380381
vt 0.982867 -0.355934
vt 0.486310 -0.355934
vt 0.486310 -0.380381
vt 0.682132 -0.054337
vt 0.703391 -0.050692
vt 0.681908 -0.056734
vt 0.689563 -0.045725
vt 0.712936 -0.042643
vt 0.718380 -0.038036
vt 0.654841 -0.066610
vt 0.654841 -0.077455
vt 0.986087 -0.355934
vt 0.986087 -0.381040
vt 0.986094 -0.476827
vt 0.986093 -0.466389
vt 0.713825 -0.057203
vt 0.930209 -0.056298
vt 0.935338 -0.057203
vt 0.718953 -0.056298
vt 0.813535 -0.012076
vt 0.813756 -0.013703
vt 0.835226 -0.012076
vt 0.835013 -0.013703
vt 0.853148 -0.003322
vt 0.849654 -0.003526
vt 0.994233 -0.066610
vt 0.994233 -0.077455
vt 0.949366 -0.079132
vt 0.436236 -0.478100
vt 0.411859 -0.478828
vt 0.848538 -0.002839
vt 0.871895 -0.479618
vt 0.486310 -0.253990
vn -0.1801 -0.0713 0.9811
vn -0.5477 -0.0662 0.8340
vn -0.2831 -0.2900 0.9142
vn -0.0507 0.4049 -0.9130
vn 0.4355 0.8137 -0.3850
vn 0.1398 0.9870 -0.0797
vn 0.2365 0.7524 0.6148
vn 0.0669 0.8142 0.5767
vn 0.1498 0.7482 0.6463
vn 0.0079 0.5591 0.8291
vn -0.0014 0.9917 0.1289
vn 0.0067 0.8795 0.4758
vn 0.0507 0.7355 0.6756
vn -0.0069 0.8797 0.4755
vn -0.7058 0.0324 -0.7076
vn -0.3318 0.0068 -0.9433
vn -0.3028 0.7180 -0.6268
vn -0.7079 -0.0124 -0.7062
vn -0.7185 0.2937 -0.6305
vn 0.0049 -0.2109 -0.9775
vn -0.3109 -0.7142 -0.6271
vn -0.7229 -0.2713 -0.6355
vn 0.0083 -0.2415 -0.9704
vn -0.0072 -0.7085 -0.7057
vn -0.0891 0.7052 -0.7033
vn 0.0026 -0.7105 -0.7037
vn 0.0122 -0.2955 -0.9553
vn 0.2950 0.7188 -0.6295
vn 0.3084 -0.7176 -0.6245
vn 0.7184 -0.2889 -0.6328
vn 0.7181 0.2960 -0.6298
vn -0.0070 -0.7107 -0.7035
vn 0.8638 -0.4260 0.2692
vn 0.8602 0.3865 0.3326
vn 0.8770 0.1610 0.4528
vn 0.9863 0.0891 0.1387
vn 0.8731 -0.1383 0.4674
vn 0.8708 0.1252 0.4754
vn -0.9884 -0.0180 0.1510
vn -0.9236 0.0031 0.3834
vn -0.8186 -0.0088 0.5743
vn -0.9236 -0.0126 0.3832
vn -0.8315 -0.3362 0.4422
vn -0.9236 0.0017 0.3834
vn -0.9864 0.0095 0.1643
vn -0.9851 -0.0118 0.1713
vn -0.9236 -0.0018 0.3834
vn -0.9731 0.0938 -0.2102
vn -0.9457 -0.0516 -0.3209
vn -0.8413 0.3248 0.4321
vn 0.0829 0.9746 0.2078
vn 0.0696 0.8740 0.4810
vn 0.1140 0.6790 0.7252
vn -0.0010 0.9873 0.1591
vn -0.0643 0.7383 0.6714
vn -0.0963 0.9940 0.0521
vn -0.0295 0.8833 0.4679
vn -0.8439 0.0050 0.5364
vn -0.8281 0.0007 0.5606
vn -0.0092 -0.2297 0.9732
vn -0.0675 -0.1168 0.9909
vn -0.0103 -0.1360 0.9907
vn 0.0792 -0.1416 0.9868
vn 0.0911 -0.3563 0.9299
vn 0.0082 -0.3560 0.9345
vn -0.0789 -0.3147 0.9459
vn 0.0502 -0.9918 0.1175
vn -0.0311 -0.9789 0.2020
vn -0.0727 -0.9598 0.2711
vn -0.0305 -0.8795 0.4750
vn -0.0426 -0.9262 -0.3747
vn 0.0385 -0.8804 0.4726
vn 0.0308 -0.9813 0.1898
vn -0.0198 -0.9734 0.2284
vn -0.1852 -0.8629 0.4703
vn 0.3046 -0.8512 0.4274
vn 0.0182 -0.8868 -0.4619
vn -0.3744 -0.8101 0.4513
vn -0.0134 -0.8795 0.4757
vn -0.0994 -0.9275 -0.3603
vn -0.3194 0.8259 0.4647
vn 0.3394 0.3855 0.8580
vn 0.5390 0.4608 0.7051
vn -0.0077 -0.7195 0.6945
vn 0.0457 -0.5198 0.8531
vn -0.0090 -0.7229 0.6908
vn -0.2379 -0.4092 0.8809
vn -0.1500 -0.4706 0.8695
vn 0.2310 -0.7470 0.6234
vn -0.2021 -0.4572 0.8661
vn -0.2899 -0.6968 0.6561
vn 0.3072 -0.3883 0.8688
vn -0.0789 -0.4643 0.8822
vn -0.0890 -0.7234 0.6847
vn -0.0008 -0.7365 0.6764
vn 0.2718 0.5396 0.7968
vn -0.0822 0.4638 0.8821
vn -0.2767 0.7034 0.6547
vn 0.3262 0.5468 0.7711
vn 0.3045 0.8425 0.4443
vn -0.1460 0.9622 0.2300
vn -0.1822 0.9559 0.2303
vn 0.0630 0.5280 0.8469
vn -0.2760 0.3378 0.8999
vn 0.2111 0.7575 0.6178
vn 0.0257 0.9892 0.1446
vn 0.0435 0.6744 0.7371
vn -0.0074 0.9897 0.1431
vn 0.2989 0.0894 0.9501
vn 0.3923 0.5063 0.7680
vn 0.1858 0.9715 0.1470
vn -0.4867 0.3302 0.8088
vn -0.4539 0.8746 0.1704
vn 0.0001 0.7622 0.6474
vn -0.4960 -0.3198 0.8073
vn 0.1856 -0.9716 0.1467
vn 0.4249 -0.4771 0.7694
vn -0.4614 -0.8713 0.1669
vn 0.2989 -0.0894 0.9501
vn -0.1801 0.0714 0.9811
vn -0.5850 -0.1293 0.8006
vn -0.5696 -0.1221 0.8128
vn -0.5722 -0.2495 0.7812
vn -0.6812 0.0806 0.7276
vn -0.6757 -0.6816 0.2808
vn -0.6808 -0.0926 0.7266
vn -0.6697 0.6878 0.2800
vn -0.9549 0.1501 0.2562
vn -0.9709 0.2327 0.0565
vn -0.9351 -0.2321 0.2678
vn -0.9563 -0.2839 0.0706
vn -0.5482 0.0627 0.8340
usemtl material_0.004
s 1
f 121/1/1 127/2/2 44/3/3
f 1/4/4 2/5/5 3/6/6
f 3/6/6 2/5/5 4/7/7
f 4/7/7 5/8/8 3/6/6
f 4/7/7 56/9/9 5/8/8
f 63/10/10 5/8/8 56/9/9
f 6/11/11 34/12/12 53/13/13
f 6/11/11 53/13/13 52/14/14
f 2/15/5 111/16/15 110/17/16
f 2/15/5 110/17/16 35/18/17
f 112/19/18 35/18/17 110/17/16
f 112/19/18 104/20/19 35/18/17
f 115/21/20 32/22/21 7/23/22
f 115/21/20 7/23/22 111/16/15
f 115/21/20 111/16/15 8/24/23
f 8/24/23 111/16/15 2/15/5
f 8/24/23 2/15/5 113/25/24
f 113/25/24 2/15/5 1/26/4
f 113/25/24 1/26/4 60/27/25
f 113/25/24 60/27/25 29/28/26
f 29/28/26 60/27/25 9/29/27
f 9/29/27 60/27/25 57/30/28
f 9/29/27 57/30/28 10/31/29
f 57/30/28 12/32/30 10/31/29
f 57/30/28 72/33/31 12/32/30
f 9/29/27 10/31/29 11/34/32
f 12/35/30 72/36/31 92/37/33
f 92/37/33 72/36/31 73/38/34
f 106/39/35 92/37/33 73/38/34
f 13/40/36 92/37/33 106/39/35
f 92/37/33 13/40/36 91/41/37
f 13/40/36 68/42/38 91/41/37
f 16/43/39 131/44/40 14/45/41
f 16/43/39 14/45/41 15/46/42
f 16/43/39 111/47/15 7/48/22
f 7/48/22 131/44/40 16/43/39
f 7/48/22 90/49/43 131/44/40
f 16/43/39 15/46/42 130/50/44
f 16/43/39 130/50/44 24/51/45
f 24/51/45 111/47/15 16/43/39
f 26/52/46 111/47/15 24/51/45
f 17/53/47 111/47/15 26/52/46
f 111/47/15 17/53/47 18/54/48
f 18/54/48 17/53/47 19/55/49
f 19/55/49 17/53/47 20/56/50
f 20/56/50 112/57/18 19/55/49
f 112/57/18 20/56/50 104/58/19
f 21/59/51 61/60/52 22/61/53
f 22/61/53 59/62/54 21/59/51
f 59/62/54 22/61/53 49/63/55
f 59/62/54 49/63/55 23/64/56
f 23/64/56 49/63/55 48/65/57
f 24/51/45 130/50/44 129/66/58
f 24/51/45 129/66/58 25/67/59
f 24/51/45 25/67/59 26/52/46
f 26/52/46 25/67/59 17/53/47
f 27/68/60 85/69/61 86/70/62
f 27/68/60 86/70/62 87/71/63
f 27/68/60 87/71/63 45/72/64
f 27/68/60 45/72/64 28/73/65
f 28/73/65 85/69/61 27/68/60
f 83/74/66 85/69/61 28/73/65
f 66/75/67 64/76/68 65/77/69
f 29/78/26 64/76/68 66/75/67
f 64/76/68 29/78/26 39/79/70
f 39/79/70 29/78/26 117/80/71
f 39/79/70 117/80/71 30/81/72
f 30/81/72 117/80/71 11/82/32
f 30/81/72 11/82/32 71/83/73
f 71/83/73 11/82/32 70/84/74
f 70/84/74 11/82/32 10/85/29
f 70/84/74 10/85/29 31/86/75
f 31/86/75 10/85/29 132/87/76
f 114/88/77 42/89/78 32/90/21
f 114/88/77 41/91/79 42/89/78
f 33/92/80 41/91/79 114/88/77
f 113/93/24 41/91/79 33/92/80
f 113/93/24 66/75/67 41/91/79
f 29/78/26 66/75/67 113/93/24
f 34/12/12 35/94/17 36/95/81
f 6/11/11 35/94/17 34/12/12
f 6/11/11 2/5/5 35/94/17
f 52/14/14 2/5/5 6/11/11
f 56/9/9 2/5/5 52/14/14
f 56/9/9 4/7/7 2/5/5
f 55/96/82 68/97/38 37/98/83
f 30/81/72 38/99/84 39/79/70
f 98/100/85 38/99/84 30/81/72
f 40/101/86 38/99/84 98/100/85
f 40/101/86 98/100/85 41/91/79
f 41/91/79 98/100/85 42/89/78
f 98/100/85 116/102/87 42/89/78
f 43/103/88 116/102/87 98/100/85
f 103/104/89 43/103/88 98/100/85
f 103/104/89 89/105/90 43/103/88
f 44/106/3 89/105/90 103/104/89
f 103/104/89 45/72/64 44/106/3
f 45/72/64 103/104/89 28/73/65
f 28/73/65 103/104/89 101/107/91
f 101/107/91 83/74/66 28/73/65
f 101/107/91 46/108/92 83/74/66
f 46/108/92 101/107/91 102/109/93
f 46/108/92 102/109/93 132/87/76
f 102/109/93 31/86/75 132/87/76
f 102/109/93 69/110/94 31/86/75
f 47/111/95 69/110/94 102/109/93
f 98/100/85 47/111/95 102/109/93
f 98/100/85 30/81/72 47/111/95
f 67/112/96 77/113/97 80/114/98
f 67/112/96 105/115/99 77/113/97
f 77/113/97 105/115/99 58/116/100
f 77/113/97 58/116/100 48/65/57
f 77/113/97 48/65/57 49/63/55
f 77/113/97 49/63/55 22/61/53
f 61/60/52 62/117/101 22/61/53
f 22/61/53 62/117/101 50/118/102
f 22/61/53 50/118/102 63/10/10
f 22/61/53 63/10/10 77/113/97
f 77/113/97 63/10/10 51/119/103
f 51/119/103 63/10/10 52/14/14
f 51/119/103 52/14/14 53/13/13
f 53/13/13 34/12/12 51/119/103
f 51/119/103 34/12/12 36/95/81
f 54/120/104 51/119/103 36/95/81
f 51/119/103 54/120/104 74/121/105
f 108/122/106 74/121/105 54/120/104
f 108/122/106 54/120/104 107/123/107
f 55/96/82 107/123/107 54/120/104
f 55/96/82 109/124/108 107/123/107
f 80/114/98 109/124/108 55/96/82
f 37/98/83 80/114/98 55/96/82
f 67/112/96 80/114/98 37/98/83
f 52/14/14 63/10/10 56/9/9
f 57/125/28 48/65/57 58/116/100
f 23/64/56 48/65/57 57/125/28
f 23/64/56 57/125/28 59/62/54
f 60/126/25 59/62/54 57/125/28
f 60/126/25 21/59/51 59/62/54
f 60/126/25 61/60/52 21/59/51
f 62/117/101 61/60/52 60/126/25
f 68/97/38 55/96/82 119/127/109
f 1/4/4 62/117/101 60/126/25
f 1/4/4 3/6/6 62/117/101
f 3/6/6 50/118/102 62/117/101
f 5/8/8 50/118/102 3/6/6
f 5/8/8 63/10/10 50/118/102
f 38/99/84 64/76/68 39/79/70
f 38/99/84 65/77/69 64/76/68
f 65/77/69 38/99/84 40/101/86
f 40/101/86 66/75/67 65/77/69
f 66/75/67 40/101/86 41/91/79
f 67/128/96 13/40/36 106/39/35
f 37/129/83 13/40/36 67/128/96
f 37/129/83 68/42/38 13/40/36
f 69/110/94 70/84/74 31/86/75
f 69/110/94 47/111/95 70/84/74
f 70/84/74 47/111/95 71/83/73
f 47/111/95 30/81/72 71/83/73
f 67/112/96 106/130/35 105/115/99
f 58/116/100 72/131/31 57/125/28
f 73/132/34 72/131/31 58/116/100
f 74/121/105 75/133/110 51/119/103
f 79/134/111 75/133/110 74/121/105
f 75/133/110 77/113/97 51/119/103
f 76/135/112 77/113/97 75/133/110
f 76/135/112 80/114/98 77/113/97
f 78/136/113 80/114/98 76/135/112
f 79/134/111 108/122/106 118/137/114
f 79/134/111 74/121/105 108/122/106
f 109/124/108 78/136/113 118/137/114
f 78/136/113 109/124/108 80/114/98
f 100/138/115 81/139/116 99/140/117
f 100/138/115 82/141/118 81/139/116
f 46/108/92 85/69/61 83/74/66
f 46/108/92 84/142/119 85/69/61
f 85/69/61 84/142/119 119/143/109
f 85/69/61 119/143/109 86/70/62
f 120/144/120 86/70/62 119/143/109
f 120/144/120 87/71/63 86/70/62
f 121/145/1 87/71/63 120/144/120
f 116/146/87 124/147/121 88/148/122
f 124/147/121 116/146/87 43/149/88
f 124/147/121 43/149/88 126/150/123
f 126/150/123 43/149/88 89/151/90
f 7/48/22 42/152/78 90/49/43
f 7/48/22 32/153/21 42/152/78
f 68/154/38 84/142/119 91/155/37
f 119/143/109 84/142/119 68/154/38
f 12/156/30 132/87/76 10/85/29
f 92/157/33 132/87/76 12/156/30
f 93/158/124 94/159/125 95/160/126
f 96/161/127 94/159/125 93/158/124
f 125/162/128 96/161/127 93/158/124
f 97/163/129 96/161/127 125/162/128
f 122/164/130 97/163/129 125/162/128
f 123/165/131 97/163/129 122/164/130
f 99/140/117 103/104/89 98/100/85
f 99/140/117 81/139/116 103/104/89
f 102/109/93 99/140/117 98/100/85
f 100/138/115 99/140/117 102/109/93
f 101/107/91 100/138/115 102/109/93
f 82/141/118 100/138/115 101/107/91
f 81/139/116 101/107/91 103/104/89
f 81/139/116 82/141/118 101/107/91
f 54/166/104 20/56/50 128/167/132
f 36/168/81 20/56/50 54/166/104
f 104/58/19 36/168/81 35/169/17
f 104/58/19 20/56/50 36/168/81
f 73/132/34 105/115/99 106/130/35
f 105/115/99 73/132/34 58/116/100
f 107/123/107 118/137/114 108/122/106
f 107/123/107 109/124/108 118/137/114
f 18/54/48 110/170/16 111/47/15
f 19/55/49 110/170/16 18/54/48
f 19/55/49 112/57/18 110/170/16
f 33/92/80 8/171/23 113/93/24
f 114/88/77 8/171/23 33/92/80
f 114/88/77 115/172/20 8/171/23
f 114/88/77 32/90/21 115/172/20
f 88/148/122 42/152/78 116/146/87
f 90/49/43 42/152/78 88/148/122
f 120/173/120 54/166/104 128/167/132
f 117/80/71 9/174/27 11/82/32
f 117/80/71 29/78/26 9/174/27
f 45/72/64 121/145/1 44/106/3
f 45/72/64 87/71/63 121/145/1
f 79/134/111 76/135/112 75/133/110
f 118/137/114 76/135/112 79/134/111
f 78/136/113 76/135/112 118/137/114
f 120/175/120 55/96/82 54/120/104
f 119/127/109 55/96/82 120/175/120
f 127/2/2 120/173/120 128/167/132
f 127/2/2 121/1/1 120/173/120
f 89/151/90 127/2/2 126/150/123
f 89/151/90 44/3/3 127/2/2
f 46/108/92 91/155/37 84/142/119
f 94/159/125 122/164/130 95/160/126
f 94/159/125 123/165/131 122/164/130
f 96/161/127 123/165/131 94/159/125
f 96/161/127 97/163/129 123/165/131
f 88/148/122 93/158/124 90/49/43
f 88/148/122 124/147/121 93/158/124
f 124/147/121 125/162/128 93/158/124
f 126/150/123 125/162/128 124/147/121
f 127/2/2 125/162/128 126/150/123
f 128/167/132 125/162/128 127/2/2
f 122/164/130 125/162/128 128/167/132
f 95/160/126 122/164/130 128/167/132
f 95/160/126 128/167/132 20/56/50
f 17/53/47 95/160/126 20/56/50
f 17/53/47 25/67/59 95/160/126
f 25/67/59 129/66/58 95/160/126
f 95/160/126 129/66/58 93/158/124
f 130/50/44 93/158/124 129/66/58
f 130/50/44 15/46/42 93/158/124
f 93/158/124 15/46/42 14/45/41
f 14/45/41 131/44/40 93/158/124
f 93/158/124 131/44/40 90/49/43
f 92/157/33 46/108/92 132/87/76
f 91/155/37 46/108/92 92/157/33
