# Blender v2.80 (sub 74) OBJ File: 'tdr_h_wateroutside.blend'
# www.blender.org
mtllib tdr_h_wateroutside.mtl
o Default_TRLE_Floor.012_Cube.013
v 2559.859375 -3584.000000 0.000000
v -512.140442 512.000061 0.000000
v 511.859711 512.000061 0.000000
v 511.859711 -512.000061 0.000000
v -512.140442 -3584.000000 0.000000
v 511.859711 -3584.000000 0.000000
v 511.859711 -4608.000000 0.000000
v 2559.859375 -4608.000000 0.000000
v 2559.859375 -512.000061 0.000000
v 3583.859619 512.000061 0.000000
v 2559.859375 1535.999878 0.000000
v 3583.859619 1535.999878 0.000000
v 4607.859375 512.000061 0.000000
v 4607.859375 -512.000061 0.000000
v 4607.859375 -3584.000000 0.000000
v 4607.859375 -4608.000000 0.000000
v 7679.859375 -3584.000000 0.000000
v 7679.859375 -4608.000000 0.000000
v 8703.859375 -2559.999756 0.000000
v 8703.859375 -3584.000000 0.000000
v 11775.859375 -2559.999756 0.000000
v 11775.859375 -3584.000000 0.000000
v 11775.859375 -512.000061 0.000000
v 11775.859375 512.000061 0.000000
v 14847.859375 -3584.000000 0.000000
v 14847.859375 512.000061 0.000000
v 14847.857422 -512.000061 0.000000
v 14847.857422 -4608.000000 0.000000
v 16895.859375 -1536.000000 0.000000
v 16895.859375 -512.000061 0.000000
v 17919.859375 -3584.000000 0.000000
v 17919.859375 -4608.000000 0.000000
v 19967.859375 -2559.999756 0.000000
v 19967.859375 -3584.000000 0.000000
v 20991.857422 -1536.000000 0.000000
v 20991.857422 -2559.999756 0.000000
vt 0.000100 0.000100
vt 0.999900 0.000100
vt 0.999900 0.999900
vt 0.000100 0.999900
vt 0.999900 0.999900
vt 0.000100 0.999900
vt 0.000100 0.000100
vt 0.000100 0.999900
vt 0.999900 0.999900
vt 0.000100 0.999900
vt 0.000100 0.000100
vt 0.000100 0.999900
vt 0.000100 0.000100
vt 0.000100 0.999900
vt 0.999900 0.999900
vt 0.000100 0.999900
vt 0.999900 0.999900
vt 0.000100 0.999900
vt 0.000100 0.000100
vt 0.000100 0.999900
vt 0.000100 0.000100
vt 0.000100 0.999900
vt 0.000100 0.000100
vt 0.999900 0.000100
vt 0.000100 0.000100
vt 0.999900 0.000100
vt 0.000100 0.000100
vt 0.999900 0.000100
vt 0.999900 0.999900
vt 0.999900 0.000100
vt 0.000100 0.000100
vt 0.999900 0.000100
vt 0.000100 0.000100
vt 0.999900 0.000100
vt 0.999900 0.999900
vt 0.999900 0.000100
vn 0.0000 0.0000 1.0000
usemtl Material.001
s off
f 4/1/1 3/2/1 2/3/1 5/4/1 6/5/1 7/6/1 8/7/1 1/8/1 15/9/1 16/10/1 18/11/1 17/12/1 20/13/1 19/14/1 21/15/1 22/16/1 25/17/1 28/18/1 32/19/1 31/20/1 34/21/1 33/22/1 36/23/1 35/24/1 29/25/1 30/26/1 27/27/1 26/28/1 24/29/1 23/30/1 14/31/1 13/32/1 10/33/1 12/34/1 11/35/1 9/36/1
