# Blender v2.80 (sub 45) OBJ File: ''
# www.blender.org
mtllib tdr_h_watersurface_c.mtl
o WATERSURFACE_C_Default_TRLE_Floor.000_Cube.006
v -2559.999756 512.000427 -25.599993
v 512.000000 511.999878 -25.599993
v 511.999786 -512.000061 -25.599993
v -512.000061 -511.999878 -25.599993
v -2559.999756 -1535.999634 -25.599993
v -512.000244 -1535.999878 -25.599993
v -2559.999756 512.000427 -25.599993
v -512.000061 -511.999878 -25.599993
v 511.999786 -512.000061 -25.599993
v 512.000000 511.999878 -25.599993
v -2559.999756 -1535.999634 -25.599993
v -512.000244 -1535.999878 -25.599993
vt 0.000100 0.000100
vt 0.999900 0.000100
vt 0.999900 0.999900
vt 0.999900 0.000100
vt 0.999900 0.999900
vt 0.000100 0.999900
vt 0.000100 0.000100
vt 0.000100 0.999900
vt 0.999900 0.999900
vt 0.000100 0.999900
vt 0.999900 0.999900
vt 0.999900 0.000100
vn 0.0000 0.0000 1.0000
vn -0.0000 0.0000 -1.0000
usemtl Material.004
s 1
f 7/1/1 11/2/1 12/3/1 8/4/1 9/5/1 10/6/1
f 1/7/2 2/8/2 3/9/2 4/10/2 6/11/2 5/12/2
