# Blender v2.80 (sub 45) OBJ File: ''
# www.blender.org
mtllib tdr_h_watersurface_b.mtl
o Default_TRLE_Floor.007_Cube.000
v -511.563080 512.291016 0.000000
v -511.563263 -511.709045 0.000000
v 512.436646 -511.709229 0.000000
v 512.436768 512.290894 0.000000
v -1535.562622 512.291199 0.000000
v -1535.562866 -511.708893 0.000000
v -1535.562500 1536.291504 0.000000
v -511.562927 1536.291382 0.000000
v -2559.563232 512.291382 0.000000
v -2559.563232 -511.708710 0.000000
v -2559.562988 1536.291626 0.000000
v -511.563049 512.290955 0.000000
v -511.563232 -511.709015 0.000000
v 512.436584 -511.709198 0.000000
v 512.436707 512.290833 0.000000
v -1535.562500 512.291138 0.000000
v -1535.562744 -511.708862 0.000000
v -1535.562378 1536.291382 0.000000
v -511.562897 1536.291260 0.000000
v -2559.562988 512.291321 0.000000
v -2559.562988 -511.708679 0.000000
v -2559.562744 1536.291504 0.000000
vt 0.000000 0.000000
vt 0.000000 1.000000
vt 1.000000 1.000000
vt 1.000000 0.000000
vt 0.000000 0.000000
vt 0.000000 1.000000
vt 1.000000 1.000000
vt 1.000000 0.000000
vt 0.000000 0.000000
vt 0.000000 1.000000
vt 1.000000 1.000000
vt 1.000000 0.000000
vt 0.000000 0.000000
vt 1.000000 0.000000
vt 1.000000 1.000000
vt 0.000000 1.000000
vt 0.000000 0.000000
vt 1.000000 0.000000
vt 1.000000 1.000000
vt 0.000000 1.000000
vt 0.000000 0.000000
vt 1.000000 0.000000
vt 1.000000 1.000000
vt 0.000000 1.000000
vt 1.000000 1.000000
vt 0.000000 0.000000
vt 0.000000 1.000000
vt 1.000000 1.000000
vt 1.000000 0.000000
vt 0.000000 1.000000
vt 1.000000 1.000000
vt 0.000000 1.000000
vt 0.000000 0.000000
vt 1.000000 1.000000
vt 0.000000 1.000000
vt 1.000000 0.000000
vn 0.0000 0.0000 -1.0000
vn 0.0000 0.0000 1.0000
usemtl Material.003
s 1
f 1/1/1 4/2/1 3/3/1 2/4/1
f 5/5/1 1/6/1 2/7/1 6/8/1
f 7/9/1 8/10/1 1/11/1 5/12/1
f 12/13/2 13/14/2 14/15/2 15/16/2
f 16/17/2 17/18/2 13/19/2 12/20/2
f 18/21/2 16/22/2 12/23/2 19/24/2
usemtl material_0.004
f 9/25/1 5/12/1 6/26/1 10/27/1
f 11/28/1 7/29/1 5/5/1 9/30/1
f 20/31/2 21/32/2 17/33/2 16/22/2
f 22/34/2 20/35/2 16/17/2 18/36/2
