# Blender v2.80 (sub 74) OBJ File: 'water.blend'
# www.blender.org
mtllib tdr_h_watersurface_a.mtl
o watersurface_a_Default_TRLE_Floor.000_Cube.000
v -1535.993530 512.000610 -2.559999
v -1535.994019 -511.999634 -2.559999
v -511.993896 -511.999908 -2.559999
v -511.993530 512.000244 -2.559999
v -2559.993896 512.000977 -2.559999
v -2559.993896 -511.999268 -2.559999
v -3583.994629 512.001343 -2.559999
v -3583.994629 -511.998962 -2.559999
v -4607.994141 512.001587 -2.559999
v -4607.994141 -511.998596 -2.559999
v -4607.993164 1536.001953 -2.559999
v -3583.994141 1536.001709 -2.559999
v -2559.993408 1536.001221 -2.559999
v -1535.993286 1536.000977 -2.559999
v -511.993225 1536.000732 -2.559999
v -1535.993042 2560.000732 -2.559999
v -511.992859 2560.000244 -2.559999
v -2559.992920 2560.001221 -2.559999
v -3583.993652 2560.001221 -2.559999
v -4607.993164 2560.001709 -2.559999
v -1535.993408 512.000549 -2.559999
v -511.993500 512.000183 -2.559999
v -511.993866 -511.999878 -2.559999
v -1535.993896 -511.999573 -2.559999
v -2559.993652 512.000916 -2.559999
v -2559.993652 -511.999207 -2.559999
v -3583.994385 512.001282 -2.559999
v -3583.994385 -511.998901 -2.559999
v -4607.993652 512.001526 -2.559999
v -4607.993652 -511.998535 -2.559999
v -4607.992676 1536.001709 -2.559999
v -3583.993896 1536.001465 -2.559999
v -2559.993164 1536.000977 -2.559999
v -1535.993164 1536.000732 -2.559999
v -511.993195 1536.000488 -2.559999
v -1535.992920 2560.000488 -2.559999
v -511.992828 2560.000000 -2.559999
v -2559.992676 2560.000977 -2.559999
v -3583.993408 2560.000977 -2.559999
v -4607.992676 2560.001465 -2.559999
v 512.006348 -512.000244 -2.559999
v 512.006592 511.999908 -2.559999
v 512.006958 1536.000244 -2.559999
v 512.007324 2560.000244 -2.559999
v 512.006531 511.999878 -2.559999
v 512.006287 -512.000183 -2.559999
v 512.006897 1535.999878 -2.559999
v 512.007263 2560.000000 -2.559999
vt 0.000000 0.000000
vt 1.000000 0.000000
vt 1.000000 1.000000
vt 0.000000 1.000000
vt 0.000000 0.000000
vt 1.000000 0.000000
vt 1.000000 1.000000
vt 0.000000 1.000000
vt 0.000000 0.000000
vt 1.000000 0.000000
vt 1.000000 1.000000
vt 0.000000 1.000000
vt 0.000000 0.000000
vt 1.000000 0.000000
vt 1.000000 1.000000
vt 0.000000 1.000000
vt 0.000000 0.000000
vt 1.000000 0.000000
vt 1.000000 1.000000
vt 0.000000 1.000000
vt 0.000000 0.000000
vt 1.000000 0.000000
vt 1.000000 1.000000
vt 0.000000 1.000000
vt 0.000000 0.000000
vt 1.000000 0.000000
vt 1.000000 1.000000
vt 0.000000 1.000000
vt 0.000000 0.000000
vt 1.000000 0.000000
vt 1.000000 1.000000
vt 0.000000 1.000000
vt 0.000000 0.000000
vt 1.000000 0.000000
vt 1.000000 1.000000
vt 0.000000 1.000000
vt 0.000000 0.000000
vt 1.000000 0.000000
vt 1.000000 1.000000
vt 0.000000 1.000000
vt 0.000000 0.000000
vt 1.000000 0.000000
vt 1.000000 1.000000
vt 0.000000 1.000000
vt 0.000000 0.000000
vt 1.000000 0.000000
vt 1.000000 1.000000
vt 0.000000 1.000000
vt 0.000000 0.000000
vt 0.000000 1.000000
vt 1.000000 1.000000
vt 1.000000 0.000000
vt 0.000000 0.000000
vt 0.000000 1.000000
vt 1.000000 1.000000
vt 1.000000 0.000000
vt 0.000000 0.000000
vt 0.000000 1.000000
vt 1.000000 1.000000
vt 1.000000 0.000000
vt 0.000000 0.000000
vt 0.000000 1.000000
vt 1.000000 1.000000
vt 1.000000 0.000000
vt 0.000000 0.000000
vt 0.000000 1.000000
vt 1.000000 1.000000
vt 1.000000 0.000000
vt 0.000000 0.000000
vt 0.000000 1.000000
vt 1.000000 1.000000
vt 1.000000 0.000000
vt 0.000000 0.000000
vt 0.000000 1.000000
vt 1.000000 1.000000
vt 1.000000 0.000000
vt 0.000000 0.000000
vt 0.000000 1.000000
vt 1.000000 1.000000
vt 1.000000 0.000000
vt 0.000000 0.000000
vt 0.000000 1.000000
vt 1.000000 1.000000
vt 1.000000 0.000000
vt 0.000000 0.000000
vt 0.000000 1.000000
vt 1.000000 1.000000
vt 1.000000 0.000000
vt 0.000000 0.000000
vt 0.000000 1.000000
vt 1.000000 1.000000
vt 1.000000 0.000000
vt 0.000000 0.000000
vt 0.000000 1.000000
vt 1.000000 1.000000
vt 1.000000 0.000000
vt 0.000000 0.000000
vt 1.000000 0.000000
vt 1.000000 1.000000
vt 0.000000 1.000000
vt 0.000000 0.000000
vt 1.000000 0.000000
vt 1.000000 1.000000
vt 0.000000 1.000000
vt 0.000000 0.000000
vt 1.000000 0.000000
vt 1.000000 1.000000
vt 0.000000 1.000000
vt 0.000000 0.000000
vt 0.000000 1.000000
vt 1.000000 1.000000
vt 1.000000 0.000000
vt 0.000000 0.000000
vt 0.000000 1.000000
vt 1.000000 1.000000
vt 1.000000 0.000000
vt 0.000000 0.000000
vt 0.000000 1.000000
vt 1.000000 1.000000
vt 1.000000 0.000000
vn -0.0000 0.0000 1.0000
vn -0.0000 0.0000 -1.0000
usemtl Material.003
s 1
f 1/1/1 2/2/1 3/3/1 4/4/1
f 5/5/1 6/6/1 2/7/1 1/8/1
f 7/9/1 8/10/1 6/11/1 5/12/1
f 9/13/1 10/14/1 8/15/1 7/16/1
f 11/17/1 9/18/1 7/19/1 12/20/1
f 12/21/1 7/22/1 5/23/1 13/24/1
f 13/25/1 5/26/1 1/27/1 14/28/1
f 14/29/1 1/30/1 4/31/1 15/32/1
f 16/33/1 14/34/1 15/35/1 17/36/1
f 18/37/1 13/38/1 14/39/1 16/40/1
f 19/41/1 12/42/1 13/43/1 18/44/1
f 20/45/1 11/46/1 12/47/1 19/48/1
f 21/49/2 22/50/2 23/51/2 24/52/2
f 25/53/2 21/54/2 24/55/2 26/56/2
f 27/57/2 25/58/2 26/59/2 28/60/2
f 29/61/2 27/62/2 28/63/2 30/64/2
f 31/65/2 32/66/2 27/67/2 29/68/2
f 32/69/2 33/70/2 25/71/2 27/72/2
f 33/73/2 34/74/2 21/75/2 25/76/2
f 34/77/2 35/78/2 22/79/2 21/80/2
f 36/81/2 37/82/2 35/83/2 34/84/2
f 38/85/2 36/86/2 34/87/2 33/88/2
f 39/89/2 38/90/2 33/91/2 32/92/2
f 40/93/2 39/94/2 32/95/2 31/96/2
usemtl material_0.004
f 4/97/1 3/98/1 41/99/1 42/100/1
f 15/101/1 4/102/1 42/103/1 43/104/1
f 17/105/1 15/106/1 43/107/1 44/108/1
f 22/109/2 45/110/2 46/111/2 23/112/2
f 35/113/2 47/114/2 45/115/2 22/116/2
f 37/117/2 48/118/2 47/119/2 35/120/2
