# Blender v2.80 (sub 74) OBJ File: 'water.blend'
# www.blender.org
mtllib tdr_h_watersurface_f.mtl
o watersurface_f_Cube.013
v -2559.999756 -2559.999756 -2.560000
v 511.999878 511.999878 -2.560000
v 511.999878 -3584.000000 -2.560000
v -1536.000000 -3584.000000 -2.560000
v -1536.000000 -2559.999756 -2.560000
v -1536.000000 511.999878 -2.560000
v -1536.000000 1536.000000 -2.560000
v -2559.999756 1536.000000 -2.560000
v -2559.999756 -2559.999756 -2.560000
v 511.999878 511.999878 -2.560000
v 511.999878 -3584.000000 -2.560000
v -1536.000000 -3584.000000 -2.560000
v -1536.000000 -2559.999756 -2.560000
v -1536.000000 511.999878 -2.560000
v -1536.000000 1536.000000 -2.560000
v -2559.999756 1536.000000 -2.560000
vt 0.000100 0.000100
vt 0.000100 0.999900
vt 0.999900 0.999900
vt 0.000100 0.999900
vt 0.999900 0.999900
vt 0.999900 0.000100
vt 0.000100 0.000100
vt 0.999900 0.000100
vt 0.000100 0.000100
vt 0.999900 0.000100
vt 0.000100 0.000100
vt 0.999900 0.000100
vt 0.999900 0.999900
vt 0.000100 0.999900
vt 0.999900 0.999900
vt 0.000100 0.999900
vn -0.0000 0.0000 -1.0000
vn 0.0000 0.0000 1.0000
usemtl Material.003
s off
f 8/1/1 7/2/1 6/3/1 2/4/1 3/5/1 4/6/1 5/7/1 1/8/1
f 16/9/2 9/10/2 13/11/2 12/12/2 11/13/2 10/14/2 14/15/2 15/16/2
