# Blender v2.80 (sub 74) OBJ File: 'water.blend'
# www.blender.org
mtllib tdr_h_watersurface_c.mtl
o watersurface_c_WATERSURFACE_C_Default_TRLE_Floor.000_Cube.006
v -2564.266357 512.000732 -2.559997
v -2564.266602 -1535.999634 -2.559997
v -516.267029 -1536.000244 -2.559997
v -516.266663 -512.000061 -2.559997
v 507.733307 -512.000366 -2.559997
v 507.733704 511.999664 -2.559997
v -2564.266357 512.000732 -2.559997
v 507.733704 511.999664 -2.559997
v 507.733307 -512.000366 -2.559997
v -516.266663 -512.000061 -2.559997
v -516.267029 -1536.000244 -2.559997
v -2564.266602 -1535.999634 -2.559997
vt 0.000100 0.000100
vt 0.999900 0.000100
vt 0.999900 0.999900
vt 0.999900 0.000100
vt 0.999900 0.999900
vt 0.000100 0.999900
vt 0.000100 0.000100
vt 0.000100 0.999900
vt 0.999900 0.999900
vt 0.000100 0.999900
vt 0.999900 0.999900
vt 0.999900 0.000100
vn 0.0000 0.0000 1.0000
vn 0.0000 0.0000 -1.0000
usemtl Material.005
s 1
f 1/1/1 2/2/1 3/3/1 4/4/1 5/5/1 6/6/1
f 7/7/2 8/8/2 9/9/2 10/10/2 11/11/2 12/12/2
