# 3ds Max Wavefront OBJ Exporter v0.97b - (c)2007 guruware
# File Created: 20.12.2018 22:40:02

mtllib grasstest3.mtl

#
# object Plane002
#

v  1180.6810 225.2736 1504.9541
v  1180.6810 2.3542 1504.9541
v  1425.7242 2.3542 1212.9231
v  1425.7241 225.2736 1212.9231
v  1425.7242 225.2736 1212.9231
v  1383.7578 225.2736 1531.6897
v  1383.7577 2.3542 1531.6897
v  1222.6475 2.3542 1186.1876
v  1222.6475 225.2735 1186.1876
v  1475.9537 225.2735 1439.4939
v  1475.9537 2.3542 1439.4939
v  1130.4515 2.3542 1278.3835
v  1130.4517 225.2736 1278.3835
# 13 vertices

vn 0.7660 -0.0000 0.6428
vn -0.7660 0.0000 -0.6428
vn 0.9748 -0.0000 -0.2230
vn -0.9748 0.0000 0.2230
vn 0.2840 -0.0000 -0.9588
vn -0.2840 0.0000 0.9588
# 6 vertex normals

vt 0.0000 1.0000 0.0000
vt 0.0000 0.5045 0.0000
vt 0.8474 0.5045 0.0000
vt 0.8474 1.0000 0.0000
# 4 texture coords

o Plane002
g Plane002
usemtl 01___Default
s 1
f 1/1/1 2/2/1 3/3/1 4/4/1 
f 2/2/2 1/1/2 5/4/2 3/3/2 
f 6/1/3 7/2/3 8/3/3 9/4/3 
f 7/2/4 6/1/4 9/4/4 8/3/4 
f 10/1/5 11/2/5 12/3/5 13/4/5 
f 11/2/6 10/1/6 13/4/6 12/3/6 
# 6 polygons

#
# object Plane004
#

v  1265.4539 230.2286 802.1578
v  1265.4539 -3.4745 802.1578
v  982.8508 -3.4745 1084.7606
v  982.8508 230.2286 1084.7606
v  1055.8064 230.2286 755.6799
v  1055.8064 -3.4745 755.6799
v  1192.4984 -3.4745 1131.2384
v  1192.4984 230.2286 1131.2384
v  951.0941 230.2286 843.5438
v  951.0941 -3.4745 843.5438
v  1297.2106 -3.4745 1043.3744
v  1297.2106 230.2286 1043.3744
# 12 vertices

vn -0.7071 -0.0000 -0.7071
vn 0.7071 0.0000 0.7071
vn -0.9905 -0.0000 0.1372
vn 0.9905 0.0000 -0.1372
vn -0.3665 -0.0000 0.9304
vn 0.3665 0.0000 -0.9304
# 6 vertex normals

vt 0.0000 1.0000 0.0000
vt 0.0000 0.5045 0.0000
vt 0.8474 0.5045 0.0000
vt 0.8474 1.0000 0.0000
# 4 texture coords

o Plane004
g Plane004
usemtl 01___Default
s 1
f 14/5/7 15/6/7 16/7/7 17/8/7 
f 15/6/8 14/5/8 17/8/8 16/7/8 
f 18/5/9 19/6/9 20/7/9 21/8/9 
f 19/6/10 18/5/10 21/8/10 20/7/10 
f 22/5/11 23/6/11 24/7/11 25/8/11 
f 23/6/12 22/5/12 25/8/12 24/7/12 
# 6 polygons

#
# object Plane005
#

v  640.5422 225.2736 1442.1523
v  640.5422 2.3542 1442.1523
v  673.7676 2.3542 1062.3835
v  673.7676 225.2736 1062.3835
v  822.2278 225.2736 1347.5729
v  822.2278 2.3542 1347.5729
v  492.0821 2.3542 1156.9631
v  492.0821 225.2735 1156.9631
v  844.8689 225.2735 1219.1689
v  844.8689 2.3542 1219.1689
v  469.4411 2.3542 1285.3671
v  469.4411 225.2736 1285.3671
# 12 vertices

vn 0.9962 -0.0000 0.0872
vn -0.9962 0.0000 -0.0872
vn 0.6706 -0.0000 -0.7418
vn -0.6706 0.0000 0.7418
vn -0.3173 -0.0000 -0.9483
vn 0.3173 0.0000 0.9483
# 6 vertex normals

vt 0.0000 1.0000 0.0000
vt 0.0000 0.5045 0.0000
vt 0.8474 0.5045 0.0000
vt 0.8474 1.0000 0.0000
# 4 texture coords

o Plane005
g Plane005
usemtl 01___Default
s 1
f 26/9/13 27/10/13 28/11/13 29/12/13 
f 27/10/14 26/9/14 29/12/14 28/11/14 
f 30/9/15 31/10/15 32/11/15 33/12/15 
f 31/10/16 30/9/16 33/12/16 32/11/16 
f 34/9/17 35/10/17 36/11/17 37/12/17 
f 35/10/18 34/9/18 37/12/18 36/11/18 
# 6 polygons

#
# object Plane006
#

v  965.8436 230.2286 474.8751
v  965.8436 -3.4745 474.8751
v  683.2405 -3.4745 757.4780
v  683.2406 230.2286 757.4780
v  683.2405 230.2286 757.4780
v  756.1961 230.2286 428.3972
v  756.1961 -3.4745 428.3972
v  892.8881 -3.4745 803.9557
v  892.8881 230.2286 803.9557
v  651.4838 230.2286 516.2612
v  651.4838 -3.4745 516.2612
v  997.6003 -3.4745 716.0917
v  997.6003 230.2286 716.0917
# 13 vertices

vn -0.7071 -0.0000 -0.7071
vn 0.7071 0.0000 0.7071
vn -0.9905 -0.0000 0.1372
vn 0.9905 0.0000 -0.1372
vn -0.3665 -0.0000 0.9304
vn 0.3665 0.0000 -0.9304
# 6 vertex normals

vt 0.0000 1.0000 0.0000
vt 0.0000 0.5045 0.0000
vt 0.8474 0.5045 0.0000
vt 0.8474 1.0000 0.0000
# 4 texture coords

o Plane006
g Plane006
usemtl 01___Default
s 1
f 38/13/19 39/14/19 40/15/19 41/16/19 
f 39/14/20 38/13/20 42/16/20 40/15/20 
f 43/13/21 44/14/21 45/15/21 46/16/21 
f 44/14/22 43/13/22 46/16/22 45/15/22 
f 47/13/23 48/14/23 49/15/23 50/16/23 
f 48/14/24 47/13/24 50/16/24 49/15/24 
# 6 polygons

#
# object Plane007
#

v  768.3037 233.4969 37.0826
v  768.3037 -6.9894 37.0826
v  477.4981 -6.9894 327.8880
v  477.4981 233.4969 327.8879
v  477.4980 233.4969 327.8880
v  552.5712 233.4969 -10.7443
v  552.5712 -6.9894 -10.7443
v  693.2306 -6.9894 375.7147
v  693.2306 233.4969 375.7147
v  693.2307 233.4969 375.7147
v  444.8196 233.4969 79.6699
v  444.8196 -6.9894 79.6698
v  800.9821 -6.9894 285.3004
v  800.9821 233.4969 285.3004
# 14 vertices

vn -0.7071 -0.0000 -0.7071
vn 0.7071 0.0000 0.7071
vn -0.9905 -0.0000 0.1372
vn 0.9905 0.0000 -0.1372
vn -0.3665 -0.0000 0.9304
vn 0.3665 0.0000 -0.9304
# 6 vertex normals

vt 0.0000 1.0000 0.0000
vt 0.0000 0.5045 0.0000
vt 0.8474 0.5045 0.0000
vt 0.8474 1.0000 0.0000
# 4 texture coords

o Plane007
g Plane007
usemtl 01___Default
s 1
f 51/17/25 52/18/25 53/19/25 54/20/25 
f 52/18/26 51/17/26 55/20/26 53/19/26 
f 56/17/27 57/18/27 58/19/27 59/20/27 
f 57/18/28 56/17/28 60/20/28 58/19/28 
f 61/17/29 62/18/29 63/19/29 64/20/29 
f 62/18/30 61/17/30 64/20/30 63/19/30 
# 6 polygons

#
# object Plane008
#

v  198.9617 230.2286 697.3671
v  198.9617 -3.4745 697.3671
v  95.5219 -3.4745 311.3242
v  95.5219 230.2286 311.3243
v  95.5219 230.2286 311.3242
v  344.0364 230.2286 539.0460
v  344.0364 -3.4745 539.0460
v  -49.5528 -3.4745 469.6455
v  -49.5527 230.2286 469.6455
v  -49.5528 230.2286 469.6455
v  320.3001 230.2286 404.4305
v  320.3002 -3.4745 404.4305
v  -25.8164 -3.4745 604.2609
v  -25.8163 230.2286 604.2609
# 14 vertices

vn 0.9659 -0.0000 -0.2588
vn -0.9659 0.0000 0.2588
vn 0.3764 -0.0000 -0.9264
vn -0.3764 0.0000 0.9264
vn -0.6225 -0.0000 -0.7826
vn 0.6225 0.0000 0.7826
# 6 vertex normals

vt 0.0000 1.0000 0.0000
vt 0.0000 0.5045 0.0000
vt 0.8474 0.5045 0.0000
vt 0.8474 1.0000 0.0000
# 4 texture coords

o Plane008
g Plane008
usemtl 01___Default
s 1
f 65/21/31 66/22/31 67/23/31 68/24/31 
f 66/22/32 65/21/32 69/24/32 67/23/32 
f 70/21/33 71/22/33 72/23/33 73/24/33 
f 71/22/34 70/21/34 74/24/34 72/23/34 
f 75/21/35 76/22/35 77/23/35 78/24/35 
f 76/22/36 75/21/36 78/24/36 77/23/36 
# 6 polygons

#
# object Plane009
#

v  -41.9518 225.2736 1422.9905
v  -41.9518 2.3542 1422.9905
v  -8.7263 2.3542 1043.2217
v  -8.7263 225.2736 1043.2217
v  139.7339 225.2736 1328.4110
v  139.7338 2.3542 1328.4110
v  -190.4119 2.3542 1137.8013
v  -190.4119 225.2735 1137.8013
v  162.3749 225.2735 1200.0071
v  162.3749 2.3542 1200.0071
v  -213.0529 2.3542 1266.2052
v  -213.0529 225.2736 1266.2052
# 12 vertices

vn 0.9962 -0.0000 0.0872
vn -0.9962 0.0000 -0.0872
vn 0.6706 -0.0000 -0.7418
vn -0.6706 0.0000 0.7418
vn -0.3173 -0.0000 -0.9483
vn 0.3173 0.0000 0.9483
# 6 vertex normals

vt 0.0000 1.0000 0.0000
vt 0.0000 0.5045 0.0000
vt 0.8474 0.5045 0.0000
vt 0.8474 1.0000 0.0000
# 4 texture coords

o Plane009
g Plane009
usemtl 01___Default
s 1
f 79/25/37 80/26/37 81/27/37 82/28/37 
f 80/26/38 79/25/38 82/28/38 81/27/38 
f 83/25/39 84/26/39 85/27/39 86/28/39 
f 84/26/40 83/25/40 86/28/40 85/27/40 
f 87/25/41 88/26/41 89/27/41 90/28/41 
f 88/26/42 87/25/42 90/28/42 89/27/42 
# 6 polygons

#
# object Plane010
#

v  -196.4216 323.9118 1081.1278
v  -196.4216 -2.4954 1081.1278
v  -340.8934 -2.4954 541.9514
v  -340.8934 323.9118 541.9514
v  6.2007 323.9118 860.0046
v  6.2007 -2.4954 860.0046
v  -543.5155 -2.4954 763.0748
v  -543.5155 323.9118 763.0747
v  -543.5155 323.9118 763.0748
v  -26.9512 323.9118 671.9905
v  -26.9512 -2.4954 671.9905
v  -510.3635 -2.4954 951.0887
v  -510.3635 323.9118 951.0887
# 13 vertices

vn 0.9659 -0.0000 -0.2588
vn -0.9659 0.0000 0.2588
vn 0.3764 -0.0000 -0.9264
vn -0.3764 0.0000 0.9264
vn -0.6225 -0.0000 -0.7826
vn 0.6225 0.0000 0.7826
# 6 vertex normals

vt 0.0000 1.0000 0.0000
vt 0.0000 0.5045 0.0000
vt 0.8474 0.5045 0.0000
vt 0.8474 1.0000 0.0000
# 4 texture coords

o Plane010
g Plane010
usemtl 01___Default
s 1
f 91/29/43 92/30/43 93/31/43 94/32/43 
f 92/30/44 91/29/44 94/32/44 93/31/44 
f 95/29/45 96/30/45 97/31/45 98/32/45 
f 96/30/46 95/29/46 99/32/46 97/31/46 
f 100/29/47 101/30/47 102/31/47 103/32/47 
f 101/30/48 100/29/48 103/32/48 102/31/48 
# 6 polygons

#
# object Plane011
#

v  -687.9993 225.2736 1316.3198
v  -687.9993 2.3542 1316.3198
v  -654.7739 2.3542 936.5510
v  -654.7739 225.2736 936.5510
v  -506.3137 225.2736 1221.7404
v  -506.3137 2.3542 1221.7404
v  -836.4594 2.3542 1031.1306
v  -836.4594 225.2735 1031.1306
v  -483.6726 225.2735 1093.3364
v  -483.6726 2.3542 1093.3364
v  -859.1005 2.3542 1159.5345
v  -859.1004 225.2736 1159.5345
# 12 vertices

vn 0.9962 -0.0000 0.0872
vn -0.9962 0.0000 -0.0872
vn 0.6706 -0.0000 -0.7418
vn -0.6706 0.0000 0.7418
vn -0.3173 -0.0000 -0.9483
vn 0.3173 0.0000 0.9483
# 6 vertex normals

vt 0.0000 1.0000 0.0000
vt 0.0000 0.5045 0.0000
vt 0.8474 0.5045 0.0000
vt 0.8474 1.0000 0.0000
# 4 texture coords

o Plane011
g Plane011
usemtl 01___Default
s 1
f 104/33/49 105/34/49 106/35/49 107/36/49 
f 105/34/50 104/33/50 107/36/50 106/35/50 
f 108/33/51 109/34/51 110/35/51 111/36/51 
f 109/34/52 108/33/52 111/36/52 110/35/52 
f 112/33/53 113/34/53 114/35/53 115/36/53 
f 113/34/54 112/33/54 115/36/54 114/35/54 
# 6 polygons

#
# object Plane012
#

v  -470.2573 225.2736 674.0806
v  -470.2573 2.3542 674.0806
v  -568.9241 2.3542 305.8509
v  -568.9241 225.2736 305.8510
v  -568.9241 225.2736 305.8509
v  -331.8767 225.2736 523.0649
v  -331.8767 2.3542 523.0649
v  -707.3046 2.3542 456.8668
v  -707.3046 225.2735 456.8668
v  -354.5178 225.2735 394.6609
v  -354.5178 2.3542 394.6609
v  -684.6635 2.3542 585.2706
v  -684.6635 225.2736 585.2706
# 13 vertices

vn 0.9659 -0.0000 -0.2588
vn -0.9659 0.0000 0.2588
vn 0.3764 -0.0000 -0.9264
vn -0.3764 0.0000 0.9264
vn -0.6225 -0.0000 -0.7826
vn 0.6225 0.0000 0.7826
# 6 vertex normals

vt 0.0000 1.0000 0.0000
vt 0.0000 0.5045 0.0000
vt 0.8474 0.5045 0.0000
vt 0.8474 1.0000 0.0000
# 4 texture coords

o Plane012
g Plane012
usemtl 01___Default
s 1
f 116/37/55 117/38/55 118/39/55 119/40/55 
f 117/38/56 116/37/56 120/40/56 118/39/56 
f 121/37/57 122/38/57 123/39/57 124/40/57 
f 122/38/58 121/37/58 124/40/58 123/39/58 
f 125/37/59 126/38/59 127/39/59 128/40/59 
f 126/38/60 125/37/60 128/40/60 127/39/60 
# 6 polygons

#
# object Plane013
#

v  -699.1027 228.3980 263.5226
v  -699.1027 -0.9916 263.5226
v  -800.6333 -0.9916 -115.3949
v  -800.6333 228.3980 -115.3949
v  -556.7056 228.3980 108.1236
v  -556.7056 -0.9916 108.1236
v  -943.0303 -0.9916 40.0042
v  -943.0303 228.3980 40.0042
v  -580.0038 228.3980 -24.0072
v  -580.0038 -0.9916 -24.0072
v  -919.7320 -0.9916 172.1350
v  -919.7319 228.3980 172.1349
# 12 vertices

vn 0.9659 -0.0000 -0.2588
vn -0.9659 0.0000 0.2588
vn 0.3764 -0.0000 -0.9264
vn -0.3764 0.0000 0.9264
vn -0.6225 -0.0000 -0.7826
vn 0.6225 0.0000 0.7826
# 6 vertex normals

vt 0.0000 1.0000 0.0000
vt 0.0000 0.5045 0.0000
vt 0.8474 0.5045 0.0000
vt 0.8474 1.0000 0.0000
# 4 texture coords

o Plane013
g Plane013
usemtl 01___Default
s 1
f 129/41/61 130/42/61 131/43/61 132/44/61 
f 130/42/62 129/41/62 132/44/62 131/43/62 
f 133/41/63 134/42/63 135/43/63 136/44/63 
f 134/42/64 133/41/64 136/44/64 135/43/64 
f 137/41/65 138/42/65 139/43/65 140/44/65 
f 138/42/66 137/41/66 140/44/66 139/43/66 
# 6 polygons

#
# object Plane014
#

v  -1109.3192 233.9048 631.1586
v  -1109.3192 -6.2685 631.1586
v  -1215.6228 -6.2685 234.4279
v  -1215.6228 233.9048 234.4279
v  -960.2279 233.9048 468.4542
v  -960.2279 -6.2685 468.4542
v  -1364.7139 -6.2685 397.1324
v  -1364.7139 233.9048 397.1324
v  -984.6214 233.9048 330.1118
v  -984.6214 -6.2685 330.1118
v  -1340.3203 -6.2685 535.4747
v  -1340.3203 233.9048 535.4747
# 12 vertices

vn 0.9659 -0.0000 -0.2588
vn -0.9659 0.0000 0.2588
vn 0.3764 -0.0000 -0.9264
vn -0.3764 0.0000 0.9264
vn -0.6225 -0.0000 -0.7826
vn 0.6225 0.0000 0.7826
# 6 vertex normals

vt 0.0000 1.0000 0.0000
vt 0.0000 0.5045 0.0000
vt 0.8474 0.5045 0.0000
vt 0.8474 1.0000 0.0000
# 4 texture coords

o Plane014
g Plane014
usemtl 01___Default
s 1
f 141/45/67 142/46/67 143/47/67 144/48/67 
f 142/46/68 141/45/68 144/48/68 143/47/68 
f 145/45/69 146/46/69 147/47/69 148/48/69 
f 146/46/70 145/45/70 148/48/70 147/47/70 
f 149/45/71 150/46/71 151/47/71 152/48/71 
f 150/46/72 149/45/72 152/48/72 151/47/72 
# 6 polygons

#
# object Plane015
#

v  1486.1826 228.3980 74.1738
v  1486.1826 -0.9916 74.1738
v  1099.8579 -0.9916 142.2932
v  1099.8579 228.3980 142.2932
v  1343.7856 228.3980 -81.2253
v  1343.7856 -0.9916 -81.2253
v  1242.2550 -0.9916 297.6922
v  1242.2550 228.3980 297.6922
v  1242.2550 228.3980 297.6923
v  1210.1271 228.3980 -69.5317
v  1210.1271 -0.9916 -69.5318
v  1375.9136 -0.9916 285.9986
v  1375.9136 228.3980 285.9985
v  1375.9136 228.3980 285.9986
# 14 vertices

vn -0.1736 -0.0000 -0.9848
vn 0.1736 0.0000 0.9848
vn -0.8901 -0.0000 -0.4558
vn 0.8901 0.0000 0.4558
vn -0.8339 -0.0000 0.5519
vn 0.8339 0.0000 -0.5519
# 6 vertex normals

vt 0.0000 1.0000 0.0000
vt 0.0000 0.5045 0.0000
vt 0.8474 0.5045 0.0000
vt 0.8474 1.0000 0.0000
# 4 texture coords

o Plane015
g Plane015
usemtl 01___Default
s 1
f 153/49/73 154/50/73 155/51/73 156/52/73 
f 154/50/74 153/49/74 156/52/74 155/51/74 
f 157/49/75 158/50/75 159/51/75 160/52/75 
f 158/50/76 157/49/76 161/52/76 159/51/76 
f 162/49/77 163/50/77 164/51/77 165/52/77 
f 163/50/78 162/49/78 166/52/78 164/51/78 
# 6 polygons

#
# object Plane016
#

v  1217.1967 228.3980 -473.9279
v  1217.1967 -0.9916 -473.9279
v  939.8097 -0.9916 -196.5411
v  939.8097 228.3980 -196.5411
v  1011.4187 228.3980 -519.5480
v  1011.4187 -0.9916 -519.5480
v  1145.5878 -0.9916 -150.9212
v  1145.5876 228.3980 -150.9212
v  1145.5878 228.3980 -150.9212
v  908.6391 228.3980 -433.3057
v  908.6391 -0.9916 -433.3057
v  1248.3672 -0.9916 -237.1635
v  1248.3672 228.3980 -237.1635
# 13 vertices

vn -0.7071 -0.0000 -0.7071
vn 0.7071 0.0000 0.7071
vn -0.9905 -0.0000 0.1372
vn 0.9905 0.0000 -0.1372
vn -0.3665 -0.0000 0.9304
vn 0.3665 0.0000 -0.9304
# 6 vertex normals

vt 0.0000 1.0000 0.0000
vt 0.0000 0.5045 0.0000
vt 0.8474 0.5045 0.0000
vt 0.8474 1.0000 0.0000
# 4 texture coords

o Plane016
g Plane016
usemtl 01___Default
s 1
f 167/53/79 168/54/79 169/55/79 170/56/79 
f 168/54/80 167/53/80 170/56/80 169/55/80 
f 171/53/81 172/54/81 173/55/81 174/56/81 
f 172/54/82 171/53/82 175/56/82 173/55/82 
f 176/53/83 177/54/83 178/55/83 179/56/83 
f 177/54/84 176/53/84 179/56/84 178/55/84 
# 6 polygons

#
# object Plane017
#

v  773.3032 295.6815 -401.3109
v  773.3032 -0.2885 -401.3109
v  415.4047 -0.2885 -43.4125
v  415.4047 295.6815 -43.4125
v  415.4046 295.6815 -43.4125
v  507.7981 295.6815 -460.1721
v  507.7981 -0.2885 -460.1721
v  680.9098 -0.2885 15.4485
v  680.9097 295.6814 15.4485
v  680.9098 295.6814 15.4486
v  375.1868 295.6815 -348.8981
v  375.1868 -0.2885 -348.8981
v  813.5210 -0.2885 -95.8256
v  813.5210 295.6814 -95.8256
# 14 vertices

vn -0.7071 -0.0000 -0.7071
vn 0.7071 0.0000 0.7071
vn -0.9905 -0.0000 0.1372
vn 0.9905 0.0000 -0.1372
vn -0.3665 -0.0000 0.9304
vn 0.3665 0.0000 -0.9304
# 6 vertex normals

vt 0.0000 1.0000 0.0000
vt 0.0000 0.5045 0.0000
vt 0.8474 0.5045 0.0000
vt 0.8474 1.0000 0.0000
# 4 texture coords

o Plane017
g Plane017
usemtl 01___Default
s 1
f 180/57/85 181/58/85 182/59/85 183/60/85 
f 181/58/86 180/57/86 184/60/86 182/59/86 
f 185/57/87 186/58/87 187/59/87 188/60/87 
f 186/58/88 185/57/88 189/60/88 187/59/88 
f 190/57/89 191/58/89 192/59/89 193/60/89 
f 191/58/90 190/57/90 193/60/90 192/59/90 
# 6 polygons

#
# object Plane018
#

v  923.1166 228.3980 -795.1699
v  923.1166 -0.9916 -795.1699
v  645.7296 -0.9916 -517.7831
v  645.7296 228.3980 -517.7831
v  717.3386 228.3980 -840.7899
v  717.3386 -0.9916 -840.7899
v  851.5076 -0.9916 -472.1632
v  851.5076 228.3980 -472.1633
v  851.5076 228.3980 -472.1632
v  614.5590 228.3980 -754.5477
v  614.5590 -0.9916 -754.5477
v  954.2871 -0.9916 -558.4055
v  954.2870 228.3980 -558.4055
v  954.2871 228.3980 -558.4055
# 14 vertices

vn -0.7071 -0.0000 -0.7071
vn 0.7071 0.0000 0.7071
vn -0.9905 -0.0000 0.1372
vn 0.9905 0.0000 -0.1372
vn -0.3665 -0.0000 0.9304
vn 0.3665 0.0000 -0.9304
# 6 vertex normals

vt 0.0000 1.0000 0.0000
vt 0.0000 0.5045 0.0000
vt 0.8474 0.5045 0.0000
vt 0.8474 1.0000 0.0000
# 4 texture coords

o Plane018
g Plane018
usemtl 01___Default
s 1
f 194/61/91 195/62/91 196/63/91 197/64/91 
f 195/62/92 194/61/92 197/64/92 196/63/92 
f 198/61/93 199/62/93 200/63/93 201/64/93 
f 199/62/94 198/61/94 202/64/94 200/63/94 
f 203/61/95 204/62/95 205/63/95 206/64/95 
f 204/62/96 203/61/96 207/64/96 205/63/96 
# 6 polygons

#
# object Plane019
#

v  552.8108 228.3980 -904.5488
v  552.8107 -0.9916 -904.5488
v  587.0006 -0.9916 -1295.3403
v  587.0006 228.3980 -1295.3403
v  739.7698 228.3980 -1001.8735
v  739.7698 -0.9916 -1001.8735
v  400.0416 -0.9916 -1198.0156
v  400.0417 228.3980 -1198.0156
v  400.0416 228.3980 -1198.0156
v  763.0681 228.3980 -1134.0043
v  763.0681 -0.9916 -1134.0043
v  376.7435 -0.9916 -1065.8848
v  376.7435 228.3980 -1065.8848
# 13 vertices

vn 0.9962 -0.0000 0.0872
vn -0.9962 0.0000 -0.0872
vn 0.6706 -0.0000 -0.7418
vn -0.6706 0.0000 0.7418
vn -0.3173 -0.0000 -0.9483
vn 0.3173 0.0000 0.9483
# 6 vertex normals

vt 0.0000 1.0000 0.0000
vt 0.0000 0.5045 0.0000
vt 0.8474 0.5045 0.0000
vt 0.8474 1.0000 0.0000
# 4 texture coords

o Plane019
g Plane019
usemtl 01___Default
s 1
f 208/65/97 209/66/97 210/67/97 211/68/97 
f 209/66/98 208/65/98 211/68/98 210/67/98 
f 212/65/99 213/66/99 214/67/99 215/68/99 
f 213/66/100 212/65/100 216/68/100 214/67/100 
f 217/65/101 218/66/101 219/67/101 220/68/101 
f 218/66/102 217/65/102 220/68/102 219/67/102 
# 6 polygons

#
# object Plane020
#

v  170.3891 228.3980 -576.7845
v  170.3891 -0.9916 -576.7845
v  68.8585 -0.9916 -955.7021
v  68.8585 228.3980 -955.7021
v  312.7862 228.3980 -732.1836
v  312.7861 -0.9916 -732.1836
v  -73.5385 -0.9916 -800.3030
v  -73.5385 228.3980 -800.3030
v  289.4879 228.3980 -864.3144
v  289.4880 -0.9916 -864.3144
v  -50.2402 -0.9916 -668.1722
v  -50.2402 228.3980 -668.1722
# 12 vertices

vn 0.9659 -0.0000 -0.2588
vn -0.9659 0.0000 0.2588
vn 0.3764 -0.0000 -0.9264
vn -0.3764 0.0000 0.9264
vn -0.6225 -0.0000 -0.7826
vn 0.6225 0.0000 0.7826
# 6 vertex normals

vt 0.0000 1.0000 0.0000
vt 0.0000 0.5045 0.0000
vt 0.8474 0.5045 0.0000
vt 0.8474 1.0000 0.0000
# 4 texture coords

o Plane020
g Plane020
usemtl 01___Default
s 1
f 221/69/103 222/70/103 223/71/103 224/72/103 
f 222/70/104 221/69/104 224/72/104 223/71/104 
f 225/69/105 226/70/105 227/71/105 228/72/105 
f 226/70/106 225/69/106 228/72/106 227/71/106 
f 229/69/107 230/70/107 231/71/107 232/72/107 
f 230/70/108 229/69/108 232/72/108 231/71/108 
# 6 polygons

#
# object Plane021
#

v  -27.7951 207.9486 151.4943
v  -27.7951 -1.2053 151.4943
v  -120.3692 -1.2053 -193.9970
v  -120.3692 207.9486 -193.9970
v  102.0404 207.9486 9.8039
v  102.0404 -1.2053 9.8039
v  -250.2046 -1.2053 -52.3065
v  -250.2046 207.9486 -52.3065
v  80.7974 207.9486 -110.6710
v  80.7974 -1.2053 -110.6710
v  -228.9615 -1.2053 68.1684
v  -228.9615 207.9486 68.1684
# 12 vertices

vn 0.9659 -0.0000 -0.2588
vn -0.9659 0.0000 0.2588
vn 0.3764 -0.0000 -0.9264
vn -0.3764 0.0000 0.9264
vn -0.6225 -0.0000 -0.7826
vn 0.6225 0.0000 0.7826
# 6 vertex normals

vt 0.0000 1.0000 0.0000
vt 0.0000 0.5045 0.0000
vt 0.8474 0.5045 0.0000
vt 0.8474 1.0000 0.0000
# 4 texture coords

o Plane021
g Plane021
usemtl 01___Default
s 1
f 233/73/109 234/74/109 235/75/109 236/76/109 
f 234/74/110 233/73/110 236/76/110 235/75/110 
f 237/73/111 238/74/111 239/75/111 240/76/111 
f 238/74/112 237/73/112 240/76/112 239/75/112 
f 241/73/113 242/74/113 243/75/113 244/76/113 
f 242/74/114 241/73/114 244/76/114 243/75/114 
# 6 polygons

#
# object Plane022
#

v  -224.0816 291.1959 -223.9362
v  -224.0816 -0.3353 -223.9362
v  -353.1169 -0.3353 -705.5026
v  -353.1169 291.1959 -705.5026
v  -43.1092 291.1959 -421.4328
v  -43.1092 -0.3353 -421.4328
v  -534.0892 -0.3353 -508.0058
v  -534.0891 291.1959 -508.0058
v  -534.0892 291.1959 -508.0058
v  -72.7188 291.1959 -589.3578
v  -72.7188 -0.3353 -589.3578
v  -504.4794 -0.3353 -340.0808
v  -504.4793 291.1959 -340.0808
v  -504.4794 291.1959 -340.0808
# 14 vertices

vn 0.9659 -0.0000 -0.2588
vn -0.9659 0.0000 0.2588
vn 0.3764 -0.0000 -0.9264
vn -0.3764 0.0000 0.9264
vn -0.6225 -0.0000 -0.7826
vn 0.6225 0.0000 0.7826
# 6 vertex normals

vt 0.0000 1.0000 0.0000
vt 0.0000 0.5045 0.0000
vt 0.8474 0.5045 0.0000
vt 0.8474 1.0000 0.0000
# 4 texture coords

o Plane022
g Plane022
usemtl 01___Default
s 1
f 245/77/115 246/78/115 247/79/115 248/80/115 
f 246/78/116 245/77/116 248/80/116 247/79/116 
f 249/77/117 250/78/117 251/79/117 252/80/117 
f 250/78/118 249/77/118 253/80/118 251/79/118 
f 254/77/119 255/78/119 256/79/119 257/80/119 
f 255/78/120 254/77/120 258/80/120 256/79/120 
# 6 polygons

#
# object Plane023
#

v  -944.4716 228.3980 -134.8055
v  -944.4716 -0.9916 -134.8055
v  -1046.0022 -0.9916 -513.7230
v  -1046.0022 228.3980 -513.7230
v  -802.0745 228.3980 -290.2045
v  -802.0745 -0.9916 -290.2045
v  -1188.3992 -0.9916 -358.3239
v  -1188.3992 228.3980 -358.3239
v  -825.3727 228.3980 -422.3353
v  -825.3727 -0.9916 -422.3353
v  -1165.1008 -0.9916 -226.1931
v  -1165.1008 228.3980 -226.1932
# 12 vertices

vn 0.9659 -0.0000 -0.2588
vn -0.9659 0.0000 0.2588
vn 0.3764 -0.0000 -0.9264
vn -0.3764 0.0000 0.9264
vn -0.6225 -0.0000 -0.7826
vn 0.6225 0.0000 0.7826
# 6 vertex normals

vt 0.0000 1.0000 0.0000
vt 0.0000 0.5045 0.0000
vt 0.8474 0.5045 0.0000
vt 0.8474 1.0000 0.0000
# 4 texture coords

o Plane023
g Plane023
usemtl 01___Default
s 1
f 259/81/121 260/82/121 261/83/121 262/84/121 
f 260/82/122 259/81/122 262/84/122 261/83/122 
f 263/81/123 264/82/123 265/83/123 266/84/123 
f 264/82/124 263/81/124 266/84/124 265/83/124 
f 267/81/125 268/82/125 269/83/125 270/84/125 
f 268/82/126 267/81/126 270/84/126 269/83/126 
# 6 polygons

#
# object Plane024
#

v  -531.9142 228.3980 -596.5026
v  -531.9142 -0.9916 -596.5026
v  -633.4448 -0.9916 -975.4202
v  -633.4448 228.3980 -975.4202
v  -389.5172 228.3980 -751.9016
v  -389.5172 -0.9916 -751.9016
v  -775.8418 -0.9916 -820.0211
v  -775.8418 228.3980 -820.0211
v  -412.8153 228.3980 -884.0324
v  -412.8153 -0.9916 -884.0324
v  -752.5435 -0.9916 -687.8903
v  -752.5435 228.3980 -687.8903
# 12 vertices

vn 0.9659 -0.0000 -0.2588
vn -0.9659 0.0000 0.2588
vn 0.3764 -0.0000 -0.9264
vn -0.3764 0.0000 0.9264
vn -0.6225 -0.0000 -0.7826
vn 0.6225 0.0000 0.7826
# 6 vertex normals

vt 0.0000 1.0000 0.0000
vt 0.0000 0.5045 0.0000
vt 0.8474 0.5045 0.0000
vt 0.8474 1.0000 0.0000
# 4 texture coords

o Plane024
g Plane024
usemtl 01___Default
s 1
f 271/85/127 272/86/127 273/87/127 274/88/127 
f 272/86/128 271/85/128 274/88/128 273/87/128 
f 275/85/129 276/86/129 277/87/129 278/88/129 
f 276/86/130 275/85/130 278/88/130 277/87/130 
f 279/85/131 280/86/131 281/87/131 282/88/131 
f 280/86/132 279/85/132 282/88/132 281/87/132 
# 6 polygons

#
# object Plane025
#

v  -814.2916 228.3980 -1034.0337
v  -814.2916 -0.9916 -1034.0337
v  -780.1017 -0.9916 -1424.8252
v  -780.1017 228.3980 -1424.8252
v  -627.3325 228.3980 -1131.3583
v  -627.3325 -0.9916 -1131.3583
v  -967.0607 -0.9916 -1327.5005
v  -967.0607 228.3980 -1327.5005
v  -604.0343 228.3980 -1263.4891
v  -604.0343 -0.9916 -1263.4891
v  -990.3589 -0.9916 -1195.3696
v  -990.3588 228.3980 -1195.3696
v  -990.3589 228.3980 -1195.3696
# 13 vertices

vn 0.9962 -0.0000 0.0872
vn -0.9962 0.0000 -0.0872
vn 0.6706 -0.0000 -0.7418
vn -0.6706 0.0000 0.7418
vn -0.3173 -0.0000 -0.9483
vn 0.3173 0.0000 0.9483
# 6 vertex normals

vt 0.0000 1.0000 0.0000
vt 0.0000 0.5045 0.0000
vt 0.8474 0.5045 0.0000
vt 0.8474 1.0000 0.0000
# 4 texture coords

o Plane025
g Plane025
usemtl 01___Default
s 1
f 283/89/133 284/90/133 285/91/133 286/92/133 
f 284/90/134 283/89/134 286/92/134 285/91/134 
f 287/89/135 288/90/135 289/91/135 290/92/135 
f 288/90/136 287/89/136 290/92/136 289/91/136 
f 291/89/137 292/90/137 293/91/137 294/92/137 
f 292/90/138 291/89/138 295/92/138 293/91/138 
# 6 polygons

#
# object Plane026
#

v  -1287.3418 237.2711 -737.1132
v  -1287.3418 -9.8732 -737.1132
v  -1213.9500 -9.8732 -1153.3394
v  -1213.9500 237.2711 -1153.3394
v  -1077.5397 237.2711 -824.0160
v  -1077.5397 -9.8732 -824.0160
v  -1423.7520 -9.8732 -1066.4364
v  -1423.7520 237.2711 -1066.4364
v  -1040.1265 237.2711 -963.6443
v  -1040.1263 -9.8732 -963.6443
v  -1461.1652 -9.8733 -926.8082
v  -1461.1652 237.2711 -926.8082
# 12 vertices

vn 0.9848 -0.0000 0.1736
vn -0.9848 0.0000 -0.1736
vn 0.7327 -0.0000 -0.6805
vn -0.7327 0.0000 0.6805
vn -0.2334 -0.0000 -0.9724
vn 0.2334 0.0000 0.9724
# 6 vertex normals

vt 0.0000 1.0000 0.0000
vt 0.0000 0.5045 0.0000
vt 0.8474 0.5045 0.0000
vt 0.8474 1.0000 0.0000
# 4 texture coords

o Plane026
g Plane026
usemtl 01___Default
s 1
f 296/93/139 297/94/139 298/95/139 299/96/139 
f 297/94/140 296/93/140 299/96/140 298/95/140 
f 300/93/141 301/94/141 302/95/141 303/96/141 
f 301/94/142 300/93/142 303/96/142 302/95/142 
f 304/93/143 305/94/143 306/95/143 307/96/143 
f 305/94/144 304/93/144 307/96/144 306/95/144 
# 6 polygons

