# Blender v2.80 (sub 45) OBJ File: 'tdr_t_test_corner.blend'
# www.blender.org
mtllib tdr_t_test_Corner.mtl
o Cube.001_Cube.002
v 499.200012 -524.799988 0.000000
v 499.199951 -524.799988 499.200012
v 499.200012 -1267.199951 0.000000
v 512.000000 -1279.999878 435.199982
v 512.000000 -512.000000 435.199982
v 512.000000 -1279.999878 512.000000
v 512.000000 -512.000000 512.000000
v 499.200012 -1267.199951 499.196198
v 512.000000 -1279.999878 76.800003
v 192.000000 -1279.999878 76.800003
v 191.999985 -1535.999878 76.799995
v 192.000000 -1267.199951 0.000000
v 499.199951 -1267.199951 63.999985
v 192.000000 -1267.199951 63.999985
v 179.200012 -1279.999878 63.999985
v 179.199997 -1279.999878 0.000000
v 179.199982 -1535.999878 0.000000
v 179.199982 -1535.999878 64.000000
v 256.000000 -1279.999878 435.200012
v 256.000000 -1535.999878 435.199982
v 256.000000 -1279.999878 512.000000
v 256.000000 -1535.999878 512.000000
v 499.199951 -1267.199951 448.000000
v 256.000000 -1267.199951 448.000000
v 256.000000 -1267.199951 499.200012
v 243.200012 -1279.999878 448.000000
v 243.199997 -1535.999878 447.999939
v 243.200012 -1279.999878 499.200012
v 243.199997 -1535.999878 499.199951
v 639.999939 -512.000000 512.000000
v 639.999939 -383.999969 512.000000
v 639.999939 -1536.000000 512.000000
v 656.255981 -1536.000000 576.000000
v 639.999939 -1536.000000 576.000000
v 656.255981 -383.999969 576.000000
v 879.743958 -1536.000000 1471.999878
v 879.743958 -1536.000000 1536.000000
v 879.743958 -127.999969 1471.999878
v 879.743958 -127.999969 1536.000000
v 639.999939 -1279.999878 512.000000
v 639.999939 -1279.999878 543.999939
v 255.999969 -1279.999878 543.999939
v 639.999939 -1536.000000 543.999939
v 255.999969 -1536.000000 543.999939
v 896.000000 -1536.000000 1535.999878
v 896.000000 -127.999969 1535.999878
v -256.000000 -832.000000 76.800003
v -512.000000 -832.000000 76.799995
v -243.200012 -832.000000 0.000000
v -243.200043 -524.799988 0.000000
v -243.200012 -832.000000 63.999985
v -256.000000 -844.799988 63.999985
v -256.000000 -844.799988 0.000000
v -512.000000 -844.799988 0.000000
v -512.000000 -844.799988 64.000000
v -256.000031 -768.000000 435.199982
v -512.000000 -768.000000 435.199982
v -256.000031 -768.000000 512.000000
v -243.200043 -524.799988 448.000000
v -243.200043 -768.000000 448.000000
v -243.200043 -524.799988 499.200012
v -243.200043 -768.000000 499.200012
v -256.000031 -780.799988 448.000000
v -512.000000 -780.799988 447.999939
v -256.000031 -780.799988 499.200012
v -512.000000 -780.799988 499.199951
v -256.000061 -512.000000 76.800003
v -243.200058 -524.799988 64.000000
v -256.000031 -512.000000 435.199982
v -256.000031 -512.000000 512.000000
v 511.999939 -511.999939 76.800003
v 499.200012 -524.799988 63.999985
v 499.200012 -524.799988 448.000000
v -256.000031 -384.000000 512.000000
v 512.000061 -383.999969 512.000000
v -256.000031 -384.000000 543.999939
v -256.000031 -768.000000 543.999939
v -512.000061 -384.000031 543.999939
v -512.000000 -768.000000 512.000000
v -512.000000 -768.000000 543.999939
v 640.000000 -367.743958 576.000000
v 640.000000 -383.999939 576.000000
v -512.000061 -367.744049 576.000000
v -512.000061 -384.000031 512.000000
v -512.000061 -384.000031 576.000000
v 896.000000 -144.255951 1471.999878
v 896.000000 -144.255951 1536.000000
v -512.000061 -144.256042 1471.999878
v -512.000061 -144.256042 1536.000000
v -512.000061 -128.000000 1535.999878
vt 0.873459 0.073656
vt 0.499300 0.073656
vt 0.502418 0.061380
vt 0.870342 0.061380
vt 0.870342 0.000000
vt 0.502418 0.000000
vt 0.873459 0.417387
vt 0.499300 0.417387
vt 0.502418 0.429663
vt 0.870342 0.429663
vt 0.870342 0.478764
vt 0.502418 0.478767
vt 0.873459 0.491043
vt 0.499300 0.491043
vt 0.500000 0.575000
vt 0.520000 0.562500
vt 1.000000 0.562500
vt 1.000000 0.575000
vt 0.520000 0.500000
vt 1.000000 0.500000
vt 0.873039 0.073656
vt 0.866804 0.061380
vt 0.873039 0.061380
vt 0.873039 0.000000
vt 0.997759 0.000000
vt 0.997759 0.061380
vt 0.997759 0.073656
vt 0.900000 0.925000
vt 0.500000 0.925000
vt 0.997759 0.417387
vt 0.873039 0.417387
vt 0.900000 0.937500
vt 0.520000 0.937500
vt 0.873039 0.491043
vt 0.873039 0.478767
vt 0.997759 0.478767
vt 0.997759 0.491043
vt 0.900000 0.987500
vt 0.520000 0.987496
vt 0.873039 0.429663
vt 0.866804 0.478767
vt 0.866804 0.429663
vt 0.997759 0.429663
vt 0.866804 0.000000
vt 0.900000 1.000000
vt 0.500000 1.000000
vt 0.221056 0.181751
vt 0.221056 0.320448
vt 0.128592 0.320448
vt 0.128592 0.181751
vt 0.678756 0.227983
vt 0.318144 0.227983
vt 0.318144 0.181751
vt 0.678756 0.181751
vt 0.500000 0.575000
vt 0.000000 0.575000
vt 0.000000 0.562500
vt 0.480000 0.562500
vt 0.480000 0.500000
vt 0.000000 0.500000
vt 0.124720 0.073656
vt 0.124720 0.061380
vt 0.130956 0.061380
vt 0.124720 0.000000
vt 0.000000 0.061380
vt 0.000000 0.000000
vt 0.000000 0.073656
vt 0.500000 0.925000
vt 0.100000 0.925000
vt 0.124720 0.417387
vt 0.000000 0.417387
vt 0.480000 0.937500
vt 0.100000 0.937500
vt 0.124720 0.491043
vt 0.000000 0.491043
vt 0.000000 0.478767
vt 0.124720 0.478767
vt 0.480000 0.987500
vt 0.100000 0.987500
vt 0.500000 1.000000
vt 0.100000 1.000000
vt 0.124720 0.429663
vt 0.130956 0.429663
vt 0.130956 0.478767
vt 0.000000 0.429663
vt 0.130956 0.000000
vt 0.498459 0.073656
vt 0.124300 0.073656
vt 0.127418 0.061380
vt 0.495342 0.061380
vt 0.495342 0.000000
vt 0.127418 0.000000
vt 0.498459 0.417387
vt 0.124300 0.417387
vt 0.127418 0.429663
vt 0.495342 0.429663
vt 0.495342 0.478764
vt 0.127418 0.478767
vt 0.498459 0.491043
vt 0.124300 0.491043
vt 0.868308 0.320448
vt 0.775844 0.320448
vt 0.775844 0.181751
vt 0.868308 0.181751
vt 0.678756 0.227983
vt 0.318144 0.227983
vt 0.318144 0.181751
vt 0.678756 0.181751
vt 0.465000 0.285000
vt 0.535000 0.215000
vt 0.535000 0.285000
vt 0.465000 0.215000
vt 1.000000 0.000000
vt 1.000000 1.000000
vt 0.500000 1.000000
vt 0.500000 0.000000
vt 0.000000 1.000000
vt 0.000000 0.000000
vt 0.856142 0.284713
vt 0.856142 0.143858
vt 0.286715 0.143858
vt 0.286715 0.284713
vt 0.998999 0.570428
vt 0.998999 0.001001
vt 0.858144 0.001001
vt 0.858144 0.570428
vt 0.856142 0.427570
vt 0.856142 0.286715
vt 0.286715 0.286715
vt 0.286715 0.427570
vt 0.856142 0.998999
vt 0.856142 0.429572
vt 0.715287 0.429572
vt 0.715287 0.998999
vt 0.286715 0.141856
vt 0.856142 0.141856
vt 0.856142 0.001001
vt 0.286715 0.001001
vt 0.998999 0.856142
vt 0.998999 0.572430
vt 0.858144 0.572430
vt 0.858144 0.856142
vt 0.001001 0.856142
vt 0.570428 0.856142
vt 0.570428 0.572430
vt 0.001001 0.572430
vt 0.713285 0.429572
vt 0.572430 0.429572
vt 0.572430 0.998999
vt 0.713285 0.998999
vt 0.570428 0.570428
vt 0.570428 0.429572
vt 0.286715 0.429572
vt 0.286715 0.570428
vt 0.284713 0.001001
vt 0.001001 0.001001
vt 0.001001 0.570428
vt 0.284713 0.570428
vt 0.856142 0.284713
vt 0.856142 0.143858
vt 0.286715 0.143858
vt 0.286715 0.284713
vt 0.998999 0.570428
vt 0.998999 0.001001
vt 0.858144 0.001001
vt 0.858144 0.570428
vt 0.856142 0.427570
vt 0.856142 0.286715
vt 0.286715 0.286715
vt 0.286715 0.427570
vt 0.856142 0.998999
vt 0.856142 0.429572
vt 0.715287 0.429572
vt 0.715287 0.998999
vn -0.7071 0.0000 0.7071
vn -1.0000 0.0000 -0.0000
vn -0.7072 -0.0000 0.7071
vn -0.7071 0.0000 -0.7071
vn 0.0000 0.7071 0.7071
vn 0.0000 1.0000 -0.0000
vn -0.5773 0.5774 0.5774
vn -0.9844 0.0000 0.1758
vn -0.0000 0.7071 -0.7071
vn -0.7071 0.7071 0.0000
vn -0.5773 0.5774 -0.5774
vn 0.0000 0.7072 0.7071
vn 0.0000 0.0000 1.0000
vn 0.7071 0.0000 0.7071
vn 1.0000 0.0000 0.0000
vn 0.5774 -0.5773 0.5773
vn 0.0000 -1.0000 0.0000
vn 0.0000 -0.7071 0.7071
vn -0.0000 -0.9844 0.1758
vn 0.7071 0.0000 -0.7071
vn 0.7071 -0.7071 0.0000
vn 0.0000 -0.7071 -0.7071
vn 0.5774 -0.5774 -0.5773
vn 0.5774 -0.5774 0.5774
vn -0.9701 0.0000 0.2425
vn 0.0000 -0.9701 0.2425
usemtl Material.003
s off
f 9/1/1 71/2/1 72/3/1 13/4/1
f 3/5/2 13/4/2 72/3/2 1/6/2
f 71/2/2 9/1/2 4/7/2 5/8/2
f 73/9/2 23/10/2 8/11/2 2/12/2
f 6/13/3 7/14/3 2/12/3 8/11/3
f 5/8/4 4/7/4 23/10/4 73/9/4
f 9/15/5 13/16/5 14/17/5 10/18/5
f 3/19/6 12/20/6 14/17/6 13/16/6
f 10/21/7 14/22/7 15/23/7
f 16/24/2 17/25/2 18/26/2 15/23/2
f 10/21/1 15/23/1 18/26/1 11/27/1
f 10/18/6 19/28/6 4/29/6 9/15/6
f 11/27/8 20/30/8 19/31/8 10/21/8
f 19/28/9 24/32/9 23/33/9 4/29/9
f 21/34/1 28/35/1 29/36/1 22/37/1
f 24/32/6 25/38/6 8/39/6 23/33/6
f 26/40/10 28/35/10 25/41/10 24/42/10
f 27/43/2 29/36/2 28/35/2 26/40/2
f 20/30/4 27/43/4 26/40/4 19/31/4
f 26/40/11 24/42/11 19/31/11
f 25/41/7 28/35/7 21/34/7
f 16/24/10 15/23/10 14/22/10 12/44/10
f 25/38/12 21/45/12 6/46/12 8/39/12
f 40/47/13 21/48/13 22/49/13 32/50/13
f 7/51/13 6/52/13 40/53/13 30/54/13
f 67/55/14 47/56/14 51/57/14 68/58/14
f 50/59/15 68/58/15 51/57/15 49/60/15
f 47/61/16 52/62/16 51/63/16
f 53/64/17 52/62/17 55/65/17 54/66/17
f 47/61/18 48/67/18 55/65/18 52/62/18
f 47/56/15 67/55/15 69/68/15 56/69/15
f 48/67/19 47/61/19 56/70/19 57/71/19
f 56/69/20 69/68/20 59/72/20 60/73/20
f 58/74/18 79/75/18 66/76/18 65/77/18
f 60/73/15 59/72/15 61/78/15 62/79/15
f 61/78/14 70/80/14 58/81/14 62/79/14
f 63/82/21 60/83/21 62/84/21 65/77/21
f 64/85/17 63/82/17 65/77/17 66/76/17
f 57/71/22 56/70/22 63/82/22 64/85/22
f 63/82/23 56/70/23 60/83/23
f 62/84/24 58/74/24 65/77/24
f 53/64/21 49/86/21 51/63/21 52/62/21
f 71/87/18 67/88/18 68/89/18 72/90/18
f 1/91/17 72/90/17 68/89/17 50/92/17
f 67/88/17 71/87/17 5/93/17 69/94/17
f 59/95/17 73/96/17 2/97/17 61/98/17
f 7/99/18 70/100/18 61/98/18 2/97/18
f 69/94/22 5/93/22 73/96/22 59/95/22
f 79/101/13 58/102/13 74/103/13 84/104/13
f 70/105/13 7/106/13 75/107/13 74/108/13
f 7/109/13 31/110/13 75/111/13
f 31/110/13 7/109/13 30/112/13
usemtl Material.002
f 32/113/25 45/114/25 46/115/25 31/116/25
f 31/116/26 46/115/26 90/117/26 84/118/26
usemtl Material.004
f 32/119/2 34/120/2 82/121/2 31/122/2
f 82/123/13 34/124/13 33/125/13 35/126/13
f 36/127/2 37/128/2 39/129/2 38/130/2
f 39/131/13 37/132/13 45/133/13 46/134/13
f 40/135/6 21/136/6 42/137/6 41/138/6
f 21/139/2 22/140/2 44/141/2 42/142/2
f 44/143/13 43/144/13 41/145/13 42/146/13
f 74/147/15 76/148/15 77/149/15 58/150/15
f 58/151/17 77/152/17 80/153/17 79/154/17
f 80/155/13 77/156/13 76/157/13 78/158/13
f 31/159/17 82/160/17 85/161/17 84/162/17
f 85/163/13 82/164/13 81/165/13 83/166/13
f 86/167/17 87/168/17 89/169/17 88/170/17
f 89/171/13 87/172/13 46/173/13 90/174/13
