# Blender v2.80 (sub 45) OBJ File: 'tdr_t_test.blend'
# www.blender.org
mtllib tdr_t_test.mtl
o Cube.001_Cube.002
v 192.000000 256.000000 76.800003
v 191.999985 512.000000 76.799995
v 192.000000 243.200012 0.000000
v 499.200012 243.200012 0.000000
v 192.000000 243.200012 63.999985
v 179.200012 256.000000 63.999985
v 179.200012 256.000000 0.000000
v 179.199982 512.000000 0.000000
v 179.199982 512.000000 64.000000
v 256.000000 256.000000 435.199982
v 256.000000 512.000000 435.199982
v 256.000000 256.000000 512.000000
v 256.000000 512.000000 512.000000
v 499.199951 243.200012 448.000000
v 256.000000 243.200012 448.000000
v 499.199951 243.200012 499.200012
v 256.000000 243.200012 499.200012
v 243.200012 256.000000 448.000000
v 243.199997 512.000000 447.999939
v 243.200012 256.000000 499.200012
v 243.199997 512.000000 499.199951
v 512.000000 256.000031 76.800003
v 499.200012 -1267.199951 0.000000
v 499.200012 243.200043 64.000000
v 512.000000 -1279.999878 435.199982
v 512.000000 256.000000 435.199982
v 512.000000 -1279.999878 512.000000
v 512.000000 256.000000 512.000000
v 499.200012 -1267.199951 499.196198
v 512.000000 -1279.999878 76.800003
v 192.000000 -1279.999878 76.800003
v 191.999985 -1535.999878 76.799995
v 192.000000 -1267.199951 0.000000
v 499.199951 -1267.199951 63.999985
v 192.000000 -1267.199951 63.999985
v 179.200012 -1279.999878 63.999985
v 179.199997 -1279.999878 0.000000
v 179.199982 -1535.999878 0.000000
v 179.199982 -1535.999878 64.000000
v 256.000000 -1279.999878 435.200012
v 256.000000 -1535.999878 435.199982
v 256.000000 -1279.999878 512.000000
v 256.000000 -1535.999878 512.000000
v 499.199951 -1267.199951 448.000000
v 256.000000 -1267.199951 448.000000
v 256.000000 -1267.199951 499.200012
v 243.200012 -1279.999878 448.000000
v 243.199997 -1535.999878 447.999939
v 243.200012 -1279.999878 499.200012
v 243.199997 -1535.999878 499.199951
v 639.999939 256.000000 512.000000
v 639.999939 512.000000 512.000000
v 639.999939 -1536.000000 512.000000
v 639.999939 -1280.000000 512.000000
vt 0.500000 0.575000
vt 0.000000 0.575000
vt 0.000000 0.562500
vt 0.480000 0.562500
vt 0.480000 0.500000
vt 0.000000 0.500000
vt 0.124720 0.073656
vt 0.124720 0.061380
vt 0.130956 0.061380
vt 0.124720 0.000000
vt 0.000000 0.061380
vt 0.000000 0.000000
vt 0.000000 0.073656
vt 0.500000 0.925000
vt 0.100000 0.925000
vt 0.124720 0.417387
vt 0.000000 0.417387
vt 0.480000 0.937500
vt 0.100000 0.937500
vt 0.124720 0.491043
vt 0.000000 0.491043
vt 0.000000 0.478767
vt 0.124720 0.478767
vt 0.480000 0.987500
vt 0.100000 0.987500
vt 0.500000 1.000000
vt 0.100000 1.000000
vt 0.124720 0.429663
vt 0.130956 0.429663
vt 0.130956 0.478767
vt 0.000000 0.429663
vt 0.130956 0.000000
vt 0.873039 0.073656
vt 0.124720 0.073656
vt 0.130956 0.061380
vt 0.866804 0.061380
vt 0.866803 0.000000
vt 0.130956 0.000000
vt 0.873039 0.417387
vt 0.124720 0.417387
vt 0.130956 0.429663
vt 0.866804 0.429663
vt 0.866803 0.478764
vt 0.130956 0.478767
vt 0.873039 0.491043
vt 0.124720 0.491043
vt 0.500000 0.575000
vt 0.520000 0.562500
vt 1.000000 0.562500
vt 1.000000 0.575000
vt 0.520000 0.500000
vt 1.000000 0.500000
vt 0.873039 0.073656
vt 0.866804 0.061380
vt 0.873039 0.061380
vt 0.873039 0.000000
vt 0.997759 0.000000
vt 0.997759 0.061380
vt 0.997759 0.073656
vt 0.900000 0.925000
vt 0.500000 0.925000
vt 0.997759 0.417387
vt 0.873039 0.417387
vt 0.900000 0.937500
vt 0.520000 0.937500
vt 0.873039 0.491043
vt 0.873039 0.478767
vt 0.997759 0.478767
vt 0.997759 0.491043
vt 0.900000 0.987500
vt 0.520000 0.987496
vt 0.873039 0.429663
vt 0.866804 0.478767
vt 0.866804 0.429663
vt 0.997759 0.429663
vt 0.866804 0.000000
vt 0.900000 1.000000
vt 0.500000 1.000000
vt 0.221056 0.181751
vt 0.221056 0.320448
vt 0.128592 0.320448
vt 0.128592 0.181751
vt 0.868308 0.320448
vt 0.775844 0.320448
vt 0.775844 0.181751
vt 0.868308 0.181751
vt 0.775844 0.227983
vt 0.221056 0.227983
vn 0.0000 -0.7071 0.7071
vn 0.0000 -1.0000 0.0000
vn -0.5774 -0.5773 0.5773
vn -1.0000 -0.0000 0.0000
vn -0.7071 -0.0000 0.7071
vn -0.9844 0.0000 0.1758
vn 0.0000 -0.7071 -0.7071
vn -0.7071 -0.7071 0.0000
vn -0.7071 -0.0000 -0.7071
vn -0.5774 -0.5773 -0.5773
vn -0.5774 -0.5774 0.5774
vn -0.7072 -0.0000 0.7071
vn 0.0000 0.7071 0.7071
vn 0.0000 1.0000 -0.0000
vn -0.5773 0.5774 0.5774
vn -0.0000 0.7071 -0.7071
vn -0.7071 0.7071 0.0000
vn -0.5773 0.5774 -0.5774
vn 0.0000 0.7072 0.7071
vn 0.0000 0.0000 1.0000
usemtl Material.003
s off
f 22/1/1 1/2/1 5/3/1 24/4/1
f 4/5/2 24/4/2 5/3/2 3/6/2
f 1/7/3 6/8/3 5/9/3
f 7/10/4 6/8/4 9/11/4 8/12/4
f 1/7/5 2/13/5 9/11/5 6/8/5
f 1/2/2 22/1/2 26/14/2 10/15/2
f 2/13/6 1/7/6 10/16/6 11/17/6
f 10/15/7 26/14/7 14/18/7 15/19/7
f 12/20/5 13/21/5 21/22/5 20/23/5
f 15/19/2 14/18/2 16/24/2 17/25/2
f 16/24/1 28/26/1 12/27/1 17/25/1
f 18/28/8 15/29/8 17/30/8 20/23/8
f 19/31/4 18/28/4 20/23/4 21/22/4
f 11/17/9 10/16/9 18/28/9 19/31/9
f 18/28/10 10/16/10 15/29/10
f 17/30/11 12/20/11 20/23/11
f 7/10/8 3/32/8 5/9/8 6/8/8
f 30/33/5 22/34/5 24/35/5 34/36/5
f 23/37/4 34/36/4 24/35/4 4/38/4
f 22/34/4 30/33/4 25/39/4 26/40/4
f 14/41/4 44/42/4 29/43/4 16/44/4
f 27/45/12 28/46/12 16/44/12 29/43/12
f 26/40/9 25/39/9 44/42/9 14/41/9
f 30/47/13 34/48/13 35/49/13 31/50/13
f 23/51/14 33/52/14 35/49/14 34/48/14
f 31/53/15 35/54/15 36/55/15
f 37/56/4 38/57/4 39/58/4 36/55/4
f 31/53/5 36/55/5 39/58/5 32/59/5
f 31/50/14 40/60/14 25/61/14 30/47/14
f 32/59/6 41/62/6 40/63/6 31/53/6
f 40/60/16 45/64/16 44/65/16 25/61/16
f 42/66/5 49/67/5 50/68/5 43/69/5
f 45/64/14 46/70/14 29/71/14 44/65/14
f 47/72/17 49/67/17 46/73/17 45/74/17
f 48/75/4 50/68/4 49/67/4 47/72/4
f 41/62/9 48/75/9 47/72/9 40/63/9
f 47/72/18 45/74/18 40/63/18
f 46/73/15 49/67/15 42/66/15
f 37/56/17 36/55/17 35/54/17 33/76/17
f 46/70/19 42/77/19 27/78/19 29/71/19
f 54/79/20 42/80/20 43/81/20 53/82/20
f 13/83/20 12/84/20 51/85/20 52/86/20
f 28/87/20 27/88/20 54/79/20 51/85/20
o Cube_Cube.006
v 639.999939 256.000000 512.000000
v 639.999939 256.000000 543.999939
v 255.999969 256.000000 512.000000
v 255.999969 256.000000 543.999939
v 639.999939 512.000000 543.999939
v 255.999969 512.000000 512.000000
v 255.999969 512.000000 543.999939
v 656.255981 -1536.000000 576.000000
v 639.999939 -1536.000000 512.000000
v 639.999939 -1536.000000 576.000000
v 656.255981 512.000000 576.000000
v 639.999939 512.000000 512.000000
v 639.999939 512.000000 576.000000
v 895.999878 -1536.000000 1536.000000
v 879.743958 -1536.000000 1471.999878
v 879.743958 -1536.000000 1536.000000
v 895.999878 512.000000 1536.000000
v 879.743958 512.000000 1471.999878
v 879.743958 512.000000 1536.000000
v 639.999939 -1279.999878 512.000000
v 639.999939 -1279.999878 543.999939
v 255.999969 -1279.999878 512.000000
v 255.999969 -1279.999878 543.999939
v 639.999939 -1536.000000 543.999939
v 255.999969 -1536.000000 512.000000
v 255.999969 -1536.000000 543.999939
vt 0.713285 0.429572
vt 0.572430 0.429572
vt 0.572430 0.998999
vt 0.713285 0.998999
vt 0.570428 0.570428
vt 0.570428 0.429572
vt 0.286715 0.429572
vt 0.286715 0.570428
vt 0.284713 0.001001
vt 0.001001 0.001001
vt 0.001001 0.570428
vt 0.284713 0.570428
vt 0.856142 0.284713
vt 0.856142 0.143858
vt 0.286715 0.143858
vt 0.286715 0.284713
vt 0.998999 0.570428
vt 0.998999 0.001001
vt 0.858144 0.001001
vt 0.858144 0.570428
vt 0.856142 0.427570
vt 0.856142 0.286715
vt 0.286715 0.286715
vt 0.286715 0.427570
vt 0.856142 0.998999
vt 0.856142 0.429572
vt 0.715287 0.429572
vt 0.715287 0.998999
vt 0.286715 0.141856
vt 0.856142 0.141856
vt 0.856142 0.001001
vt 0.286715 0.001001
vt 0.998999 0.856142
vt 0.998999 0.572430
vt 0.858144 0.572430
vt 0.858144 0.856142
vt 0.001001 0.856142
vt 0.570428 0.856142
vt 0.570428 0.572430
vt 0.001001 0.572430
vn 0.0000 -1.0000 0.0000
vn -1.0000 0.0000 0.0000
vn 0.0000 0.0000 1.0000
vn 0.0000 1.0000 0.0000
usemtl Material.004
s off
f 55/89/21 56/90/21 58/91/21 57/92/21
f 57/93/22 58/94/22 61/95/22 60/96/22
f 61/97/23 58/98/23 56/99/23 59/100/23
f 63/101/22 64/102/22 67/103/22 66/104/22
f 67/105/23 64/106/23 62/107/23 65/108/23
f 69/109/22 70/110/22 73/111/22 72/112/22
f 73/113/23 70/114/23 68/115/23 71/116/23
f 74/117/24 76/118/24 77/119/24 75/120/24
f 76/121/22 79/122/22 80/123/22 77/124/22
f 80/125/23 78/126/23 75/127/23 77/128/23
o Cube.002_Cube.011
v 640.000000 -1536.000000 512.000000
v 896.000000 -1536.000000 1535.999878
v 640.000000 512.000000 512.000000
v 896.000000 512.000000 1535.999878
vt 1.000000 0.000000
vt 1.000000 1.000000
vt 0.000000 1.000000
vt 0.000000 0.000000
vn -0.9701 0.0000 0.2425
usemtl Material.002
s off
f 81/129/25 82/130/25 84/131/25 83/132/25
