# Created by Metasequoia

mtllib rays_horizontal_01.mtl

v 1024.000000 0.000000 0.000000
v -1024.000000 0.000000 0.000000
v 2757.180908 -1635.584473 -3420.670410
v -1297.023682 -1438.501343 -3426.991699
v 0.000000 -128.000000 0.000000
v 298.594727 -1926.559937 -3543.279053
v 1563.505371 -543.759460 -1459.963745
v -996.435303 -509.263947 -1490.714478
v 97.659439 -788.864014 -1526.987183
v 512.000000 -128.000000 0.000000
v 1428.021729 -1883.184326 -3479.721924
v 815.469971 -782.679443 -1490.547241
v -512.000000 -128.000000 0.000000
v -545.762939 -1819.447021 -3485.974854
v -498.426147 -778.530762 -1508.111938
v -512.000000 768.000000 0.000000
v -624.978943 708.587280 -1497.162964
v 512.000000 384.000000 0.000000
v 855.758179 178.234528 -1430.563843
v 0.000000 640.000000 0.000000
v 104.730225 626.560486 -1436.679810
v -657.814941 678.277588 -3458.760986
v 325.506775 651.805542 -3451.560547
v 1462.781494 -241.460266 -3407.544189
# 24 vertices

vt 0.21785 0.55500
vt 0.00000 0.58467
vt 0.00000 0.00000
vt 0.22876 0.00000
vt 0.47495 0.00000
vt 0.47742 0.51964
vt 0.22163 1.00000
vt 0.00000 1.00000
vt 0.47970 1.00000
vt 0.74936 0.48261
vt 0.73368 0.00000
vt 1.00000 0.00000
vt 1.00000 0.44847
vt 0.71732 1.00000
vt 1.00000 1.00000
vt 1.00000 0.52941
vt 0.76471 0.52941
vt 0.76471 1.00000
vt 1.00000 1.00000
vt 0.23529 1.00000
vt 0.23529 0.52941
vt 0.00000 0.52941
vt 0.52941 0.52941
vt 0.52941 1.00000
vt 0.76471 0.00000
vt 0.52941 0.00000
vt 1.00000 0.00000
vt 0.23529 0.00000
vt 0.00000 0.00000
# 29 texture vertices

vn -0.23982 0.87293 -0.42482
vn 0.33516 0.88089 -0.33421
vn -0.18523 0.82465 -0.53445
vn 0.39645 0.80477 -0.44178
vn 0.00394 0.91756 -0.39757
vn 0.02238 0.87609 -0.48163
vn -0.21299 0.85064 -0.48068
vn 0.36677 0.84507 -0.38903
vn 0.01317 0.89785 -0.44010
vn -0.11774 0.90217 -0.41500
vn -0.09030 0.85316 -0.51378
vn -0.10417 0.87905 -0.46521
vn 0.17092 0.91284 -0.37082
vn 0.22157 0.85636 -0.46642
vn 0.19658 0.88629 -0.41935
vn 0.90316 -0.42759 0.03834
vn 0.93280 -0.36012 0.01388
vn -0.57298 -0.81945 -0.01416
vn -0.61111 -0.79074 -0.03581
vn -0.33415 -0.94251 0.00397
vn -0.33140 -0.94343 -0.01054
vn -0.06842 -0.99765 -0.00429
vn -0.32851 -0.94416 -0.02539
vn -0.64754 -0.75987 -0.05735
vn -0.65892 -0.75204 -0.01620
vn -0.69175 -0.72086 -0.04285
vn -0.12415 -0.99223 0.00776
vn -0.17947 -0.98357 0.01979
vn 0.95682 -0.29049 -0.01066
vn -0.72267 -0.68770 -0.06937
# 30 normal vertices

g obj1
usemtl mat1
f 12/1/12 7/2/7 3/3/3 11/4/11
f 12/1/12 11/4/11 6/5/6 9/6/9
f 10/7/10 1/8/1 7/2/7 12/1/12
f 10/7/10 12/1/12 9/6/9 5/9/5
f 15/10/15 9/6/9 6/5/6 14/11/14
f 15/10/15 14/11/14 4/12/4 8/13/8
f 13/14/13 5/9/5 9/6/9 15/10/15
f 13/14/13 15/10/15 8/13/8 2/15/2
f 8/16/17 17/17/17 16/18/16 2/19/16
f 1/8/25 18/20/18 19/21/19 7/22/26
f 17/17/27 21/23/21 20/24/20 16/18/28
f 17/17/27 22/25/22 23/26/23 21/23/21
f 21/23/21 19/21/19 18/20/18 20/24/20
f 8/16/17 4/27/29 22/25/29 17/17/17
f 19/21/19 24/28/24 3/29/30 7/22/26
f 19/21/19 21/23/21 23/26/23 24/28/24
# 16 elements

