# Blender v2.80 (sub 45) OBJ File: ''
# www.blender.org
mtllib tdr_z_storm_a.mtl
o tdr_z_storm_a.001
v 1854.483398 -1925.776489 29552.019531
v 500.925781 -2365.010742 23641.630859
v 2391.892090 -1263.598389 29552.019531
v 1644.578369 -1679.520996 23641.621094
v 2719.877197 -2934.329346 17731.212891
v 2484.803955 -644.230347 23641.630859
v 2670.414307 -457.553345 29552.019531
v 2920.268311 616.013184 23641.625000
v 2656.453125 395.146210 29552.019531
v 2898.440186 1949.186890 23641.623047
v 2351.696289 1191.642334 29552.013672
v 2421.958984 3194.493408 23641.626953
v 1792.900879 1835.872437 29552.019531
v 1548.294067 4201.731445 23641.625000
v 1047.459473 2250.128906 29552.019531
v 382.818115 4849.419922 23641.615234
v 205.294296 2384.454834 29552.011719
v -933.893372 5059.428223 23641.626953
v -632.022827 2222.637695 29552.019531
v -2243.023438 4806.432617 23641.625000
v -1363.494995 1784.199341 29552.007812
v -1100.954712 7051.600098 17731.224609
v 850.172791 6740.402344 17731.216797
v 2577.199951 5780.645508 17731.224609
v 3871.821533 4288.096680 17731.214844
v 4577.881348 2442.765137 17731.228516
v 4610.226074 467.242950 17731.214844
v 3964.945557 -1400.210083 17731.224609
v 4700.549316 -5069.445801 11820.813477
v 6406.906250 -2966.932861 11820.813477
v 7196.895020 -7452.732910 5910.410156
v 9372.125000 -4772.491211 5910.408203
v 7291.255371 -407.605927 11820.816406
v 7246.928223 2299.841309 11820.811523
v 6279.276855 4828.846191 11820.821289
v 4505.010254 6874.375977 11820.815430
v 2138.128174 8189.712402 11820.816406
v -535.887024 8616.206055 11820.820312
v -3040.861816 6676.702148 17731.224609
v -3194.499512 8102.414551 11820.813477
v -4735.544434 5660.931641 17731.220703
v -5517.054199 6710.307129 11820.817383
v -5980.605957 4126.803223 17731.218750
v -7223.403809 4607.793945 11820.811523
v 10499.473633 -1509.904907 5910.410645
v 10442.970703 1941.480469 5910.409668
v 9209.425781 5165.406250 5910.408691
v 6947.627930 7773.007812 5910.409668
v 3930.379150 9449.772461 5910.408203
v 521.603271 9993.457031 5910.409668
v -2867.543701 9338.485352 5910.409668
v -5828.284180 7563.856445 5910.411621
v -8003.518066 4883.615234 5910.410156
v -8107.762207 2048.465332 11820.812500
v 5272.519531 8926.371094 0.000000
v 8289.766602 7249.605469 0.000000
v 10551.568359 4642.004883 0.000000
v 11785.109375 1418.079102 0.000000
v 11841.616211 -2033.316650 0.000000
v 10714.264648 -5295.887695 0.000000
v 8539.037109 -7976.128418 0.000000
v 4236.151855 -9227.363281 5910.410645
v 2377.992432 -6461.553711 11820.816406
v -1219.630859 -9862.061523 0.000000
v -4236.879883 -8185.290527 0.000000
v -2561.773926 -9338.650391 5910.410156
v -5579.018555 -7661.885742 5910.409668
v -6498.680664 -5577.688965 0.000000
v -7840.819336 -5054.285645 5910.408203
v -7732.224121 -2353.765381 0.000000
v -9074.360352 -1830.360596 5910.408691
v -7788.729004 1097.637573 0.000000
v -9130.871094 1621.038208 5910.409668
v -6661.376953 4360.212402 0.000000
v -4486.147461 7040.453125 0.000000
v -1525.403320 8815.083008 0.000000
v 1863.745728 9470.056641 0.000000
v -8063.433105 -658.982666 11820.813477
v -7095.788574 -3187.989746 11820.815430
v -5321.513184 -5233.527832 11820.816406
v -2954.638184 -6548.860840 11820.816406
v -280.621368 -6975.349609 11820.817383
v 847.001465 -9882.328125 5910.409668
v 2189.141357 -10405.735352 0.000000
v -6625.887207 2259.354980 17731.224609
v -6593.553223 283.822327 17731.218750
v -5887.492676 -1561.507568 17731.224609
v -4592.870605 -3054.057861 17731.224609
v -2865.836182 -4013.812256 17731.224609
v -914.707092 -4325.011719 17731.214844
v 1025.193726 -3950.108643 17731.216797
v 2377.992432 -6461.553711 11820.816406
v 5578.293457 -9750.761719 0.000000
v -808.199890 -2618.008545 23641.625000
v -2124.908936 -2408.000488 23641.625000
v -3290.385742 -1760.318237 23641.626953
v -4164.051270 -753.072998 23641.615234
v -4640.540527 492.232086 23641.625000
v -4662.366699 1825.406860 23641.621094
v -4226.899902 3085.646729 23641.626953
v -3386.676758 4120.943359 23641.615234
v -1900.907471 1122.022339 29552.019531
v -2179.428711 315.974304 29552.019531
v -2165.473389 -536.724304 29552.027344
v -1860.714966 -1333.219482 29552.019531
v -1301.915283 -1977.449585 29552.013672
v -556.479797 -2391.709473 29552.027344
v 285.688721 -2526.031250 29552.013672
v 1123.003784 -2364.209717 29552.011719
vt 1.000000 0.000000
vt 0.916111 0.000000
vt 1.000000 0.200000
vt 0.863378 0.000000
vt 0.916111 0.200000
vt 1.000000 0.400000
vt 0.916111 0.400000
vt 0.863378 0.200000
vt 0.810739 0.000000
vt 0.810739 0.200000
vt 0.758005 0.000000
vt 0.758005 0.200000
vt 0.705272 0.000000
vt 0.705272 0.200000
vt 0.652633 0.000000
vt 0.652633 0.200000
vt 0.599899 0.000000
vt 0.599899 0.200000
vt 0.547261 0.000000
vt 0.547260 0.200000
vt 0.494527 0.000000
vt 0.494527 0.200000
vt 0.441888 0.000000
vt 0.547260 0.400000
vt 0.599899 0.400000
vt 0.652633 0.400000
vt 0.705272 0.400000
vt 0.758005 0.400000
vt 0.810739 0.400000
vt 0.863378 0.400000
vt 0.916111 0.600000
vt 0.863378 0.600000
vt 0.916111 0.800000
vt 0.863378 0.800000
vt 0.810739 0.600000
vt 0.758005 0.600000
vt 0.705272 0.600000
vt 0.652633 0.600000
vt 0.599899 0.600000
vt 0.547260 0.600000
vt 0.494527 0.400000
vt 0.494527 0.600000
vt 0.441888 0.400000
vt 0.441888 0.600000
vt 0.389155 0.400000
vt 0.389155 0.600000
vt 0.810739 0.800000
vt 0.758005 0.800000
vt 0.705272 0.800000
vt 0.652633 0.800000
vt 0.599899 0.800000
vt 0.547260 0.800000
vt 0.494527 0.800000
vt 0.441888 0.800000
vt 0.389155 0.800000
vt 0.336516 0.600000
vt 0.599899 1.000000
vt 0.652633 1.000000
vt 0.705272 1.000000
vt 0.758005 1.000000
vt 0.810739 1.000000
vt 0.863378 1.000000
vt 0.916111 1.000000
vt 1.000000 1.000000
vt 1.000000 0.800000
vt 1.000000 0.600000
vt 0.125676 1.000000
vt 0.178410 1.000000
vt 0.125676 0.800000
vt 0.178410 0.800000
vt 0.231049 1.000000
vt 0.231049 0.800000
vt 0.283782 1.000000
vt 0.283782 0.800000
vt 0.336516 1.000000
vt 0.336516 0.800000
vt 0.389155 1.000000
vt 0.441888 1.000000
vt 0.494527 1.000000
vt 0.547260 1.000000
vt 0.283782 0.600000
vt 0.231049 0.600000
vt 0.178410 0.600000
vt 0.125676 0.600000
vt 0.073038 0.600000
vt 0.073038 0.800000
vt 0.073037 1.000000
vt 0.336516 0.400000
vt 0.283782 0.400000
vt 0.231049 0.400000
vt 0.178410 0.400000
vt 0.125676 0.400000
vt 0.073038 0.400000
vt 0.000000 0.400000
vt 0.000000 0.200000
vt 0.000000 0.600000
vt 0.000000 0.800000
vt 0.000000 1.000000
vt 0.073038 0.200000
vt 0.125676 0.200000
vt 0.178410 0.200000
vt 0.231049 0.200000
vt 0.283782 0.200000
vt 0.336516 0.200000
vt 0.389155 0.200000
vt 0.441888 0.200000
vt 0.389155 0.000000
vt 0.336516 0.000000
vt 0.283782 0.000000
vt 0.231049 0.000000
vt 0.178410 0.000000
vt 0.125676 0.000000
vt 0.073037 0.000000
vt 0.000000 0.000000
vn -0.4152 0.8946 0.1654
vn -0.5941 0.8026 0.0538
vn -0.3401 0.8967 -0.2832
vn -0.8332 0.5512 0.0447
vn -0.6310 0.7641 -0.1342
vn -0.3539 0.9124 -0.2056
vn -0.5945 0.7142 -0.3694
vn -0.8531 0.5016 -0.1437
vn -0.9724 0.2332 0.0013
vn -0.9693 0.1788 -0.1686
vn -0.9911 -0.1132 -0.0703
vn -0.9651 -0.1623 -0.2054
vn -0.8833 -0.4407 -0.1598
vn -0.8425 -0.4776 -0.2490
vn -0.6657 -0.7019 -0.2534
vn -0.6203 -0.7275 -0.2934
vn -0.3751 -0.8634 -0.3375
vn -0.3295 -0.8834 -0.3331
vn -0.0557 -0.9136 -0.4028
vn -0.0073 -0.9314 -0.3640
vn 0.2545 -0.8585 -0.4452
vn 0.3091 -0.8705 -0.3831
vn 0.5276 -0.7126 -0.4624
vn -0.0038 -0.9577 -0.2877
vn -0.3293 -0.8938 -0.3045
vn -0.6112 -0.7226 -0.3228
vn -0.8162 -0.4669 -0.3404
vn -0.9212 -0.1587 -0.3552
vn -0.9160 0.1652 -0.3656
vn -0.8026 0.4676 -0.3705
vn -0.5660 0.6741 -0.4746
vn -0.7612 0.4391 -0.4772
vn -0.6059 0.7079 -0.3630
vn -0.8069 0.4554 -0.3763
vn -0.8721 0.1535 -0.4646
vn -0.8855 -0.1565 -0.4374
vn -0.7946 -0.4591 -0.3973
vn -0.6025 -0.7185 -0.3475
vn -0.3266 -0.8984 -0.2935
vn 0.0004 -0.9702 -0.2423
vn 0.3253 -0.9049 -0.2746
vn 0.3353 -0.9203 -0.2015
vn 0.6166 -0.7407 -0.2669
vn 0.6329 -0.7537 -0.1775
vn 0.8330 -0.4853 -0.2657
vn 0.8530 -0.4921 -0.1739
vn -0.9175 0.1525 -0.3673
vn -0.9258 -0.1726 -0.3362
vn -0.8254 -0.4874 -0.2848
vn -0.6201 -0.7539 -0.2171
vn -0.3295 -0.9336 -0.1405
vn 0.0098 -0.9978 -0.0653
vn 0.3512 -0.9363 -0.0020
vn 0.6497 -0.7591 0.0406
vn 0.8695 -0.4907 0.0571
vn 0.9667 -0.1701 -0.1913
vn -0.2705 -0.9624 0.0238
vn -0.5824 -0.8106 -0.0605
vn -0.8184 -0.5583 -0.1364
vn -0.9505 -0.2423 -0.1944
vn -0.9686 0.0967 -0.2291
vn -0.8756 0.4214 -0.2361
vn -0.6818 0.6987 -0.2167
vn -0.3349 0.9418 -0.0275
vn -0.2681 0.8455 -0.4618
vn -0.3045 0.8357 -0.4570
vn 0.2705 0.9624 -0.0238
vn 0.5825 0.8106 0.0605
vn 0.3259 0.9234 -0.2027
vn 0.6302 0.7662 -0.1255
vn 0.8184 0.5583 0.1364
vn 0.8599 0.5078 -0.0518
vn 0.9505 0.2423 0.1944
vn 0.9830 0.1833 0.0081
vn 0.9686 -0.0967 0.2290
vn 0.9854 -0.1638 0.0459
vn 0.8756 -0.4214 0.2361
vn 0.6818 -0.6987 0.2167
vn 0.4054 -0.8979 0.1716
vn 0.0746 -0.9917 0.1048
vn 0.9590 0.1695 -0.2270
vn 0.8323 0.4810 -0.2755
vn 0.6066 0.7235 -0.3294
vn 0.3159 0.8688 -0.3813
vn -0.0003 0.9051 -0.4252
vn -0.0094 0.9620 -0.2728
vn -0.0746 0.9917 -0.1048
vn 0.9472 -0.1709 -0.2712
vn 0.9453 0.1629 -0.2825
vn 0.8285 0.4740 -0.2983
vn 0.6126 0.7243 -0.3163
vn 0.3258 0.8843 -0.3344
vn 0.0037 0.9366 -0.3504
vn 0.0078 0.9863 -0.1647
vn 0.3423 0.9180 -0.2003
vn 0.6293 0.7381 -0.2433
vn 0.8331 0.4723 -0.2880
vn 0.9314 0.1567 -0.3286
vn 0.9172 -0.1692 -0.3607
vn 0.7969 -0.4685 -0.3814
vn 0.5866 -0.7103 -0.3890
vn 0.7425 -0.4912 -0.4554
vn 0.8807 -0.2112 -0.4239
vn 0.9237 0.1055 -0.3684
vn 0.8559 0.4270 -0.2916
vn 0.6742 0.7108 -0.2007
vn 0.3962 0.9118 -0.1077
vn 0.0608 0.9978 -0.0268
usemtl material_0.007
s 1
f 109/1/1 1/2/2 2/3/3
f 1/2/2 3/4/4 4/5/5
f 4/5/5 2/3/3 1/2/2
f 2/3/3 4/5/5 91/6/6
f 5/7/7 91/6/6 4/5/5
f 4/5/5 6/8/8 5/7/7
f 6/8/8 4/5/5 3/4/4
f 3/4/4 7/9/9 6/8/8
f 8/10/10 6/8/8 7/9/9
f 7/9/9 9/11/11 8/10/10
f 10/12/12 8/10/10 9/11/11
f 9/11/11 11/13/13 10/12/12
f 12/14/14 10/12/12 11/13/13
f 11/13/13 13/15/15 12/14/14
f 14/16/16 12/14/14 13/15/15
f 13/15/15 15/17/17 14/16/16
f 16/18/18 14/16/16 15/17/17
f 15/17/17 17/19/19 16/18/18
f 18/20/20 16/18/18 17/19/19
f 17/19/19 19/21/21 18/20/20
f 20/22/22 18/20/20 19/21/21
f 19/21/21 21/23/23 20/22/22
f 22/24/24 23/25/25 18/20/20
f 16/18/18 18/20/20 23/25/25
f 23/25/25 24/26/26 16/18/18
f 14/16/16 16/18/18 24/26/26
f 24/26/26 25/27/27 14/16/16
f 12/14/14 14/16/16 25/27/27
f 25/27/27 26/28/28 12/14/14
f 10/12/12 12/14/14 26/28/28
f 26/28/28 27/29/29 10/12/12
f 8/10/10 10/12/12 27/29/29
f 27/29/29 28/30/30 8/10/10
f 6/8/8 8/10/10 28/30/30
f 28/30/30 5/7/7 6/8/8
f 5/7/7 28/30/30 29/31/31
f 30/32/32 29/31/31 28/30/30
f 29/31/31 30/32/32 31/33/33
f 32/34/34 31/33/33 30/32/32
f 30/32/32 33/35/35 32/34/34
f 28/30/30 27/29/29 30/32/32
f 33/35/35 30/32/32 27/29/29
f 27/29/29 26/28/28 33/35/35
f 34/36/36 33/35/35 26/28/28
f 26/28/28 25/27/27 34/36/36
f 35/37/37 34/36/36 25/27/27
f 25/27/27 24/26/26 35/37/37
f 36/38/38 35/37/37 24/26/26
f 24/26/26 23/25/25 36/38/38
f 37/39/39 36/38/38 23/25/25
f 23/25/25 22/24/24 37/39/39
f 38/40/40 37/39/39 22/24/24
f 22/24/24 39/41/41 38/40/40
f 40/42/42 38/40/40 39/41/41
f 39/41/41 41/43/43 40/42/42
f 42/44/44 40/42/42 41/43/43
f 41/43/43 43/45/45 42/44/44
f 44/46/46 42/44/44 43/45/45
f 45/47/47 32/34/34 33/35/35
f 33/35/35 34/36/36 45/47/47
f 46/48/48 45/47/47 34/36/36
f 34/36/36 35/37/37 46/48/48
f 47/49/49 46/48/48 35/37/37
f 35/37/37 36/38/38 47/49/49
f 48/50/50 47/49/49 36/38/38
f 36/38/38 37/39/39 48/50/50
f 49/51/51 48/50/50 37/39/39
f 37/39/39 38/40/40 49/51/51
f 50/52/52 49/51/51 38/40/40
f 38/40/40 40/42/42 50/52/52
f 51/53/53 50/52/52 40/42/42
f 40/42/42 42/44/44 51/53/53
f 52/54/54 51/53/53 42/44/44
f 42/44/44 44/46/46 52/54/54
f 53/55/55 52/54/54 44/46/46
f 44/46/46 54/56/56 53/55/55
f 55/57/57 56/58/58 49/51/51
f 48/50/50 49/51/51 56/58/58
f 56/58/58 57/59/59 48/50/50
f 47/49/49 48/50/50 57/59/59
f 57/59/59 58/60/60 47/49/49
f 46/48/48 47/49/49 58/60/60
f 58/60/60 59/61/61 46/48/48
f 45/47/47 46/48/48 59/61/61
f 59/61/61 60/62/62 45/47/47
f 32/34/34 45/47/47 60/62/62
f 60/62/62 61/63/63 32/34/34
f 31/33/33 32/34/34 61/63/63
f 61/63/63 93/64/64 31/33/33
f 62/65/65 31/33/33 93/64/64
f 31/33/33 62/65/65 29/31/31
f 63/66/66 29/31/31 62/65/65
f 29/31/31 63/66/66 5/7/7
f 91/6/6 5/7/7 63/66/66
f 64/67/67 65/68/68 66/69/69
f 67/70/70 66/69/69 65/68/68
f 65/68/68 68/71/71 67/70/70
f 69/72/72 67/70/70 68/71/71
f 68/71/71 70/73/73 69/72/72
f 71/74/74 69/72/72 70/73/73
f 70/73/73 72/75/75 71/74/74
f 73/76/76 71/74/74 72/75/75
f 72/75/75 74/77/77 73/76/76
f 53/55/55 73/76/76 74/77/77
f 74/77/77 75/78/78 53/55/55
f 52/54/54 53/55/55 75/78/78
f 75/78/78 76/79/79 52/54/54
f 51/53/53 52/54/54 76/79/79
f 76/79/79 77/80/80 51/53/53
f 50/52/52 51/53/53 77/80/80
f 77/80/80 55/57/57 50/52/52
f 49/51/51 50/52/52 55/57/57
f 73/76/76 53/55/55 54/56/56
f 54/56/56 78/81/81 73/76/76
f 71/74/74 73/76/76 78/81/81
f 78/81/81 79/82/82 71/74/74
f 69/72/72 71/74/74 79/82/82
f 79/82/82 80/83/83 69/72/72
f 67/70/70 69/72/72 80/83/83
f 80/83/83 81/84/84 67/70/70
f 66/69/69 67/70/70 81/84/84
f 81/84/84 82/85/85 66/69/69
f 83/86/86 66/69/69 82/85/85
f 66/69/69 83/86/86 64/67/67
f 84/87/87 64/67/67 83/86/86
f 43/45/45 85/88/88 44/46/46
f 54/56/56 44/46/46 85/88/88
f 85/88/88 86/89/89 54/56/56
f 78/81/81 54/56/56 86/89/89
f 86/89/89 87/90/90 78/81/81
f 79/82/82 78/81/81 87/90/90
f 87/90/90 88/91/91 79/82/82
f 80/83/83 79/82/82 88/91/91
f 88/91/91 89/92/92 80/83/83
f 81/84/84 80/83/83 89/92/92
f 89/92/92 90/93/93 81/84/84
f 82/85/85 81/84/84 90/93/93
f 91/94/6 90/93/93 2/95/3
f 90/93/93 91/94/6 82/85/85
f 92/96/66 82/85/85 91/94/6
f 82/85/85 92/96/66 83/86/86
f 62/97/65 83/86/86 92/96/66
f 83/86/86 62/97/65 84/87/87
f 93/98/64 84/87/87 62/97/65
f 90/93/93 89/92/92 94/99/94
f 95/100/95 94/99/94 89/92/92
f 89/92/92 88/91/91 95/100/95
f 96/101/96 95/100/95 88/91/91
f 88/91/91 87/90/90 96/101/96
f 97/102/97 96/101/96 87/90/90
f 87/90/90 86/89/89 97/102/97
f 98/103/98 97/102/97 86/89/89
f 86/89/89 85/88/88 98/103/98
f 99/104/99 98/103/98 85/88/88
f 85/88/88 43/45/45 99/104/99
f 100/105/100 99/104/99 43/45/45
f 43/45/45 41/43/43 100/105/100
f 101/106/101 100/105/100 41/43/43
f 41/43/43 39/41/41 101/106/101
f 20/22/22 101/106/101 39/41/41
f 39/41/41 22/24/24 20/22/22
f 18/20/20 20/22/22 22/24/24
f 101/106/101 20/22/22 21/23/23
f 21/23/23 102/107/102 101/106/101
f 100/105/100 101/106/101 102/107/102
f 102/107/102 103/108/103 100/105/100
f 99/104/99 100/105/100 103/108/103
f 103/108/103 104/109/104 99/104/99
f 98/103/98 99/104/99 104/109/104
f 104/109/104 105/110/105 98/103/98
f 97/102/97 98/103/98 105/110/105
f 105/110/105 106/111/106 97/102/97
f 96/101/96 97/102/97 106/111/106
f 106/111/106 107/112/107 96/101/96
f 95/100/95 96/101/96 107/112/107
f 107/112/107 108/113/108 95/100/95
f 94/99/94 95/100/95 108/113/108
f 108/113/108 109/114/1 94/99/94
f 2/95/3 94/99/94 109/114/1
f 94/99/94 2/95/3 90/93/93
