# Blender v2.80 (sub 45) OBJ File: ''
# www.blender.org
mtllib tdr_z_storm_b.mtl
o tdr_z_storm_b
v 1736.855469 -1803.625488 27677.560547
v 469.152771 -2215.000000 22142.062500
v 2240.176025 -1183.449463 27677.560547
v 1540.264282 -1572.990479 22142.052734
v 2547.357910 -2748.207764 16606.539062
v 2327.195068 -603.367310 22142.062500
v 2501.031738 -428.531372 27677.560547
v 2735.038330 576.940186 22142.058594
v 2487.956299 370.082245 27677.560547
v 2714.594727 1825.551270 22142.054688
v 2202.530518 1116.057251 27677.556641
v 2268.336182 2991.869629 22142.058594
v 1679.178467 1719.424194 27677.556641
v 1450.086670 3935.219238 22142.058594
v 981.019897 2107.405762 27677.560547
v 358.535583 4541.825195 22142.046875
v 192.272278 2233.210449 27677.554688
v -874.657532 4738.513184 22142.058594
v -591.934326 2081.657959 27677.556641
v -2100.750488 4501.564941 22142.058594
v -1277.009888 1671.029297 27677.548828
v -1031.122925 6604.322266 16606.546875
v 796.246765 6312.864258 16606.541016
v 2413.729980 5413.983398 16606.546875
v 3626.234863 4016.106689 16606.539062
v 4287.510254 2287.822266 16606.552734
v 4317.802734 437.606049 16606.539062
v 3713.452148 -1311.396118 16606.546875
v 4402.397949 -4747.895508 11071.029297
v 6000.520996 -2778.742920 11071.029297
v 6740.401367 -6980.012695 5535.518066
v 8777.659180 -4469.776855 5535.516602
v 6828.776367 -381.751831 11071.033203
v 6787.261230 2153.964355 11071.027344
v 5880.986816 4522.556152 11071.037109
v 4219.260742 6438.339844 11071.031250
v 2002.507568 7670.245117 11071.033203
v -501.896606 8069.686035 11071.036133
v -2847.982910 6253.203613 16606.546875
v -2991.875732 7588.484375 11071.029297
v -4435.173340 5301.863770 16606.544922
v -5167.112305 6284.679199 11071.033203
v -5601.261719 3865.043213 16606.542969
v -6765.229980 4315.525879 11071.027344
v 9833.500977 -1414.132690 5535.518555
v 9780.582031 1818.333984 5535.517578
v 8625.280273 4837.768066 5535.516602
v 6506.944336 7279.972168 5535.517578
v 3681.077637 8850.380859 5535.516602
v 488.517670 9359.581055 5535.517578
v -2685.657959 8746.153320 5535.517578
v -5458.601562 7084.087402 5535.519531
v -7495.862793 4573.851562 5535.518066
v -7593.493652 1918.532959 11071.029297
v 4938.087402 8360.178711 0.000000
v 7763.954102 6789.769043 0.000000
v 9882.291016 4347.565918 0.000000
v 11037.589844 1328.131714 0.000000
v 11090.511719 -1904.345093 0.000000
v 10034.667969 -4959.974121 0.000000
v 7997.413574 -7470.209473 0.000000
v 3967.456787 -8642.080078 5535.518555
v 2227.158936 -6051.703125 11071.033203
v -1142.269775 -9236.518555 0.000000
v -3968.137451 -7666.104004 0.000000
v -2399.281738 -8746.307617 5535.518066
v -5225.145508 -7175.898926 5535.517578
v -6086.474609 -5223.900391 0.000000
v -7343.481445 -4733.695801 5535.516602
v -7241.774902 -2204.467773 0.000000
v -8498.781250 -1714.261963 5535.516602
v -7294.696777 1028.015503 0.000000
v -8551.707031 1518.217163 5535.517578
v -6238.852051 4083.646729 0.000000
v -4201.595703 6593.882812 0.000000
v -1428.648438 8255.948242 0.000000
v 1745.528564 8869.377930 0.000000
v -7551.976074 -617.183716 11071.029297
v -6645.708496 -2985.778320 11071.031250
v -4983.973145 -4901.569336 11071.033203
v -2767.227295 -6133.472168 11071.033203
v -262.820801 -6532.907715 11071.033203
v 793.277405 -9255.500000 5535.517578
v 2050.287109 -9745.708984 0.000000
v -6205.613281 2116.045898 16606.546875
v -6175.329590 265.819763 16606.542969
v -5514.054688 -1462.462646 16606.546875
v -4301.547852 -2860.342041 16606.546875
v -2684.058105 -3759.219238 16606.546875
v -856.687622 -4050.680176 16606.539062
v 960.166626 -3699.556641 16606.541016
v 2227.158936 -6051.703125 11071.033203
v 5224.467285 -9132.279297 0.000000
v -756.936401 -2451.950684 22142.058594
v -1990.127319 -2255.263184 22142.058594
v -3081.678955 -1648.662354 22142.058594
v -3899.929443 -705.306091 22142.046875
v -4346.194824 461.010071 22142.058594
v -4366.636230 1709.623291 22142.052734
v -3958.791260 2889.926758 22142.058594
v -3171.863281 3859.555420 22142.046875
v -1780.334473 1050.853271 27677.560547
v -2041.189209 295.932281 27677.560547
v -2028.118652 -502.680298 27677.566406
v -1742.691406 -1248.654419 27677.560547
v -1219.335815 -1852.021362 27677.556641
v -521.182312 -2240.005127 27677.566406
v 267.568237 -2365.807373 27677.556641
v 1051.772827 -2214.250000 27677.554688
vt 1.000000 0.000000
vt 0.934161 0.000000
vt 1.000000 0.200000
vt 0.879170 0.000000
vt 0.934161 0.200000
vt 1.000000 0.400000
vt 0.934161 0.400000
vt 0.879170 0.200000
vt 0.824278 0.000000
vt 0.824278 0.200000
vt 0.769286 0.000000
vt 0.769286 0.200000
vt 0.714295 0.000000
vt 0.714295 0.200000
vt 0.659402 0.000000
vt 0.659402 0.200000
vt 0.604411 0.000000
vt 0.604411 0.200000
vt 0.549518 0.000000
vt 0.549518 0.200000
vt 0.494527 0.000000
vt 0.494527 0.200000
vt 0.439634 0.000000
vt 0.549518 0.400000
vt 0.604411 0.400000
vt 0.659402 0.400000
vt 0.714295 0.400000
vt 0.769286 0.400000
vt 0.824278 0.400000
vt 0.879170 0.400000
vt 0.934161 0.600000
vt 0.879170 0.600000
vt 0.934161 0.800000
vt 0.879170 0.800000
vt 0.824278 0.600000
vt 0.769286 0.600000
vt 0.714295 0.600000
vt 0.659402 0.600000
vt 0.604411 0.600000
vt 0.549518 0.600000
vt 0.494527 0.400000
vt 0.494527 0.600000
vt 0.439634 0.400000
vt 0.439634 0.600000
vt 0.384643 0.400000
vt 0.384643 0.600000
vt 0.824278 0.800000
vt 0.769286 0.800000
vt 0.714295 0.800000
vt 0.659402 0.800000
vt 0.604411 0.800000
vt 0.549518 0.800000
vt 0.494527 0.800000
vt 0.439634 0.800000
vt 0.384643 0.800000
vt 0.329751 0.600000
vt 0.604411 1.000000
vt 0.659402 1.000000
vt 0.714295 1.000000
vt 0.769286 1.000000
vt 0.824278 1.000000
vt 0.879170 1.000000
vt 0.934161 1.000000
vt 1.000000 1.000000
vt 1.000000 0.800000
vt 1.000000 0.600000
vt 0.109884 1.000000
vt 0.164875 1.000000
vt 0.109884 0.800000
vt 0.164875 0.800000
vt 0.219768 1.000000
vt 0.219768 0.800000
vt 0.274759 1.000000
vt 0.274759 0.800000
vt 0.329751 1.000000
vt 0.329751 0.800000
vt 0.384643 1.000000
vt 0.439634 1.000000
vt 0.494527 1.000000
vt 0.549518 1.000000
vt 0.274759 0.600000
vt 0.219768 0.600000
vt 0.164875 0.600000
vt 0.109884 0.600000
vt 0.054991 0.600000
vt 0.054991 0.800000
vt 0.054991 1.000000
vt 0.329751 0.400000
vt 0.274759 0.400000
vt 0.219768 0.400000
vt 0.164875 0.400000
vt 0.109884 0.400000
vt 0.054992 0.400000
vt -0.000000 0.400000
vt -0.000000 0.200000
vt -0.000000 0.600000
vt -0.000000 0.800000
vt -0.000000 1.000000
vt 0.054992 0.200000
vt 0.109884 0.200000
vt 0.164875 0.200000
vt 0.219768 0.200000
vt 0.274759 0.200000
vt 0.329751 0.200000
vt 0.384643 0.200000
vt 0.439634 0.200000
vt 0.384643 0.000000
vt 0.329751 0.000000
vt 0.274759 0.000000
vt 0.219768 0.000000
vt 0.164875 0.000000
vt 0.109884 0.000000
vt 0.054991 0.000000
vt -0.000000 0.000000
vn -0.4152 0.8946 0.1654
vn -0.5941 0.8026 0.0538
vn -0.3401 0.8967 -0.2832
vn -0.8332 0.5512 0.0447
vn -0.6310 0.7641 -0.1342
vn -0.3539 0.9124 -0.2056
vn -0.5945 0.7142 -0.3694
vn -0.8531 0.5016 -0.1437
vn -0.9724 0.2332 0.0013
vn -0.9693 0.1788 -0.1686
vn -0.9911 -0.1132 -0.0703
vn -0.9651 -0.1623 -0.2054
vn -0.8833 -0.4407 -0.1598
vn -0.8425 -0.4776 -0.2490
vn -0.6657 -0.7019 -0.2534
vn -0.6203 -0.7275 -0.2934
vn -0.3751 -0.8634 -0.3375
vn -0.3295 -0.8834 -0.3331
vn -0.0557 -0.9136 -0.4028
vn -0.0073 -0.9314 -0.3640
vn 0.2545 -0.8585 -0.4452
vn 0.3091 -0.8705 -0.3831
vn 0.5276 -0.7126 -0.4624
vn -0.0038 -0.9577 -0.2877
vn -0.3293 -0.8938 -0.3045
vn -0.6112 -0.7226 -0.3228
vn -0.8162 -0.4669 -0.3404
vn -0.9212 -0.1587 -0.3552
vn -0.9160 0.1652 -0.3656
vn -0.8026 0.4676 -0.3705
vn -0.5660 0.6741 -0.4746
vn -0.7612 0.4391 -0.4772
vn -0.6059 0.7079 -0.3630
vn -0.8069 0.4554 -0.3763
vn -0.8721 0.1535 -0.4646
vn -0.8855 -0.1565 -0.4374
vn -0.7946 -0.4591 -0.3973
vn -0.6025 -0.7185 -0.3475
vn -0.3266 -0.8984 -0.2935
vn 0.0004 -0.9702 -0.2423
vn 0.3253 -0.9049 -0.2746
vn 0.3353 -0.9203 -0.2015
vn 0.6166 -0.7407 -0.2669
vn 0.6329 -0.7537 -0.1775
vn 0.8330 -0.4853 -0.2657
vn 0.8530 -0.4921 -0.1739
vn -0.9175 0.1525 -0.3673
vn -0.9258 -0.1726 -0.3362
vn -0.8254 -0.4874 -0.2848
vn -0.6201 -0.7539 -0.2171
vn -0.3295 -0.9336 -0.1405
vn 0.0098 -0.9978 -0.0653
vn 0.3512 -0.9363 -0.0020
vn 0.6497 -0.7591 0.0406
vn 0.8695 -0.4907 0.0571
vn 0.9667 -0.1701 -0.1913
vn -0.2705 -0.9624 0.0238
vn -0.5824 -0.8106 -0.0605
vn -0.8184 -0.5583 -0.1364
vn -0.9505 -0.2423 -0.1944
vn -0.9686 0.0967 -0.2291
vn -0.8756 0.4214 -0.2361
vn -0.6818 0.6987 -0.2167
vn -0.3349 0.9418 -0.0275
vn -0.2681 0.8455 -0.4618
vn -0.3045 0.8357 -0.4570
vn 0.2705 0.9624 -0.0238
vn 0.5824 0.8106 0.0605
vn 0.3259 0.9234 -0.2027
vn 0.6302 0.7662 -0.1255
vn 0.8184 0.5583 0.1364
vn 0.8599 0.5078 -0.0518
vn 0.9505 0.2423 0.1944
vn 0.9830 0.1833 0.0081
vn 0.9686 -0.0967 0.2290
vn 0.9854 -0.1638 0.0459
vn 0.8756 -0.4214 0.2361
vn 0.6818 -0.6987 0.2167
vn 0.4054 -0.8979 0.1716
vn 0.0746 -0.9917 0.1048
vn 0.9590 0.1695 -0.2270
vn 0.8323 0.4810 -0.2755
vn 0.6066 0.7235 -0.3294
vn 0.3159 0.8688 -0.3813
vn -0.0003 0.9051 -0.4252
vn -0.0094 0.9620 -0.2728
vn -0.0746 0.9917 -0.1048
vn 0.9472 -0.1709 -0.2712
vn 0.9453 0.1629 -0.2825
vn 0.8285 0.4740 -0.2983
vn 0.6126 0.7243 -0.3163
vn 0.3258 0.8843 -0.3344
vn 0.0037 0.9366 -0.3504
vn 0.0078 0.9863 -0.1647
vn 0.3423 0.9180 -0.2003
vn 0.6293 0.7381 -0.2433
vn 0.8331 0.4723 -0.2880
vn 0.9314 0.1567 -0.3286
vn 0.9172 -0.1692 -0.3607
vn 0.7969 -0.4685 -0.3814
vn 0.5866 -0.7103 -0.3890
vn 0.7425 -0.4912 -0.4554
vn 0.8807 -0.2112 -0.4239
vn 0.9237 0.1055 -0.3684
vn 0.8559 0.4270 -0.2916
vn 0.6742 0.7108 -0.2007
vn 0.3962 0.9118 -0.1077
vn 0.0608 0.9978 -0.0268
usemtl material_0.008
s 1
f 109/1/1 1/2/2 2/3/3
f 1/2/2 3/4/4 4/5/5
f 4/5/5 2/3/3 1/2/2
f 2/3/3 4/5/5 91/6/6
f 5/7/7 91/6/6 4/5/5
f 4/5/5 6/8/8 5/7/7
f 6/8/8 4/5/5 3/4/4
f 3/4/4 7/9/9 6/8/8
f 8/10/10 6/8/8 7/9/9
f 7/9/9 9/11/11 8/10/10
f 10/12/12 8/10/10 9/11/11
f 9/11/11 11/13/13 10/12/12
f 12/14/14 10/12/12 11/13/13
f 11/13/13 13/15/15 12/14/14
f 14/16/16 12/14/14 13/15/15
f 13/15/15 15/17/17 14/16/16
f 16/18/18 14/16/16 15/17/17
f 15/17/17 17/19/19 16/18/18
f 18/20/20 16/18/18 17/19/19
f 17/19/19 19/21/21 18/20/20
f 20/22/22 18/20/20 19/21/21
f 19/21/21 21/23/23 20/22/22
f 22/24/24 23/25/25 18/20/20
f 16/18/18 18/20/20 23/25/25
f 23/25/25 24/26/26 16/18/18
f 14/16/16 16/18/18 24/26/26
f 24/26/26 25/27/27 14/16/16
f 12/14/14 14/16/16 25/27/27
f 25/27/27 26/28/28 12/14/14
f 10/12/12 12/14/14 26/28/28
f 26/28/28 27/29/29 10/12/12
f 8/10/10 10/12/12 27/29/29
f 27/29/29 28/30/30 8/10/10
f 6/8/8 8/10/10 28/30/30
f 28/30/30 5/7/7 6/8/8
f 5/7/7 28/30/30 29/31/31
f 30/32/32 29/31/31 28/30/30
f 29/31/31 30/32/32 31/33/33
f 32/34/34 31/33/33 30/32/32
f 30/32/32 33/35/35 32/34/34
f 28/30/30 27/29/29 30/32/32
f 33/35/35 30/32/32 27/29/29
f 27/29/29 26/28/28 33/35/35
f 34/36/36 33/35/35 26/28/28
f 26/28/28 25/27/27 34/36/36
f 35/37/37 34/36/36 25/27/27
f 25/27/27 24/26/26 35/37/37
f 36/38/38 35/37/37 24/26/26
f 24/26/26 23/25/25 36/38/38
f 37/39/39 36/38/38 23/25/25
f 23/25/25 22/24/24 37/39/39
f 38/40/40 37/39/39 22/24/24
f 22/24/24 39/41/41 38/40/40
f 40/42/42 38/40/40 39/41/41
f 39/41/41 41/43/43 40/42/42
f 42/44/44 40/42/42 41/43/43
f 41/43/43 43/45/45 42/44/44
f 44/46/46 42/44/44 43/45/45
f 45/47/47 32/34/34 33/35/35
f 33/35/35 34/36/36 45/47/47
f 46/48/48 45/47/47 34/36/36
f 34/36/36 35/37/37 46/48/48
f 47/49/49 46/48/48 35/37/37
f 35/37/37 36/38/38 47/49/49
f 48/50/50 47/49/49 36/38/38
f 36/38/38 37/39/39 48/50/50
f 49/51/51 48/50/50 37/39/39
f 37/39/39 38/40/40 49/51/51
f 50/52/52 49/51/51 38/40/40
f 38/40/40 40/42/42 50/52/52
f 51/53/53 50/52/52 40/42/42
f 40/42/42 42/44/44 51/53/53
f 52/54/54 51/53/53 42/44/44
f 42/44/44 44/46/46 52/54/54
f 53/55/55 52/54/54 44/46/46
f 44/46/46 54/56/56 53/55/55
f 55/57/57 56/58/58 49/51/51
f 48/50/50 49/51/51 56/58/58
f 56/58/58 57/59/59 48/50/50
f 47/49/49 48/50/50 57/59/59
f 57/59/59 58/60/60 47/49/49
f 46/48/48 47/49/49 58/60/60
f 58/60/60 59/61/61 46/48/48
f 45/47/47 46/48/48 59/61/61
f 59/61/61 60/62/62 45/47/47
f 32/34/34 45/47/47 60/62/62
f 60/62/62 61/63/63 32/34/34
f 31/33/33 32/34/34 61/63/63
f 61/63/63 93/64/64 31/33/33
f 62/65/65 31/33/33 93/64/64
f 31/33/33 62/65/65 29/31/31
f 63/66/66 29/31/31 62/65/65
f 29/31/31 63/66/66 5/7/7
f 91/6/6 5/7/7 63/66/66
f 64/67/67 65/68/68 66/69/69
f 67/70/70 66/69/69 65/68/68
f 65/68/68 68/71/71 67/70/70
f 69/72/72 67/70/70 68/71/71
f 68/71/71 70/73/73 69/72/72
f 71/74/74 69/72/72 70/73/73
f 70/73/73 72/75/75 71/74/74
f 73/76/76 71/74/74 72/75/75
f 72/75/75 74/77/77 73/76/76
f 53/55/55 73/76/76 74/77/77
f 74/77/77 75/78/78 53/55/55
f 52/54/54 53/55/55 75/78/78
f 75/78/78 76/79/79 52/54/54
f 51/53/53 52/54/54 76/79/79
f 76/79/79 77/80/80 51/53/53
f 50/52/52 51/53/53 77/80/80
f 77/80/80 55/57/57 50/52/52
f 49/51/51 50/52/52 55/57/57
f 73/76/76 53/55/55 54/56/56
f 54/56/56 78/81/81 73/76/76
f 71/74/74 73/76/76 78/81/81
f 78/81/81 79/82/82 71/74/74
f 69/72/72 71/74/74 79/82/82
f 79/82/82 80/83/83 69/72/72
f 67/70/70 69/72/72 80/83/83
f 80/83/83 81/84/84 67/70/70
f 66/69/69 67/70/70 81/84/84
f 81/84/84 82/85/85 66/69/69
f 83/86/86 66/69/69 82/85/85
f 66/69/69 83/86/86 64/67/67
f 84/87/87 64/67/67 83/86/86
f 43/45/45 85/88/88 44/46/46
f 54/56/56 44/46/46 85/88/88
f 85/88/88 86/89/89 54/56/56
f 78/81/81 54/56/56 86/89/89
f 86/89/89 87/90/90 78/81/81
f 79/82/82 78/81/81 87/90/90
f 87/90/90 88/91/91 79/82/82
f 80/83/83 79/82/82 88/91/91
f 88/91/91 89/92/92 80/83/83
f 81/84/84 80/83/83 89/92/92
f 89/92/92 90/93/93 81/84/84
f 82/85/85 81/84/84 90/93/93
f 91/94/6 90/93/93 2/95/3
f 90/93/93 91/94/6 82/85/85
f 92/96/66 82/85/85 91/94/6
f 82/85/85 92/96/66 83/86/86
f 62/97/65 83/86/86 92/96/66
f 83/86/86 62/97/65 84/87/87
f 93/98/64 84/87/87 62/97/65
f 90/93/93 89/92/92 94/99/94
f 95/100/95 94/99/94 89/92/92
f 89/92/92 88/91/91 95/100/95
f 96/101/96 95/100/95 88/91/91
f 88/91/91 87/90/90 96/101/96
f 97/102/97 96/101/96 87/90/90
f 87/90/90 86/89/89 97/102/97
f 98/103/98 97/102/97 86/89/89
f 86/89/89 85/88/88 98/103/98
f 99/104/99 98/103/98 85/88/88
f 85/88/88 43/45/45 99/104/99
f 100/105/100 99/104/99 43/45/45
f 43/45/45 41/43/43 100/105/100
f 101/106/101 100/105/100 41/43/43
f 41/43/43 39/41/41 101/106/101
f 20/22/22 101/106/101 39/41/41
f 39/41/41 22/24/24 20/22/22
f 18/20/20 20/22/22 22/24/24
f 101/106/101 20/22/22 21/23/23
f 21/23/23 102/107/102 101/106/101
f 100/105/100 101/106/101 102/107/102
f 102/107/102 103/108/103 100/105/100
f 99/104/99 100/105/100 103/108/103
f 103/108/103 104/109/104 99/104/99
f 98/103/98 99/104/99 104/109/104
f 104/109/104 105/110/105 98/103/98
f 97/102/97 98/103/98 105/110/105
f 105/110/105 106/111/106 97/102/97
f 96/101/96 97/102/97 106/111/106
f 106/111/106 107/112/107 96/101/96
f 95/100/95 96/101/96 107/112/107
f 107/112/107 108/113/108 95/100/95
f 94/99/94 95/100/95 108/113/108
f 108/113/108 109/114/1 94/99/94
f 2/95/3 94/99/94 109/114/1
f 94/99/94 2/95/3 90/93/93
