# 3ds Max Wavefront OBJ Exporter v0.97b - (c)2007 guruware
# File Created: 07.03.2019 20:49:16

mtllib door.mtl

#
# object Box003
#

v  767.9999 384.0000 -384.0000
v  1535.9999 384.0000 -384.0000
v  1535.9999 384.0000 -512.0000
v  767.9999 384.0000 -512.0000
v  767.9999 -0.0002 -384.0000
v  1535.9999 -0.0002 -384.0000
v  1535.9999 -0.0002 -512.0000
v  767.9999 -0.0002 -512.0000
v  1535.9999 2303.9998 -447.9998
v  767.9999 2303.9998 -447.9998
v  767.9999 384.0000 -448.0000
v  1535.9999 384.0000 -448.0000
v  1535.9999 2303.9998 -511.9998
v  767.9999 2303.9998 -511.9998
v  884.1653 2304.0002 -511.9999
v  1536.0000 2304.0002 -511.9999
v  1536.0000 2304.0002 -383.9999
v  879.0457 2304.0002 -383.9999
v  -1536.0001 3072.0002 -383.9999
v  -769.0596 3072.0002 -383.9999
v  -779.6050 3072.0002 -511.9999
v  -1536.0001 3072.0002 -511.9999
v  1536.0000 3072.0002 -511.9999
v  1536.0000 3072.0002 -383.9999
v  -1536.0001 2304.0002 -511.9999
v  -1536.0001 2304.0002 -383.9999
v  -768.0001 2304.0002 -447.9999
v  -1536.0001 2304.0002 -447.9999
v  -1536.0001 384.0005 -448.0001
v  -768.0001 384.0005 -448.0001
v  -768.0001 384.0005 -512.0001
v  -768.0001 2304.0002 -511.9999
v  -1536.0001 384.0005 -512.0001
v  -1536.0001 384.0005 -384.0001
v  -768.0001 384.0005 -384.0001
v  -1536.0001 0.0002 -384.0001
v  -768.0001 0.0002 -384.0001
v  -768.0001 0.0002 -512.0001
v  -1536.0001 0.0002 -512.0001
v  -1286.2018 2955.2864 -326.1119
v  -1330.9806 2856.3018 -326.1119
v  -1325.0836 2508.3545 -326.1120
v  -995.8090 2851.4958 -326.1119
v  -1273.5458 2408.4922 -326.1120
v  -1083.4855 2404.4175 -326.1119
v  -992.3920 2503.7542 -326.1120
v  -1041.2408 2939.7637 -326.1119
v  -607.0890 2892.5554 -326.1119
v  -665.5262 2834.2729 -326.1119
v  -692.3080 2569.7627 -326.1118
v  -370.6774 2797.1550 -326.1119
v  -620.8654 2396.2402 -326.1118
v  -430.6495 2409.8174 -326.1118
v  -369.6061 2466.2646 -326.1118
v  -485.3075 2888.8965 -326.1119
v  -82.0560 2541.1621 -326.1118
v  7.7173 2392.4336 -326.1119
v  112.3079 2391.7832 -326.1119
v  199.4055 2530.7544 -326.1119
v  159.5206 2852.2012 -326.1118
v  88.9781 2908.8547 -326.1118
v  19.0541 2867.4741 -326.1118
v  -73.9684 2768.4092 -326.1118
v  528.9352 2914.7693 -326.1119
v  409.5160 2834.6709 -326.1120
v  431.5138 2522.0933 -326.1120
v  683.4342 2379.0938 -326.1119
v  515.3236 2396.0950 -326.1119
v  784.5853 2497.2004 -326.1119
v  798.2395 2800.1865 -326.1119
v  720.0043 2902.5173 -326.1119
v  1324.2885 2872.4338 -326.1119
v  1105.0117 2881.2454 -326.1119
v  1043.4160 2812.3086 -326.1119
v  1175.7795 2401.5637 -326.1120
v  1036.6892 2559.9146 -326.1120
v  1363.3829 2464.4236 -326.1120
v  1386.0415 2784.1794 -326.1120
v  -1273.5458 2408.4922 -384.0000
v  -1325.0836 2508.3545 -384.0000
v  -1330.9806 2856.3018 -383.9999
v  -1286.2018 2955.2864 -383.9999
v  -212.5309 3072.0002 -383.9999
v  -213.1083 3072.0005 -511.9999
v  -748.5142 2304.0002 -383.9999
v  -734.8481 2304.0002 -511.9999
v  -200.3810 2304.0002 -511.9999
v  -180.3735 2304.0002 -383.9999
v  321.3038 2304.0002 -511.9999
v  331.3683 2304.0002 -383.9999
v  266.6803 3072.0005 -383.9999
v  279.7922 3072.0005 -511.9999
v  878.4851 3072.0002 -383.9999
v  899.7993 3072.0005 -511.9999
v  -1041.2408 2939.7637 -383.9999
v  -995.8090 2851.4958 -383.9999
v  -992.3920 2503.7542 -384.0000
v  -1083.4855 2404.4175 -383.9999
v  -665.5262 2834.2729 -383.9998
v  -607.0890 2892.5554 -383.9998
v  -485.3075 2888.8965 -383.9998
v  -370.6774 2797.1550 -383.9998
v  -369.6061 2466.2646 -383.9998
v  -430.6495 2409.8174 -383.9998
v  -620.8654 2396.2402 -383.9998
v  -692.3080 2569.7627 -383.9998
v  -73.9684 2768.4092 -383.9998
v  19.0541 2867.4741 -383.9998
v  88.9781 2908.8547 -383.9998
v  159.5206 2852.2012 -383.9998
v  -82.0560 2541.1621 -383.9998
v  7.7173 2392.4336 -383.9998
v  112.3079 2391.7832 -383.9998
v  199.4055 2530.7544 -383.9998
v  409.5160 2834.6709 -384.0000
v  431.5138 2522.0933 -383.9999
v  528.9352 2914.7693 -383.9999
v  720.0043 2902.5173 -383.9999
v  798.2395 2800.1865 -383.9999
v  784.5853 2497.2004 -383.9999
v  683.4342 2379.0938 -383.9999
v  515.3236 2396.0950 -383.9999
v  1105.0117 2881.2454 -383.9999
v  1324.2885 2872.4338 -383.9999
v  1043.4160 2812.3086 -383.9999
v  1036.6892 2559.9146 -383.9999
v  1175.7795 2401.5637 -383.9999
v  1363.3829 2464.4236 -384.0000
v  1386.0415 2784.1794 -383.9999
v  1535.9999 -384.0006 -384.0000
v  1535.9999 -384.0006 -512.0000
v  1535.9999 -0.0003 -512.0000
v  1535.9999 -0.0003 -384.0000
v  767.9999 0.0007 -384.0000
v  767.9999 -383.9995 -384.0000
v  1535.9999 -383.9995 -384.0000
v  1535.9999 0.0007 -384.0000
v  767.9999 0.0007 -512.0000
v  767.9999 -383.9995 -512.0000
v  -1536.0001 -384.0000 -384.0001
v  -768.0001 -384.0000 -384.0001
v  -768.0001 -384.0000 -512.0001
v  -1536.0001 -384.0000 -512.0001
# 143 vertices

vn -0.5774 0.5774 0.5774
vn 0.5774 0.5774 0.5774
vn 0.7071 0.7071 -0.0000
vn -0.7071 0.7071 -0.0000
vn -0.7071 0.0000 0.7071
vn 0.7071 0.0000 0.7071
vn 1.0000 0.0000 -0.0000
vn -1.0000 0.0000 -0.0000
vn 0.7071 -0.0000 0.7071
vn -0.7071 -0.0000 0.7071
vn 0.0000 -1.0000 -0.0000
vn 0.7071 -0.7071 -0.0000
vn 0.5774 -0.5774 0.5774
vn 0.0000 -0.7071 0.7071
vn -0.0000 0.7071 0.7071
vn -0.0000 1.0000 0.0000
vn -0.7071 -0.7071 -0.0000
vn -0.5774 -0.5774 0.5774
vn -0.4127 0.6864 0.5988
vn -0.7349 0.1520 0.6610
vn -0.7292 -0.1836 0.6593
vn 0.7304 0.1808 0.6586
vn -0.4203 -0.6735 0.6081
vn 0.3066 -0.7179 0.6250
vn 0.7228 -0.2772 0.6330
vn 0.4333 0.6624 0.6111
vn -0.2865 0.7236 0.6279
vn -0.6949 0.3304 0.6387
vn -0.7467 -0.1089 0.6562
vn 0.7055 0.3403 0.6217
vn -0.4228 -0.6827 0.5960
vn 0.3055 -0.7054 0.6396
vn 0.7144 -0.3110 0.6268
vn 0.2647 0.7194 0.6422
vn -0.7371 -0.1912 0.6482
vn -0.3909 -0.6876 0.6119
vn 0.3807 -0.6930 0.6122
vn 0.7511 -0.1665 0.6389
vn 0.6772 0.3777 0.6315
vn 0.0569 0.7990 0.5987
vn -0.4604 0.5745 0.6768
vn -0.7124 0.2968 0.6359
vn -0.1998 0.7408 0.6414
vn -0.7120 0.3482 0.6097
vn -0.7161 -0.2442 0.6539
vn 0.2927 -0.7311 0.6162
vn -0.4040 -0.6704 0.6224
vn 0.7140 -0.2824 0.6407
vn 0.7350 0.2305 0.6376
vn 0.3682 0.6886 0.6247
vn 0.3765 0.6888 0.6195
vn -0.3053 0.7206 0.6225
vn -0.7163 0.2844 0.6372
vn -0.2080 -0.7716 0.6012
vn -0.7277 -0.2632 0.6334
vn 0.6319 -0.4895 0.6010
vn 0.7413 0.2051 0.6391
vn -0.2856 -0.4577 0.8420
vn -0.6278 -0.1581 0.7621
vn -0.6366 0.1317 0.7599
vn -0.2632 0.4377 0.8597
vn -0.0000 -0.7071 0.7071
vn 0.0000 0.7071 0.7071
vn 0.0000 1.0000 -0.0000
vn 0.0000 1.0000 0.0000
vn 0.2999 0.4584 0.8366
vn 0.6276 0.1553 0.7629
vn 0.5605 -0.2149 0.7998
vn 0.2289 -0.5359 0.8127
vn -0.5523 0.2626 0.7912
vn -0.2169 0.5479 0.8080
vn 0.2135 0.5804 0.7859
vn 0.5177 0.2498 0.8183
vn 0.5380 -0.2342 0.8097
vn 0.2438 -0.5629 0.7898
vn -0.2640 -0.4263 0.8652
vn -0.6359 -0.0927 0.7662
vn -0.5595 0.2331 0.7954
vn -0.4205 0.5247 0.7402
vn 0.0363 0.5091 0.8600
vn 0.5214 0.2908 0.8023
vn -0.6090 -0.1579 0.7773
vn -0.2718 -0.4780 0.8353
vn 0.2652 -0.4827 0.8347
vn 0.5975 -0.1325 0.7908
vn -0.4887 0.2391 0.8391
vn -0.6047 -0.2062 0.7693
vn -0.1606 0.5955 0.7871
vn 0.2744 0.5132 0.8132
vn 0.5817 0.1824 0.7927
vn 0.5722 -0.2263 0.7883
vn 0.2086 -0.5211 0.8276
vn -0.2976 -0.4939 0.8170
vn -0.2250 0.5312 0.8169
vn 0.2732 0.4998 0.8219
vn -0.5658 0.2246 0.7934
vn -0.5652 -0.2044 0.7992
vn -0.1350 -0.5006 0.8551
vn 0.4093 -0.3171 0.8555
vn 0.5902 0.1633 0.7906
vn 0.0000 0.0000 1.0000
# 101 vertex normals

vt -0.2031 1.8945 0.0000
vt -0.2031 1.6484 0.0000
vt -0.1602 1.6484 0.0000
vt -0.1602 1.8945 0.0000
vt 0.7148 0.0078 0.0000
vt 0.9570 0.0078 0.0000
vt 0.9570 0.1641 0.0000
vt 0.7148 0.1641 0.0000
vt 1.2422 0.0039 0.0000
vt 1.2813 0.0039 0.0000
vt 1.2813 0.1641 0.0000
vt 1.2422 0.1641 0.0000
vt 0.9570 0.0039 0.0000
vt 1.0000 0.0039 0.0000
vt 1.0000 0.1641 0.0000
vt 0.9570 0.7617 0.0000
vt 0.7148 0.7617 0.0000
vt 1.2813 0.7617 0.0000
vt 1.2617 0.7617 0.0000
vt 1.2617 0.1641 0.0000
vt 0.9805 0.7617 0.0000
vt 0.9805 0.1641 0.0000
vt 0.0430 1.8590 0.0000
vt 0.0430 1.6484 0.0000
vt 0.0859 1.6484 0.0000
vt 0.0859 1.8606 0.0000
vt -0.2031 2.6406 0.0000
vt -0.2031 2.3929 0.0000
vt -0.1602 2.3963 0.0000
vt -0.1602 2.6406 0.0000
vt 1.2422 0.7617 0.0000
vt 1.2813 1.0000 0.0000
vt 1.2422 1.0000 0.0000
vt 1.0000 0.7617 0.0000
vt 1.0000 1.0000 0.0000
vt 0.9570 1.0000 0.0000
vt 0.2383 0.7617 0.0000
vt 0.0000 0.7617 0.0000
vt 0.0000 0.1641 0.0000
vt 0.2383 0.1641 0.0000
vt -0.2031 2.3906 0.0000
vt -0.1602 2.3906 0.0000
vt 0.0000 0.0078 0.0000
vt 0.2383 0.0078 0.0000
vt 0.0781 0.9609 0.0000
vt 0.0625 0.9336 0.0000
vt 0.0664 0.8242 0.0000
vt 0.1680 0.9297 0.0000
vt 0.0820 0.7930 0.0000
vt 0.1406 0.7891 0.0000
vt 0.1680 0.8242 0.0000
vt 0.1523 0.9570 0.0000
vt 0.2891 0.9453 0.0000
vt 0.2734 0.9258 0.0000
vt 0.2617 0.8438 0.0000
vt 0.3633 0.9141 0.0000
vt 0.2852 0.7891 0.0000
vt 0.3438 0.7930 0.0000
vt 0.3633 0.8125 0.0000
vt 0.3281 0.9453 0.0000
vt 0.4531 0.8359 0.0000
vt 0.4805 0.7852 0.0000
vt 0.5117 0.7852 0.0000
vt 0.5391 0.8320 0.0000
vt 0.5273 0.9336 0.0000
vt 0.5039 0.9492 0.0000
vt 0.4844 0.9375 0.0000
vt 0.4570 0.9063 0.0000
vt 0.6445 0.9531 0.0000
vt 0.6055 0.9258 0.0000
vt 0.6133 0.8281 0.0000
vt 0.6914 0.7813 0.0000
vt 0.6406 0.7891 0.0000
vt 0.7227 0.8203 0.0000
vt 0.7266 0.9141 0.0000
vt 0.7031 0.9492 0.0000
vt 0.8906 0.9375 0.0000
vt 0.8242 0.9414 0.0000
vt 0.8008 0.9180 0.0000
vt 0.8438 0.7891 0.0000
vt 0.8008 0.8398 0.0000
vt 0.9023 0.8086 0.0000
vt 0.9102 0.9102 0.0000
vt 0.0000 1.0000 0.0000
vt -0.2031 2.2132 0.0000
vt -0.1602 2.2134 0.0000
vt 0.0859 2.3863 0.0000
vt 0.0859 2.6406 0.0000
vt 0.0430 2.6406 0.0000
vt 0.0430 2.3819 0.0000
vt 0.0430 2.2092 0.0000
vt 0.0859 2.2028 0.0000
vt 0.0430 2.0408 0.0000
vt 0.0859 2.0375 0.0000
vt -0.2031 2.0584 0.0000
vt -0.1602 2.0542 0.0000
vt -0.2031 1.8608 0.0000
vt -0.1602 1.8539 0.0000
vt 0.2383 1.0000 0.0000
vt 0.2461 0.7617 0.0000
vt 0.4102 1.0000 0.0000
vt 0.4219 0.7617 0.0000
vt 0.5625 1.0000 0.0000
vt 0.5781 0.7617 0.0000
vt 0.7539 1.0000 0.0000
vt 0.7539 0.7617 0.0000
vt 0.9531 1.0000 0.0000
vt 0.9531 0.7617 0.0000
# 108 texture coords

o Box003
g Box003
usemtl default
s 4
f 1/1/1 2/2/2 3/3/3 4/4/4 
s 8
f 5/5/5 6/6/6 2/7/2 1/8/1 
s 16
f 6/9/6 7/10/7 3/11/3 2/12/2 
s 64
f 8/13/8 5/14/5 1/15/1 4/7/4 
s 8
f 9/16/9 10/17/10 11/8/10 12/7/9 
s 16
f 13/18/7 9/19/9 12/20/9 3/11/7 
s 64
f 10/21/10 14/16/8 4/7/8 11/22/10 
s 2
f 15/23/11 16/24/12 17/25/13 18/26/14 
s 4
f 19/27/1 20/28/15 21/29/16 22/30/4 
s 16
f 17/31/13 16/18/12 23/32/3 24/33/2 
s 64
f 25/16/17 26/34/18 19/35/1 22/36/4 
s 8
f 27/37/9 28/38/10 29/39/10 30/40/9 
s 16
f 30/20/9 31/11/7 32/18/7 27/19/9 
s 64
f 28/21/10 25/16/8 33/7/8 29/22/10 
s 4
f 34/27/1 35/41/2 31/42/3 33/30/4 
s 8
f 36/43/5 37/44/6 35/40/2 34/39/1 
s 16
f 37/9/6 38/10/7 31/11/3 35/12/2 
s 64
f 39/13/8 36/14/5 34/15/1 33/7/4 
s 8
f 40/45/19 41/46/20 42/47/21 43/48/22 
f 44/49/23 45/50/24 46/51/25 42/47/21 
f 42/47/21 46/51/25 43/48/22 
f 40/45/19 43/48/22 47/52/26 
f 48/53/27 49/54/28 50/55/29 51/56/30 
f 52/57/31 53/58/32 54/59/33 50/55/29 
f 50/55/29 54/59/33 51/56/30 
f 48/53/27 51/56/30 55/60/34 
f 56/61/35 57/62/36 58/63/37 59/64/38 
f 60/65/39 61/66/40 62/67/41 63/68/42 
f 59/64/38 60/65/39 63/68/42 56/61/35 
f 64/69/43 65/70/44 66/71/45 67/72/46 
f 66/71/45 68/73/47 67/72/46 
f 67/72/46 69/74/48 70/75/49 71/76/50 
f 64/69/43 67/72/46 71/76/50 
f 72/77/51 73/78/52 74/79/53 75/80/54 
f 74/79/53 76/81/55 75/80/54 
f 75/80/54 77/82/56 78/83/57 72/77/51 
s off
f 26/38/18 79/49/58 80/47/59 
f 26/38/18 80/47/59 81/46/60 19/84/1 
f 81/46/60 82/45/61 19/84/1 
s 4
f 20/28/15 83/85/15 84/86/16 21/29/16 
s 2
f 85/87/62 26/88/18 25/89/17 86/90/11 
f 85/87/62 86/90/11 87/91/11 88/92/14 
f 88/92/14 87/91/11 89/93/11 90/94/14 
f 90/94/14 89/93/11 15/23/11 18/26/14 
s 4
f 91/95/63 92/96/64 84/86/16 83/85/15 
f 93/97/63 94/98/65 92/96/64 91/95/63 
f 24/2/2 23/3/3 94/98/65 93/97/63 
s off
f 19/84/1 82/45/61 95/52/66 20/99/15 
f 95/52/66 96/48/67 20/99/15 
f 85/100/62 20/99/15 96/48/67 97/51/68 
f 98/50/69 85/100/62 97/51/68 
f 98/50/69 79/49/58 26/38/18 85/100/62 
f 20/99/15 99/54/70 100/53/71 
f 20/99/15 100/53/71 101/60/72 83/101/15 
f 83/101/15 101/60/72 102/56/73 
f 102/56/73 103/59/74 88/102/14 83/101/15 
f 104/58/75 88/102/14 103/59/74 
f 104/58/75 105/57/76 85/100/62 88/102/14 
f 106/55/77 85/100/62 105/57/76 
f 106/55/77 99/54/70 20/99/15 85/100/62 
f 83/101/15 107/68/78 108/67/79 
f 83/101/15 108/67/79 109/66/80 
f 83/101/15 109/66/80 91/103/63 
f 91/103/63 109/66/80 110/65/81 
f 88/102/14 111/61/82 107/68/78 83/101/15 
f 88/102/14 112/62/83 111/61/82 
f 88/102/14 90/104/14 113/63/84 112/62/83 
f 113/63/84 90/104/14 114/64/85 
f 114/64/85 90/104/14 91/103/63 110/65/81 
f 115/70/86 91/103/63 90/104/14 116/71/87 
f 91/103/63 115/70/86 117/69/88 
f 117/69/88 118/76/89 93/105/63 91/103/63 
f 93/105/63 118/76/89 119/75/90 
f 119/75/90 120/74/91 18/106/14 93/105/63 
f 120/74/91 121/72/92 18/106/14 
f 90/104/14 18/106/14 121/72/92 122/73/93 
f 116/71/87 90/104/14 122/73/93 
f 123/78/94 124/77/95 24/107/2 93/105/63 
f 125/79/96 123/78/94 93/105/63 
f 126/81/97 125/79/96 93/105/63 18/106/14 
f 18/106/14 127/80/98 126/81/97 
f 18/106/14 17/108/13 127/80/98 
f 127/80/98 17/108/13 128/82/99 
f 17/108/13 24/107/2 129/83/100 128/82/99 
f 24/107/2 124/77/95 129/83/100 
f 45/50/24 44/49/23 79/49/58 98/50/69 
f 46/51/25 45/50/24 98/50/69 97/51/68 
f 47/52/26 43/48/22 96/48/67 95/52/66 
f 40/45/19 47/52/26 95/52/66 82/45/61 
f 41/46/20 40/45/19 82/45/61 81/46/60 
f 42/47/21 41/46/20 81/46/60 80/47/59 
f 43/48/22 46/51/25 97/51/68 96/48/67 
f 44/49/23 42/47/21 80/47/59 79/49/58 
f 53/58/32 52/57/31 105/57/76 104/58/75 
f 54/59/33 53/58/32 104/58/75 103/59/74 
f 55/60/34 51/56/30 102/56/73 101/60/72 
f 48/53/27 55/60/34 101/60/72 100/53/71 
f 49/54/28 48/53/27 100/53/71 99/54/70 
f 50/55/29 49/54/28 99/54/70 106/55/77 
f 51/56/30 54/59/33 103/59/74 102/56/73 
f 52/57/31 50/55/29 106/55/77 105/57/76 
f 61/66/40 60/65/39 110/65/81 109/66/80 
f 62/67/41 61/66/40 109/66/80 108/67/79 
f 63/68/42 62/67/41 108/67/79 107/68/78 
f 57/62/36 56/61/35 111/61/82 112/62/83 
f 58/63/37 57/62/36 112/62/83 113/63/84 
f 59/64/38 58/63/37 113/63/84 114/64/85 
f 56/61/35 63/68/42 107/68/78 111/61/82 
f 60/65/39 59/64/38 114/64/85 110/65/81 
f 69/74/48 67/72/46 121/72/92 120/74/91 
f 70/75/49 69/74/48 120/74/91 119/75/90 
f 71/76/50 70/75/49 119/75/90 118/76/89 
f 64/69/43 71/76/50 118/76/89 117/69/88 
f 65/70/44 64/69/43 117/69/88 115/70/86 
f 66/71/45 65/70/44 115/70/86 116/71/87 
f 68/73/47 66/71/45 116/71/87 122/73/93 
f 67/72/46 68/73/47 122/73/93 121/72/92 
f 77/82/56 75/80/54 127/80/98 128/82/99 
f 78/83/57 77/82/56 128/82/99 129/83/100 
f 72/77/51 78/83/57 129/83/100 124/77/95 
f 73/78/52 72/77/51 124/77/95 123/78/94 
f 74/79/53 73/78/52 123/78/94 125/79/96 
f 76/81/55 74/79/53 125/79/96 126/81/97 
f 75/80/54 76/81/55 126/81/97 127/80/98 
s 16
f 130/9/7 131/10/7 132/11/7 133/12/7 
s 8
f 134/5/5 135/8/5 136/7/101 137/6/101 
s 64
f 138/13/8 139/7/8 135/15/5 134/14/5 
s 8
f 36/43/5 140/39/5 141/40/6 37/44/6 
s 16
f 37/9/6 141/12/6 142/11/7 38/10/7 
s 64
f 39/13/8 143/7/8 140/15/5 36/14/5 
# 100 polygons - 30 triangles

