# 3ds Max Wavefront OBJ Exporter v0.97b - (c)2007 guruware
# File Created: 05.03.2019 23:47:08

mtllib window.mtl

#
# object Box001
#

v  -512.0000 0.0000 512.0000
v  -288.6417 1024.0000 512.0000
v  -512.0000 1024.0000 512.0000
v  512.0000 0.0000 -512.0000
v  288.6417 1024.0000 -512.0000
v  512.0000 1024.0000 -512.0000
v  512.0000 0.0000 512.0000
v  512.0000 1024.0000 512.0000
v  288.6417 1024.0000 512.0000
v  -512.0000 0.0000 -512.0000
v  -512.0000 1024.0000 -512.0000
v  -288.6418 1024.0000 -512.0000
v  -288.6417 1024.0000 -512.0000
# 13 vertices

vn 0.0000 0.9908 0.1355
vn 0.0000 -0.7570 0.6535
vn 0.0000 0.0000 1.0000
vn 0.0000 0.9908 -0.1355
vn 0.0000 -0.7570 -0.6535
vn 0.0000 0.0000 -1.0000
vn -0.9770 -0.2131 -0.0000
vn 0.9770 -0.2131 -0.0000
# 8 vertex normals

vt 0.0000 0.0000 0.0000
vt 0.1094 1.0000 0.0000
vt 0.0000 1.0000 0.0000
vt 0.5000 -0.0000 0.0000
vt 0.5000 1.0000 0.0000
vt 0.3867 1.0000 0.0000
vt 1.0000 1.0000 0.0000
vt 1.0000 0.0000 0.0000
vt 1.0000 -0.0000 0.0000
# 9 texture coords

o Box001
g Box001
usemtl default
s 8
f 1/1/1 2/2/2 3/3/3 
s 32
f 4/1/4 5/2/5 6/3/6 
s 8
f 7/4/1 8/5/3 9/6/2 
s 32
f 10/4/4 11/5/6 12/6/5 
s 16
f 7/4/7 9/5/7 5/7/7 4/8/7 
f 1/4/8 10/8/8 13/7/8 2/5/8 
s off
f 1/4/1 7/9/1 4/7/4 10/5/4 
f 12/8/5 5/7/5 9/5/2 2/4/2 
# 4 polygons - 4 triangles

