# 3ds Max Wavefront OBJ Exporter v0.97b - (c)2007 guruware
# File Created: 01.06.2019 22:26:26

mtllib gate-top.mtl

#
# object Object002
#

v  4096.0005 3968.0005 319.9991
v  4096.0005 3968.0005 191.9991
v  4096.0005 4096.0005 191.9991
v  4096.0005 4096.0005 319.9991
v  3907.3381 4096.0005 191.9991
v  3907.3381 4096.0005 319.9991
v  3907.3381 3968.0005 319.9991
v  3907.3381 3968.0005 191.9991
v  323.3386 3968.0002 319.9991
v  323.3386 4096.0000 319.9991
v  195.3386 4096.0000 319.9991
v  195.3385 3968.0002 319.9991
v  323.3386 3968.0002 191.9991
v  195.3385 3968.0002 191.9991
v  323.3386 4096.0000 191.9991
v  195.3386 4096.0000 191.9991
v  707.3384 3968.0002 319.9991
v  707.3384 4096.0000 319.9991
v  707.3384 3968.0002 191.9991
v  707.3384 4096.0000 191.9991
v  835.3384 3968.0002 319.9991
v  835.3384 4096.0005 319.9991
v  835.3384 3968.0002 191.9991
v  835.3384 4096.0005 191.9991
v  1219.3384 3968.0002 319.9991
v  1219.3384 4096.0005 319.9991
v  1219.3384 3968.0002 191.9991
v  1219.3384 4096.0005 191.9991
v  1347.3384 3968.0002 319.9991
v  1347.3384 4096.0005 319.9991
v  1347.3384 3968.0002 191.9991
v  1347.3384 4096.0005 191.9991
v  1731.3386 3968.0002 319.9991
v  1731.3386 4096.0005 319.9991
v  1731.3386 3968.0002 191.9991
v  1731.3386 4096.0005 191.9991
v  1859.3386 3968.0002 319.9991
v  1859.3386 4096.0005 319.9991
v  1859.3386 3968.0002 191.9991
v  1859.3386 4096.0005 191.9991
v  2243.3384 3968.0002 319.9991
v  2243.3384 4096.0005 319.9991
v  2243.3384 3968.0002 191.9991
v  2243.3384 4096.0005 191.9991
v  2371.3384 3968.0002 319.9991
v  2371.3384 4096.0005 319.9991
v  2371.3384 3968.0002 191.9991
v  2371.3384 4096.0005 191.9991
v  2755.3381 3968.0005 319.9991
v  2755.3381 4096.0005 319.9991
v  2755.3381 3968.0005 191.9991
v  2755.3381 4096.0005 191.9991
v  2883.3381 3968.0005 319.9991
v  2883.3381 4096.0005 319.9991
v  2883.3381 3968.0005 191.9991
v  2883.3381 4096.0005 191.9991
v  3267.3384 3968.0005 319.9991
v  3267.3384 4096.0005 319.9991
v  3267.3384 3968.0005 191.9991
v  3267.3384 4096.0005 191.9991
v  3395.3384 3968.0005 319.9991
v  3395.3384 4096.0005 319.9991
v  3395.3384 3968.0005 191.9991
v  3395.3384 4096.0005 191.9991
v  3779.3381 3968.0005 319.9991
v  3779.3381 4096.0005 319.9991
v  3779.3381 3968.0005 191.9991
v  3779.3381 4096.0005 191.9991
v  4096.0005 3008.0002 319.9992
v  4096.0005 3008.0002 191.9992
v  4096.0005 3136.0002 191.9992
v  4096.0005 3136.0002 319.9992
v  3907.3381 3136.0002 191.9992
v  3907.3381 3136.0002 319.9992
v  3907.3381 3008.0002 319.9992
v  3907.3381 3008.0002 191.9992
v  323.3386 3008.0000 319.9992
v  323.3385 3136.0000 319.9992
v  195.3385 3136.0000 319.9992
v  195.3385 3008.0000 319.9992
v  323.3386 3008.0000 191.9992
v  195.3385 3008.0000 191.9992
v  323.3385 3136.0000 191.9992
v  195.3385 3136.0000 191.9992
v  707.3384 3008.0000 319.9992
v  707.3384 3136.0000 319.9992
v  707.3384 3008.0000 191.9992
v  707.3384 3136.0000 191.9992
v  835.3384 3008.0000 319.9992
v  835.3384 3136.0000 319.9992
v  835.3384 3008.0000 191.9992
v  835.3384 3136.0000 191.9992
v  1219.3385 3008.0000 319.9992
v  1219.3385 3136.0000 319.9992
v  1219.3385 3008.0000 191.9992
v  1219.3385 3136.0000 191.9992
v  1347.3385 3008.0000 319.9992
v  1347.3385 3136.0000 319.9992
v  1347.3385 3008.0000 191.9992
v  1347.3385 3136.0000 191.9992
v  1731.3387 3008.0000 319.9992
v  1731.3387 3136.0000 319.9992
v  1731.3387 3008.0000 191.9992
v  1731.3387 3136.0000 191.9992
v  1859.3387 3008.0000 319.9992
v  1859.3387 3136.0000 319.9992
v  1859.3387 3008.0000 191.9992
v  1859.3387 3136.0000 191.9992
v  2243.3384 3008.0000 319.9992
v  2243.3384 3136.0000 319.9992
v  2243.3384 3008.0000 191.9992
v  2243.3384 3136.0000 191.9992
v  2371.3384 3008.0000 319.9992
v  2371.3384 3136.0000 319.9992
v  2371.3384 3008.0000 191.9992
v  2371.3384 3136.0000 191.9992
v  2755.3381 3008.0002 319.9992
v  2755.3381 3136.0000 319.9992
v  2755.3381 3008.0002 191.9992
v  2755.3381 3136.0000 191.9992
v  2883.3381 3008.0002 319.9992
v  2883.3381 3136.0000 319.9992
v  2883.3381 3008.0002 191.9992
v  2883.3381 3136.0002 191.9992
v  3267.3384 3008.0002 319.9992
v  3267.3384 3136.0000 319.9992
v  3267.3384 3008.0002 191.9992
v  3267.3384 3136.0002 191.9992
v  3395.3384 3008.0002 319.9992
v  3395.3384 3136.0000 319.9992
v  3395.3384 3008.0002 191.9992
v  3395.3384 3136.0002 191.9992
v  3779.3381 3008.0002 319.9992
v  3779.3381 3136.0002 319.9992
v  3779.3381 3008.0002 191.9992
v  3779.3381 3136.0002 191.9992
v  4096.0005 3520.0007 319.9991
v  4096.0005 3520.0007 191.9991
v  4096.0005 3648.0007 191.9991
v  4096.0005 3648.0007 319.9991
v  3907.3381 3648.0007 191.9991
v  3907.3381 3648.0007 319.9991
v  3907.3381 3520.0007 319.9991
v  3907.3381 3520.0007 191.9991
v  323.3385 3520.0000 319.9991
v  323.3386 3648.0000 319.9991
v  195.3385 3648.0000 319.9991
v  195.3386 3520.0000 319.9991
v  323.3385 3520.0000 191.9991
v  195.3386 3520.0000 191.9991
v  323.3386 3648.0000 191.9991
v  195.3385 3648.0000 191.9991
v  707.3385 3520.0000 319.9991
v  707.3384 3648.0000 319.9991
v  707.3385 3520.0000 191.9991
v  707.3384 3648.0000 191.9991
v  835.3385 3520.0000 319.9991
v  835.3384 3648.0000 319.9991
v  835.3385 3520.0000 191.9991
v  835.3384 3648.0000 191.9991
v  1219.3384 3520.0002 319.9991
v  1219.3384 3648.0002 319.9991
v  1219.3384 3520.0002 191.9991
v  1219.3384 3648.0002 191.9991
v  1347.3384 3520.0002 319.9991
v  1347.3384 3648.0002 319.9991
v  1347.3384 3520.0002 191.9991
v  1347.3384 3648.0002 191.9991
v  1731.3386 3520.0002 319.9991
v  1731.3386 3648.0002 319.9991
v  1731.3386 3520.0002 191.9991
v  1731.3386 3648.0002 191.9991
v  1859.3386 3520.0002 319.9991
v  1859.3386 3648.0002 319.9991
v  1859.3386 3520.0002 191.9991
v  1859.3386 3648.0002 191.9991
v  2243.3384 3520.0005 319.9991
v  2243.3384 3648.0005 319.9991
v  2243.3384 3520.0005 191.9991
v  2243.3384 3648.0005 191.9991
v  2371.3384 3520.0005 319.9991
v  2371.3384 3648.0005 319.9991
v  2371.3384 3520.0005 191.9991
v  2371.3384 3648.0005 191.9991
v  2755.3381 3520.0005 319.9991
v  2755.3381 3648.0005 319.9991
v  2755.3381 3520.0005 191.9991
v  2755.3381 3648.0005 191.9991
v  2883.3381 3520.0005 319.9991
v  2883.3381 3648.0005 319.9991
v  2883.3381 3520.0005 191.9991
v  2883.3381 3648.0005 191.9991
v  3267.3384 3520.0005 319.9991
v  3267.3384 3648.0005 319.9991
v  3267.3384 3520.0005 191.9991
v  3267.3384 3648.0005 191.9991
v  3395.3384 3520.0005 319.9991
v  3395.3384 3648.0005 319.9991
v  3395.3384 3520.0005 191.9991
v  3395.3384 3648.0005 191.9991
v  3779.3381 3520.0007 319.9991
v  3779.3381 3648.0007 319.9991
v  3779.3381 3520.0007 191.9991
v  3779.3381 3648.0007 191.9991
v  323.3379 3519.9995 319.9991
v  195.3379 3519.9995 319.9991
v  195.3379 3135.9995 319.9992
v  323.3379 3135.9995 319.9992
v  323.3372 3519.9990 191.9991
v  323.3372 3135.9990 191.9992
v  195.3373 3519.9990 191.9991
v  195.3372 3135.9990 191.9992
v  323.3379 3967.9998 319.9991
v  195.3379 3967.9998 319.9991
v  195.3379 3647.9995 319.9991
v  323.3379 3647.9995 319.9991
v  323.3373 3967.9993 191.9991
v  323.3373 3647.9990 191.9991
v  195.3373 3967.9993 191.9991
v  195.3373 3647.9990 191.9991
v  835.3379 3519.9995 319.9991
v  707.3379 3519.9995 319.9991
v  707.3379 3135.9995 319.9992
v  835.3379 3135.9995 319.9992
v  835.3373 3519.9990 191.9991
v  835.3373 3135.9990 191.9992
v  707.3373 3519.9990 191.9991
v  707.3373 3135.9990 191.9992
v  835.3378 3967.9998 319.9991
v  707.3378 3967.9998 319.9991
v  707.3378 3647.9995 319.9991
v  835.3378 3647.9995 319.9991
v  835.3372 3967.9993 191.9991
v  835.3372 3647.9990 191.9991
v  707.3372 3967.9993 191.9991
v  707.3372 3647.9990 191.9991
v  1347.3378 3519.9995 319.9991
v  1219.3378 3519.9995 319.9991
v  1219.3379 3135.9995 319.9992
v  1347.3379 3135.9995 319.9992
v  1347.3372 3519.9990 191.9991
v  1347.3372 3135.9990 191.9992
v  1219.3372 3519.9990 191.9991
v  1219.3372 3135.9990 191.9992
v  1347.3378 3967.9998 319.9991
v  1219.3378 3967.9998 319.9991
v  1219.3378 3647.9995 319.9991
v  1347.3378 3647.9995 319.9991
v  1347.3372 3967.9993 191.9991
v  1347.3372 3647.9990 191.9991
v  1219.3372 3967.9993 191.9991
v  1219.3372 3647.9990 191.9991
v  1859.3380 3519.9995 319.9991
v  1731.3380 3519.9995 319.9991
v  1731.3381 3135.9995 319.9992
v  1859.3381 3135.9995 319.9992
v  1859.3374 3519.9990 191.9991
v  1859.3374 3135.9988 191.9992
v  1731.3374 3519.9990 191.9991
v  1731.3374 3135.9988 191.9992
v  1859.3380 3967.9998 319.9991
v  1731.3380 3967.9998 319.9991
v  1731.3380 3647.9998 319.9991
v  1859.3380 3647.9998 319.9991
v  1859.3374 3967.9990 191.9991
v  1859.3374 3647.9990 191.9991
v  1731.3374 3967.9990 191.9991
v  1731.3374 3647.9990 191.9991
v  2371.3379 3519.9998 319.9991
v  2243.3379 3519.9998 319.9991
v  2243.3379 3135.9995 319.9992
v  2371.3379 3135.9995 319.9992
v  2371.3372 3519.9990 191.9992
v  2371.3372 3135.9988 191.9992
v  2243.3372 3519.9990 191.9992
v  2243.3372 3135.9988 191.9992
v  2371.3379 3967.9998 319.9991
v  2243.3379 3967.9998 319.9991
v  2243.3379 3647.9998 319.9991
v  2371.3379 3647.9998 319.9991
v  2371.3372 3967.9990 191.9992
v  2371.3372 3647.9990 191.9992
v  2243.3372 3967.9990 191.9992
v  2243.3372 3647.9990 191.9992
v  2883.3374 3519.9998 319.9991
v  2755.3374 3519.9998 319.9991
v  2755.3374 3135.9995 319.9992
v  2883.3374 3135.9995 319.9992
v  2883.3369 3519.9990 191.9991
v  2883.3369 3135.9988 191.9991
v  2755.3369 3519.9990 191.9991
v  2755.3369 3135.9988 191.9991
v  2883.3374 3967.9998 319.9991
v  2755.3374 3967.9998 319.9991
v  2755.3374 3647.9998 319.9991
v  2883.3374 3647.9998 319.9991
v  2883.3369 3967.9990 191.9991
v  2883.3369 3647.9990 191.9991
v  2755.3369 3967.9990 191.9991
v  2755.3369 3647.9990 191.9991
v  3395.3379 3519.9998 319.9991
v  3267.3379 3519.9998 319.9991
v  3267.3379 3135.9995 319.9992
v  3395.3379 3135.9995 319.9992
v  3395.3372 3519.9990 191.9991
v  3395.3372 3135.9988 191.9992
v  3267.3372 3519.9990 191.9991
v  3267.3372 3135.9988 191.9992
v  3395.3379 3967.9998 319.9991
v  3267.3379 3967.9998 319.9991
v  3267.3379 3647.9998 319.9991
v  3395.3379 3647.9998 319.9991
v  3395.3372 3967.9990 191.9991
v  3395.3372 3647.9990 191.9991
v  3267.3372 3967.9990 191.9991
v  3267.3372 3647.9990 191.9991
v  3907.3374 3520.0000 319.9991
v  3779.3374 3520.0000 319.9991
v  3779.3374 3135.9995 319.9992
v  3907.3374 3135.9995 319.9992
v  3907.3369 3519.9990 191.9991
v  3907.3369 3135.9985 191.9991
v  3779.3369 3519.9990 191.9991
v  3779.3369 3135.9985 191.9991
v  3907.3374 3967.9998 319.9991
v  3779.3374 3967.9998 319.9991
v  3779.3374 3648.0000 319.9991
v  3907.3374 3648.0000 319.9991
v  3907.3369 3967.9990 191.9991
v  3907.3369 3647.9990 191.9991
v  3779.3369 3967.9990 191.9991
v  3779.3369 3647.9990 191.9991
v  6.6752 3967.9988 319.9996
v  6.6752 4095.9988 319.9996
v  6.6752 4095.9988 191.9996
v  6.6752 3967.9988 191.9996
v  195.3373 4095.9988 319.9996
v  195.3373 4095.9988 191.9996
v  195.3373 3967.9988 319.9996
v  195.3373 3967.9988 191.9996
v  6.6753 3007.9985 319.9997
v  6.6753 3135.9983 319.9997
v  6.6753 3135.9985 191.9997
v  6.6753 3007.9985 191.9997
v  195.3374 3135.9983 319.9997
v  195.3374 3135.9985 191.9997
v  195.3374 3007.9985 319.9997
v  195.3374 3007.9985 191.9997
v  6.6752 3519.9990 319.9996
v  6.6752 3647.9990 319.9996
v  6.6752 3647.9990 191.9996
v  6.6752 3519.9990 191.9996
v  195.3373 3647.9990 319.9996
v  195.3373 3647.9990 191.9996
v  195.3374 3519.9990 319.9996
v  195.3374 3519.9990 191.9996
# 356 vertices

vn 0.5774 -0.5774 0.5774
vn 0.5774 -0.5774 -0.5774
vn 0.5774 0.5774 -0.5774
vn 0.5774 0.5774 0.5774
vn -0.0000 0.7071 -0.7071
vn -0.0000 0.7071 0.7071
vn 0.0000 -0.7071 0.7071
vn 0.0000 -0.7071 -0.7071
vn 0.0000 0.7071 0.7071
vn 0.7071 0.0000 0.7071
vn -0.7071 0.0000 0.7071
vn 0.7071 -0.0000 -0.7071
vn -0.7071 0.0000 -0.7071
vn 0.7071 -0.0000 0.7071
vn -0.7071 -0.0000 0.7071
vn -0.7071 -0.0000 -0.7071
vn 0.7071 0.0000 -0.7071
vn -0.5774 -0.5774 0.5774
vn -0.5774 0.5774 0.5774
vn -0.5774 0.5774 -0.5774
vn -0.5774 -0.5774 -0.5774
vn 0.0000 0.7071 -0.7071
# 22 vertex normals

vt 1.0000 0.0000 0.0000
vt 1.0000 1.0000 0.0000
vt 0.0000 1.0000 0.0000
vt 0.0000 0.0000 0.0000
# 4 texture coords

o Object002
g Object002
usemtl default
s 4
f 1/1/1 2/2/2 3/3/3 4/4/4 
s 64
f 4/1/4 3/2/3 5/3/5 6/4/6 
s 8
f 1/1/1 4/2/4 6/3/6 7/4/7 
s 16
f 2/1/2 1/2/1 7/3/7 8/4/8 
s 32
f 3/1/3 2/2/2 8/3/8 5/4/5 
usemtl 02___Default
s 8
f 9/2/7 10/3/6 11/4/6 12/1/7 
usemtl default
s 16
f 13/1/8 9/2/7 12/3/7 14/4/8 
usemtl 02___Default
s 64
f 10/2/6 15/3/5 16/4/5 11/1/6 
s 32
f 15/2/5 13/3/8 14/4/8 16/1/5 
usemtl default
s 8
f 17/1/7 18/2/6 10/3/6 9/4/7 
s 16
f 19/1/8 17/2/7 9/3/7 13/4/8 
s 64
f 18/1/6 20/2/5 15/3/5 10/4/6 
s 32
f 20/1/5 19/2/8 13/3/8 15/4/5 
usemtl 02___Default
s 8
f 21/2/7 22/3/6 18/4/6 17/1/7 
usemtl default
s 16
f 23/1/8 21/2/7 17/3/7 19/4/8 
usemtl 02___Default
s 64
f 22/2/6 24/3/5 20/4/5 18/1/6 
s 32
f 24/2/5 23/3/8 19/4/8 20/1/5 
usemtl default
s 8
f 25/1/7 26/2/6 22/3/6 21/4/7 
s 16
f 27/1/8 25/2/7 21/3/7 23/4/8 
s 64
f 26/1/6 28/2/5 24/3/5 22/4/6 
s 32
f 28/1/5 27/2/8 23/3/8 24/4/5 
usemtl 02___Default
s 8
f 29/2/7 30/3/6 26/4/6 25/1/7 
usemtl default
s 16
f 31/1/8 29/2/7 25/3/7 27/4/8 
usemtl 02___Default
s 64
f 30/2/6 32/3/5 28/4/5 26/1/6 
s 32
f 32/2/5 31/3/8 27/4/8 28/1/5 
usemtl default
s 8
f 33/1/7 34/2/6 30/3/6 29/4/7 
s 16
f 35/1/8 33/2/7 29/3/7 31/4/8 
s 64
f 34/1/6 36/2/5 32/3/5 30/4/6 
s 32
f 36/1/5 35/2/8 31/3/8 32/4/5 
usemtl 02___Default
s 8
f 37/2/7 38/3/6 34/4/6 33/1/7 
usemtl default
s 16
f 39/1/8 37/2/7 33/3/7 35/4/8 
usemtl 02___Default
s 64
f 38/2/6 40/3/5 36/4/5 34/1/6 
s 32
f 40/2/5 39/3/8 35/4/8 36/1/5 
usemtl default
s 8
f 41/1/7 42/2/6 38/3/6 37/4/7 
s 16
f 43/1/8 41/2/7 37/3/7 39/4/8 
s 64
f 42/1/6 44/2/5 40/3/5 38/4/6 
s 32
f 44/1/5 43/2/8 39/3/8 40/4/5 
usemtl 02___Default
s 8
f 45/2/7 46/3/6 42/4/6 41/1/7 
usemtl default
s 16
f 47/1/8 45/2/7 41/3/7 43/4/8 
usemtl 02___Default
s 64
f 46/2/6 48/3/5 44/4/5 42/1/6 
s 32
f 48/2/5 47/3/8 43/4/8 44/1/5 
usemtl default
s 8
f 49/1/7 50/2/6 46/3/6 45/4/7 
s 16
f 51/1/8 49/2/7 45/3/7 47/4/8 
s 64
f 50/1/6 52/2/5 48/3/5 46/4/6 
s 32
f 52/1/5 51/2/8 47/3/8 48/4/5 
usemtl 02___Default
s 8
f 53/2/7 54/3/6 50/4/6 49/1/7 
usemtl default
s 16
f 55/1/8 53/2/7 49/3/7 51/4/8 
usemtl 02___Default
s 64
f 54/2/6 56/3/5 52/4/5 50/1/6 
s 32
f 56/2/5 55/3/8 51/4/8 52/1/5 
usemtl default
s 8
f 57/1/7 58/2/6 54/3/6 53/4/7 
s 16
f 59/1/8 57/2/7 53/3/7 55/4/8 
s 64
f 58/1/6 60/2/5 56/3/5 54/4/6 
s 32
f 60/1/5 59/2/8 55/3/8 56/4/5 
usemtl 02___Default
s 8
f 61/2/7 62/3/6 58/4/6 57/1/7 
usemtl default
s 16
f 63/1/8 61/2/7 57/3/7 59/4/8 
usemtl 02___Default
s 64
f 62/2/6 64/3/5 60/4/5 58/1/6 
s 32
f 64/2/5 63/3/8 59/4/8 60/1/5 
usemtl default
s 8
f 65/1/7 66/2/6 62/3/6 61/4/7 
s 16
f 67/1/8 65/2/7 61/3/7 63/4/8 
s 64
f 66/1/6 68/2/5 64/3/5 62/4/6 
s 32
f 68/1/5 67/2/8 63/3/8 64/4/5 
usemtl 02___Default
s 8
f 7/4/7 6/1/6 66/2/6 65/3/7 
usemtl default
s 16
f 8/1/8 7/2/7 65/3/7 67/4/8 
usemtl 02___Default
s 64
f 6/4/6 5/1/5 68/2/5 66/3/6 
s 32
f 5/4/5 8/1/8 67/2/8 68/3/5 
usemtl default
s 4
f 69/1/1 70/2/2 71/3/3 72/4/4 
s 64
f 72/1/4 71/2/3 73/3/5 74/4/6 
s 8
f 69/1/1 72/2/4 74/3/6 75/4/7 
s 16
f 70/1/2 69/2/1 75/3/7 76/4/8 
s 32
f 71/1/3 70/2/2 76/3/8 73/4/5 
usemtl 02___Default
s 8
f 77/2/7 78/3/6 79/4/6 80/1/7 
usemtl default
s 16
f 81/1/8 77/2/7 80/3/7 82/4/8 
s 64
f 78/1/6 83/2/5 84/3/5 79/4/6 
usemtl 02___Default
s 32
f 83/2/5 81/3/8 82/4/8 84/1/5 
usemtl default
s 8
f 85/1/7 86/2/6 78/3/6 77/4/7 
s 16
f 87/1/8 85/2/7 77/3/7 81/4/8 
s 64
f 86/1/6 88/2/5 83/3/5 78/4/6 
s 32
f 88/1/5 87/2/8 81/3/8 83/4/5 
usemtl 02___Default
s 8
f 89/2/7 90/3/6 86/4/6 85/1/7 
usemtl default
s 16
f 91/1/8 89/2/7 85/3/7 87/4/8 
s 64
f 90/1/6 92/2/5 88/3/5 86/4/6 
usemtl 02___Default
s 32
f 92/2/5 91/3/8 87/4/8 88/1/5 
usemtl default
s 8
f 93/1/7 94/2/6 90/3/6 89/4/7 
s 16
f 95/1/8 93/2/7 89/3/7 91/4/8 
s 64
f 94/1/6 96/2/5 92/3/5 90/4/6 
s 32
f 96/1/5 95/2/8 91/3/8 92/4/5 
usemtl 02___Default
s 8
f 97/2/7 98/3/6 94/4/6 93/1/7 
usemtl default
s 16
f 99/1/8 97/2/7 93/3/7 95/4/8 
s 64
f 98/1/6 100/2/5 96/3/5 94/4/6 
usemtl 02___Default
s 32
f 100/2/5 99/3/8 95/4/8 96/1/5 
usemtl default
s 8
f 101/1/7 102/2/6 98/3/6 97/4/7 
s 16
f 103/1/8 101/2/7 97/3/7 99/4/8 
s 64
f 102/1/6 104/2/5 100/3/5 98/4/6 
s 32
f 104/1/5 103/2/8 99/3/8 100/4/5 
usemtl 02___Default
s 8
f 105/2/7 106/3/9 102/4/6 101/1/7 
usemtl default
s 16
f 107/1/8 105/2/7 101/3/7 103/4/8 
s 64
f 106/1/9 108/2/5 104/3/5 102/4/6 
usemtl 02___Default
s 32
f 108/2/5 107/3/8 103/4/8 104/1/5 
usemtl default
s 8
f 109/1/7 110/2/9 106/3/9 105/4/7 
s 16
f 111/1/8 109/2/7 105/3/7 107/4/8 
s 64
f 110/1/9 112/2/5 108/3/5 106/4/9 
s 32
f 112/1/5 111/2/8 107/3/8 108/4/5 
usemtl 02___Default
s 8
f 113/2/7 114/3/6 110/4/9 109/1/7 
usemtl default
s 16
f 115/1/8 113/2/7 109/3/7 111/4/8 
s 64
f 114/1/6 116/2/5 112/3/5 110/4/9 
usemtl 02___Default
s 32
f 116/2/5 115/3/8 111/4/8 112/1/5 
usemtl default
s 8
f 117/1/7 118/2/6 114/3/6 113/4/7 
s 16
f 119/1/8 117/2/7 113/3/7 115/4/8 
s 64
f 118/1/6 120/2/5 116/3/5 114/4/6 
s 32
f 120/1/5 119/2/8 115/3/8 116/4/5 
usemtl 02___Default
s 8
f 121/2/7 122/3/6 118/4/6 117/1/7 
usemtl default
s 16
f 123/1/8 121/2/7 117/3/7 119/4/8 
s 64
f 122/1/6 124/2/5 120/3/5 118/4/6 
usemtl 02___Default
s 32
f 124/2/5 123/3/8 119/4/8 120/1/5 
usemtl default
s 8
f 125/1/7 126/2/6 122/3/6 121/4/7 
s 16
f 127/1/8 125/2/7 121/3/7 123/4/8 
s 64
f 126/1/6 128/2/5 124/3/5 122/4/6 
s 32
f 128/1/5 127/2/8 123/3/8 124/4/5 
usemtl 02___Default
s 8
f 129/2/7 130/3/6 126/4/6 125/1/7 
usemtl default
s 16
f 131/1/8 129/2/7 125/3/7 127/4/8 
s 64
f 130/1/6 132/2/5 128/3/5 126/4/6 
usemtl 02___Default
s 32
f 132/2/5 131/3/8 127/4/8 128/1/5 
usemtl default
s 8
f 133/1/7 134/2/6 130/3/6 129/4/7 
s 16
f 135/1/8 133/2/7 129/3/7 131/4/8 
s 64
f 134/1/6 136/2/5 132/3/5 130/4/6 
s 32
f 136/1/5 135/2/8 131/3/8 132/4/5 
usemtl 02___Default
s 8
f 75/4/7 74/1/6 134/2/6 133/3/7 
usemtl default
s 16
f 76/1/8 75/2/7 133/3/7 135/4/8 
s 64
f 74/1/6 73/2/5 136/3/5 134/4/6 
usemtl 02___Default
s 32
f 73/4/5 76/1/8 135/2/8 136/3/5 
usemtl default
s 4
f 137/1/1 138/2/2 139/3/3 140/4/4 
s 64
f 140/1/4 139/2/3 141/3/5 142/4/6 
s 8
f 137/1/1 140/2/4 142/3/6 143/4/7 
s 16
f 138/1/2 137/2/1 143/3/7 144/4/8 
s 32
f 139/1/3 138/2/2 144/3/8 141/4/5 
usemtl 02___Default
s 8
f 145/2/7 146/3/6 147/4/6 148/1/7 
usemtl default
s 16
f 149/1/8 145/2/7 148/3/7 150/4/8 
s 64
f 146/1/6 151/2/5 152/3/5 147/4/6 
usemtl 02___Default
s 32
f 151/2/5 149/3/8 150/4/8 152/1/5 
usemtl default
s 8
f 153/1/7 154/2/6 146/3/6 145/4/7 
s 16
f 155/1/8 153/2/7 145/3/7 149/4/8 
s 64
f 154/1/6 156/2/5 151/3/5 146/4/6 
s 32
f 156/1/5 155/2/8 149/3/8 151/4/5 
usemtl 02___Default
s 8
f 157/2/7 158/3/6 154/4/6 153/1/7 
usemtl default
s 16
f 159/1/8 157/2/7 153/3/7 155/4/8 
s 64
f 158/1/6 160/2/5 156/3/5 154/4/6 
usemtl 02___Default
s 32
f 160/2/5 159/3/8 155/4/8 156/1/5 
usemtl default
s 8
f 161/1/7 162/2/6 158/3/6 157/4/7 
s 16
f 163/1/8 161/2/7 157/3/7 159/4/8 
s 64
f 162/1/6 164/2/5 160/3/5 158/4/6 
s 32
f 164/1/5 163/2/8 159/3/8 160/4/5 
usemtl 02___Default
s 8
f 165/2/7 166/3/6 162/4/6 161/1/7 
usemtl default
s 16
f 167/1/8 165/2/7 161/3/7 163/4/8 
s 64
f 166/1/6 168/2/5 164/3/5 162/4/6 
usemtl 02___Default
s 32
f 168/2/5 167/3/8 163/4/8 164/1/5 
usemtl default
s 8
f 169/1/7 170/2/6 166/3/6 165/4/7 
s 16
f 171/1/8 169/2/7 165/3/7 167/4/8 
s 64
f 170/1/6 172/2/5 168/3/5 166/4/6 
s 32
f 172/1/5 171/2/8 167/3/8 168/4/5 
usemtl 02___Default
s 8
f 173/2/7 174/3/6 170/4/6 169/1/7 
usemtl default
s 16
f 175/1/8 173/2/7 169/3/7 171/4/8 
s 64
f 174/1/6 176/2/5 172/3/5 170/4/6 
usemtl 02___Default
s 32
f 176/2/5 175/3/8 171/4/8 172/1/5 
usemtl default
s 8
f 177/1/7 178/2/6 174/3/6 173/4/7 
s 16
f 179/1/8 177/2/7 173/3/7 175/4/8 
s 64
f 178/1/6 180/2/5 176/3/5 174/4/6 
s 32
f 180/1/5 179/2/8 175/3/8 176/4/5 
usemtl 02___Default
s 8
f 181/2/7 182/3/6 178/4/6 177/1/7 
usemtl default
s 16
f 183/1/8 181/2/7 177/3/7 179/4/8 
s 64
f 182/1/6 184/2/5 180/3/5 178/4/6 
usemtl 02___Default
s 32
f 184/2/5 183/3/8 179/4/8 180/1/5 
usemtl default
s 8
f 185/1/7 186/2/6 182/3/6 181/4/7 
s 16
f 187/1/8 185/2/7 181/3/7 183/4/8 
s 64
f 186/1/6 188/2/5 184/3/5 182/4/6 
s 32
f 188/1/5 187/2/8 183/3/8 184/4/5 
usemtl 02___Default
s 8
f 189/2/7 190/3/6 186/4/6 185/1/7 
usemtl default
s 16
f 191/1/8 189/2/7 185/3/7 187/4/8 
s 64
f 190/1/6 192/2/5 188/3/5 186/4/6 
usemtl 02___Default
s 32
f 192/2/5 191/3/8 187/4/8 188/1/5 
usemtl default
s 8
f 193/1/7 194/2/6 190/3/6 189/4/7 
s 16
f 195/1/8 193/2/7 189/3/7 191/4/8 
s 64
f 194/1/6 196/2/5 192/3/5 190/4/6 
s 32
f 196/1/5 195/2/8 191/3/8 192/4/5 
usemtl 02___Default
s 8
f 197/2/7 198/3/6 194/4/6 193/1/7 
usemtl default
s 16
f 199/1/8 197/2/7 193/3/7 195/4/8 
s 64
f 198/1/6 200/2/5 196/3/5 194/4/6 
usemtl 02___Default
s 32
f 200/2/5 199/3/8 195/4/8 196/1/5 
usemtl default
s 8
f 201/1/7 202/2/6 198/3/6 197/4/7 
s 16
f 203/1/8 201/2/7 197/3/7 199/4/8 
s 64
f 202/1/6 204/2/5 200/3/5 198/4/6 
s 32
f 204/1/5 203/2/8 199/3/8 200/4/5 
usemtl 02___Default
s 8
f 143/4/7 142/1/6 202/2/6 201/3/7 
usemtl default
s 16
f 144/1/8 143/2/7 201/3/7 203/4/8 
s 64
f 142/1/6 141/2/5 204/3/5 202/4/6 
usemtl 02___Default
s 32
f 141/4/5 144/1/8 203/2/8 204/3/5 
usemtl default
s 8
f 205/1/10 206/2/11 207/3/11 208/4/10 
s 16
f 209/1/12 205/2/10 208/3/10 210/4/12 
s 64
f 206/1/11 211/2/13 212/3/13 207/4/11 
s 32
f 211/1/13 209/2/12 210/3/12 212/4/13 
s 8
f 213/1/14 214/2/15 215/3/15 216/4/14 
s 16
f 217/1/12 213/2/14 216/3/14 218/4/12 
s 64
f 214/1/15 219/2/16 220/3/16 215/4/15 
s 32
f 219/1/16 217/2/12 218/3/12 220/4/16 
s 8
f 221/1/10 222/2/11 223/3/11 224/4/10 
s 16
f 225/1/17 221/2/10 224/3/10 226/4/17 
s 64
f 222/1/11 227/2/16 228/3/16 223/4/11 
s 32
f 227/1/16 225/2/17 226/3/17 228/4/16 
s 8
f 229/1/10 230/2/15 231/3/15 232/4/10 
s 16
f 233/1/17 229/2/10 232/3/10 234/4/17 
s 64
f 230/1/15 235/2/16 236/3/16 231/4/15 
s 32
f 235/1/16 233/2/17 234/3/17 236/4/16 
s 8
f 237/1/10 238/2/11 239/3/11 240/4/10 
s 16
f 241/1/12 237/2/10 240/3/10 242/4/12 
s 64
f 238/1/11 243/2/13 244/3/13 239/4/11 
s 32
f 243/1/13 241/2/12 242/3/12 244/4/13 
s 8
f 245/1/10 246/2/15 247/3/15 248/4/10 
s 16
f 249/1/17 245/2/10 248/3/10 250/4/17 
s 64
f 246/1/15 251/2/16 252/3/16 247/4/15 
s 32
f 251/1/16 249/2/17 250/3/17 252/4/16 
s 8
f 253/1/10 254/2/11 255/3/11 256/4/10 
s 16
f 257/1/12 253/2/10 256/3/10 258/4/12 
s 64
f 254/1/11 259/2/13 260/3/13 255/4/11 
s 32
f 259/1/13 257/2/12 258/3/12 260/4/13 
s 8
f 261/1/10 262/2/15 263/3/15 264/4/10 
s 16
f 265/1/17 261/2/10 264/3/10 266/4/17 
s 64
f 262/1/15 267/2/16 268/3/16 263/4/15 
s 32
f 267/1/16 265/2/17 266/3/17 268/4/16 
s 8
f 269/1/10 270/2/11 271/3/11 272/4/10 
s 16
f 273/1/17 269/2/10 272/3/10 274/4/17 
s 64
f 270/1/11 275/2/16 276/3/16 271/4/11 
s 32
f 275/1/16 273/2/17 274/3/17 276/4/16 
s 8
f 277/1/10 278/2/15 279/3/15 280/4/10 
s 16
f 281/1/17 277/2/10 280/3/10 282/4/17 
s 64
f 278/1/15 283/2/16 284/3/16 279/4/15 
s 32
f 283/1/16 281/2/17 282/3/17 284/4/16 
s 8
f 285/1/10 286/2/11 287/3/11 288/4/10 
s 16
f 289/1/17 285/2/10 288/3/10 290/4/17 
s 64
f 286/1/11 291/2/16 292/3/16 287/4/11 
s 32
f 291/1/16 289/2/17 290/3/17 292/4/16 
s 8
f 293/1/10 294/2/15 295/3/15 296/4/10 
s 16
f 297/1/17 293/2/10 296/3/10 298/4/17 
s 64
f 294/1/15 299/2/16 300/3/16 295/4/15 
s 32
f 299/1/16 297/2/17 298/3/17 300/4/16 
s 8
f 301/1/10 302/2/11 303/3/11 304/4/10 
s 16
f 305/1/17 301/2/10 304/3/10 306/4/17 
s 64
f 302/1/11 307/2/16 308/3/16 303/4/11 
s 32
f 307/1/16 305/2/17 306/3/17 308/4/16 
s 8
f 309/1/10 310/2/15 311/3/15 312/4/10 
s 16
f 313/1/17 309/2/10 312/3/10 314/4/17 
s 64
f 310/1/15 315/2/16 316/3/16 311/4/15 
s 32
f 315/1/16 313/2/17 314/3/17 316/4/16 
s 8
f 317/1/10 318/2/11 319/3/11 320/4/10 
s 16
f 321/1/17 317/2/10 320/3/10 322/4/17 
s 64
f 318/1/11 323/2/16 324/3/16 319/4/11 
s 32
f 323/1/16 321/2/17 322/3/17 324/4/16 
s 8
f 325/1/10 326/2/15 327/3/15 328/4/10 
s 16
f 329/1/17 325/2/10 328/3/10 330/4/17 
s 64
f 326/1/15 331/2/16 332/3/16 327/4/15 
s 32
f 331/1/16 329/2/17 330/3/17 332/4/16 
s 4
f 333/1/18 334/4/19 335/3/20 336/2/21 
s 64
f 334/1/19 337/4/6 338/3/5 335/2/20 
s 8
f 333/1/18 339/4/7 337/3/6 334/2/19 
s 16
f 336/1/21 340/4/8 339/3/7 333/2/18 
s 32
f 335/1/20 338/4/5 340/3/8 336/2/21 
s 4
f 341/1/18 342/4/19 343/3/20 344/2/21 
s 64
f 342/1/19 345/4/6 346/3/5 343/2/20 
s 8
f 341/1/18 347/4/7 345/3/6 342/2/19 
s 16
f 344/1/21 348/4/8 347/3/7 341/2/18 
s 32
f 343/1/20 346/4/5 348/3/8 344/2/21 
s 4
f 349/1/18 350/4/19 351/3/20 352/2/21 
s 64
f 350/1/19 353/4/9 354/3/22 351/2/20 
s 8
f 349/1/18 355/4/7 353/3/9 350/2/19 
s 16
f 352/1/21 356/4/8 355/3/7 349/2/18 
s 32
f 351/1/20 354/4/22 356/3/8 352/2/21 
# 274 polygons

