# Blender v2.80 (sub 45) OBJ File: 'stag_stal.blend'
# www.blender.org
mtllib tdr_h_stag_e.mtl
o tdr_h_stag_e
v -25.050032 -58.556244 -29.999996
v -75.206085 -12.337906 209.999985
v -24.507484 -75.318169 769.999939
v -33.733952 -70.049271 1209.999878
v -29.593523 -61.451557 289.999969
v -24.057159 -49.955208 209.999985
v 25.031515 -100.230865 -29.999996
v 30.966249 -81.503525 209.999985
v 103.415039 -13.372891 -29.999996
v 102.160500 -12.337925 209.999985
v 45.112690 42.969883 -29.999996
v 50.258621 34.570080 209.999985
v -0.009249 68.044769 -29.999996
v 0.000006 65.150215 209.999985
v -67.565666 42.969898 -29.999996
v -62.947361 44.274220 209.999985
v -80.486816 -13.372870 -29.999996
v 19.581112 -70.049278 1209.999878
v 23.760803 -81.415596 1249.999878
v 29.759073 -83.731880 769.999939
v 29.593513 -61.451565 289.999969
v 73.389771 -15.177311 289.999969
v 60.219433 42.525814 289.999969
v 0.000006 68.206093 290.000061
v -53.325684 42.525829 289.999969
v -60.778774 52.121773 769.999939
v 11.763843 83.596832 769.999939
v 77.122505 52.121765 769.999939
v 93.264725 -18.602074 769.999939
v 99.374001 -17.300768 1222.202515
v 93.275856 -12.185945 1249.999878
v 90.177010 -14.835863 1569.999878
v 45.463886 -60.069199 1569.999878
v 78.986496 -19.142006 1666.955078
v 53.935513 -80.079956 1666.955078
v 83.866463 -19.141968 1969.999756
v 37.324074 -77.504265 1969.999756
v 0.000008 77.748825 1209.999878
v 67.698349 48.475597 1222.202515
v 66.038643 34.144234 1249.999878
v 52.126095 41.569164 1569.999878
v 41.955070 53.634594 1666.955078
v 67.255699 53.634594 1969.999756
v 45.544022 44.221943 2049.999756
v 0.000007 70.926544 2049.999756
v 0.000009 86.023247 1969.999756
v 16.611441 86.023247 1666.955200
v 0.000011 98.738052 1569.999878
v 0.000009 86.829407 1249.999878
v 70.987267 -15.782630 2049.999756
v 39.828362 32.163235 2349.046875
v 0.000008 51.585842 2340.000000
v -40.331429 32.163246 2340.000000
v -55.452602 44.221954 2049.999756
v -67.255684 53.634605 1969.999756
v -50.644245 53.634609 1666.955078
v -52.126080 41.569180 1569.999878
v -42.815514 34.144249 1249.999878
v -53.767597 48.475613 1209.999878
v -66.496048 -15.177293 289.999969
v -45.845833 -18.602055 769.999939
v -53.390083 -12.185925 1249.999878
v -65.000168 -14.835843 1569.999878
v -69.148270 -15.782652 2049.999756
v -50.292469 -11.478910 2340.000000
v -31.903608 -7.143474 2408.399658
v 20.317131 20.015594 2408.399658
v 42.298962 -11.478926 2349.046875
v 30.773869 -63.902622 2049.999756
v -37.324097 -77.504250 1969.999756
v -20.712656 -77.504257 1666.955078
v -28.927797 -60.069187 1569.999878
v -23.760815 -49.339859 1249.999878
v -14.534719 -28.923376 2408.399658
v -25.704718 20.015602 2408.399658
v 26.516010 -7.143484 2408.399658
v 21.879175 -46.477242 2349.046875
v -30.773872 -63.902615 2049.999756
v -83.866463 -19.141951 1969.999756
v -67.255035 -19.141953 1666.955078
v -68.780624 -17.300753 1209.999878
v -22.382250 -46.477234 2340.000000
v 9.147115 -28.923380 2408.399658
v -0.605945 32.102543 2408.399658
vt 0.771771 0.007452
vt 0.803163 0.007452
vt 0.771771 0.105024
vt 0.803163 0.332694
vt 0.803163 0.511576
vt 0.771771 0.332694
vt 0.771771 0.137549
vt 0.803163 0.137549
vt 0.803163 0.105024
vt 0.834554 0.007452
vt 0.834554 0.105024
vt 0.865946 0.007452
vt 0.865946 0.105024
vt 0.897338 0.007452
vt 0.897338 0.105024
vt 0.928729 0.007452
vt 0.928729 0.105024
vt 0.960121 0.007452
vt 0.960121 0.105024
vt 0.991513 0.007452
vt 0.991513 0.105024
vt 0.834554 0.511576
vt 0.834554 0.527839
vt 0.834554 0.332694
vt 0.834554 0.137549
vt 0.865946 0.137549
vt 0.897338 0.137549
vt 0.928729 0.137549
vt 0.960121 0.137549
vt 0.960121 0.332694
vt 0.928729 0.332694
vt 0.897338 0.332694
vt 0.865946 0.332694
vt 0.865946 0.511576
vt 0.865946 0.527839
vt 0.865946 0.657935
vt 0.834554 0.657935
vt 0.865946 0.690459
vt 0.834554 0.690459
vt 0.865946 0.820556
vt 0.834554 0.820556
vt 0.928729 0.511576
vt 0.897338 0.511576
vt 0.897338 0.527839
vt 0.897338 0.657935
vt 0.897338 0.690459
vt 0.897338 0.820556
vt 0.897338 0.853080
vt 0.928729 0.853080
vt 0.928729 0.820556
vt 0.928729 0.690459
vt 0.928729 0.657935
vt 0.928729 0.527839
vt 0.865946 0.853080
vt 0.897338 0.970980
vt 0.928729 0.970980
vt 0.960121 0.970980
vt 0.960121 0.853080
vt 0.960121 0.820556
vt 0.960121 0.690459
vt 0.960121 0.657935
vt 0.960121 0.527839
vt 0.960121 0.511576
vt 0.991513 0.137549
vt 0.991513 0.332694
vt 0.991513 0.511576
vt 0.991513 0.527839
vt 0.991513 0.657935
vt 0.991513 0.690459
vt 0.991513 0.820556
vt 0.991513 0.853080
vt 0.991513 0.970980
vt 0.991513 0.998788
vt 0.960121 0.998788
vt 0.928729 0.998788
vt 0.897338 0.998788
vt 0.865946 0.970980
vt 0.834554 0.853080
vt 0.803163 0.820556
vt 0.803163 0.690459
vt 0.803163 0.657935
vt 0.803163 0.527839
vt 0.880595 0.937262
vt 0.852312 0.950883
vt 0.908878 0.950883
vt 0.865946 0.998788
vt 0.834554 0.970980
vt 0.803163 0.853080
vt 0.771771 0.820556
vt 0.771771 0.690459
vt 0.771771 0.657935
vt 0.771771 0.527839
vt 0.771771 0.511576
vt 0.803163 0.970980
vt 0.846374 0.976900
vt 0.834554 0.998788
vt 0.803163 0.998788
vt 0.771771 0.970980
vt 0.771771 0.853080
vt 0.771771 0.998788
vt 0.915863 0.981487
vn -0.7215 -0.3626 -0.5898
vn -0.6324 -0.7742 0.0249
vn -0.7753 -0.2579 -0.5766
vn -0.6173 -0.7867 0.0051
vn -0.5329 -0.8311 0.1591
vn -0.9302 -0.3669 -0.0092
vn -0.8120 -0.2551 0.5249
vn -0.4148 -0.9078 -0.0614
vn -0.5088 -0.8609 0.0040
vn 0.0720 -0.9962 0.0495
vn 0.1371 -0.9789 0.1516
vn 0.9995 0.0241 0.0194
vn 0.9956 -0.0265 0.0898
vn 0.5904 0.8070 0.0117
vn 0.5828 0.8109 -0.0531
vn 0.0786 0.9968 0.0165
vn 0.0991 0.9951 0.0004
vn -0.7528 0.6581 0.0154
vn -0.7461 0.6634 0.0561
vn 0.3161 -0.9430 -0.1042
vn 0.1689 -0.9853 -0.0249
vn 0.3122 -0.9500 -0.0099
vn 0.3550 -0.9343 0.0329
vn 0.9472 -0.2893 0.1387
vn 0.7232 0.6902 -0.0226
vn -0.0112 0.9985 -0.0535
vn -0.7732 0.6330 0.0391
vn -0.8829 0.4691 -0.0196
vn 0.0234 0.9997 -0.0047
vn 0.7822 0.6230 -0.0075
vn 0.9640 -0.2653 -0.0172
vn 0.9511 -0.2711 0.1479
vn 0.9871 -0.1356 0.0856
vn 0.9944 -0.0978 0.0399
vn 0.4159 -0.9067 -0.0705
vn 0.9999 -0.0112 -0.0131
vn 0.5343 -0.8393 -0.1000
vn 0.9748 -0.1955 0.1076
vn 0.4225 -0.9006 0.1015
vn -0.1118 0.9932 -0.0317
vn 0.7099 0.6904 0.1397
vn 0.7762 0.6100 0.1596
vn 0.7914 0.6112 0.0065
vn 0.8244 0.5660 0.0102
vn 0.7843 0.6105 0.1103
vn 0.7490 0.6469 0.1429
vn 0.0304 0.9897 0.1400
vn 0.0019 0.9971 0.0761
vn 0.2680 0.9617 0.0580
vn -0.0050 1.0000 -0.0043
vn -0.1403 0.9865 -0.0842
vn 0.9816 -0.1468 0.1221
vn 0.8048 0.5552 0.2099
vn -0.0068 0.9878 0.1556
vn -0.7709 0.6156 0.1635
vn -0.7754 0.6183 0.1283
vn -0.7829 0.6183 0.0695
vn -0.7961 0.6052 -0.0008
vn -0.8906 0.4534 -0.0365
vn -0.8717 0.4718 0.1323
vn -0.7724 0.6030 0.1996
vn -0.9597 -0.1336 -0.2471
vn -0.9726 0.2113 -0.0966
vn -0.8506 -0.1233 -0.5112
vn -0.8873 0.0371 -0.4598
vn -0.9040 -0.1017 -0.4152
vn -0.9620 0.1078 -0.2508
vn -0.9409 -0.1221 -0.3158
vn -0.9518 0.3050 0.0334
vn -0.7799 0.6260 0.0025
vn 0.0143 0.9877 0.1557
vn 0.5449 0.3782 0.7483
vn 0.9564 -0.2274 0.1835
vn 0.4227 -0.8964 0.1332
vn -0.4388 -0.8951 0.0787
vn -0.4238 -0.9029 -0.0727
vn -0.4557 -0.8864 -0.0817
vn -0.6584 -0.7099 0.2500
vn -0.5433 0.1540 0.8253
vn 0.6714 -0.1297 0.7296
vn 0.4727 -0.8599 0.1929
vn -0.4306 -0.8935 0.1279
vn -0.4381 -0.8843 0.1615
vn 0.6664 -0.1128 0.7370
usemtl tdr_h_stag_diffuse
s 1
f 17/1/1 1/2/2 2/3/3
f 3/4/4 4/5/5 61/6/6
f 61/6/6 60/7/7 3/4/4
f 5/8/8 3/4/4 60/7/7
f 60/7/7 2/3/3 5/8/8
f 6/9/9 5/8/8 2/3/3
f 6/9/9 2/3/3 1/2/2
f 1/2/2 7/10/10 6/9/9
f 8/11/11 6/9/9 7/10/10
f 7/10/10 9/12/12 8/11/11
f 10/13/13 8/11/11 9/12/12
f 9/12/12 11/14/14 10/13/13
f 12/15/15 10/13/13 11/14/14
f 11/14/14 13/16/16 12/15/15
f 14/17/17 12/15/15 13/16/16
f 13/16/16 15/18/18 14/17/17
f 16/19/19 14/17/17 15/18/18
f 15/18/18 17/20/1 16/19/19
f 2/21/3 16/19/19 17/20/1
f 18/22/20 19/23/21 4/5/5
f 4/5/5 3/4/4 18/22/20
f 20/24/22 18/22/20 3/4/4
f 3/4/4 5/8/8 20/24/22
f 21/25/23 20/24/22 5/8/8
f 5/8/8 6/9/9 21/25/23
f 8/11/11 21/25/23 6/9/9
f 21/25/23 8/11/11 22/26/24
f 10/13/13 22/26/24 8/11/11
f 22/26/24 10/13/13 23/27/25
f 12/15/15 23/27/25 10/13/13
f 23/27/25 12/15/15 24/28/26
f 14/17/17 24/28/26 12/15/15
f 24/28/26 14/17/17 25/29/27
f 16/19/19 25/29/27 14/17/17
f 25/29/27 26/30/28 24/28/26
f 27/31/29 24/28/26 26/30/28
f 24/28/26 27/31/29 23/27/25
f 28/32/30 23/27/25 27/31/29
f 23/27/25 28/32/30 22/26/24
f 29/33/31 22/26/24 28/32/30
f 22/26/24 29/33/31 21/25/23
f 20/24/22 21/25/23 29/33/31
f 29/33/31 30/34/32 20/24/22
f 18/22/20 20/24/22 30/34/32
f 30/34/32 31/35/33 18/22/20
f 19/23/21 18/22/20 31/35/33
f 31/35/33 32/36/34 19/23/21
f 33/37/35 19/23/21 32/36/34
f 32/36/34 34/38/36 33/37/35
f 35/39/37 33/37/35 34/38/36
f 34/38/36 36/40/38 35/39/37
f 37/41/39 35/39/37 36/40/38
f 27/31/29 38/42/40 28/32/30
f 39/43/41 28/32/30 38/42/40
f 28/32/30 39/43/41 29/33/31
f 30/34/32 29/33/31 39/43/41
f 39/43/41 40/44/42 30/34/32
f 31/35/33 30/34/32 40/44/42
f 40/44/42 41/45/43 31/35/33
f 32/36/34 31/35/33 41/45/43
f 41/45/43 42/46/44 32/36/34
f 34/38/36 32/36/34 42/46/44
f 42/46/44 43/47/45 34/38/36
f 36/40/38 34/38/36 43/47/45
f 43/47/45 44/48/46 36/40/38
f 44/48/46 43/47/45 45/49/47
f 46/50/48 45/49/47 43/47/45
f 43/47/45 42/46/44 46/50/48
f 47/51/49 46/50/48 42/46/44
f 42/46/44 41/45/43 47/51/49
f 48/52/50 47/51/49 41/45/43
f 41/45/43 40/44/42 48/52/50
f 49/53/51 48/52/50 40/44/42
f 40/44/42 39/43/41 49/53/51
f 38/42/40 49/53/51 39/43/41
f 36/40/38 50/54/52 37/41/39
f 50/54/52 36/40/38 44/48/46
f 44/48/46 51/55/53 50/54/52
f 51/55/53 44/48/46 52/56/54
f 45/49/47 52/56/54 44/48/46
f 52/56/54 45/49/47 53/57/55
f 54/58/56 53/57/55 45/49/47
f 45/49/47 46/50/48 54/58/56
f 55/59/57 54/58/56 46/50/48
f 46/50/48 47/51/49 55/59/57
f 56/60/58 55/59/57 47/51/49
f 47/51/49 48/52/50 56/60/58
f 57/61/59 56/60/58 48/52/50
f 48/52/50 49/53/51 57/61/59
f 58/62/60 57/61/59 49/53/51
f 49/53/51 38/42/40 58/62/60
f 59/63/61 58/62/60 38/42/40
f 38/42/40 27/31/29 59/63/61
f 26/30/28 59/63/61 27/31/29
f 2/21/3 60/64/7 16/19/19
f 25/29/27 16/19/19 60/64/7
f 60/64/7 61/65/6 25/29/27
f 26/30/28 25/29/27 61/65/6
f 61/65/6 81/66/62 26/30/28
f 59/63/61 26/30/28 81/66/62
f 81/66/62 62/67/63 59/63/61
f 58/62/60 59/63/61 62/67/63
f 62/67/63 63/68/64 58/62/60
f 57/61/59 58/62/60 63/68/64
f 63/68/64 80/69/65 57/61/59
f 56/60/58 57/61/59 80/69/65
f 80/69/65 79/70/66 56/60/58
f 55/59/57 56/60/58 79/70/66
f 79/70/66 64/71/67 55/59/57
f 54/58/56 55/59/57 64/71/67
f 64/71/67 65/72/68 54/58/56
f 53/57/55 54/58/56 65/72/68
f 65/72/68 66/73/69 53/57/55
f 75/74/70 53/57/55 66/73/69
f 53/57/55 75/74/70 52/56/54
f 84/75/71 52/56/54 75/74/70
f 52/56/54 84/75/71 51/55/53
f 67/76/72 51/55/53 84/75/71
f 51/55/53 67/76/72 68/77/73
f 68/77/73 50/54/52 51/55/53
f 50/54/52 68/77/73 69/78/74
f 69/78/74 37/41/39 50/54/52
f 37/41/39 69/78/74 70/79/75
f 70/79/75 71/80/76 37/41/39
f 35/39/37 37/41/39 71/80/76
f 71/80/76 72/81/77 35/39/37
f 33/37/35 35/39/37 72/81/77
f 72/81/77 73/82/78 33/37/35
f 19/23/21 33/37/35 73/82/78
f 73/82/78 4/5/5 19/23/21
f 66/83/69 74/84/79 75/85/70
f 74/84/79 67/76/72 75/85/70
f 76/86/80 67/76/72 74/84/79
f 76/86/80 68/77/73 67/76/72
f 68/77/73 76/86/80 77/87/81
f 77/87/81 69/78/74 68/77/73
f 69/78/74 77/87/81 78/88/82
f 78/88/82 70/79/75 69/78/74
f 70/79/75 78/88/82 79/89/66
f 79/89/66 80/90/65 70/79/75
f 71/80/76 70/79/75 80/90/65
f 80/90/65 63/91/64 71/80/76
f 72/81/77 71/80/76 63/91/64
f 63/91/64 62/92/63 72/81/77
f 73/82/78 72/81/77 62/92/63
f 62/92/63 81/93/62 73/82/78
f 4/5/5 73/82/78 81/93/62
f 81/93/62 61/6/6 4/5/5
f 82/94/83 78/88/82 77/87/81
f 83/95/84 76/86/80 74/84/79
f 83/96/84 77/87/81 76/86/80
f 77/87/81 83/96/84 82/94/83
f 74/97/79 82/94/83 83/96/84
f 82/94/83 74/97/79 65/98/68
f 65/98/68 64/99/67 82/94/83
f 78/88/82 82/94/83 64/99/67
f 64/99/67 79/89/66 78/88/82
f 66/100/69 65/98/68 74/97/79
f 75/85/70 67/76/72 84/101/71
