# Blender v2.80 (sub 45) OBJ File: 'stag_stal.blend'
# www.blender.org
mtllib tdr_h_stag_c.mtl
o tdr_h_stag_c
v -31.383020 -10.637050 149.232483
v -45.935608 55.219429 -31.997681
v -40.268456 -11.478872 338.002319
v -23.261061 29.804235 149.232483
v -0.069304 66.564789 -31.997681
v -73.006577 -1.185753 -31.997681
v -8.625782 -43.068390 149.232483
v -41.266121 -57.718201 -31.997681
v 27.873945 -60.586555 149.232483
v 25.384539 -75.680244 -31.997681
v 51.721771 -10.637058 149.232483
v 84.597061 -30.446785 -31.997681
v 36.633110 29.804224 149.232483
v 58.997910 55.219418 -31.997681
v 9.624088 47.802277 149.232483
v -30.307415 32.163246 338.002319
v -12.265328 17.082827 392.518982
v 10.024023 51.585846 338.002319
v 9.155854 27.398678 392.518982
v 49.852390 32.163239 347.049255
v 52.322979 -11.478883 347.049255
v 31.903198 -36.957092 347.049255
v -12.358235 -61.329651 338.002319
v 27.013189 17.082821 392.518982
v 32.303772 -6.096805 392.518982
v -2.732009 -24.685366 392.518982
v 17.479856 -24.685369 392.518982
v -17.555927 -6.096797 392.518982
vt 0.748244 0.017559
vt 0.749524 0.089870
vt 0.716852 0.017559
vt 0.748244 0.167983
vt 0.715655 0.090540
vt 0.685461 0.017559
vt 0.520486 0.089071
vt 0.528503 0.017559
vt 0.555920 0.089921
vt 0.559894 0.017559
vt 0.588859 0.090018
vt 0.591286 0.017559
vt 0.620597 0.089693
vt 0.622677 0.017559
vt 0.653980 0.090193
vt 0.654069 0.017559
vt 0.686580 0.090840
vt 0.716852 0.167983
vt 0.748244 0.195791
vt 0.716852 0.195791
vt 0.685461 0.167983
vt 0.685461 0.195791
vt 0.654069 0.167983
vt 0.622677 0.167983
vt 0.591286 0.167983
vt 0.559894 0.167983
vt 0.528503 0.167983
vt 0.654069 0.195791
vt 0.622677 0.195791
vt 0.591286 0.195791
vt 0.559894 0.195791
vt 0.528503 0.195791
vt 0.665609 0.143359
vt 0.672594 0.173963
vt 0.609043 0.143359
vt 0.603105 0.169376
vt 0.637326 0.129738
vn -0.9464 0.0813 -0.3126
vn -0.9304 -0.0312 -0.3652
vn -0.6305 0.7472 0.2100
vn -0.9749 -0.0703 -0.2111
vn -0.7995 0.5979 0.0574
vn -0.0488 0.9904 0.1294
vn -0.6205 -0.7794 0.0868
vn -0.6318 -0.7590 0.1574
vn 0.3353 -0.9371 0.0970
vn 0.2228 -0.9647 0.1407
vn 0.9968 -0.0698 0.0395
vn 0.9265 -0.3122 0.2100
vn 0.7827 0.6192 0.0628
vn 0.6773 0.7205 0.1491
vn 0.0337 0.9969 0.0705
vn -0.7713 0.6116 0.1762
vn -0.9205 0.3273 0.2134
vn -0.7676 0.6179 0.1703
vn -0.0047 0.9858 0.1679
vn 0.0052 0.9465 0.3228
vn 0.7996 0.5515 0.2376
vn 0.9339 -0.2767 0.2266
vn 0.6060 -0.7689 0.2038
vn -0.2809 -0.9406 0.1906
vn 0.4900 0.3334 0.8055
vn 0.6177 -0.1379 0.7742
vn 0.5318 -0.7675 0.3579
vn -0.3995 -0.8632 0.3087
usemtl tdr_h_stag_diffuse
s 1
f 6/1/1 1/2/2 2/3/3
f 1/2/2 3/4/4 4/5/5
f 4/5/5 2/3/3 1/2/2
f 2/3/3 4/5/5 5/6/6
f 1/7/2 6/8/1 7/9/7
f 8/10/8 7/9/7 6/8/1
f 7/9/7 8/10/8 9/11/9
f 10/12/10 9/11/9 8/10/8
f 9/11/9 10/12/10 11/13/11
f 12/14/12 11/13/11 10/12/10
f 11/13/11 12/14/12 13/15/13
f 14/16/14 13/15/13 12/14/12
f 13/15/13 14/16/14 15/17/15
f 5/6/6 15/17/15 14/16/14
f 15/17/15 5/6/6 4/5/5
f 4/5/5 16/18/16 15/17/15
f 16/18/16 4/5/5 3/4/4
f 3/4/4 28/19/17 16/18/16
f 17/20/18 16/18/16 28/19/17
f 16/18/16 17/20/18 18/21/19
f 19/22/20 18/21/19 17/20/18
f 18/21/19 19/22/20 20/23/21
f 18/21/19 15/17/15 16/18/16
f 15/17/15 18/21/19 13/15/13
f 20/23/21 13/15/13 18/21/19
f 13/15/13 20/23/21 11/13/11
f 21/24/22 11/13/11 20/23/21
f 11/13/11 21/24/22 9/11/9
f 22/25/23 9/11/9 21/24/22
f 9/11/9 22/25/23 7/9/7
f 23/26/24 7/9/7 22/25/23
f 7/9/7 23/26/24 1/7/2
f 3/27/4 1/7/2 23/26/24
f 24/28/25 20/23/21 19/22/20
f 20/23/21 24/28/25 21/24/22
f 25/29/26 21/24/22 24/28/25
f 21/24/22 25/29/26 22/25/23
f 27/30/27 22/25/23 25/29/26
f 22/25/23 27/30/27 23/26/24
f 26/31/28 23/26/24 27/30/27
f 23/26/24 26/31/28 3/27/4
f 28/32/17 3/27/4 26/31/28
f 17/33/18 24/28/25 19/34/20
f 26/35/28 24/28/25 17/33/18
f 25/29/26 24/28/25 26/35/28
f 27/36/27 25/29/26 26/35/28
f 28/37/17 26/35/28 17/33/18
