# Blender v2.80 (sub 45) OBJ File: 'stag_stal.blend'
# www.blender.org
mtllib tdr_h_fern_b.mtl
o tdr_h_fern_b.001
v 160.172577 140.625610 -35.549995
v -36.954323 -81.332253 23.835304
v 168.236526 298.365295 518.506409
v -25.110744 90.040581 611.856079
v 175.059418 -28.817312 9.760765
v -51.841114 88.110664 -21.475471
v 196.044540 109.242050 569.078247
v -72.565956 247.664322 532.100037
v -99.129684 -199.547638 500.387848
v 59.107105 -25.258215 43.040817
v -238.647064 -378.139435 376.980469
v -92.160645 -217.187469 -54.755531
v -271.309265 -191.982483 435.893250
v -113.149208 -51.560799 -0.722633
v -42.541073 -356.917877 423.736023
v 80.095688 -190.884933 -10.992073
v 265.845184 -399.121155 363.027649
v 135.098465 -213.620697 -31.390968
v 13.351128 -406.939514 387.305481
v -113.518044 -232.744522 17.046448
v 149.548615 -311.874908 400.600342
v 5.161835 -151.823395 2.601364
v 126.977554 -487.598267 257.632507
v 36.456009 -414.719513 -8.105614
v -165.678040 155.790527 18.361374
v 82.938461 136.666611 -30.076057
v -38.808792 329.985565 388.620422
v 213.685272 322.167145 364.342560
v -15.703896 337.765533 -6.790703
v -46.998203 74.869362 3.916290
v 74.817650 410.644318 258.947418
v 97.388618 234.920914 401.915253
v -16.526709 89.197021 -5.857338
v -16.526772 -188.203430 -5.857353
v 110.325546 100.361603 561.391968
v 118.327301 -171.731644 597.173950
v 118.363487 -49.503216 -24.611359
v -151.416946 -49.503174 12.896660
v 270.011902 -49.503212 539.190491
v -49.360916 -49.503151 583.593445
v 227.948898 185.161819 -46.281990
v 97.498146 3.604916 42.848942
v 430.733521 314.189575 377.814087
v 315.238983 143.784302 492.218018
v 257.814880 46.561039 -16.181236
v 72.325043 142.205688 9.861366
v 566.367798 159.490692 331.674042
v 252.810516 272.717224 439.938354
v 205.578201 85.621361 11.965965
v 40.516582 -100.250595 11.965996
v 550.930908 -42.019855 342.564636
v 310.495758 -232.859161 445.737732
v 208.863266 -54.349709 -33.087440
v 49.900188 33.414608 55.254276
v 468.213745 -197.538345 366.825928
v 280.029297 -93.640755 471.407104
v -2.397337 140.981018 -16.779091
v -242.492569 16.676176 -2.764656
v -80.234543 300.627747 422.330933
v -446.757996 188.455933 463.811890
v -62.314903 9.941020 22.122871
v -144.427307 145.902618 -24.987686
v -138.868866 152.088181 467.546692
v -405.359253 313.042969 393.490875
v -59.115837 45.369247 28.403313
v -208.429291 -92.829842 -46.247047
v -199.898849 -50.060863 476.334381
v -413.014862 -191.986557 431.178162
v -89.432068 -94.991409 -7.599831
v -234.112473 39.926666 -7.126846
v -225.275726 -208.384308 437.283264
v -396.551971 -48.664913 437.843292
v 160.172577 140.625610 -35.549995
v -36.954323 -81.332253 23.835304
v 168.236526 298.365295 518.506409
v -25.110744 90.040581 611.856079
v 175.059418 -28.817312 9.760765
v -51.841114 88.110664 -21.475471
v 196.044540 109.242050 569.078247
v -72.565956 247.664322 532.100037
v -99.129684 -199.547638 500.387848
v 59.107105 -25.258215 43.040817
v -238.647064 -378.139435 376.980469
v -92.160645 -217.187469 -54.755531
v -271.309265 -191.982483 435.893250
v -113.149208 -51.560799 -0.722633
v -42.541073 -356.917877 423.736023
v 80.095688 -190.884933 -10.992073
v 265.845184 -399.121155 363.027649
v 135.098465 -213.620697 -31.390968
v 13.351128 -406.939514 387.305481
v -113.518044 -232.744522 17.046448
v 149.548615 -311.874908 400.600342
v 5.161835 -151.823395 2.601364
v 126.977554 -487.598267 257.632507
v 36.456009 -414.719513 -8.105614
v -165.678040 155.790527 18.361374
v 82.938461 136.666611 -30.076057
v -38.808792 329.985565 388.620422
v 213.685272 322.167145 364.342560
v -15.703896 337.765533 -6.790703
v -46.998203 74.869362 3.916290
v 74.817650 410.644318 258.947418
v 97.388618 234.920914 401.915253
v -16.526709 89.197021 -5.857338
v -16.526772 -188.203430 -5.857353
v 110.325546 100.361603 561.391968
v 118.327301 -171.731644 597.173950
v 118.363487 -49.503216 -24.611359
v -151.416946 -49.503174 12.896660
v 270.011902 -49.503212 539.190491
v -49.360916 -49.503151 583.593445
v 227.948898 185.161819 -46.281990
v 97.498146 3.604916 42.848942
v 430.733521 314.189575 377.814087
v 315.238983 143.784302 492.218018
v 257.814880 46.561039 -16.181236
v 72.325043 142.205688 9.861366
v 566.367798 159.490692 331.674042
v 252.810516 272.717224 439.938354
v 205.578201 85.621361 11.965965
v 40.516582 -100.250595 11.965996
v 550.930908 -42.019855 342.564636
v 310.495758 -232.859161 445.737732
v 208.863266 -54.349709 -33.087440
v 49.900188 33.414608 55.254276
v 468.213745 -197.538345 366.825928
v 280.029297 -93.640755 471.407104
v -2.397337 140.981018 -16.779091
v -242.492569 16.676176 -2.764656
v -80.234543 300.627747 422.330933
v -446.757996 188.455933 463.811890
v -62.314903 9.941020 22.122871
v -144.427307 145.902618 -24.987686
v -138.868866 152.088181 467.546692
v -405.359253 313.042969 393.490875
v -59.115837 45.369247 28.403313
v -208.429291 -92.829842 -46.247047
v -199.898849 -50.060863 476.334381
v -413.014862 -191.986557 431.178162
v -89.432068 -94.991409 -7.599831
v -234.112473 39.926666 -7.126846
v -225.275726 -208.384308 437.283264
v -396.551971 -48.664913 437.843292
vt 0.990873 0.003429
vt 0.755125 0.003430
vt 0.990876 0.497560
vt 0.755129 0.497561
vt 0.990873 0.003429
vt 0.990876 0.497560
vt 0.755125 0.003430
vt 0.755129 0.497561
vt 0.755129 0.497561
vt 0.755125 0.003430
vt 0.990876 0.497560
vt 0.990873 0.003429
vt 0.755129 0.497561
vt 0.990876 0.497560
vt 0.755125 0.003430
vt 0.990873 0.003429
vt 0.755129 0.497561
vt 0.755125 0.003430
vt 0.990876 0.497560
vt 0.990873 0.003429
vt 0.755129 0.497561
vt 0.755125 0.003430
vt 0.990876 0.497560
vt 0.990873 0.003429
vt 0.990873 0.003429
vt 0.755125 0.003430
vt 0.990876 0.497560
vt 0.755129 0.497561
vt 0.990873 0.003429
vt 0.990876 0.497560
vt 0.755125 0.003430
vt 0.755129 0.497561
vt 0.990873 0.003429
vt 0.755125 0.003430
vt 0.990876 0.497560
vt 0.755129 0.497561
vt 0.990873 0.003429
vt 0.755125 0.003430
vt 0.990876 0.497560
vt 0.755129 0.497561
vt 0.990873 0.003429
vt 0.755125 0.003430
vt 0.990876 0.497560
vt 0.755129 0.497561
vt 0.990873 0.003429
vt 0.990876 0.497560
vt 0.755125 0.003430
vt 0.755129 0.497561
vt 0.990873 0.003429
vt 0.755125 0.003430
vt 0.990876 0.497560
vt 0.755129 0.497561
vt 0.990873 0.003429
vt 0.990876 0.497560
vt 0.755125 0.003430
vt 0.755129 0.497561
vt 0.990873 0.003429
vt 0.990876 0.497560
vt 0.755125 0.003430
vt 0.755129 0.497561
vt 0.990873 0.003429
vt 0.990876 0.497560
vt 0.755125 0.003430
vt 0.755129 0.497561
vt 0.990873 0.003429
vt 0.990876 0.497560
vt 0.755125 0.003430
vt 0.755129 0.497561
vt 0.990873 0.003429
vt 0.755125 0.003430
vt 0.990876 0.497560
vt 0.755129 0.497561
vt 0.990873 0.003429
vt 0.755125 0.003430
vt 0.990876 0.497560
vt 0.755129 0.497561
vt 0.990873 0.003429
vt 0.755125 0.003430
vt 0.990876 0.497560
vt 0.755129 0.497561
vt 0.755129 0.497561
vt 0.755125 0.003430
vt 0.990876 0.497560
vt 0.990873 0.003429
vt 0.755129 0.497561
vt 0.755125 0.003430
vt 0.990876 0.497560
vt 0.990873 0.003429
vt 0.755129 0.497561
vt 0.755125 0.003430
vt 0.990876 0.497560
vt 0.990873 0.003429
vt 0.755129 0.497561
vt 0.755125 0.003430
vt 0.990876 0.497560
vt 0.990873 0.003429
vt 0.990873 0.003429
vt 0.755125 0.003430
vt 0.990876 0.497560
vt 0.755129 0.497561
vt 0.990873 0.003429
vt 0.755125 0.003430
vt 0.990876 0.497560
vt 0.755129 0.497561
vt 0.990873 0.003429
vt 0.755125 0.003430
vt 0.990876 0.497560
vt 0.755129 0.497561
vt 0.990873 0.003429
vt 0.755125 0.003430
vt 0.990876 0.497560
vt 0.755129 0.497561
vt 0.990873 0.003429
vt 0.755125 0.003430
vt 0.990876 0.497560
vt 0.755129 0.497561
vt 0.990873 0.003429
vt 0.755125 0.003430
vt 0.990876 0.497560
vt 0.755129 0.497561
vt 0.990873 0.003429
vt 0.755125 0.003430
vt 0.990876 0.497560
vt 0.755129 0.497561
vt 0.990873 0.003429
vt 0.755125 0.003430
vt 0.990876 0.497560
vt 0.755129 0.497561
vt 0.990873 0.003429
vt 0.755125 0.003430
vt 0.990876 0.497560
vt 0.755129 0.497561
vt 0.990873 0.003429
vt 0.755125 0.003430
vt 0.990876 0.497560
vt 0.755129 0.497561
vt 0.990873 0.003429
vt 0.755125 0.003430
vt 0.990876 0.497560
vt 0.755129 0.497561
vt 0.990873 0.003429
vt 0.755125 0.003430
vt 0.990876 0.497560
vt 0.755129 0.497561
vn -0.7590 0.6291 -0.1681
vn -0.4706 -0.8523 0.2280
vn -0.7776 0.6280 -0.0297
vn 0.5432 0.7218 0.4289
vn 0.0125 0.9064 0.4222
vn -0.9478 -0.1191 0.2960
vn -0.9486 -0.1223 0.2920
vn -0.9482 -0.1208 0.2938
vn -0.9491 -0.1248 0.2891
vn 0.0125 -0.9064 0.4222
vn 0.9491 -0.1248 -0.2891
vn 0.9482 -0.1208 -0.2938
vn 0.9486 -0.1223 -0.2920
vn 0.9478 -0.1191 -0.2960
vn -0.9759 0.0000 0.2182
vn 0.0000 1.0000 -0.0000
vn -0.7583 0.6290 0.1713
vn -0.3246 -0.7765 0.5400
vn -0.2365 -0.8807 0.4104
vn -0.2751 -0.8401 0.4675
vn -0.2037 -0.9098 0.3616
vn -0.5189 0.4608 0.7200
vn -0.4844 0.5926 0.6435
vn -0.4437 0.6980 0.5621
vn -0.4044 0.7734 0.4881
vn -0.4833 -0.8754 0.0000
vn 0.4434 -0.8143 0.3746
vn 0.3500 -0.8352 0.4243
vn 0.3897 -0.8276 0.4041
vn 0.3078 -0.8413 0.4445
vn -0.8584 -0.5128 0.0161
vn -0.6007 -0.7993 0.0168
vn -0.7659 -0.6427 0.0167
vn -0.5203 -0.8538 0.0166
vn 0.6648 -0.7453 0.0501
vn 0.5748 -0.8163 0.0574
vn 0.6300 -0.7748 0.0531
vn 0.5445 -0.8366 0.0596
vn 0.6350 0.6797 0.3671
vn 0.4706 0.8523 -0.2280
vn -0.5432 -0.7218 -0.4289
vn -0.9491 0.1248 0.2891
vn -0.9486 0.1223 0.2920
vn -0.9482 0.1208 0.2938
vn -0.9478 0.1191 0.2960
vn 0.3246 0.7765 -0.5400
vn 0.2751 0.8401 -0.4675
vn 0.2365 0.8807 -0.4104
vn 0.2037 0.9098 -0.3616
vn 0.4833 0.8754 -0.0000
vn -0.4434 0.8143 -0.3746
vn -0.3897 0.8276 -0.4041
vn -0.3500 0.8352 -0.4243
vn -0.3078 0.8413 -0.4445
vn 0.8584 0.5128 -0.0161
vn 0.7659 0.6427 -0.0167
vn 0.6007 0.7993 -0.0168
vn 0.5203 0.8538 -0.0166
vn -0.6648 0.7453 -0.0501
vn -0.6300 0.7748 -0.0531
vn -0.5748 0.8163 -0.0574
vn -0.5445 0.8366 -0.0596
usemtl material_0.018
s 1
f 1/1/1 2/2/1 3/3/1
f 4/4/1 3/3/1 2/2/1
f 5/5/2 7/6/2 6/7/2
f 8/8/2 6/7/2 7/6/2
f 9/9/3 10/10/3 11/11/3
f 12/12/3 11/11/3 10/10/3
f 13/13/4 15/14/4 14/15/4
f 16/16/4 14/15/4 15/14/4
f 17/17/5 18/18/5 19/19/5
f 20/20/5 19/19/5 18/18/5
f 21/21/6 22/22/7 23/23/8
f 24/24/9 23/23/8 22/22/7
f 25/25/10 26/26/10 27/27/10
f 28/28/10 27/27/10 26/26/10
f 29/29/11 31/30/12 30/31/13
f 32/32/14 30/31/13 31/30/12
f 33/33/15 34/34/15 35/35/15
f 36/36/15 35/35/15 34/34/15
f 37/37/16 38/38/16 39/39/16
f 40/40/16 39/39/16 38/38/16
f 41/41/17 42/42/17 43/43/17
f 44/44/17 43/43/17 42/42/17
f 45/45/18 47/46/19 46/47/20
f 48/48/21 46/47/20 47/46/19
f 49/49/22 50/50/23 51/51/24
f 52/52/25 51/51/24 50/50/23
f 53/53/26 55/54/26 54/55/26
f 56/56/26 54/55/26 55/54/26
f 57/57/27 59/58/28 58/59/29
f 60/60/30 58/59/29 59/58/28
f 61/61/31 63/62/32 62/63/33
f 64/64/34 62/63/33 63/62/32
f 65/65/35 67/66/36 66/67/37
f 68/68/38 66/67/37 67/66/36
f 69/69/39 70/70/39 71/71/39
f 72/72/39 71/71/39 70/70/39
f 73/73/1 74/74/1 75/75/1
f 76/76/1 75/75/1 74/74/1
f 77/77/40 78/78/40 79/79/40
f 80/80/40 79/79/40 78/78/40
f 81/81/3 82/82/3 83/83/3
f 84/84/3 83/83/3 82/82/3
f 85/85/41 86/86/41 87/87/41
f 88/88/41 87/87/41 86/86/41
f 89/89/5 90/90/5 91/91/5
f 92/92/5 91/91/5 90/90/5
f 93/93/6 94/94/7 95/95/8
f 96/96/9 95/95/8 94/94/7
f 97/97/10 98/98/10 99/99/10
f 100/100/10 99/99/10 98/98/10
f 101/101/42 102/102/43 103/103/44
f 104/104/45 103/103/44 102/102/43
f 105/105/15 106/106/15 107/107/15
f 108/108/15 107/107/15 106/106/15
f 109/109/16 110/110/16 111/111/16
f 112/112/16 111/111/16 110/110/16
f 113/113/17 114/114/17 115/115/17
f 116/116/17 115/115/17 114/114/17
f 117/117/46 118/118/47 119/119/48
f 120/120/49 119/119/48 118/118/47
f 121/121/22 122/122/23 123/123/24
f 124/124/25 123/123/24 122/122/23
f 125/125/50 126/126/50 127/127/50
f 128/128/50 127/127/50 126/126/50
f 129/129/51 130/130/52 131/131/53
f 132/132/54 131/131/53 130/130/52
f 133/133/55 134/134/56 135/135/57
f 136/136/58 135/135/57 134/134/56
f 137/137/59 138/138/60 139/139/61
f 140/140/62 139/139/61 138/138/60
f 141/141/39 142/142/39 143/143/39
f 144/144/39 143/143/39 142/142/39
