# Blender v2.80 (sub 45) OBJ File: 'stag_stal.blend'
# www.blender.org
mtllib tdr_h_stag_a.mtl
o tdr_h_stag_a
v -20.967121 -6.922601 1155.860840
v -4.135304 -28.029016 1155.860840
v 31.903234 -46.477203 1096.508057
v 18.814249 -28.029020 1155.860840
v -12.358196 -46.477196 1087.461060
v -50.889435 -15.782615 797.460938
v -17.123407 -63.902576 797.460938
v -57.263584 -1.185756 717.460999
v -25.523138 -57.718193 717.460999
v -58.274807 -13.274984 414.416229
v -10.873723 -56.252438 414.416229
v -28.927858 -60.069187 317.460999
v -26.749392 -55.545647 -2.539065
v -68.780678 -17.300713 -30.995483
v -33.734009 -70.049271 -30.995483
v 26.749268 -55.545654 -2.539065
v 19.581062 -70.049278 -30.995483
v 60.105152 -13.718568 -2.538910
v 37.033077 -63.902588 797.460938
v 25.384584 -46.419067 717.460999
v 44.096474 -40.197758 414.416229
v 28.927734 -60.069195 317.460999
v 65.000099 -14.835825 317.460999
v 52.126041 41.569202 317.460999
v 48.200596 38.438713 -2.538910
v -0.000049 66.671745 317.460999
v -0.000050 61.650993 -2.539065
v -52.126133 41.569218 317.460999
v -48.200687 38.438725 -2.539065
v -65.000221 -14.835963 317.460999
v -60.105278 -13.718709 -2.539065
v 82.711296 -17.300728 -30.982208
v 67.698288 48.475636 -30.982208
v -0.000047 77.748711 -30.995483
v -53.767651 48.475651 -30.995483
v 52.323006 -11.478882 1096.508057
v -45.935558 55.219425 717.460999
v -38.838467 44.221958 797.460938
v -0.069267 80.321953 717.460999
v 9.954841 70.926506 797.460938
v -30.307383 32.163242 1087.461060
v 10.024063 51.585842 1087.461060
v 50.029495 44.221943 797.460938
v 49.852425 32.163235 1096.508057
v 72.417252 -15.782630 797.460938
v 57.125023 -1.185614 717.460999
v 78.369865 -13.275002 414.416229
v 66.137863 40.317062 414.416229
v 3.550055 64.167778 414.416321
v -45.971092 40.317081 414.416229
v 45.796997 55.219410 717.460999
v -40.268417 -11.479027 1087.461060
v 9.362769 31.109919 1155.860840
v 29.638880 19.396658 1155.860840
v 35.646069 -6.922610 1155.860840
v -14.959910 19.396666 1155.860840
vt 0.531059 -0.510011
vt 0.531059 -0.537819
vt 0.562451 -0.510011
vt 0.593843 -0.537819
vt 0.593843 -0.510011
vt 0.562451 -0.537819
vt 0.531059 -0.655719
vt 0.562451 -0.655719
vt 0.531059 -0.688243
vt 0.562451 -0.688243
vt 0.531059 -0.818340
vt 0.562451 -0.818340
vt 0.531059 -0.850864
vt 0.562451 -0.850864
vt 0.531059 -0.980960
vt 0.562451 -0.980960
vt 0.531059 -0.997223
vt 0.562451 -0.997223
vt 0.593843 -0.980960
vt 0.593843 -0.997223
vt 0.625234 -0.980960
vt 0.593843 -0.655719
vt 0.593843 -0.688243
vt 0.593843 -0.818340
vt 0.593843 -0.850864
vt 0.625234 -0.850864
vt 0.656626 -0.850864
vt 0.656626 -0.980960
vt 0.688017 -0.850864
vt 0.688017 -0.980960
vt 0.719409 -0.850864
vt 0.719409 -0.980960
vt 0.750801 -0.850864
vt 0.750801 -0.980960
vt 0.625234 -0.997223
vt 0.656626 -0.997223
vt 0.688017 -0.997223
vt 0.719409 -0.997223
vt 0.750801 -0.997223
vt 0.625234 -0.537819
vt 0.719409 -0.688243
vt 0.719409 -0.655719
vt 0.688017 -0.688243
vt 0.688017 -0.655719
vt 0.719409 -0.537819
vt 0.688017 -0.537819
vt 0.656626 -0.655719
vt 0.656626 -0.537819
vt 0.625234 -0.655719
vt 0.625234 -0.688243
vt 0.625234 -0.818340
vt 0.656626 -0.818340
vt 0.688017 -0.818340
vt 0.719409 -0.818340
vt 0.656626 -0.688243
vt 0.750801 -0.818340
vt 0.750801 -0.688243
vt 0.750801 -0.655719
vt 0.750801 -0.537819
vt 0.750801 -0.510011
vt 0.719409 -0.510011
vt 0.688018 -0.510011
vt 0.656626 -0.510011
vt 0.625234 -0.510011
vt 0.668166 -0.566970
vt 0.675151 -0.536365
vt 0.605662 -0.540953
vt 0.611600 -0.566970
vt 0.639883 -0.580590
vn -0.9714 -0.2231 -0.0812
vn -0.7468 -0.3242 0.5808
vn -0.7545 0.0494 0.6544
vn 0.4735 -0.8586 0.1967
vn 0.0364 -0.9598 0.2783
vn -0.4418 -0.8825 0.1613
vn -0.8436 -0.2607 0.4695
vn -0.4522 -0.8919 0.0066
vn -0.8621 -0.3761 0.3397
vn -0.4465 -0.8943 -0.0281
vn -0.7483 -0.3315 0.5745
vn -0.2050 -0.9787 0.0105
vn -0.7648 -0.4296 0.4801
vn -0.4314 -0.8990 0.0756
vn -0.7481 -0.2453 0.6165
vn -0.4366 -0.8637 0.2518
vn -0.9802 -0.1431 -0.1372
vn -0.4073 -0.7694 0.4921
vn 0.4860 -0.8627 0.1397
vn 0.2881 -0.8602 0.4208
vn 0.9090 -0.2663 0.3206
vn 0.4696 -0.8802 -0.0689
vn 0.5447 -0.8295 -0.1234
vn 0.4610 -0.8860 0.0507
vn 0.3948 -0.9178 0.0415
vn 0.9707 -0.2285 -0.0737
vn 0.7662 0.6408 -0.0474
vn 0.7229 0.6025 0.3384
vn -0.0050 1.0000 0.0052
vn -0.0089 0.9620 0.2728
vn -0.7841 0.6203 0.0207
vn -0.7884 0.5877 0.1820
vn 0.7476 -0.2299 0.6231
vn 0.6372 0.4880 0.5965
vn -0.0234 0.8770 0.4800
vn -0.7262 0.5913 0.3506
vn 0.9577 -0.2251 0.1792
vn -0.7959 0.6027 0.0577
vn -0.8049 0.5849 0.0998
vn -0.0242 0.9989 0.0402
vn 0.0580 0.9936 0.0973
vn -0.7733 0.6127 0.1629
vn -0.0054 0.9873 0.1590
vn 0.7985 0.6018 0.0156
vn 0.8071 0.5531 0.2065
vn 0.9834 -0.1630 -0.0793
vn 0.9836 -0.1712 -0.0566
vn 0.9508 -0.3099 -0.0003
vn 0.7737 0.6319 -0.0460
vn -0.0307 0.9993 -0.0210
vn -0.7826 0.6223 0.0151
vn 0.7919 0.6103 0.0233
vn -0.7796 0.6260 0.0183
vn 0.0140 0.9851 0.1715
vn 0.5407 0.3749 0.7530
vn 0.6662 -0.1286 0.7346
usemtl tdr_h_stag_diffuse
s 1
f 1/1/1 52/2/2 2/3/3
f 3/4/4 4/5/5 5/6/6
f 2/3/3 5/6/6 4/5/5
f 5/6/6 2/3/3 52/2/2
f 52/2/2 6/7/7 5/6/6
f 7/8/8 5/6/6 6/7/7
f 6/7/7 8/9/9 7/8/8
f 9/10/10 7/8/8 8/9/9
f 8/9/9 10/11/11 9/10/10
f 11/12/12 9/10/10 10/11/11
f 10/11/11 30/13/13 11/12/12
f 12/14/14 11/12/12 30/13/13
f 30/13/13 31/15/15 12/14/14
f 13/16/16 12/14/14 31/15/15
f 31/15/15 14/17/17 13/16/16
f 15/18/18 13/16/16 14/17/17
f 13/16/16 15/18/18 16/19/19
f 17/20/20 16/19/19 15/18/18
f 16/19/19 17/20/20 18/21/21
f 5/6/6 7/8/8 3/4/4
f 19/22/22 3/4/4 7/8/8
f 7/8/8 9/10/10 19/22/22
f 20/23/23 19/22/22 9/10/10
f 9/10/10 11/12/12 20/23/23
f 21/24/24 20/23/23 11/12/12
f 11/12/12 12/14/14 21/24/24
f 22/25/25 21/24/24 12/14/14
f 12/14/14 13/16/16 22/25/25
f 16/19/19 22/25/25 13/16/16
f 22/25/25 16/19/19 23/26/26
f 18/21/21 23/26/26 16/19/19
f 23/26/26 18/21/21 24/27/27
f 25/28/28 24/27/27 18/21/21
f 24/27/27 25/28/28 26/29/29
f 27/30/30 26/29/29 25/28/28
f 26/29/29 27/30/30 28/31/31
f 29/32/32 28/31/31 27/30/30
f 28/31/31 29/32/32 30/33/13
f 31/34/15 30/33/13 29/32/32
f 32/35/33 18/21/21 17/20/20
f 18/21/21 32/35/33 25/28/28
f 33/36/34 25/28/28 32/35/33
f 25/28/28 33/36/34 27/30/30
f 34/37/35 27/30/30 33/36/34
f 27/30/30 34/37/35 29/32/32
f 35/38/36 29/32/32 34/37/35
f 29/32/32 35/38/36 31/34/15
f 14/39/17 31/34/15 35/38/36
f 3/4/4 19/22/22 36/40/37
f 37/41/38 38/42/39 39/43/40
f 40/44/41 39/43/40 38/42/39
f 38/42/39 41/45/42 40/44/41
f 42/46/43 40/44/41 41/45/42
f 40/44/41 42/46/43 43/47/44
f 44/48/45 43/47/44 42/46/43
f 43/47/44 44/48/45 45/49/46
f 36/40/37 45/49/46 44/48/45
f 45/49/46 36/40/37 19/22/22
f 19/22/22 20/23/23 45/49/46
f 46/50/47 45/49/46 20/23/23
f 20/23/23 21/24/24 46/50/47
f 47/51/48 46/50/47 21/24/24
f 21/24/24 22/25/25 47/51/48
f 23/26/26 47/51/48 22/25/25
f 47/51/48 23/26/26 48/52/49
f 24/27/27 48/52/49 23/26/26
f 48/52/49 24/27/27 49/53/50
f 26/29/29 49/53/50 24/27/27
f 49/53/50 26/29/29 50/54/51
f 28/31/31 50/54/51 26/29/29
f 45/49/46 46/50/47 43/47/44
f 51/55/52 43/47/44 46/50/47
f 43/47/44 51/55/52 40/44/41
f 39/43/40 40/44/41 51/55/52
f 50/54/51 37/41/38 49/53/50
f 39/43/40 49/53/50 37/41/38
f 49/53/50 39/43/40 48/52/49
f 51/55/52 48/52/49 39/43/40
f 48/52/49 51/55/52 47/51/48
f 46/50/47 47/51/48 51/55/52
f 30/33/13 10/56/11 28/31/31
f 50/54/51 28/31/31 10/56/11
f 10/56/11 8/57/9 50/54/51
f 37/41/38 50/54/51 8/57/9
f 8/57/9 6/58/7 37/41/38
f 38/42/39 37/41/38 6/58/7
f 6/58/7 52/59/2 38/42/39
f 41/45/42 38/42/39 52/59/2
f 52/59/2 1/60/1 41/45/42
f 56/61/53 41/45/42 1/60/1
f 41/45/42 56/61/53 42/46/43
f 53/62/54 42/46/43 56/61/53
f 42/46/43 53/62/54 44/48/45
f 54/63/55 44/48/45 53/62/54
f 44/48/45 54/63/55 36/40/37
f 55/64/56 36/40/37 54/63/55
f 36/40/37 55/64/56 3/4/4
f 4/5/5 3/4/4 55/64/56
f 56/65/53 54/63/55 53/66/54
f 4/67/5 55/64/56 2/68/3
f 55/64/56 54/63/55 2/68/3
f 2/68/3 54/63/55 56/65/53
f 1/69/1 2/68/3 56/65/53
