# Blender v2.80 (sub 45) OBJ File: 'stag_stal.blend'
# www.blender.org
mtllib tdr_h_stag_ceiling_a.mtl
o tdr_h_stag_ceiling_a
v -42.209656 13.714756 -1416.861938
v 0.000003 20.066257 -2125.128662
v 0.000005 29.202875 -1416.861938
v 19.084150 6.200812 -2125.128662
v -31.925335 -43.941429 -708.595215
v -26.087013 -35.905674 -1416.861938
v 31.925318 -62.606525 -708.595215
v 26.087004 -35.905689 -1416.861938
v -11.794654 1.156497 -2125.128662
v 11.794647 -16.233946 -2125.128662
v 27.665598 13.714745 -1416.861938
v 0.000009 54.314602 -708.595215
v -80.664146 26.209398 -0.328603
v 0.000014 84.815308 -0.328603
v 54.340809 16.784126 -708.595215
v 80.664154 26.209360 -0.328603
v 49.853180 -68.617043 -0.328603
v -49.853195 -68.617012 -0.328603
v -63.704437 16.784145 -708.595215
v -8.073633 6.200821 -2125.128662
vt 0.006563 0.999610
vt 0.006563 0.666276
vt 0.036113 0.999610
vt 0.006563 0.332943
vt 0.036113 0.666276
vt 0.065662 0.999610
vt 0.124761 0.332943
vt 0.124761 0.666276
vt 0.095211 0.332943
vt 0.095211 0.666276
vt 0.124761 0.999610
vt 0.095211 0.999610
vt 0.065662 0.666276
vt 0.036113 0.332943
vt 0.006563 -0.000390
vt 0.036113 -0.000390
vt 0.065662 0.332943
vt 0.065662 -0.000390
vt 0.095211 -0.000390
vt 0.124761 -0.000390
vt 0.154310 0.332943
vt 0.154310 -0.000390
vt 0.154310 0.999610
vt 0.058860 0.999610
vt 0.154310 0.666276
vn -0.5681 -0.0536 -0.8212
vn -0.5302 0.2837 -0.7990
vn -0.6555 0.1957 -0.7294
vn -0.5650 0.1971 -0.8012
vn 0.0771 0.9968 -0.0204
vn 0.7610 0.2467 -0.6001
vn -0.6305 -0.7759 -0.0218
vn -0.5895 -0.8066 -0.0437
vn 0.4804 -0.8767 -0.0230
vn 0.6915 -0.7206 -0.0509
vn -0.8087 -0.1156 -0.5767
vn 0.2520 -0.7831 -0.5685
vn 0.8701 0.4919 -0.0305
vn 0.0332 0.9989 -0.0344
vn -0.7440 0.1196 0.6574
vn -0.0007 0.9991 -0.0417
vn 0.9401 0.3390 -0.0342
vn 0.9498 0.3106 -0.0368
vn 0.5854 -0.8099 -0.0370
vn -0.5834 -0.8115 -0.0337
usemtl tdr_h_stag_diffuse
s 1
f 20/1/1 1/2/2 2/3/3
f 1/2/2 19/4/4 3/5/5
f 3/5/5 2/3/3 1/2/2
f 2/3/3 3/5/5 4/6/6
f 5/7/7 6/8/8 7/9/9
f 8/10/10 7/9/9 6/8/8
f 6/8/8 9/11/11 8/10/10
f 10/12/12 8/10/10 9/11/11
f 10/12/12 9/11/11 4/6/6
f 4/6/6 11/13/13 10/12/12
f 11/13/13 4/6/6 3/5/5
f 3/5/5 12/14/14 11/13/13
f 12/14/14 3/5/5 19/4/4
f 19/4/4 13/15/15 12/14/14
f 14/16/16 12/14/14 13/15/15
f 12/14/14 14/16/16 15/17/17
f 16/18/18 15/17/17 14/16/16
f 15/17/17 16/18/18 7/9/9
f 17/19/19 7/9/9 16/18/18
f 7/9/9 17/19/19 5/7/7
f 18/20/20 5/7/7 17/19/19
f 5/7/7 18/20/20 19/21/4
f 13/22/15 19/21/4 18/20/20
f 15/17/17 11/13/13 12/14/14
f 11/13/13 15/17/17 8/10/10
f 7/9/9 8/10/10 15/17/17
f 8/10/10 10/12/12 11/13/13
f 4/6/6 20/23/1 2/24/3
f 9/11/11 20/23/1 4/6/6
f 9/11/11 6/8/8 20/23/1
f 1/25/2 20/23/1 6/8/8
f 6/8/8 5/7/7 1/25/2
f 19/21/4 1/25/2 5/7/7
