# Blender v2.80 (sub 45) OBJ File: 'stag_stal.blend'
# www.blender.org
mtllib tdr_h_fern_a.mtl
o tdr_h_fern_a
v -5.640317 133.604294 492.238434
v -13.422411 -9.206377 2.221165
v 121.402924 307.208221 414.447052
v 116.104309 175.758499 -47.266586
v -36.821838 264.957428 425.775055
v -23.204107 131.996048 -35.537804
v 139.674805 149.605545 456.590271
v 125.886032 34.556080 -9.507614
v -49.696972 -122.419052 -63.271179
v 49.696941 37.521996 18.225765
v -145.949234 -256.545654 296.508789
v -54.276150 -107.719193 399.348236
v 63.487957 -100.500259 -26.801651
v -63.487988 15.603168 -18.243774
v -17.093311 -238.861038 335.471741
v -167.410614 -101.414894 345.602753
v -63.730347 -135.383255 -3.436211
v 99.628769 -119.446724 -43.800720
v 19.631922 -280.545715 305.112946
v 185.538895 -274.030457 284.881439
v 34.813515 -287.029053 -24.396255
v 14.250967 -67.948990 -15.473778
v 94.292763 -347.761353 197.052139
v 109.123573 -201.325226 316.192017
v 151.266052 327.043091 285.977173
v 65.355865 172.459320 -42.704948
v -14.640924 333.558472 306.208740
v -98.003242 188.395920 -2.340439
v 74.850670 254.337921 317.287781
v -20.021963 120.961617 -14.378014
v 60.019909 400.774048 198.147919
v 0.540675 340.041779 -23.300499
v 88.608902 -84.539192 480.003326
v -0.000031 -98.265678 -22.522705
v 83.351166 142.205154 450.184998
v 0.000022 132.901337 -22.522705
v -21.574436 17.317871 468.686249
v -88.632668 17.317854 -6.894371
v 188.276733 17.317833 431.683807
v 88.632690 17.317823 -38.151047
vt 0.753781 0.496982
vt 0.753777 0.002851
vt 0.989528 0.496981
vt 0.989524 0.002850
vt 0.753781 0.496982
vt 0.753777 0.002851
vt 0.989528 0.496981
vt 0.989524 0.002850
vt 0.989524 0.002850
vt 0.753777 0.002851
vt 0.989528 0.496981
vt 0.753781 0.496982
vt 0.989524 0.002850
vt 0.753777 0.002851
vt 0.989528 0.496981
vt 0.753781 0.496982
vt 0.989524 0.002850
vt 0.753777 0.002851
vt 0.989528 0.496981
vt 0.753781 0.496982
vt 0.989524 0.002850
vt 0.753777 0.002851
vt 0.989528 0.496981
vt 0.753781 0.496982
vt 0.753781 0.496982
vt 0.753777 0.002851
vt 0.989528 0.496981
vt 0.989524 0.002850
vt 0.753781 0.496982
vt 0.753777 0.002851
vt 0.989528 0.496981
vt 0.989524 0.002850
vt 0.753781 0.496982
vt 0.753777 0.002851
vt 0.989528 0.496981
vt 0.989524 0.002850
vt 0.753781 0.496982
vt 0.753777 0.002851
vt 0.989528 0.496981
vt 0.989524 0.002850
vn 0.8283 -0.5413 0.1446
vn -0.5603 -0.8001 0.2141
vn 0.8432 -0.5370 0.0254
vn 0.6343 0.6646 0.3949
vn -0.0159 -0.9064 -0.4221
vn 0.9674 0.1003 -0.2324
vn 0.9671 0.0983 -0.2348
vn 0.9668 0.0972 -0.2362
vn 0.9665 0.0957 -0.2380
vn -0.0159 0.9064 -0.4221
vn 0.9665 -0.0957 -0.2380
vn 0.9671 -0.0983 -0.2348
vn 0.9668 -0.0972 -0.2362
vn 0.9675 -0.1003 -0.2324
vn 0.9848 -0.0000 -0.1736
vn -0.0000 -1.0000 0.0000
usemtl material_0.017
s 1
f 1/1/1 2/2/1 3/3/1
f 4/4/1 3/3/1 2/2/1
f 5/5/2 6/6/2 7/7/2
f 8/8/2 7/7/2 6/6/2
f 9/9/3 10/10/3 11/11/3
f 12/12/3 11/11/3 10/10/3
f 13/13/4 14/14/4 15/15/4
f 16/16/4 15/15/4 14/14/4
f 17/17/5 18/18/5 19/19/5
f 20/20/5 19/19/5 18/18/5
f 21/21/6 22/22/7 23/23/8
f 24/24/9 23/23/8 22/22/7
f 25/25/10 26/26/10 27/27/10
f 28/28/10 27/27/10 26/26/10
f 29/29/11 30/30/12 31/31/13
f 32/32/14 31/31/13 30/30/12
f 33/33/15 34/34/15 35/35/15
f 36/36/15 35/35/15 34/34/15
f 37/37/16 38/38/16 39/39/16
f 40/40/16 39/39/16 38/38/16
o tdr_h_fern_a.001
v -5.640317 133.604294 492.238434
v -13.422411 -9.206377 2.221165
v 121.402924 307.208221 414.447052
v 116.104309 175.758499 -47.266586
v -36.821838 264.957428 425.775055
v -23.204107 131.996048 -35.537804
v 139.674805 149.605545 456.590271
v 125.886032 34.556080 -9.507614
v -49.696972 -122.419052 -63.271179
v 49.696941 37.521996 18.225765
v -145.949234 -256.545654 296.508789
v -54.276150 -107.719193 399.348236
v 63.487957 -100.500259 -26.801651
v -63.487988 15.603168 -18.243774
v -17.093311 -238.861038 335.471741
v -167.410614 -101.414894 345.602753
v -63.730347 -135.383255 -3.436211
v 99.628769 -119.446724 -43.800720
v 19.631922 -280.545715 305.112946
v 185.538895 -274.030457 284.881439
v 34.813515 -287.029053 -24.396255
v 14.250967 -67.948990 -15.473778
v 94.292763 -347.761353 197.052139
v 109.123573 -201.325226 316.192017
v 151.266052 327.043091 285.977173
v 65.355865 172.459320 -42.704948
v -14.640924 333.558472 306.208740
v -98.003242 188.395920 -2.340439
v 74.850670 254.337921 317.287781
v -20.021963 120.961617 -14.378014
v 60.019909 400.774048 198.147919
v 0.540675 340.041779 -23.300499
v 88.608902 -84.539192 480.003326
v -0.000031 -98.265678 -22.522705
v 83.351166 142.205154 450.184998
v 0.000022 132.901337 -22.522705
v -21.574436 17.317871 468.686249
v -88.632668 17.317854 -6.894371
v 188.276733 17.317833 431.683807
v 88.632690 17.317823 -38.151047
vt 0.753781 0.496982
vt 0.753777 0.002851
vt 0.989528 0.496981
vt 0.989524 0.002850
vt 0.753781 0.496982
vt 0.753777 0.002851
vt 0.989528 0.496981
vt 0.989524 0.002850
vt 0.989524 0.002850
vt 0.989528 0.496981
vt 0.753777 0.002851
vt 0.753781 0.496982
vt 0.989524 0.002850
vt 0.753777 0.002851
vt 0.989528 0.496981
vt 0.753781 0.496982
vt 0.989524 0.002850
vt 0.989528 0.496981
vt 0.753777 0.002851
vt 0.753781 0.496982
vt 0.989524 0.002850
vt 0.989528 0.496981
vt 0.753777 0.002851
vt 0.753781 0.496982
vt 0.753781 0.496982
vt 0.989528 0.496981
vt 0.753777 0.002851
vt 0.989524 0.002850
vt 0.753781 0.496982
vt 0.753777 0.002851
vt 0.989528 0.496981
vt 0.989524 0.002850
vt 0.753781 0.496982
vt 0.989528 0.496981
vt 0.753777 0.002851
vt 0.989524 0.002850
vt 0.753781 0.496982
vt 0.753777 0.002851
vt 0.989528 0.496981
vt 0.989524 0.002850
vn 0.8283 -0.5413 0.1446
vn -0.5603 -0.8001 0.2141
vn -0.8432 0.5370 -0.0254
vn 0.6343 0.6646 0.3949
vn 0.0159 0.9064 0.4221
vn -0.9674 -0.1003 0.2324
vn -0.9668 -0.0972 0.2362
vn -0.9671 -0.0983 0.2348
vn -0.9665 -0.0957 0.2380
vn 0.0159 -0.9064 0.4221
vn 0.9665 -0.0957 -0.2380
vn 0.9671 -0.0983 -0.2348
vn 0.9668 -0.0972 -0.2362
vn 0.9675 -0.1003 -0.2324
vn -0.9848 0.0000 0.1736
vn -0.0000 -1.0000 0.0000
usemtl material_0.017
s 1
f 41/41/17 42/42/17 43/43/17
f 44/44/17 43/43/17 42/42/17
f 45/45/18 46/46/18 47/47/18
f 48/48/18 47/47/18 46/46/18
f 49/49/19 51/50/19 50/51/19
f 52/52/19 50/51/19 51/50/19
f 53/53/20 54/54/20 55/55/20
f 56/56/20 55/55/20 54/54/20
f 57/57/21 59/58/21 58/59/21
f 60/60/21 58/59/21 59/58/21
f 61/61/22 63/62/23 62/63/24
f 64/64/25 62/63/24 63/62/23
f 65/65/26 67/66/26 66/67/26
f 68/68/26 66/67/26 67/66/26
f 69/69/27 70/70/28 71/71/29
f 72/72/30 71/71/29 70/70/28
f 73/73/31 75/74/31 74/75/31
f 76/76/31 74/75/31 75/74/31
f 77/77/32 78/78/32 79/79/32
f 80/80/32 79/79/32 78/78/32
