# Blender v2.80 (sub 45) OBJ File: 'stag_stal.blend'
# www.blender.org
mtllib tdr_h_bush.mtl
o tdr_h_bush.001
v -6.837230 312.006348 128.857834
v -6.837191 312.006348 -3.793215
v -73.162865 99.278221 128.857834
v -73.162811 34.153374 -3.793220
v -97.439598 266.333527 128.857819
v -97.439537 266.333527 -3.793235
v 17.439501 165.666534 128.857849
v 17.439548 165.666534 -3.793195
v -44.545357 239.599960 234.157730
v -44.545357 193.920349 -24.904289
v 124.545334 41.146885 269.150330
v 124.545326 -4.532739 10.088289
v -60.757244 57.112511 266.335175
v -60.757290 11.432885 7.273160
v 140.757233 223.634338 236.972885
v 140.757217 177.954742 -22.089138
v -169.705658 16.000088 241.726761
v -169.705658 16.000107 -9.705640
v 169.705551 15.999956 329.705566
v 169.705566 15.999976 -9.705644
v -0.000097 -153.705582 329.705566
v -0.000097 -153.705551 -9.705654
v -0.000006 185.705643 329.705597
v -0.000001 185.705673 -9.705625
v 36.392887 -66.498528 222.513290
v 36.392956 11.433862 13.803804
v -116.393173 -272.158966 182.969406
v -116.393051 -194.226425 -25.740095
v -116.393028 -66.498352 222.513290
v -116.392960 11.434097 13.803784
v 36.392807 -272.159088 182.969391
v 36.392860 -194.226593 -25.740108
v 86.958069 -194.329956 128.857819
v 86.958130 -194.329987 -3.793225
v -43.677692 -217.364532 128.857819
v -43.677677 -217.364532 -3.793230
v 10.122910 -140.529358 128.857819
v 10.122965 -140.529388 -3.793235
v 33.157440 -271.165161 128.857834
v 33.157463 -271.165192 -3.793200
v 194.055420 26.765999 85.718353
v 137.994720 26.765972 -34.504341
v 75.659210 3.731429 140.927399
v 19.598475 3.731438 20.704720
v 124.419106 80.566559 118.190277
v 68.358414 80.566528 -2.032430
v 145.295471 -50.069218 108.455505
v 89.234749 -50.069248 -11.767195
v -103.366943 26.766047 134.224670
v -18.100431 26.765997 32.608120
v -203.439713 3.731474 50.253616
v -118.173279 3.731461 -51.362968
v -162.226089 80.566605 84.835953
v -76.959587 80.566544 -16.780605
v -144.580673 -50.069153 99.642303
v -59.314175 -50.069206 -1.974270
v -6.837230 312.006348 128.857834
v -6.837191 312.006348 -3.793215
v -73.162865 99.278221 128.857834
v -73.162811 34.153374 -3.793220
v -97.439598 266.333527 128.857819
v -97.439537 266.333527 -3.793235
v 17.439501 165.666534 128.857849
v 17.439548 165.666534 -3.793195
v -44.545357 239.599960 234.157730
v -44.545357 193.920349 -24.904289
v 124.545334 41.146885 269.150330
v 124.545326 -4.532739 10.088289
v -60.757244 57.112511 266.335175
v -60.757290 11.432885 7.273160
v 140.757233 223.634338 236.972885
v 140.757217 177.954742 -22.089138
v -169.705658 16.000088 241.726761
v -169.705658 16.000107 -9.705640
v 169.705551 15.999956 329.705566
v 169.705566 15.999976 -9.705644
v -0.000097 -153.705582 329.705566
v -0.000097 -153.705551 -9.705654
v -0.000006 185.705643 329.705597
v -0.000001 185.705673 -9.705625
v 36.392887 -66.498528 222.513290
v 36.392956 11.433862 13.803804
v -116.393173 -272.158966 182.969406
v -116.393051 -194.226425 -25.740095
v -116.393028 -66.498352 222.513290
v -116.392960 11.434097 13.803784
v 36.392807 -272.159088 182.969391
v 36.392860 -194.226593 -25.740108
v 86.958069 -194.329956 128.857819
v 86.958130 -194.329987 -3.793225
v -43.677692 -217.364532 128.857819
v -43.677677 -217.364532 -3.793230
v 10.122910 -140.529358 128.857819
v 10.122965 -140.529388 -3.793235
v 33.157440 -271.165161 128.857834
v 33.157463 -271.165192 -3.793200
v 194.055420 26.765999 85.718353
v 137.994720 26.765972 -34.504341
v 75.659210 3.731429 140.927399
v 19.598475 3.731438 20.704720
v 124.419106 80.566559 118.190277
v 68.358414 80.566528 -2.032430
v 145.295471 -50.069218 108.455505
v 89.234749 -50.069248 -11.767195
v -103.366943 26.766047 134.224670
v -18.100431 26.765997 32.608120
v -203.439713 3.731474 50.253616
v -118.173279 3.731461 -51.362968
v -162.226089 80.566605 84.835953
v -76.959587 80.566544 -16.780605
v -144.580673 -50.069153 99.642303
v -59.314175 -50.069206 -1.974270
vt 0.503035 1.000000
vt 0.251736 1.000000
vt 0.503035 0.747849
vt 0.251736 0.747849
vt 0.250260 1.000000
vt 0.501559 1.000000
vt 0.250260 0.747849
vt 0.501559 0.747849
vt 0.500520 1.000000
vt 0.751819 1.000000
vt 0.500520 0.747849
vt 0.751819 0.747849
vt 0.250260 1.000000
vt 0.501559 1.000000
vt 0.250260 0.747849
vt 0.501559 0.747849
vt 0.500520 1.000000
vt 0.751819 1.000000
vt 0.500520 0.747849
vt 0.751819 0.747849
vt 0.250260 1.000000
vt 0.501559 1.000000
vt 0.250260 0.747849
vt 0.501559 0.747849
vt 0.500520 1.000000
vt 0.500520 0.747849
vt 0.751819 1.000000
vt 0.751819 0.747849
vt 0.250260 1.000000
vt 0.501559 1.000000
vt 0.250260 0.747849
vt 0.501559 0.747849
vt 0.500520 1.000000
vt 0.500520 0.747849
vt 0.751819 1.000000
vt 0.751819 0.747849
vt 0.250260 0.749684
vt 0.501559 0.749684
vt 0.250260 0.497534
vt 0.501559 0.497534
vt 0.500520 1.000000
vt 0.500520 0.747849
vt 0.751819 1.000000
vt 0.751819 0.747849
vt 0.250260 0.749684
vt 0.250260 0.497534
vt 0.501559 0.749684
vt 0.501559 0.497534
vt 0.500520 1.000000
vt 0.500520 0.747849
vt 0.751819 1.000000
vt 0.751819 0.747849
vt 0.250260 0.749684
vt 0.501559 0.749684
vt 0.250260 0.497534
vt 0.501559 0.497534
vt 0.503035 1.000000
vt 0.503035 0.747849
vt 0.251736 1.000000
vt 0.251736 0.747849
vt 0.250260 1.000000
vt 0.250260 0.747849
vt 0.501559 1.000000
vt 0.501559 0.747849
vt 0.500520 1.000000
vt 0.500520 0.747849
vt 0.751819 1.000000
vt 0.751819 0.747849
vt 0.250260 1.000000
vt 0.250260 0.747849
vt 0.501559 1.000000
vt 0.501559 0.747849
vt 0.500520 1.000000
vt 0.500520 0.747849
vt 0.751819 1.000000
vt 0.751819 0.747849
vt 0.250260 1.000000
vt 0.250260 0.747849
vt 0.501559 1.000000
vt 0.501559 0.747849
vt 0.500520 1.000000
vt 0.500520 0.747849
vt 0.751819 1.000000
vt 0.751819 0.747849
vt 0.250260 1.000000
vt 0.250260 0.747849
vt 0.501559 1.000000
vt 0.501559 0.747849
vt 0.500520 1.000000
vt 0.500520 0.747849
vt 0.751819 1.000000
vt 0.751819 0.747849
vt 0.250260 0.749684
vt 0.250260 0.497534
vt 0.501559 0.749684
vt 0.501559 0.497534
vt 0.500520 1.000000
vt 0.500520 0.747849
vt 0.751819 1.000000
vt 0.751819 0.747849
vt 0.250260 0.749684
vt 0.250260 0.497534
vt 0.501559 0.749684
vt 0.501559 0.497534
vt 0.500520 1.000000
vt 0.500520 0.747849
vt 0.751819 1.000000
vt 0.751819 0.747849
vt 0.250260 0.749684
vt 0.250260 0.497534
vt 0.501559 0.749684
vt 0.501559 0.497534
vn 0.9547 -0.2977 0.0000
vn 0.9649 -0.2490 0.0831
vn 0.9606 -0.2752 0.0390
vn 0.9664 -0.2307 0.1133
vn 0.6591 0.7521 0.0000
vn 0.7660 0.6330 -0.1116
vn -0.6428 0.7544 -0.1330
vn 0.0000 1.0000 0.0000
vn -1.0000 0.0000 0.0000
vn -0.8039 0.5572 0.2081
vn 0.8039 0.5572 0.2081
vn -0.1736 0.9848 -0.0000
vn 0.9848 0.1736 0.0000
vn -0.1574 0.9848 0.0734
vn -0.8925 -0.1736 0.4162
vn -0.1330 0.9848 -0.1116
vn 0.7544 0.1736 0.6330
vn -0.9547 0.2977 -0.0000
vn -0.9606 0.2752 -0.0390
vn -0.9649 0.2490 -0.0831
vn -0.9664 0.2307 -0.1133
vn -0.6591 -0.7521 -0.0000
vn -0.7660 -0.6330 0.1116
vn 0.6428 -0.7544 0.1330
vn -0.0000 -1.0000 -0.0000
vn 1.0000 -0.0000 -0.0000
vn -0.8039 -0.5572 -0.2081
vn -0.9848 -0.1736 -0.0000
vn -0.7544 -0.1736 -0.6330
usemtl material_0.014
s 1
f 1/1/1 3/2/2 2/3/3
f 4/4/4 2/3/3 3/2/2
f 5/5/5 7/6/5 6/7/5
f 8/8/5 6/7/5 7/6/5
f 9/9/6 11/10/6 10/11/6
f 12/12/6 10/11/6 11/10/6
f 13/13/7 15/14/7 14/15/7
f 16/16/7 14/15/7 15/14/7
f 17/17/8 19/18/8 18/19/8
f 20/20/8 18/19/8 19/18/8
f 21/21/9 23/22/9 22/23/9
f 24/24/9 22/23/9 23/22/9
f 25/25/10 26/26/10 27/27/10
f 28/28/10 27/27/10 26/26/10
f 29/29/11 31/30/11 30/31/11
f 32/32/11 30/31/11 31/30/11
f 33/33/12 34/34/12 35/35/12
f 36/36/12 35/35/12 34/34/12
f 37/37/13 39/38/13 38/39/13
f 40/40/13 38/39/13 39/38/13
f 41/41/14 42/42/14 43/43/14
f 44/44/14 43/43/14 42/42/14
f 45/45/15 46/46/15 47/47/15
f 48/48/15 47/47/15 46/46/15
f 49/49/16 50/50/16 51/51/16
f 52/52/16 51/51/16 50/50/16
f 53/53/17 55/54/17 54/55/17
f 56/56/17 54/55/17 55/54/17
f 57/57/18 58/58/19 59/59/20
f 60/60/21 59/59/20 58/58/19
f 61/61/22 62/62/22 63/63/22
f 64/64/22 63/63/22 62/62/22
f 65/65/23 66/66/23 67/67/23
f 68/68/23 67/67/23 66/66/23
f 69/69/24 70/70/24 71/71/24
f 72/72/24 71/71/24 70/70/24
f 73/73/25 74/74/25 75/75/25
f 76/76/25 75/75/25 74/74/25
f 77/77/26 78/78/26 79/79/26
f 80/80/26 79/79/26 78/78/26
f 81/81/10 82/82/10 83/83/10
f 84/84/10 83/83/10 82/82/10
f 85/85/27 86/86/27 87/87/27
f 88/88/27 87/87/27 86/86/27
f 89/89/12 90/90/12 91/91/12
f 92/92/12 91/91/12 90/90/12
f 93/93/28 94/94/28 95/95/28
f 96/96/28 95/95/28 94/94/28
f 97/97/14 98/98/14 99/99/14
f 100/100/14 99/99/14 98/98/14
f 101/101/15 102/102/15 103/103/15
f 104/104/15 103/103/15 102/102/15
f 105/105/16 106/106/16 107/107/16
f 108/108/16 107/107/16 106/106/16
f 109/109/29 110/110/29 111/111/29
f 112/112/29 111/111/29 110/110/29
