# Created by Metasequoia

mtllib rays_vertical_opening_01.mtl

v 512.000000 0.000000 0.000000
v -1043.579956 0.000000 0.000000
v 3274.310059 -3200.419434 2197.171387
v -1288.011963 -3222.146484 2392.749512
v -256.000000 0.000000 512.000000
v 577.515503 -3284.433594 3820.958984
v 1695.705200 -1426.490845 928.054077
v -1133.484741 -1451.306519 1038.123291
v 114.126900 -1457.223389 1921.636719
v 0.000000 0.000000 512.000000
v 1979.932617 -3250.509766 3379.351318
v 872.436401 -1451.170898 1725.253052
v -512.000000 0.000000 512.000000
v -416.200500 -3255.814941 3319.857910
v -497.532288 -1465.345459 1716.207153
v -512.000000 0.000000 -512.000000
v -546.980774 -1456.510010 167.648407
v 0.000000 0.000000 -512.000000
v 717.789185 -1434.459595 103.338600
v -256.000000 0.000000 -512.000000
v 103.321701 -1439.394409 -15.074600
v -648.938477 -3232.730957 884.098083
v 465.910492 -3226.621582 533.973877
v 1654.218872 -3227.228516 846.127930
# 24 vertices

vt 0.21785 0.55500
vt 0.00000 0.58467
vt 0.00000 0.00000
vt 0.22876 0.00000
vt 0.47495 0.00000
vt 0.47742 0.51964
vt 0.22163 1.00000
vt 0.00000 1.00000
vt 0.47970 1.00000
vt 0.74936 0.48261
vt 0.73368 0.00000
vt 1.00000 0.00000
vt 1.00000 0.44847
vt 0.71732 1.00000
vt 1.00000 1.00000
vt 1.00000 0.52941
vt 0.76471 0.52941
vt 0.76471 1.00000
vt 0.23529 1.00000
vt 0.23529 0.52941
vt 0.00000 0.52941
vt 0.52941 0.52941
vt 0.52941 1.00000
vt 0.76471 0.00000
vt 0.52941 0.00000
vt 0.23529 0.00000
# 26 texture vertices

vn -0.48196 -0.71898 -0.50079
vn 0.61864 -0.48810 -0.61566
vn -0.44385 -0.74414 -0.49925
vn 0.62020 -0.50894 -0.59694
vn 0.01964 -0.67348 -0.73894
vn 0.05886 -0.70433 -0.70742
vn -0.46302 -0.73175 -0.50015
vn 0.61948 -0.49857 -0.60636
vn 0.03904 -0.68903 -0.72368
vn -0.29255 -0.72596 -0.62242
vn -0.31489 -0.74521 -0.58780
vn -0.30388 -0.73584 -0.60515
vn 0.38701 -0.58640 -0.71158
vn 0.46439 -0.58418 -0.66564
vn 0.42651 -0.58588 -0.68908
vn 0.45101 0.38134 0.80695
vn 0.53147 0.33629 0.77746
vn -0.41110 0.14741 0.89959
vn -0.42852 0.13496 0.89339
vn 0.01536 0.36174 0.93215
vn 0.02005 0.33456 0.94216
vn 0.60811 0.28729 0.74004
vn 0.02484 0.30642 0.95157
vn -0.44521 0.12283 0.88696
vn 0.79997 0.25780 0.54184
vn 0.72634 0.31780 0.60945
vn -0.67576 -0.04394 0.73581
vn -0.65924 -0.03201 0.75125
vn 0.86272 0.19429 0.46686
vn -0.64230 -0.02006 0.76619
# 30 normal vertices

g obj1
usemtl mat1
f 12/1/12 7/2/7 3/3/3 11/4/11
f 12/1/12 11/4/11 6/5/6 9/6/9
f 10/7/10 1/8/1 7/2/7 12/1/12
f 10/7/10 12/1/12 9/6/9 5/9/5
f 15/10/15 9/6/9 6/5/6 14/11/14
f 15/10/15 14/11/14 4/12/4 8/13/8
f 13/14/13 5/9/5 9/6/9 15/10/15
f 13/14/13 15/10/15 8/13/8 2/15/2
f 8/16/25 17/17/17 16/18/16 2/15/26
f 1/8/27 18/19/18 19/20/19 7/21/28
f 17/17/17 21/22/21 20/23/20 16/18/16
f 17/17/17 22/24/22 23/25/23 21/22/21
f 21/22/21 19/20/19 18/19/18 20/23/20
f 8/16/25 4/12/29 22/24/22 17/17/17
f 19/20/19 24/26/24 3/3/30 7/21/28
f 19/20/19 21/22/21 23/25/23 24/26/24
# 16 elements

