# 3ds Max Wavefront OBJ Exporter v0.97b - (c)2007 guruware
# File Created: 03.05.2019 17:42:00

mtllib wall_torch_empty.mtl

#
# object Cone001
#

v  -32.5000 417.2557 -505.1397
v  -32.5000 417.2557 -515.1397
v  32.5000 417.2557 -515.1397
v  32.5000 417.2557 -505.1397
v  -32.5000 737.2557 -505.1397
v  32.5000 737.2557 -505.1397
v  32.5000 737.2557 -515.1397
v  -32.5000 737.2557 -515.1397
v  -0.0001 673.5967 -386.7172
v  -0.0001 700.7859 -374.0386
v  24.2487 694.8693 -361.3503
v  24.2487 667.6800 -374.0289
v  -0.0001 698.6728 -369.5071
v  19.9185 693.8127 -359.0845
v  -0.0001 671.4835 -382.1856
v  19.9185 666.6234 -371.7631
v  24.2487 683.0359 -335.9737
v  24.2487 655.8467 -348.6523
v  19.9185 684.0925 -338.2395
v  19.9185 656.9032 -350.9180
v  -0.0001 677.1193 -323.2854
v  -0.0001 649.9300 -335.9639
v  -0.0001 679.2324 -327.8169
v  -0.0001 652.0431 -340.4955
v  -24.2488 683.0359 -335.9737
v  -24.2488 655.8467 -348.6523
v  -19.9186 684.0925 -338.2395
v  -19.9186 656.9032 -350.9180
v  -24.2488 694.8693 -361.3503
v  -24.2488 667.6800 -374.0289
v  -19.9186 693.8127 -359.0845
v  -19.9186 666.6234 -371.7631
v  -0.0001 582.5818 -423.6412
v  -0.0001 609.7711 -410.9626
v  19.9185 604.9109 -400.5401
v  19.9185 577.7217 -413.2187
v  -0.0001 607.6580 -406.4311
v  15.5884 603.8544 -398.2744
v  -0.0001 580.4688 -419.1097
v  15.5884 576.6652 -410.9529
v  19.9185 595.1907 -379.6950
v  19.9185 568.0015 -392.3736
v  15.5884 596.2473 -381.9608
v  15.5884 569.0580 -394.6393
v  -0.0001 590.3306 -369.2725
v  -0.0001 563.1414 -381.9510
v  -0.0001 592.4437 -373.8040
v  -0.0001 565.2545 -386.4826
v  -19.9186 595.1907 -379.6950
v  -19.9186 568.0015 -392.3736
v  -15.5885 596.2473 -381.9608
v  -15.5885 569.0580 -394.6393
v  -19.9186 604.9109 -400.5401
v  -19.9186 577.7217 -413.2187
v  -15.5885 603.8544 -398.2744
v  -15.5885 576.6652 -410.9529
v  -0.0001 490.3351 -464.4499
v  -0.0001 517.5243 -451.7713
v  18.1865 513.0868 -442.2551
v  18.1865 485.8976 -454.9337
v  -0.0001 515.4112 -447.2398
v  13.8563 512.0303 -439.9893
v  -0.0001 488.2220 -459.9184
v  13.8563 484.8410 -452.6679
v  18.1865 504.2118 -423.2227
v  18.1865 477.0226 -435.9012
v  13.8563 505.2684 -425.4884
v  13.8563 478.0792 -438.1670
v  -0.0001 499.7744 -413.7064
v  -0.0001 472.5851 -426.3850
v  -0.0001 501.8874 -418.2379
v  -0.0001 474.6982 -430.9165
v  -18.1866 504.2118 -423.2227
v  -18.1866 477.0226 -435.9012
v  -13.8565 505.2684 -425.4884
v  -13.8565 478.0792 -438.1670
v  -18.1866 513.0868 -442.2551
v  -18.1866 485.8976 -454.9337
v  -13.8565 512.0303 -439.9893
v  -13.8565 484.8410 -452.6679
v  -0.0001 413.3757 -495.9231
v  -0.0001 440.5650 -483.2445
v  14.7224 436.9727 -475.5409
v  14.7224 409.7835 -488.2195
v  -0.0001 438.4519 -478.7130
v  10.3922 435.9162 -473.2751
v  -0.0001 411.2626 -491.3915
v  10.3922 408.7269 -485.9537
v  14.7224 429.7882 -460.1337
v  14.7224 402.5990 -472.8122
v  10.3922 430.8447 -462.3994
v  10.3922 403.6555 -475.0780
v  -0.0001 426.1959 -452.4301
v  -0.0001 399.0067 -465.1086
v  -0.0001 428.3090 -456.9616
v  -0.0001 401.1198 -469.6401
v  -14.7225 429.7882 -460.1337
v  -14.7225 402.5990 -472.8122
v  -10.3924 430.8447 -462.3994
v  -10.3924 403.6555 -475.0780
v  -14.7225 436.9727 -475.5409
v  -14.7225 409.7835 -488.2195
v  -10.3924 435.9162 -473.2751
v  -10.3924 408.7269 -485.9537
v  -12.0000 652.3823 -480.5943
v  -12.0000 664.9085 -494.9763
v  -12.0000 661.0612 -502.7266
v  -12.0000 646.0958 -485.5441
v  12.0000 661.0612 -502.7266
v  12.0000 646.0958 -485.5441
v  12.0000 664.9085 -494.9763
v  12.0000 652.3823 -480.5943
v  -12.0000 684.8425 -497.1912
v  -12.0000 687.0338 -505.6124
v  12.0000 687.0338 -505.6124
v  12.0000 684.8425 -497.1911
v  -12.0000 701.0526 -482.3320
v  -12.0000 707.5247 -486.8290
v  12.0000 707.5247 -486.8290
v  12.0000 701.0526 -482.3320
v  -12.0000 710.3578 -447.7617
v  -12.0000 718.5812 -445.4987
v  12.0000 718.5812 -445.4987
v  12.0000 710.3578 -447.7617
v  -12.0000 691.4597 -420.2734
v  -12.0000 695.3204 -411.4220
v  12.0000 695.3204 -411.4220
v  12.0000 691.4597 -420.2734
v  -12.0000 652.0839 -414.9612
v  -12.0000 647.4829 -405.5075
v  12.0000 647.4829 -405.5075
v  12.0000 652.0839 -414.9612
v  -12.0000 558.3772 -503.8392
v  -12.0000 553.0305 -496.6756
v  12.0000 553.0305 -496.6756
v  12.0000 558.3772 -503.8392
v  -12.0000 525.2311 -506.1251
v  -12.0000 528.7936 -498.3470
v  12.0000 528.7936 -498.3470
v  12.0000 525.2311 -506.1251
v  -12.0000 511.5983 -486.3042
v  -12.0000 519.8217 -485.3028
v  12.0000 519.8217 -485.3028
v  12.0000 511.5983 -486.3042
v  -12.0000 522.7794 -457.7372
v  -12.0000 527.2636 -466.2892
v  12.0000 527.2636 -466.2892
v  12.0000 522.7794 -457.7372
v  -12.0000 548.6730 -462.3405
v  -12.0000 545.9171 -469.6054
v  12.0000 545.9171 -469.6054
v  12.0000 548.6730 -462.3405
v  -32.5000 413.3756 -495.9230
v  -32.5000 417.2556 -505.1396
v  32.5000 417.2556 -505.1396
v  32.5000 413.3756 -495.9230
v  -32.5000 708.3066 -371.7629
v  32.5000 708.3066 -371.7629
v  32.5000 712.1866 -380.9795
v  -32.5000 712.1866 -380.9795
# 160 vertices

vn -0.5774 -0.5774 0.5773
vn -0.5774 -0.5774 -0.5774
vn 0.5774 -0.5774 -0.5774
vn 0.5774 -0.5774 0.5773
vn -0.5774 0.5774 0.5773
vn 0.5774 0.5774 0.5773
vn 0.5774 0.5774 -0.5774
vn -0.5774 0.5774 -0.5774
vn -0.0000 -0.2180 -0.9760
vn -0.0000 0.8877 -0.4604
vn 0.6862 0.7203 -0.1013
vn 0.6862 -0.3854 -0.6169
vn 0.0000 0.5299 0.8481
vn -0.4717 0.6450 0.6013
vn 0.0000 -0.9903 0.1393
vn -0.4717 -0.8752 -0.1076
vn 0.6862 0.3854 0.6169
vn 0.6862 -0.7203 0.1013
vn -0.4717 0.8752 0.1076
vn -0.4717 -0.6450 -0.6013
vn -0.0000 0.2180 0.9760
vn -0.0000 -0.8877 0.4604
vn 0.0000 0.9903 -0.1393
vn 0.0000 -0.5299 -0.8481
vn -0.6862 0.3854 0.6169
vn -0.6862 -0.7203 0.1013
vn 0.4717 0.8752 0.1076
vn 0.4717 -0.6450 -0.6013
vn -0.6862 0.7203 -0.1013
vn -0.6862 -0.3854 -0.6169
vn 0.4717 0.6450 0.6013
vn 0.4717 -0.8752 -0.1076
vn 0.0000 -0.2180 -0.9760
vn 0.0000 0.8877 -0.4604
vn 0.0000 0.2180 0.9760
vn 0.0000 -0.8877 0.4604
vn -0.5800 0.0761 0.8110
vn -0.7987 0.2792 0.5330
vn -0.6337 -0.3589 -0.6852
vn -0.5748 -0.8147 0.0765
vn 0.6337 -0.3589 -0.6852
vn 0.5748 -0.8147 0.0764
vn 0.7987 0.2792 0.5330
vn 0.5800 0.0762 0.8110
vn -0.8130 -0.1807 0.5535
vn -0.6248 0.2424 -0.7422
vn 0.6248 0.2424 -0.7422
vn 0.8130 -0.1807 0.5535
vn -0.7757 -0.5394 0.3277
vn -0.6492 0.6504 -0.3944
vn 0.6492 0.6504 -0.3944
vn 0.7757 -0.5394 0.3277
vn -0.8147 -0.5716 -0.0979
vn -0.6242 0.7701 0.1312
vn 0.6242 0.7701 0.1312
vn 0.8147 -0.5716 -0.0979
vn -0.8106 -0.3067 -0.4988
vn -0.6251 0.4062 0.6665
vn 0.6251 0.4062 0.6665
vn 0.8106 -0.3067 -0.4988
vn -0.8183 0.1767 -0.5469
vn -0.6218 -0.2481 0.7428
vn 0.6218 -0.2481 0.7428
vn 0.8183 0.1767 -0.5469
vn -0.6383 0.3096 -0.7048
vn -0.7929 -0.2475 0.5569
vn 0.7929 -0.2475 0.5569
vn 0.6383 0.3096 -0.7048
vn -0.6107 -0.3442 -0.7131
vn -0.8373 0.2377 0.4924
vn 0.8373 0.2377 0.4924
vn 0.6107 -0.3442 -0.7131
vn -0.6153 -0.7831 -0.0902
vn -0.8292 0.5553 0.0640
vn 0.8292 0.5553 0.0640
vn 0.6153 -0.7831 -0.0902
vn -0.5884 -0.3953 0.7053
vn -0.8806 0.2317 -0.4133
vn 0.8806 0.2317 -0.4133
vn 0.5884 -0.3953 0.7053
vn -0.5682 0.7157 0.4061
vn -0.5878 0.3993 -0.7036
vn 0.5878 0.3993 -0.7036
vn 0.5682 0.7157 0.4061
vn -0.5774 -0.7561 0.3081
vn -0.5774 -0.3081 -0.7561
vn 0.5774 -0.3081 -0.7561
vn 0.5774 -0.7561 0.3081
vn -0.5773 0.3081 0.7561
vn 0.5773 0.3081 0.7561
vn 0.5774 0.7561 -0.3081
vn -0.5774 0.7561 -0.3081
# 92 vertex normals

vt 0.2043 0.5000 0.0000
vt 0.2043 0.4689 0.0000
vt 0.4066 0.4689 0.0000
vt 0.4066 0.5000 0.0000
vt -0.0000 0.4688 0.0000
vt 0.0000 0.5000 0.0000
vt 1.0000 0.2031 0.0000
vt 1.0000 0.4063 0.0000
vt 0.0000 0.4063 0.0000
vt 0.0000 0.2031 0.0000
vt 1.0000 0.4375 0.0000
vt 1.0000 0.4688 0.0000
vt 0.0000 0.4375 0.0000
vt 1.0000 0.0000 0.0000
vt 0.0000 0.0000 0.0000
vt 0.1016 0.5000 0.0000
vt 0.1016 0.5703 0.0000
vt 0.0000 0.5703 0.0000
vt 0.1484 0.5000 0.0000
vt 0.1484 0.5703 0.0000
vt 0.2500 0.5000 0.0000
vt 0.2500 0.5703 0.0000
vt 0.2969 0.5000 0.0000
vt 0.2969 0.5703 0.0000
vt 0.1016 0.6484 0.0000
vt 0.0000 0.6484 0.0000
vt 0.1484 0.6484 0.0000
vt 0.2500 0.6484 0.0000
vt 0.2969 0.6484 0.0000
vt 0.1016 0.7344 0.0000
vt 0.0000 0.7344 0.0000
vt 0.1484 0.7344 0.0000
vt 0.2500 0.7344 0.0000
vt 0.2969 0.7344 0.0000
vt 0.1016 0.8203 0.0000
vt 0.0000 0.8203 0.0000
vt 0.1484 0.8203 0.0000
vt 0.2500 0.8203 0.0000
vt 0.2969 0.8203 0.0000
vt 0.1016 0.9063 0.0000
vt 0.0000 0.9063 0.0000
vt 0.1484 0.9063 0.0000
vt 0.2500 0.9063 0.0000
vt 0.2969 0.9063 0.0000
vt 0.1016 1.0000 0.0000
vt 0.0000 1.0000 0.0000
vt 0.1484 1.0000 0.0000
vt 0.2500 1.0000 0.0000
vt 0.2969 1.0000 0.0000
vt -0.0000 0.5000 0.0000
vt 0.1016 0.5859 0.0000
vt -0.0000 0.5859 0.0000
vt 0.1484 0.5859 0.0000
vt 0.2500 0.5859 0.0000
vt 0.2969 0.5859 0.0000
vt 0.1016 0.6719 0.0000
vt -0.0000 0.6719 0.0000
vt 0.1484 0.6719 0.0000
vt 0.2500 0.6719 0.0000
vt 0.2969 0.6719 0.0000
vt 0.1016 0.7500 0.0000
vt -0.0000 0.7500 0.0000
vt 0.1484 0.7500 0.0000
vt 0.2500 0.7500 0.0000
vt 0.2969 0.7500 0.0000
vt 0.1016 0.8359 0.0000
vt -0.0000 0.8359 0.0000
vt 0.1484 0.8359 0.0000
vt 0.2500 0.8359 0.0000
vt 0.2969 0.8359 0.0000
vt 0.1016 0.9219 0.0000
vt -0.0000 0.9219 0.0000
vt 0.1484 0.9219 0.0000
vt 0.2500 0.9219 0.0000
vt 0.2969 0.9219 0.0000
vt -0.0000 1.0000 0.0000
vt 0.6117 0.5518 0.0000
vt 0.5804 0.5205 0.0000
vt 0.5961 0.5049 0.0000
vt 0.6273 0.5439 0.0000
vt 0.2969 0.9610 0.0000
vt 0.3352 0.9610 0.0000
vt 0.3352 1.0000 0.0000
vt 0.9661 1.0000 0.0000
vt 0.9386 1.0000 0.0000
vt 0.9386 0.9612 0.0000
vt 0.9661 0.9612 0.0000
vt 0.5336 0.5205 0.0000
vt 0.5336 0.4971 0.0000
vt 0.3790 0.9610 0.0000
vt 0.3790 1.0000 0.0000
vt 0.9057 1.0000 0.0000
vt 0.9057 0.9612 0.0000
vt 0.5023 0.5518 0.0000
vt 0.4867 0.5361 0.0000
vt 0.4228 0.9610 0.0000
vt 0.4228 1.0000 0.0000
vt 0.8673 1.0000 0.0000
vt 0.8673 0.9612 0.0000
vt 0.4711 0.6299 0.0000
vt 0.4632 0.6377 0.0000
vt 0.4830 0.9610 0.0000
vt 0.4830 1.0000 0.0000
vt 0.8070 1.0000 0.0000
vt 0.8070 0.9612 0.0000
vt 0.5257 0.6924 0.0000
vt 0.5101 0.7158 0.0000
vt 0.5597 0.9610 0.0000
vt 0.5597 1.0000 0.0000
vt 0.7522 1.0000 0.0000
vt 0.7522 0.9612 0.0000
vt 0.6117 0.7080 0.0000
vt 0.6195 0.7314 0.0000
vt 0.6363 0.9610 0.0000
vt 0.6363 1.0000 0.0000
vt 0.6918 1.0000 0.0000
vt 0.6918 0.9612 0.0000
vt 0.8382 0.5049 0.0000
vt 0.8461 0.5205 0.0000
vt 0.8499 0.9610 0.0000
vt 0.8499 1.0000 0.0000
vt 0.4834 1.0000 0.0000
vt 0.4834 0.9612 0.0000
vt 0.9086 0.5049 0.0000
vt 0.9007 0.5205 0.0000
vt 0.8882 0.9610 0.0000
vt 0.8882 1.0000 0.0000
vt 0.4230 1.0000 0.0000
vt 0.4230 0.9612 0.0000
vt 0.9398 0.5439 0.0000
vt 0.9242 0.5518 0.0000
vt 0.9156 0.9610 0.0000
vt 0.9156 1.0000 0.0000
vt 0.3792 1.0000 0.0000
vt 0.3792 0.9612 0.0000
vt 0.9164 0.6143 0.0000
vt 0.9007 0.5908 0.0000
vt 0.9484 0.9610 0.0000
vt 0.9484 1.0000 0.0000
vt 0.3353 1.0000 0.0000
vt 0.3353 0.9612 0.0000
vt 0.8539 0.6064 0.0000
vt 0.8617 0.5830 0.0000
vt 0.9758 0.9610 0.0000
vt 0.9758 1.0000 0.0000
vt 0.2969 0.9612 0.0000
vt 0.9825 0.9612 0.0000
vt 0.9825 1.0000 0.0000
vt 1.0000 0.9609 0.0000
vt 1.0000 1.0000 0.0000
# 150 texture coords

o Cone001
g Cone001
usemtl default
s 2
f 1/1/1 2/2/2 3/3/3 4/4/4 
s 4
f 5/5/5 6/2/6 7/1/7 8/6/8 
s 8
f 1/7/1 4/8/4 6/9/6 5/10/5 
s 16
f 4/11/4 3/12/3 7/5/7 6/13/6 
s 32
f 3/14/3 2/7/2 8/10/8 7/15/7 
s 64
f 2/8/2 1/11/1 5/13/5 8/9/8 
s 2
f 9/6/9 10/16/10 11/17/11 12/18/12 
s 4
f 10/16/10 13/19/13 14/20/14 11/17/11 
s 2
f 13/19/13 15/21/15 16/22/16 14/20/14 
s 4
f 15/21/15 9/23/9 12/24/12 16/22/16 
s 2
f 12/18/12 11/17/11 17/25/17 18/26/18 
s 4
f 11/17/11 14/20/14 19/27/19 17/25/17 
s 2
f 14/20/14 16/22/16 20/28/20 19/27/19 
s 4
f 16/22/16 12/24/12 18/29/18 20/28/20 
s 2
f 18/26/18 17/25/17 21/30/21 22/31/22 
s 4
f 17/25/17 19/27/19 23/32/23 21/30/21 
s 2
f 19/27/19 20/28/20 24/33/24 23/32/23 
s 4
f 20/28/20 18/29/18 22/34/22 24/33/24 
s 2
f 22/31/22 21/30/21 25/35/25 26/36/26 
s 4
f 21/30/21 23/32/23 27/37/27 25/35/25 
s 2
f 23/32/23 24/33/24 28/38/28 27/37/27 
s 4
f 24/33/24 22/34/22 26/39/26 28/38/28 
s 2
f 26/36/26 25/35/25 29/40/29 30/41/30 
s 4
f 25/35/25 27/37/27 31/42/31 29/40/29 
s 2
f 27/37/27 28/38/28 32/43/32 31/42/31 
s 4
f 28/38/28 26/39/26 30/44/30 32/43/32 
s 2
f 30/41/30 29/40/29 10/45/10 9/46/9 
s 4
f 29/40/29 31/42/31 13/47/13 10/45/10 
s 2
f 31/42/31 32/43/32 15/48/15 13/47/13 
s 4
f 32/43/32 30/44/30 9/49/9 15/48/15 
s 2
f 33/50/9 34/16/10 35/51/11 36/52/12 
s 4
f 34/16/10 37/19/13 38/53/14 35/51/11 
s 2
f 37/19/13 39/21/15 40/54/16 38/53/14 
s 4
f 39/21/15 33/23/9 36/55/12 40/54/16 
s 2
f 36/52/12 35/51/11 41/56/17 42/57/18 
s 4
f 35/51/11 38/53/14 43/58/19 41/56/17 
s 2
f 38/53/14 40/54/16 44/59/20 43/58/19 
s 4
f 40/54/16 36/55/12 42/60/18 44/59/20 
s 2
f 42/57/18 41/56/17 45/61/21 46/62/22 
s 4
f 41/56/17 43/58/19 47/63/23 45/61/21 
s 2
f 43/58/19 44/59/20 48/64/24 47/63/23 
s 4
f 44/59/20 42/60/18 46/65/22 48/64/24 
s 2
f 46/62/22 45/61/21 49/66/25 50/67/26 
s 4
f 45/61/21 47/63/23 51/68/27 49/66/25 
s 2
f 47/63/23 48/64/24 52/69/28 51/68/27 
s 4
f 48/64/24 46/65/22 50/70/26 52/69/28 
s 2
f 50/67/26 49/66/25 53/71/29 54/72/30 
s 4
f 49/66/25 51/68/27 55/73/31 53/71/29 
s 2
f 51/68/27 52/69/28 56/74/32 55/73/31 
s 4
f 52/69/28 50/70/26 54/75/30 56/74/32 
s 2
f 54/72/30 53/71/29 34/45/10 33/76/9 
s 4
f 53/71/29 55/73/31 37/47/13 34/45/10 
s 2
f 55/73/31 56/74/32 39/48/15 37/47/13 
s 4
f 56/74/32 54/75/30 33/49/9 39/48/15 
s 2
f 57/50/33 58/16/34 59/51/11 60/52/12 
s 4
f 58/16/34 61/19/13 62/53/14 59/51/11 
s 2
f 61/19/13 63/21/15 64/54/16 62/53/14 
s 4
f 63/21/15 57/23/33 60/55/12 64/54/16 
s 2
f 60/52/12 59/51/11 65/56/17 66/57/18 
s 4
f 59/51/11 62/53/14 67/58/19 65/56/17 
s 2
f 62/53/14 64/54/16 68/59/20 67/58/19 
s 4
f 64/54/16 60/55/12 66/60/18 68/59/20 
s 2
f 66/57/18 65/56/17 69/61/35 70/62/36 
s 4
f 65/56/17 67/58/19 71/63/23 69/61/35 
s 2
f 67/58/19 68/59/20 72/64/24 71/63/23 
s 4
f 68/59/20 66/60/18 70/65/36 72/64/24 
s 2
f 70/62/36 69/61/35 73/66/25 74/67/26 
s 4
f 69/61/35 71/63/23 75/68/27 73/66/25 
s 2
f 71/63/23 72/64/24 76/69/28 75/68/27 
s 4
f 72/64/24 70/65/36 74/70/26 76/69/28 
s 2
f 74/67/26 73/66/25 77/71/29 78/72/30 
s 4
f 73/66/25 75/68/27 79/73/31 77/71/29 
s 2
f 75/68/27 76/69/28 80/74/32 79/73/31 
s 4
f 76/69/28 74/70/26 78/75/30 80/74/32 
s 2
f 78/72/30 77/71/29 58/45/34 57/76/33 
s 4
f 77/71/29 79/73/31 61/47/13 58/45/34 
s 2
f 79/73/31 80/74/32 63/48/15 61/47/13 
s 4
f 80/74/32 78/75/30 57/49/33 63/48/15 
s 2
f 81/6/9 82/16/10 83/17/11 84/18/12 
s 4
f 82/16/10 85/19/13 86/20/14 83/17/11 
s 2
f 85/19/13 87/21/15 88/22/16 86/20/14 
s 4
f 87/21/15 81/23/9 84/24/12 88/22/16 
s 2
f 84/18/12 83/17/11 89/25/17 90/26/18 
s 4
f 83/17/11 86/20/14 91/27/19 89/25/17 
s 2
f 86/20/14 88/22/16 92/28/20 91/27/19 
s 4
f 88/22/16 84/24/12 90/29/18 92/28/20 
s 2
f 90/26/18 89/25/17 93/30/35 94/31/36 
s 4
f 89/25/17 91/27/19 95/32/23 93/30/35 
s 2
f 91/27/19 92/28/20 96/33/24 95/32/23 
s 4
f 92/28/20 90/29/18 94/34/36 96/33/24 
s 2
f 94/31/36 93/30/35 97/35/25 98/36/26 
s 4
f 93/30/35 95/32/23 99/37/27 97/35/25 
s 2
f 95/32/23 96/33/24 100/38/28 99/37/27 
s 4
f 96/33/24 94/34/36 98/39/26 100/38/28 
s 2
f 98/36/26 97/35/25 101/40/29 102/41/30 
s 4
f 97/35/25 99/37/27 103/42/31 101/40/29 
s 2
f 99/37/27 100/38/28 104/43/32 103/42/31 
s 4
f 100/38/28 98/39/26 102/44/30 104/43/32 
s 2
f 102/41/30 101/40/29 82/45/10 81/46/9 
s 4
f 101/40/29 103/42/31 85/47/13 82/45/10 
s 2
f 103/42/31 104/43/32 87/48/15 85/47/13 
s 4
f 104/43/32 102/44/30 81/49/9 87/48/15 
s 1
f 105/77/37 106/78/38 107/79/39 108/80/40 
s 2
f 108/81/40 107/82/39 109/83/41 110/49/42 
s 1
f 110/80/42 109/79/41 111/78/43 112/77/44 
s 2
f 112/84/44 111/85/43 106/86/38 105/87/37 
s 1
f 106/78/38 113/88/45 114/89/46 107/79/39 
s 4
f 107/82/39 114/90/46 115/91/47 109/83/41 
s 1
f 109/79/41 115/89/47 116/88/48 111/78/43 
s 4
f 111/85/43 116/92/48 113/93/45 106/86/38 
s 1
f 113/88/45 117/94/49 118/95/50 114/89/46 
s 2
f 114/90/46 118/96/50 119/97/51 115/91/47 
s 1
f 115/89/47 119/95/51 120/94/52 116/88/48 
s 2
f 116/92/48 120/98/52 117/99/49 113/93/45 
s 1
f 117/94/49 121/100/53 122/101/54 118/95/50 
s 2
f 118/96/50 122/102/54 123/103/55 119/97/51 
s 1
f 119/95/51 123/101/55 124/100/56 120/94/52 
s 2
f 120/98/52 124/104/56 121/105/53 117/99/49 
s 1
f 121/100/53 125/106/57 126/107/58 122/101/54 
s 4
f 122/102/54 126/108/58 127/109/59 123/103/55 
s 1
f 123/101/55 127/107/59 128/106/60 124/100/56 
s 4
f 124/104/56 128/110/60 125/111/57 121/105/53 
s 1
f 125/106/57 129/112/61 130/113/62 126/107/58 
s 2
f 126/108/58 130/114/62 131/115/63 127/109/59 
s 1
f 127/107/59 131/113/63 132/112/64 128/106/60 
s 2
f 128/110/60 132/116/64 129/117/61 125/111/57 
s 1
f 129/112/61 133/118/65 134/119/66 130/113/62 
s 4
f 130/114/62 134/120/66 135/121/67 131/115/63 
s 1
f 131/113/63 135/119/67 136/118/68 132/112/64 
s 4
f 132/116/64 136/122/68 133/123/65 129/117/61 
s 1
f 133/118/65 137/124/69 138/125/70 134/119/66 
s 2
f 134/120/66 138/126/70 139/127/71 135/121/67 
s 1
f 135/119/67 139/125/71 140/124/72 136/118/68 
s 2
f 136/122/68 140/128/72 137/129/69 133/123/65 
s 1
f 137/124/69 141/130/73 142/131/74 138/125/70 
s 4
f 138/126/70 142/132/74 143/133/75 139/127/71 
s 1
f 139/125/71 143/131/75 144/130/76 140/124/72 
s 4
f 140/128/72 144/134/76 141/135/73 137/129/69 
s 1
f 141/130/73 145/136/77 146/137/78 142/131/74 
s 2
f 142/132/74 146/138/78 147/139/79 143/133/75 
s 1
f 143/131/75 147/137/79 148/136/80 144/130/76 
s 2
f 144/134/76 148/140/80 145/141/77 141/135/73 
s 1
f 145/136/77 149/142/81 150/143/82 146/137/78 
s 4
f 146/138/78 150/144/82 151/145/83 147/139/79 
s 1
f 147/137/79 151/143/83 152/142/84 148/136/80 
s 4
f 148/140/80 152/49/84 149/146/81 145/141/77 
f 108/147/40 110/148/42 112/84/44 105/87/37 
s 2
f 151/145/83 150/144/82 149/149/81 152/150/84 
f 153/1/85 154/2/86 155/3/87 156/4/88 
s 4
f 157/5/89 158/2/90 159/1/91 160/6/92 
s 8
f 153/7/85 156/8/88 158/9/90 157/10/89 
s 16
f 156/11/88 155/12/87 159/5/91 158/13/90 
s 32
f 155/14/87 154/7/86 160/10/92 159/15/91 
s 64
f 154/8/86 153/11/85 157/13/89 160/9/92 
# 154 polygons

